<svg version="1.1" xmlns="http://www.w3.org/2000/svg" viewBox="0 0 171.5368515819684 125.28133348762174" width="171.5368515819684" height="125.28133348762174">
  <!-- svg-source:excalidraw -->
  
  <defs>
    <style>
      @font-face {
        font-family: "Virgil";
        src: url("https://excalidraw.com/Virgil.woff2");
      }
      @font-face {
        font-family: "Cascadia";
        src: url("https://excalidraw.com/Cascadia.woff2");
      }
    </style>
  </defs>
  <rect x="0" y="0" width="171.5368515819684" height="125.28133348762174" fill="#ffffff"></rect><g stroke-linecap="round"><g transform="translate(46.71974329574783 11.411459429006527) rotate(0 39.04868249523636 51.22920731480437)" fill-rule="evenodd"><path d="M0 0 C0 0, 0 0, 0 0 M0 0 C0 0, 0 0, 0 0 M-27.73 36.25 C-17.33 25.23, -5.9 15.89, 3.99 -0.45 M-27.78 38.3 C-16.86 23.94, -4.31 11.56, 6.3 -1.11 M-31.07 48.63 C-16.75 30.1, 0.59 8.82, 11.06 -0.04 M-32.61 49.85 C-19.7 36.06, -7.01 21.5, 10.41 -0.47 M-31.83 57.92 C-22.04 43.05, -5.26 26.25, 18.02 -1.34 M-33.72 55.96 C-21.87 44, -10.61 30.98, 17.43 -1.17 M-31.67 62.25 C-10.49 37.85, 12.52 12.99, 22.68 1.06 M-32.28 62.13 C-14.98 41.21, 4.14 21.57, 21.5 -1.03 M-29.47 65.5 C-8.19 42.11, 13.28 15.05, 29.31 -1.59 M-30.5 65.29 C-13.78 45.66, 3.41 25.44, 28.51 -1.96 M-30.4 71.19 C-9.38 45.4, 13.13 20.58, 34.14 -2.08 M-29.31 69.8 C-6.72 43.68, 15.55 17.75, 33.92 -0.67 M-23.9 70.24 C-3.6 46.6, 16.96 19.96, 38.77 0 M-26.09 72.45 C-9.25 53.41, 8.39 33.09, 37.53 -1.3 M-20.87 73.8 C-4.95 52.12, 13.93 29.31, 44.89 -1.65 M-22.4 75.37 C-8.86 58.32, 6.63 41.72, 42.55 -0.13 M-18.22 76.57 C-0.27 55.58, 19.99 35.12, 48.45 -2.97 M-20.33 76.53 C5.88 49.24, 29.74 21.36, 49.11 -0.37 M-16.16 81.08 C3.76 61.86, 17.65 39.52, 55.13 -1.74 M-16.28 80.23 C4.75 54.36, 25.4 32, 54.03 -1.24 M-12.7 83.3 C5.12 61.87, 21.82 42.88, 59.64 -2.49 M-13.26 81.77 C4.61 61.66, 22.38 41.02, 59.56 -0.66 M-12.24 84.16 C16.17 52.6, 41.87 23.61, 63.99 0.75 M-10.05 85.21 C14.08 57.22, 38.61 28.54, 63.89 1.11 M-7.47 86.38 C16.58 60.39, 38.52 35.38, 67.44 1.1 M-6.8 87.32 C16.97 57.78, 42.56 27.57, 66.53 2.26 M-1.9 88.3 C18.39 66.38, 38.54 39.99, 70.07 2.56 M-2.17 89.55 C26.58 53.56, 56.93 21.22, 72.13 2.41 M1.53 91.18 C25.71 63.03, 47.31 35.1, 76.12 3.63 M0.34 90.5 C23 64.51, 46.8 38, 75.28 4.26 M3.27 91.48 C21.85 73.09, 36.83 52.5, 78.8 3.09 M4.61 92.41 C26.87 65.89, 49.26 38.88, 79.55 4.6 M8.56 94.48 C29.96 70.17, 53.29 40.37, 83.78 8.58 M7.6 93.83 C34.17 64.81, 58.21 36.25, 84.42 7.09 M11.52 97.04 C34.17 68.51, 57.75 44.7, 85.18 10.14 M12.84 94.63 C41.01 61.75, 70.88 27.16, 85.53 10.82 M18 96.21 C35.94 74.1, 53.79 51.29, 89.75 12.07 M15.55 97.72 C33.95 76.29, 53.71 53.27, 90.27 12.46 M20.94 100.25 C49.64 67.48, 75.06 35.33, 92.3 16.18 M19.41 100.22 C49.44 66.25, 77.65 33.51, 93.51 14.58 M22.51 101.96 C36.3 83.31, 53.56 66.12, 95.14 17.4 M22.99 102.02 C43.34 77.9, 62.69 56.24, 96.39 17.47 M25.47 101.75 C44.23 83.49, 64.07 59.32, 96.83 22.07 M26.52 102.87 C50.25 76.97, 73.14 50.76, 97.47 20.57 M33.43 103.2 C51.44 81.27, 72.88 57.3, 101.62 25.26 M32.42 103.22 C46.04 87.2, 59.94 70.65, 99.42 23.93 M36.18 106.38 C57.69 82.81, 74.65 59.27, 102.91 26.59 M36.03 103.64 C61.89 76.17, 87.73 45.99, 102.88 29.18 M43.1 104.85 C61.36 79.94, 80.4 56.58, 103.34 33.01 M41.31 105.03 C56.7 89.24, 69.46 73.13, 105.91 32.53 M48.02 104.84 C66.31 81.49, 85.53 60.81, 108.21 36.4 M47.11 103.83 C64.39 84.88, 81.02 64.52, 107.72 35.45 M54.62 102.2 C71.64 80.77, 93.86 58.4, 108.3 37.89 M52.87 104.3 C70.75 85.19, 87.88 64.7, 108.81 39.17 M57.82 103.78 C76.34 84.04, 91.25 66.19, 110.59 43.87 M59.34 103.89 C74.59 85.57, 89.58 67.13, 110.12 43.86 M61.98 105.23 C74.39 90.45, 85.44 81.65, 109.71 49.59 M63.18 102.31 C75.22 89.73, 87.36 75.94, 111.73 48.4 M72.18 100.99 C83.73 87.61, 91.47 75.75, 112.06 54.22 M71.54 99.66 C81.18 88.22, 92.16 78.46, 111.37 54.55 M83.85 91.48 C92.43 83.32, 102.65 70.85, 111.9 59.66 M84.01 92.72 C89.49 86, 96.92 77.64, 113.87 57.94 M96.13 84.35 C101.9 75.98, 109.38 68.44, 114.12 62.59 M95.41 84.39 C100.92 79.59, 105.76 72.94, 116.22 61.3" stroke="#868e96" stroke-width="0.5" fill="none"></path><path d="M0.49 0.68 C-5.16 10.9, -41.59 43.75, -34.79 60.79 C-27.99 77.83, 16.66 101.74, 41.29 102.92 C65.92 104.09, 106.5 84.25, 112.99 67.82 C119.48 51.4, 98.9 15.49, 80.22 4.36 C61.55 -6.76, 14.21 1.97, 0.93 1.06 M-0.71 0 C-6.46 10.39, -42.75 44.59, -35.85 61.9 C-28.96 79.2, 15.73 102.6, 40.65 103.82 C65.57 105.03, 107.25 85.66, 113.67 69.17 C120.09 52.67, 98.27 16.28, 79.19 4.85 C60.11 -6.59, 12.13 1.28, -0.82 0.58" stroke="#000000" stroke-width="1" fill="none"></path></g></g><g stroke-opacity="0.9" fill-opacity="0.9" stroke-linecap="round" transform="translate(52.224589614226375 18.884286198606333) rotate(0 15.472547088736633 15.890717569980353)"><path d="M2.75 5.04 C2.75 5.04, 2.75 5.04, 2.75 5.04 M2.75 5.04 C2.75 5.04, 2.75 5.04, 2.75 5.04 M3.85 13.39 C3.36 5.54, 10.03 4.51, 9.05 3.57 M0.28 13.33 C5.17 9.7, 8.46 4.43, 11.36 1.48 M5.08 19.17 C4.77 13.08, 13.94 6.43, 14.86 3.71 M2.72 16.2 C7.37 10.06, 14.19 5.44, 15.03 0.09 M7.84 20.19 C7.22 13.52, 14.22 11.51, 20.14 1.51 M5.03 23.65 C7.22 15.14, 15.69 10.06, 19.85 1.34 M8.06 28.56 C11.22 20.57, 16.26 13.77, 22.88 4.76 M6.4 28.1 C8.67 20.96, 16.66 15.29, 23.73 4.11 M7.71 28.09 C17.07 23.91, 19.93 12.54, 23.74 4.03 M8.84 29.49 C12.92 24.27, 19.72 17.35, 28.72 7.23 M11.82 33.59 C19.63 23.18, 24.39 15.6, 26.18 9.72 M11.99 30.93 C13.85 24.61, 20.93 21.43, 30.43 12.32 M15.92 36.19 C20.81 24.39, 23.79 17.38, 28.1 19.45 M17.2 34.33 C20.19 27.47, 26.4 21.85, 32.34 15.5 M21.3 33.5 C25.57 26.58, 25.66 23.79, 30.9 21.9 M21.48 31.65 C24.47 28.54, 25.06 28.32, 31.34 21.68 M3.07 25.43 C3.07 25.43, 3.07 25.43, 3.07 25.43 M3.07 25.43 C3.07 25.43, 3.07 25.43, 3.07 25.43 M16.08 29 C9.73 26.2, 10.42 25.48, 4.19 18.33 M15.02 28.2 C9.83 27.96, 8.55 25.66, 2.67 19.79 M20.11 33.48 C10.22 22.2, 9.96 21.28, 5.3 12.54 M19.79 30.86 C15.45 24.9, 8.92 18.79, 0.9 13.66 M21.53 28.15 C24.45 28.36, 17.06 22.64, 1.33 7.07 M26.24 28.59 C18.16 22.6, 12.66 18.9, 2.52 10.4 M29.25 26.96 C19.21 20.72, 15.95 12.9, 1.29 7.07 M26.86 25.34 C22.04 19.19, 18.18 15.31, 2.9 4.18 M35.78 21.16 C22.25 13.89, 18.76 12.52, 11.05 1.6 M33.99 25.2 C24.59 17.18, 16.61 10.98, 6.78 2.3 M28.95 15.78 C26.89 12.67, 19.23 8.01, 14.63 2.98 M32.04 18.97 C22.22 11.89, 15.01 7.58, 12 1.12 M32.48 12.34 C22.91 7, 17.6 0.43, 16.12 -0.93 M29.12 11.35 C26.78 9.22, 23.48 3.05, 16.1 0.45" stroke="#868e96" stroke-width="0.5" fill="none"></path><path d="M24.03 3.01 C26.27 4.54, 27.32 6.7, 28.57 10.27 C29.82 13.85, 32.62 20.97, 31.54 24.47 C30.46 27.97, 25.16 30.26, 22.09 31.28 C19.02 32.3, 16.25 31.56, 13.11 30.61 C9.97 29.66, 5.38 28, 3.24 25.57 C1.11 23.15, 0.33 19.55, 0.3 16.08 C0.26 12.6, 0.71 7.43, 3.02 4.73 C5.33 2.03, 9.77 -0.22, 14.17 -0.1 C18.58 0.01, 26.5 3.45, 29.46 5.42 C32.41 7.38, 32.45 11.5, 31.9 11.69" stroke="#000000" stroke-width="1.5" fill="none" stroke-dasharray="8 9"></path></g><g stroke-opacity="0.9" fill-opacity="0.9" stroke-linecap="round" transform="translate(52.8518612882732 85.37439770377756) rotate(0 8.990808916371378 6.6908234129871005)"><path d="M2.46 0.81 C2.46 0.81, 2.46 0.81, 2.46 0.81 M2.46 0.81 C2.46 0.81, 2.46 0.81, 2.46 0.81 M-1.22 10.09 C4.4 7.09, 7.26 1.39, 8.25 0.65 M1.16 9.91 C2.27 6.41, 6.52 2.79, 8.39 0.22 M3.34 10.39 C6.1 6.01, 12.01 4.05, 10.97 -1.32 M4.06 12.19 C4.92 8.45, 8.63 6.45, 12.36 0.94 M6.92 19.26 C5.29 9.98, 15.35 6.79, 15.89 -0.52 M6.34 17 C8.5 12.54, 11.52 8.61, 15.96 2.89 M13.61 15.81 C12.47 11.51, 18.12 9.24, 18.66 5.14 M11.63 14.14 C15.37 11.8, 17.13 7.35, 18.8 4.2 M3.44 14.33 C3.44 14.33, 3.44 14.33, 3.44 14.33 M3.44 14.33 C3.44 14.33, 3.44 14.33, 3.44 14.33 M8.64 14.37 C4.45 10.42, 6.81 9.92, 0.63 7.15 M9.06 15.14 C5.04 10.18, 0.42 6.69, -1.48 6.57 M15.12 15.2 C7.84 9.66, 5.9 6.09, 4.18 1.15 M12.65 13.47 C11.01 8.59, 6.92 5.93, 0.81 2.39 M14.6 10.67 C14.73 5.91, 8.96 8.36, 3.4 0.96 M16.3 10.01 C13.76 6.39, 9.31 3.69, 4.01 -0.73 M17.16 8.37 C16.92 1.4, 12.69 -0.35, 8.54 -0.14 M19.14 5.99 C15.97 4.16, 15.09 2.97, 11.15 -1.07" stroke="#868e96" stroke-width="0.5" fill="none"></path><path d="M15.69 2.11 C17.45 2.7, 19.26 3.14, 19.38 4.55 C19.51 5.96, 17.79 9, 16.45 10.58 C15.1 12.16, 13.49 13.41, 11.31 14.03 C9.13 14.64, 5.39 15.18, 3.37 14.27 C1.36 13.35, 0.01 9.99, -0.79 8.54 C-1.58 7.08, -2 6.89, -1.41 5.55 C-0.82 4.21, 0.91 1.46, 2.75 0.48 C4.58 -0.49, 6.97 -1.57, 9.62 -0.32 C12.26 0.93, 17.67 5.82, 18.61 7.99 C19.55 10.15, 15.52 12.74, 15.25 12.67" stroke="#000000" stroke-width="1.5" fill="none" stroke-dasharray="8 9"></path></g><g stroke-opacity="0.9" fill-opacity="0.9" stroke-linecap="round" transform="translate(101.36037091288301 60.492887169607116) rotate(0 19.863400950520713 10.454413576815)"><path d="M0.55 5.78 C0.55 5.78, 0.55 5.78, 0.55 5.78 M0.55 5.78 C0.55 5.78, 0.55 5.78, 0.55 5.78 M0.39 11.8 C2.66 5.92, 7.47 5.54, 12.09 -0.98 M0.47 10.13 C5.39 9.34, 7.32 4.38, 9.39 -0.99 M4.93 18.48 C7.2 11.49, 11.07 8.89, 13.17 1.37 M4.17 16.2 C4.28 12.88, 8.64 11.7, 13.05 3.25 M4.94 15.75 C7.46 13.35, 14.7 8.81, 23.33 -3.74 M6.49 16.28 C10.85 12.9, 13.23 9.04, 22.56 -1.63 M11.98 19.25 C11.31 16.89, 16.2 11.32, 27.96 -0.6 M10 21.79 C16.09 13.01, 18 10.66, 28.04 -1.28 M14.62 20.5 C20.33 16.79, 27.52 7.77, 29.78 0.88 M12.94 20.53 C18.56 13.02, 28.06 3.77, 29.15 2.69 M20.45 26.08 C22.23 17.49, 28.08 13.3, 31.67 0.77 M16.55 23.59 C22.06 14.19, 29.85 8.3, 35.79 2.99 M22.02 18.76 C25.22 19.19, 29.76 11.72, 42.7 8.23 M21.62 22.43 C29.7 16.48, 34.67 11.56, 38.82 4.37 M32.62 16.49 C33.79 13.72, 37.86 13.16, 37.75 9.4 M32.79 17.47 C33.07 15.24, 35.66 13.38, 39.27 8.47 M0.76 14.37 C0.76 14.37, 0.76 14.37, 0.76 14.37 M0.76 14.37 C0.76 14.37, 0.76 14.37, 0.76 14.37 M11.45 17.97 C9.09 13.58, 5.67 12.94, 1.45 8.74 M12.52 19.4 C8.33 15.93, 6.14 14.07, -0.94 8.84 M20.33 23.82 C15.2 16.32, 15.89 15.59, 0.61 5.32 M19.6 19.45 C14.7 17.57, 9.74 11.99, 3.04 5.81 M28.36 18.68 C17.49 10.54, 7.48 2.8, 8.37 -0.31 M24.78 21.44 C17.89 11.19, 9.35 4.78, 5.78 1.56 M26.39 17.44 C25.44 15.62, 16.45 8.28, 12.56 0.62 M31.26 16.88 C27.08 15.55, 21.97 9.38, 10.99 -1.12 M31.95 14.55 C22.98 12.37, 17.33 1.91, 16.16 -5.03 M33.99 18.78 C29.34 13.12, 20.11 3.94, 13.92 -2.21 M32.52 16.42 C32.71 3.66, 25.65 -0.14, 21.52 -3.72 M37.92 14.73 C27.73 6.92, 21.94 4.2, 17.4 -1.56 M41.99 8.35 C38.71 5.44, 30.51 5.84, 23.19 -1.4 M39.12 12.21 C33.09 5.45, 29.62 2.1, 23.43 -4.73 M40.22 7.22 C37.47 3.05, 34.44 2.11, 30.08 -2.55 M41.94 7.42 C40.08 5.17, 37.9 3.61, 31.23 -0.83" stroke="#868e96" stroke-width="0.5" fill="none"></path><path d="M22.16 -1.01 C26.28 -1.1, 34.49 1.55, 37.34 3.24 C40.18 4.92, 39.84 6.69, 39.23 9.08 C38.61 11.48, 36.38 15.41, 33.66 17.62 C30.94 19.83, 26.81 21.96, 22.89 22.35 C18.97 22.74, 13.84 21.28, 10.15 19.95 C6.45 18.61, 2.29 16.72, 0.71 14.33 C-0.86 11.94, -1 7.97, 0.69 5.62 C2.38 3.27, 6.65 1.36, 10.85 0.21 C15.05 -0.93, 23.01 -1.57, 25.89 -1.25 C28.77 -0.94, 28.49 1.75, 28.14 2.1" stroke="#000000" stroke-width="1.5" fill="none" stroke-dasharray="8 9"></path></g></svg>