<svg width="150" height="150" viewBox="0 0 150 150" fill="none" xmlns="http://www.w3.org/2000/svg">
<g clip-path="url(#clip0_5_27)">
<path d="M150 0H0V150H150V0Z" fill="white"/>
<path d="M19.8848 38.9048C26.1407 29.4522 32.7732 20.8758 39.3864 7.6026M19.8694 40.0056C26.6018 28.2926 33.9375 17.6591 40.2741 7.24993M11.7921 56.4154C22.8052 37.8949 34.9596 17.7392 42.1032 7.82703M11.2042 57.0673C20.1192 43.1689 29.065 28.8804 41.8496 7.59191M8.47585 66.2154C16.5762 51.2109 27.5317 35.0254 44.7777 7.12703M7.75342 65.1681C16.1843 52.7391 24.2001 39.8827 44.5471 7.21787M8.03778 69.336C23.3855 45.2742 39.2673 20.7209 46.8182 8.00336M7.80338 69.2772C20.6226 48.7582 33.9375 28.7148 46.3686 6.88657M7.11554 73.894C22.5286 49.6666 38.2336 23.2804 49.3697 6.59268M6.72358 73.7818C19.0432 53.8773 31.4013 33.8712 49.0623 6.39497M4.23737 80.9688C19.4659 55.2345 35.4246 30.2804 51.2257 6.33085M4.65622 80.2314C21.4334 53.4872 37.8493 27.0636 51.1412 7.07894M5.47471 82.481C21.1529 57.0887 37.1269 29.9438 53.0011 7.4423M4.63701 83.6566C17.2794 63.549 30.237 42.8109 52.5246 6.74764M6.13565 85.1902C19.147 62.6086 33.4226 39.1934 55.6064 6.15451M5.54772 86.0238C15.8922 68.6146 27.2013 51.1681 54.7072 6.97207M5.84361 88.7222C20.0154 66.0872 34.8751 43.6659 56.9936 5.54535M5.12118 88.7008C24.3154 59.488 42.5989 30.0399 57.2165 6.78505M6.17024 91.8214C20.4919 71.1261 32.5618 48.8223 59.7334 5.75909M6.12797 91.4207C22.0713 65.0131 37.8455 40.433 59.3607 5.99421M7.22698 93.4298C20.7071 72.12 33.5763 51.633 61.7393 5.02704M7.03484 92.7192C20.6879 71.1849 34.0758 49.6826 61.7124 5.882M7.28078 94.4184C28.0044 61.3475 48.0863 29.4896 63.9104 5.81253M8.00704 94.9046C26.4673 65.2215 45.2849 34.9025 63.8759 5.97283M8.55655 96.3901C26.6979 68.5024 44.0284 40.8819 65.5359 5.65222M8.77558 96.8176C27.4011 65.4246 46.8989 33.8819 65.2323 6.18657M10.0821 98.223C26.2944 73.0337 42.4798 45.6804 67.146 5.59879M9.99371 98.784C32.6617 61.0322 55.86 25.0865 67.8185 5.52932M11.1619 100.077C30.2447 69.5872 48.263 39.3643 70.0895 5.03238M10.7776 99.7726C28.7883 71.0833 47.0948 42.1911 69.8166 5.31024M11.4462 101.183C25.3914 79.8841 38.3143 57.7086 71.5151 4.41788M11.8766 101.595C29.6913 72.0184 47.7635 42.5544 71.7572 5.0965M13.1217 103.091C31.4628 74.4818 50.219 43.1636 74.059 5.88734M12.8181 102.802C33.6723 70.1589 53.5506 37.9643 74.2665 5.22474M13.8479 105.127C32.2505 74.1986 51.0759 45.5414 75.4616 5.61482M14.2668 104.063C38.4065 65.3124 63.042 25.8025 75.573 5.91406M15.8922 105.346C31.7548 78.9276 47.9057 52.1032 78.1207 5.0965M15.1237 106.003C31.1131 80.0818 47.6367 53.5193 78.2859 5.26749M16.5685 108.092C41.4922 68.5131 65.2631 29.2277 79.8922 5.93543M16.0882 108.082C42.0225 67.3375 67.1575 27.0048 80.2688 5.24078M17.5254 108.696C30.7096 86.4352 45.0198 64.6925 82.0056 5.11788M17.6752 108.723C35.5476 79.6329 53.1432 51.7452 82.3938 5.14994M18.267 109.535C35.5553 83.6085 53.2431 54.7376 83.7156 5.86596M18.5898 110.011C39.7438 76.5818 60.8978 42.7949 83.9116 5.22474M20.3382 111.405C39.0636 80.4772 59.1609 48.6246 86.125 6.37894M20.0308 111.411C33.1344 89.8818 46.5722 68.1444 85.4487 5.81253M21.0145 113.676C41.2885 81.5726 60.0562 49.8429 87.712 5.70032M20.9684 112.517C46.4416 72.7184 72.1684 31.3812 87.7043 6.80108M22.8129 114.195C43.3521 79.3925 64.1372 45.5361 89.0416 7.18046M22.2711 114.269C37.3191 91.4367 51.341 68.4062 89.8217 6.98276M23.7544 115.755C44.428 82.0909 65.4014 49.1376 91.7161 7.37817M23.4815 115.333C42.8717 85.094 61.8354 54.2406 91.5663 6.97741M25.399 115.91C49.2083 77.1749 74.7353 37.6758 93.1494 6.46444M24.8726 116.781C46.1495 83.71 67.146 49.7948 93.2993 6.99344M25.8832 118.042C48.5397 82.3688 70.4315 47.0536 95.9392 6.30413M26.3328 118.085C47.2447 84.3886 68.1566 50.4468 95.797 6.30413M27.0514 119.485C42.5336 94.2688 57.4586 71.9971 97.2842 6.83848M27.4088 118.282C45.0198 91.1589 62.2004 63.7414 97.8798 6.35222M28.7844 120.548C46.9373 91.7199 63.7068 63.6826 99.3323 7.33008M28.5962 120.003C45.4771 93.3764 62.7038 66.9902 99.1287 7.46367M30.2331 120.596C53.0664 85.4734 76.1532 48.2506 100.643 8.14764M30.2793 121.098C44.9429 98.0039 60.2407 73.6055 101.219 7.44764M31.6665 121.927C57.6622 80.6268 83.8924 39.0972 102.514 8.15832M31.4551 121.943C50.0998 92.126 68.783 61.8017 103.129 7.62932M33.2996 124.289C48.6127 96.5825 64.7366 70.6078 104.535 8.99191M32.7693 123.637C58.1349 83.3894 83.2084 43.2491 104.751 8.22245M34.706 125.16C52.3901 95.4764 70.32 65.4673 106.261 8.81557M33.9759 124.278C52.1941 96.2886 70.443 67.4818 106.303 9.85756M36.0779 126.047C61.9891 83.523 89.007 41.7529 108.22 10.2369M35.8819 125.715C52.0865 98.3191 68.7522 71.0833 107.986 10.2209M36.7158 125.801C55.5526 97.01 73.4096 67.9253 109.673 10.4026M36.904 126.159C55.5411 97.8649 74.3664 68.1765 108.993 10.8514M38.7063 128.147C54.5881 101.541 71.273 76.7528 110.176 12.5988M38.5987 127.329C66.6272 82.4596 94.6865 37.2857 110.661 12.5293M39.7668 128.563C54.2576 104.293 68.4986 80.4131 111.61 13.4751M40.0358 128.713C56.5248 102.081 73.79 74.5299 112.155 12.7751M41.8188 129.466C57.1127 105.132 71.7495 80.4612 113.735 13.8331M41.2693 129.44C68.7907 85.9489 95.8316 42.8697 113.439 13.395M42.6642 130.343C66.5158 94.0443 89.5757 56.688 114.991 15.2011M42.9371 130.621C67.4841 91.923 91.5163 53.1238 114.976 15.1262M44.5548 131.588C70.5775 87.4077 97.9912 45.2368 115.694 16.8201M43.9054 131.572C64.7481 97.7474 85.8176 63.6719 116.113 16.2911M45.8959 132.742C67.3535 96.0482 90.4865 59.8353 117.166 17.8888M45.5539 132.143C73.8361 86.8092 102.675 41.3254 117.189 17.1514M47.4637 133.111C67.8761 99.2596 89.3106 66.1994 118.715 18.2148M47.0526 133.811C68.2527 99.4466 89.8025 65.9215 118.673 18.1827M48.7549 134.815C66.5811 105.244 84.7263 76.0207 119.641 20.0476M48.5128 134.724C65.9125 106.345 84.269 77.6932 119.768 19.9194M49.5811 135.339C77.5481 91.8108 104.274 47.417 120.582 20.614M49.7463 135.622C68.9098 104.966 88.0425 74.5459 121.312 21.2659M51.3064 136.68C74.155 100.67 96.2236 64.933 121.751 22.4896M51.3333 136.135C65.8318 110.775 81.4946 86.7291 122.377 23.0186M52.782 137.829C79.7807 93.1146 106.545 49.5651 122.784 25.2842M52.9703 137.444C76.7719 99.1741 100.743 61.1498 123.411 24.4774M54.2461 138.305C71.8802 110.011 88.1463 83.2024 124.168 26.2888M54.2845 137.759C68.6562 114.74 82.705 92.3985 124.26 26.2247M55.7678 138.732C75.8458 107.018 95.0324 76.0474 125.536 27.6247M55.6948 139.069C82.4975 95.6955 109.308 52.7872 125.232 27.5178M57.9043 139.101C75.4154 109.717 94.3445 81.1345 126.892 29.1262M57.716 138.908C73.5633 114.296 89.7294 88.9734 126.623 29.4842M59.157 140.602C84.4573 98.1161 111.137 58.0612 127.972 30.227M59.1071 140.057C82.217 104.421 104.516 68.4062 127.311 30.4621M60.4098 140.442C75.5999 118.924 88.8533 96.5558 128.114 31.7926M61.1206 140.533C79.8883 109.305 99.5437 78.3505 128.295 32.4926M62.7307 141.286C76.6951 118.352 91.547 94.4611 129.075 34.785M62.3695 140.944C77.4597 118.042 92.1965 95.0169 129.321 34.1758M64.7635 141.014C87.8773 103.684 112.036 67.6635 131.092 35.3941M64.4907 141.869C82.29 112.49 100.235 83.4375 130.439 35.5437M65.559 141.799C84.5188 113.575 102.552 84.223 131.918 37.8575M66.0316 142.483C88.9417 105.036 112.194 68.1551 131.515 37.4621M68.122 143.183C92.8382 102.562 118.227 61.4864 132.433 39.1934M67.5456 142.948C84.9568 114.969 102.218 86.7184 132.429 39.5246M68.783 142.643C87.1702 115.247 104.774 88.1398 133.044 40.7964M69.075 143.05C93.7489 104.464 118.261 65.5849 132.929 40.6682M70.589 144.07C89.1761 114.74 106.13 85.281 134.378 43.6231M71.0386 143.771C85.9137 118.779 101.215 95.0062 134.066 42.5491M72.8716 144.209C88.519 119.324 102.629 96.6092 134.335 44.8895M72.5104 143.782C96.7347 104.908 120.921 66.3383 135.069 44.6117M75.2733 144.081C97.7376 107.953 120.544 71.7459 135.846 47.604M74.474 144.824C97.7491 108.75 120.233 72.5581 135.519 47.1712M76.1494 145.385C90.9092 121.382 106.314 97.726 136.326 48.7796M76.5144 145.123C100.293 106.564 124.479 68.7963 136.614 48.4055M78.0477 145.967C95.213 116.856 113.012 89.2459 138.044 50.8529M78.1437 145.459C95.9239 116.166 114.941 86.3657 137.686 50.1261M80.2303 146.245C97.703 117.192 116.136 87.1833 138.485 53.4284M80.434 145.545C95.9085 119.565 112.209 93.9001 138.478 52.2903M82.3361 145.63C96.7885 121.002 111.456 97.9558 139.269 54.5078M82.4207 144.93C99.6782 116.102 118.081 87.381 138.532 54.7536M84.8684 144.845C99.878 119.992 114.884 96.1817 140.072 56.9872M84.2421 144.963C96.5195 125.325 109.3 104.624 139.312 57.4788M87.347 144.172C106.265 114.163 124.248 85.2009 140.872 59.4719M87.1203 144.337C104.351 116.305 122.423 87.9153 140.057 59.0818M89.4797 143.851C105.062 116.909 121.562 91.3619 140.733 61.2353M89.2914 143.685C105.876 117.62 122.235 89.9726 140.979 61.1231M91.6008 142.168C104.562 122.178 117.028 102.904 141.171 62.3574M91.5701 143.034C105.773 119.511 120.686 96.171 142.075 63.2605M93.9218 142.675C105.073 125.117 114.53 109.813 142.735 65.3444M94.8325 142.312C111.402 114.526 128.675 88.3161 142.37 65.2589M97.0459 142.521C111.963 117.337 127.603 94.194 142.428 66.6482M97.0267 141.281C107.244 125.491 118.277 107.905 142.808 67.904M99.9164 140.661C113.27 117.689 128.664 94.3863 143.938 69.491M99.7896 139.924C114.668 116.85 129.105 92.8367 143.669 69.8917M103.229 139.507C114.615 119.319 127.822 98.3031 144.618 72.0452M102.38 139.069C117.789 114.847 132.053 91.4047 144.023 72.6436M105.623 136.557C114.346 123.311 124.36 108.686 145.226 74.2787M105.661 136.947C116.49 119.709 127.307 102.364 145.049 74.3963M108.328 136.856C116.782 121.478 125.405 108.696 145.644 77.3139M108.071 137.423C122.757 113.65 138.362 89.4169 145.133 76.6245M111.583 135.355C117.554 123.108 124.713 110.78 145.164 80.2528M111.356 135.125C124.79 114.066 138.263 92.468 145.272 79.852M114.503 132.758C124.671 116.669 134.27 103.043 145.825 83.2986M114.845 132.475C121.874 119.976 130.327 107.099 145.648 83.1169M118.63 131.262C125.171 120.543 130.658 110.069 146.351 85.2329M118.357 130.653C124.333 120.981 130.189 110.935 146.19 85.8154M122.365 126.966C127.472 119.207 132.51 110.037 147.032 88.9253M121.735 127.447C129.766 114.836 137.851 101.691 146.252 88.5085M127.403 121.798C133.056 112.768 139.312 103.096 145.959 93.3924M127.591 122.349C130.835 116.364 135.138 110.716 145.936 92.484M135.454 112.597C136.81 109.268 139.78 107.157 143.861 98.7146M134.7 113.158C137.99 107.542 141.971 102.097 144.18 98.9443" stroke="#868E96" stroke-width="0.5" stroke-linecap="round"/>
<path d="M38.1721 7.99801C32.7424 21.5277 -1.40371 65.836 5.07506 88.5192C11.55 111.208 53.7581 142.74 77.0409 144.124C100.328 145.502 138.678 118.619 144.78 96.8069C150.886 74.9948 131.407 28.0201 113.669 13.256C95.9277 -1.51341 50.9221 9.2377 38.3412 8.20106M37.711 7.63465C32.2428 21.2552 -1.84946 66.2849 4.66773 89.1123C11.1811 111.94 53.4007 143.199 76.795 144.604C100.193 146.004 138.962 119.373 145.045 97.5283C151.124 75.6787 131.169 28.4422 113.274 13.5125C95.3782 -1.41723 50.119 8.869 37.6687 7.94458" stroke="black" stroke-linecap="round"/>
<path d="M43.0789 31.3125C47.0676 29.0896 48.1282 25.9316 52.0862 21.785M44.4469 33.4125C47.3443 27.898 49.2157 24.9698 52.3091 20.4331M43.4363 36.4422C49.5769 28.2934 52.3398 22.7629 57.1624 18.5629M43.9666 35.3361C47.1368 32.1514 49.0581 26.7438 55.5984 17.4995M43.59 37.6392C48.0283 33.4339 51.6443 26.0224 58.2037 14.5286M43.4747 38.569C49.2464 31.2163 52.9047 23.4522 57.9578 16.7301M44.8466 41.9834C49.4463 33.4766 53.0891 26.8346 58.9646 18.098M43.9128 41.9407C48.1628 36.3567 50.3916 31.2858 60.371 17.0881M44.9465 47.1827C49.8843 35.1919 56.2324 22.7896 60.59 17.0026M44.151 46.0338C51.2869 34.8659 57.9655 24.3392 61.2395 18.0286M45.8264 46.7018C50.0918 38.4728 52.847 32.2423 61.2318 21.1385M44.4431 46.6964C52.774 36.0522 59.5179 25.8888 63.2146 19.7278M45.7803 48.4224C50.7259 38.1468 57.0394 31.7453 64.8016 19.0759M45.7265 49.6033C51.4175 40.4499 57.3968 31.2591 63.7526 19.3324M47.7132 49.0475C52.9508 38.4621 59.5371 31.1842 64.1714 21.9347M47.4135 50.175C52.0055 43.4636 57.4928 35.1064 65.4779 20.8018M48.7354 51.933C54.3495 42.3147 61.0588 32.9316 68.383 24.1843M48.7623 51.5697C53.0891 44.4842 56.6667 38.2483 66.7691 22.5598M48.6777 53.9315C56.6167 45.2644 62.8572 33.9629 66.8844 22.6774M48.4356 54.904C54.1266 47.1987 59.8522 38.9323 68.5367 23.9171M48.647 55.0857C57.4698 47.2468 63.6949 34.6842 69.286 24.0453M50.2302 56.272C54.9989 47.7224 59.2797 40.0117 68.114 25.1247M53.1391 58.6712C58.5611 47.53 63.741 35.0636 69.605 29.5758M51.6443 56.6086C56.5206 49.3788 60.909 40.9201 69.1323 27.3743M51.9747 57.2765C56.5936 49.1972 60.3364 46.146 69.4013 27.4972M52.9469 56.4483C57.7196 50.6559 61.3778 44.7247 71.0767 28.4804M54.3995 56.475C61.1703 52.0078 66.2849 41.4544 71.1728 30.9919M54.6761 57.362C58.7263 49.1651 64.1753 41.9621 71.4303 31.1308M57.1662 58.4895C59.5756 53.8567 64.2022 50.0682 72.5831 34.0644M55.9404 58.559C60.1328 52.0773 65.6585 44.0834 72.4409 34.1606M57.9386 59.5635C61.52 52.0292 66.0428 46.4934 71.6109 36.9552M58.8724 59.8254C64.3443 49.3308 69.2745 42.6354 71.9336 36.8056M60.7437 58.4681C64.1868 56.1971 65.4703 50.2605 73.8435 39.8247M59.7485 59.4674C62.2078 56.8223 64.3674 51.1262 72.4255 39.9903M63.7295 59.2109C64.9899 51.6071 70.6925 48.8605 71.803 44.559M63.1262 58.2811C66.6461 54.3002 69.4897 46.7231 72.2257 41.9086M66.7422 56.0315C67.822 53.9101 69.824 48.3048 74.2162 47.0544M65.8776 57.5437C69.0785 53.1353 72.0336 47.4178 73.44 46.5147M52.847 57.9445C51.3369 56.7956 48.0859 52.4353 46.0916 46.5361M52.9393 56.1651C51.3023 54.3323 48.2819 51.0514 44.5968 46.8514M54.9221 56.63C52.2514 55.043 51.9209 52.6277 45.2231 45.9376M55.6599 58.1636C53.8384 54.2307 50.9257 50.5918 45.1847 45.414M57.8041 60.4452C54.8222 56.1597 54.0229 54.0758 44.4815 41.4224M58.6764 59.1842C54.0114 51.8422 48.5471 44.7674 44.5622 40.8506M59.4757 55.9353C54.8721 50.6185 51.8518 45.4407 45.0041 39.9155M60.1135 58.4094C54.949 50.4048 47.425 42.3628 44.5853 38.7987M63.1108 56.1223C56.1056 51.0033 52.2514 43.1804 43.5439 37.5109M62.3961 57.4475C58.0923 51.3987 53.7078 47.6582 44.9734 35.0636M64.8938 54.5246C58.7955 51.4682 56.5629 47.5086 44.3432 31.8629M63.4144 56.2399C59.2028 50.314 53.6156 45.3499 43.9282 32.44M66.0082 54.1826C58.98 44.3987 48.9813 36.656 44.9695 31.9697M66.4617 56.5712C60.7514 49.1437 56.5091 44.543 44.2164 30.3507M68.0487 53.3651C60.9897 46.4506 52.751 35.8117 45.4614 29.3194M66.6884 55.4437C58.8839 44.7941 50.9295 33.5354 44.908 28.24M69.067 52.5048C60.0021 45.3659 53.1929 34.9407 47.3481 25.8568M68.1678 52.1842C61.3432 44.8529 52.7471 35.801 46.7948 26.9522M69.6396 50.2231C65.9122 46.8567 58.4766 38.2857 46.1877 23.8957M68.7058 52.0987C64.4904 43.9499 58.4458 39.098 47.5172 25.269M69.0901 51.0353C64.329 42.4163 57.2354 32.8674 48.9352 24.5797M70.9422 50.8483C63.8102 42.9025 58.0231 34.6842 48.4126 23.8476M69.9508 50.2979C64.6979 43.2499 60.9935 34.1926 50.2186 21.0263M71.6762 48.3956C63.4452 40.2415 56.5975 30.7835 48.7584 20.6789M71.3957 46.5361C68.2293 38.414 62.2808 31.8949 50.5798 19.2148M71.73 46.5735C64.6556 37.9117 59.0722 28.7797 50.4261 20.3957M73.098 42.785C64.3597 35.8117 57.3699 25.9369 53.7155 17.585M72.3832 45.2163C68.1332 38.5102 61.6775 31.5316 51.5444 20.4438M71.7607 41.8392C65.086 33.2468 59.5679 27.401 55.1104 16.527M72.9174 41.8712C68.6751 35.5713 62.961 30.4255 53.85 17.5209M72.8674 36.843C67.9949 33.8613 62.5844 26.5888 54.6531 19.3537M71.8837 38.585C66.8536 30.2598 59.9406 23.5324 54.8145 17.2858M73.44 34.743C68.4637 30.4736 66.0697 26.8881 55.829 18.285M72.4255 35.5766C68.2677 32.1247 65.9006 28.1171 56.3208 17.2912M72.3679 32.2797C67.5376 25.3278 63.9293 22.3888 58.8493 15.0041M71.3265 32.0232C67.1495 24.7186 61.3932 20.2514 58.8186 14.8919M71.1267 29.7682C68.7404 26.7224 67.4147 23.9064 61.5853 17.2805M71.5379 29.2606C70.1122 27.1606 67.7682 22.8591 62.5421 17.9057" stroke="#868E96" stroke-opacity="0.9" stroke-width="0.5" stroke-linecap="round"/>
<path d="M66.1466 21.3095C68.333 23.2224 69.9547 26.7224 71.0537 30.7568C72.1527 34.7911 73.4477 41.3583 72.7444 45.5155C72.0374 49.6727 69.1323 53.4292 66.8152 55.6895C64.5019 57.9552 61.7044 59.0399 58.8531 59.0933C55.998 59.1467 52.1592 58.1475 49.7075 55.9994C47.2559 53.8567 45.2116 50.1483 44.1395 46.2315C43.0674 42.3094 42.4564 36.5705 43.271 32.488C44.0857 28.4056 46.5988 24.398 49.0351 21.7209C51.4713 19.0492 54.2995 15.795 57.8809 16.4469C61.4662 17.1041 68.2831 22.9446 70.5464 25.6484C72.8059 28.3522 71.7184 32.4026 71.4533 32.6697" stroke="black" stroke-opacity="0.9" stroke-width="1.5" stroke-linecap="round" stroke-dasharray="8 9"/>
<path d="M43.6167 114.304C46.7754 111.958 48.3817 107.507 48.9389 106.924M44.954 114.16C45.5804 111.424 47.9628 108.602 49.0157 106.598M44.4621 115.891C46.8561 111.199 50.8948 108.196 50.8909 103.51M44.831 117.168C46.0223 113.337 48.666 110.729 51.6057 105.118M46.0799 120.839C46.4142 113.78 51.671 110.355 53.185 103.857M45.8301 119.498C47.5785 115.506 49.6997 111.851 53.2158 105.882M47.4902 121.769C47.6208 116.607 52.1206 113.171 54.2495 106.62M46.2182 120.278C50.0071 115.944 52.4895 109.821 54.3378 105.781M47.7015 122.656C49.4154 119.337 53.308 114.069 57.9384 106.94M47.4633 122.65C50.8525 117.04 53.5808 112.113 56.0171 106.994M48.2011 124.008C48.9312 118.563 53.6193 116.366 58.8453 109.762M48.4508 124.649C52.0053 117.243 55.2063 111.167 57.6003 109.286M51.5519 125.429C53.0505 119.332 57.0585 114.55 60.9165 108.944M50.3607 124.275C53.162 119.156 54.6952 115.677 59.2987 109.767M51.648 124.141C54.5223 120.043 54.7605 120.369 60.4515 112.145M52.4203 123.73C55.1871 119.669 57.0585 116.324 60.7282 111.082M53.8037 125.547C58.4726 117.505 60.3978 114.304 60.3862 113.395M55.1948 123.227C56.2938 120.299 59.0182 118.119 62.2115 112.492M50.0571 124.077C49.2693 121.015 46.9099 117.702 43.659 115.501M49.9495 123.024C50.1762 122.672 48.4047 120.716 44.3276 115.287M54.2994 123.607C50.2108 119.69 48.0012 118.178 43.0288 112.578M53.2427 123.473C50.3568 120.534 48.7544 117.264 43.3747 112.727M54.0535 122.1C52.159 118.071 51.1484 116.276 44.6312 110.35M55.579 121.822C51.1753 117.601 48.6161 114.956 45.4612 110.109M57.6579 122.506C52.7931 116.831 49.0426 113.085 45.4459 108.56M55.7865 120.801C53.5386 117.531 50.1993 114.031 46.3643 109.324M58.6301 121.672C52.5202 115.853 48.4163 112.989 47.2903 107.507M58.4956 120.871C53.2849 115.399 48.9696 109.602 46.883 107.122M59.1604 119.765C57.2391 117.318 54.4954 110.082 48.3279 107.17M58.5533 118.205C56.5013 114.427 53.527 111.803 47.5209 105.252M59.806 116.046C56.3168 111.434 51.6172 108.987 48.1895 103.344M60.025 117.964C57.8885 114.496 53.504 110.056 49.9187 105.947M61.7081 114.379C59.9097 111.488 57.5695 112.359 51.1945 103.141M60.905 115.592C59.3794 112.305 56.3014 110.825 50.9524 104.237M60.2517 111.52C59.537 109.96 56.6972 106.508 55.0603 102.238M62.2038 113.235C59.0874 109.505 55.8595 106.695 53.8498 105.124" stroke="#868E96" stroke-opacity="0.9" stroke-width="0.5" stroke-linecap="round"/>
<path d="M58.438 107.87C59.9021 108.875 61.2201 110.526 61.3853 112.402C61.5506 114.272 60.5476 117.334 59.4256 119.113C58.2997 120.892 56.5282 122.437 54.6453 123.078C52.7624 123.719 49.8957 123.906 48.1242 122.96C46.3566 122.014 44.808 119.193 44.0241 117.408C43.2363 115.618 42.9251 114.047 43.4093 112.236C43.8973 110.424 45.3613 107.731 46.9445 106.545C48.5316 105.359 50.5643 103.782 52.9237 105.113C55.287 106.449 60.1787 111.953 61.1125 114.539C62.0463 117.131 58.7185 120.679 58.5302 120.647" stroke="black" stroke-opacity="0.9" stroke-width="1.5" stroke-linecap="round" stroke-dasharray="8 9"/>
<path d="M89.1063 85.0859C92.1497 83.8996 95.3392 77.8134 96.4881 74.8264M90.532 87.1057C91.2313 84.2416 91.9807 81.1638 96.6457 76.1355M90.7702 88.8263C93.6714 84.9149 96.6111 76.9691 98.4441 72.5607M90.2322 88.2439C93.1104 85.647 94.5053 81.4737 99.8966 74.0569M90.2553 90.8996C95.1278 85.3744 100.246 75.5531 101.226 71.6951M91.8077 89.7882C93.8905 85.9729 97.4104 80.6134 101.372 74.5111M91.8385 92.5935C95.3737 86.7477 99.593 80.6561 103.885 73.2981M93.1642 91.1561C95.562 86.8172 100.292 79.0157 104.335 72.9081M94.0903 94.0416C97.2989 88.447 98.836 83.9317 107.713 74.1531M93.1335 92.9996C98.9974 84.776 102.832 78.4439 106.379 73.8859M94.3516 95.7569C99.4662 88.2492 103.555 76.8676 109.361 74.9653M93.8866 94.6187C99.5354 87.3195 105.157 78.7966 108.197 72.9668M94.3977 97.8889C97.8023 91.776 103.908 88.2866 110.648 74.0035M96.1346 96.6118C100.027 91.2363 103.094 85.0218 110.583 73.8699M96.7033 95.8851C101.457 92.1393 103.57 85.2195 112.009 71.2035M96.3997 96.7027C100.4 91.2469 104.427 84.3378 112.75 72.4752M97.3643 98.2042C104.738 89.0187 107.286 81.9386 115.632 75.4088M98.6708 97.9958C105.711 88.9813 110.81 78.0966 113.431 72.8012M100.239 96.5904C104.051 90.7286 109.695 84.8882 115.54 74.1424M100.354 98.6263C106.579 89.6065 111.375 79.6248 115.052 75.0829M101.676 99.2462C108.531 91.7279 111.97 82.9271 117.146 73.9981M101.868 100.593C106.902 92.1126 112.443 84.5729 118.207 73.6134M103.382 98.8614C107.528 89.9805 114.868 81.8531 120.44 75.8791M103.628 99.2515C107.57 92.166 112.151 85.7004 118.918 75.9271M106.126 101.923C108.239 95.5324 113.438 90.4721 119.525 74.5218M106.16 101.084C110.783 91.7385 116.309 83.2157 121.527 76.8729M106.714 101.822C112.224 93.8172 117.592 85.5508 122.207 77.2523M108.139 101.213C110.433 93.363 115.06 88.8637 123.168 76.4722M110.925 98.3912C116.847 90.3492 122.392 81.4683 124.69 78.289M108.789 99.9355C113.381 93.7103 118.303 85.7057 123.333 77.8722M113.031 99.321C114.241 96.0668 117.819 90.6592 125.474 80.9821M111.509 100.005C115.467 94.6508 118.422 87.8431 125.742 78.7806M113.611 98.9897C117.754 95.0141 119.913 86.4966 124.709 80.6454M114.291 99.5347C118.672 92.2301 122.296 84.9256 126.403 80.1004M116.793 98.1721C119.998 95.8637 122.522 89.1149 125.508 82.9057M115.671 101.175C120.013 94.4637 122.86 88.2172 127.514 82.0187M116.232 101.015C121.685 95.4256 124.601 85.7805 126.888 82.692M117.877 101.795C121.489 94.095 124.544 89.0401 128.352 84.5302M121.535 98.1187C123.729 95.0195 123.936 93.3309 125.7 90.8569M121.996 97.1248C123.191 93.9882 124.936 91.9469 125.919 89.7134M98.9282 99.0591C96.6918 95.5485 94.6705 91.4874 90.9547 85.4546M98.9205 96.5049C95.8771 94.7042 94.3016 92.866 89.1716 86.1973M102.075 98.824C98.0406 92.7164 95.9847 89.5691 90.8932 85.7912M101.876 99.6042C98.7323 95.2492 95.9425 93.1332 90.5435 85.9622M104.977 101.373C98.4325 94.0256 94.5437 85.4973 90.1784 84.3859M104.831 100.507C101.349 95.2385 95.8963 88.5271 91.7001 83.408M107.613 98.1347C103.828 97.5149 100.004 89.708 93.1258 81.6019M107.002 99.182C104.377 94.8859 99.8966 91.7172 92.1344 79.9615M110.476 100.208C105.568 96.0882 99.7275 90.905 93.2142 79.4752M110.283 99.8072C104.035 92.8447 98.7822 87.1111 92.0037 79.7103M112.916 98.8347C107.359 94.795 99.3087 88.3935 92.584 78.7111M111.755 100.24C104.508 92.6042 98.5939 83.6164 92.6339 78.0058M112.85 98.7172C108.466 91.1775 102.002 85.7912 96.3728 75.3768M113.6 99.8553C107.286 90.4561 99.6084 82.537 94.2402 76.5203M116.213 101.517C110.007 89.6065 101.165 78.647 95.7888 76.1462M115.928 99.2622C110.157 92.8714 102.137 84.434 96.8954 75.0936M119.394 99.0378C114.03 93.395 107.436 86.7905 96.3997 73.1966M117.173 97.8782C112.943 93.5072 107.636 86.9882 98.3787 73.576M118.092 97.563C114.51 92.3317 110.541 84.8989 100.016 75.1149M120.105 98.2149C113.315 89.3981 105.964 82.1951 100.119 72.9401M120.367 94.3782C116.051 90.8889 110.702 82.0561 101.084 71.8714M121.346 95.2866C114.879 88.6607 108.228 80.8699 100.811 73.5546M122.983 95.7301C116.493 86.566 110.495 80.6561 103.855 71.7752M121.792 95.8904C114.353 87.095 107.77 78.9943 103.816 71.7058M122.43 93.9508C119.525 88.1958 113.957 84.4874 105.019 73.1913M123.268 93.7317C118.046 86.3897 110.645 78.8126 106.249 73.1699M124.336 93.7317C120.159 82.7401 111.943 75.2806 109.242 73.3516M124.409 92.6363C120.159 86.6569 114.603 81.121 107.828 72.2348M125.497 91.3218C120.101 82.2645 114.433 79.347 111.805 74.3027M125.22 90.2103C120.785 85.6737 116.109 79.7531 110.718 71.7272M125.927 86.8439C123.84 86.7317 120.878 81.8531 112.124 72.0959M125.554 89.2752C121.827 83.8462 119.248 79.5287 112.531 72.4004M128.309 88.5485C123.153 84.4393 120.651 81.5912 115.801 71.973M127.153 87.2767C123.902 84.1027 121.316 81.2225 114.825 72.192M128.271 86.2775C125.789 81.821 122.403 78.5615 118.918 76.2103M127.233 85.2409C124.113 80.8538 122.15 78.321 119.156 73.5226M127.379 82.35C125.4 79.7905 123.422 79.8065 122.103 77.5516M127.933 82.4409C126.58 80.6722 125.351 80.3142 122.987 75.8096" stroke="#868E96" stroke-opacity="0.9" stroke-width="0.5" stroke-linecap="round"/>
<path d="M111.955 72.0745C115.483 72.2081 120.889 74.6233 123.445 76.5897C126 78.5562 127.08 81.105 127.283 83.8783C127.487 86.6516 126.465 90.6057 124.663 93.2401C122.857 95.8691 119.725 98.5355 116.459 99.6683C113.192 100.806 108.719 100.71 105.073 100.064C101.426 99.4172 97.1452 97.9477 94.5745 95.7943C92.0037 93.6462 89.9978 89.9966 89.6558 87.1592C89.31 84.3218 90.5742 81.1745 92.5071 78.7646C94.44 76.36 97.591 73.5707 101.249 72.7104C104.904 71.8554 112.228 73.5386 114.441 73.6188C116.655 73.6989 114.579 73.1378 114.526 73.1966" stroke="black" stroke-opacity="0.9" stroke-width="1.5" stroke-linecap="round" stroke-dasharray="8 9"/>
</g>
<defs>
<clipPath id="clip0_5_27">
<rect width="150" height="150" fill="white"/>
</clipPath>
</defs>
</svg>
