<svg version="1.1" xmlns="http://www.w3.org/2000/svg" viewBox="0 0 147.1683457959229 147.16834579592285" width="147.1683457959229" height="147.16834579592285">
  <!-- svg-source:excalidraw -->
  
  <defs>
    <style>
      @font-face {
        font-family: "Virgil";
        src: url("https://excalidraw.com/Virgil.woff2");
      }
      @font-face {
        font-family: "Cascadia";
        src: url("https://excalidraw.com/Cascadia.woff2");
      }
    </style>
  </defs>
  <rect x="0" y="0" width="147.1683457959229" height="147.16834579592285" fill="#ffffff"></rect><g stroke-linecap="round" transform="translate(9.999999999999943 10) rotate(0 63.58417289796142 63.58417289796142)"><path d="M12.12 26.44 C12.12 26.44, 12.12 26.44, 12.12 26.44 M12.12 26.44 C12.12 26.44, 12.12 26.44, 12.12 26.44 M6.09 37.51 C14.21 32.65, 19.44 24.2, 32.02 9.55 M7.21 37.36 C12.73 31.82, 17.64 25.78, 32.71 9.42 M3.26 51.52 C9.19 39.92, 17.34 32.76, 37.45 10.1 M2.47 49.75 C15.06 33.79, 28.78 17.28, 38.58 9.56 M2.07 56.9 C15.63 39.44, 30.13 25.2, 45.05 6.48 M3.05 55.56 C16.65 39.09, 31.84 22.48, 45.08 7.67 M1.88 61.4 C13.63 50.09, 23.32 37.12, 49.33 6.24 M4.05 60.87 C21.26 40.58, 39.86 18.23, 50.79 6.51 M3.8 67.76 C19.88 45.79, 41.2 24.21, 58.21 3.47 M3.05 65.94 C20.35 48.81, 36.57 28.61, 57.53 5 M5.64 70.58 C23.11 51.61, 37.48 35.74, 65.87 1.71 M4.32 72.22 C24.88 46.56, 45.59 23.75, 65.48 0.24 M4.62 76.87 C23.8 56.2, 43.12 34.46, 70.99 3.49 M5.96 78.05 C20.77 57.12, 38.58 38.63, 70.78 1.22 M4.84 81.13 C34.48 49.7, 59.56 20.94, 73.2 2.59 M4.61 81.91 C31.22 52.54, 56.24 23.76, 74.35 2.2 M4.66 89.13 C20.18 71.05, 38.26 52.69, 79.45 2.66 M7.28 87.34 C28.01 61.84, 50.71 35.59, 79.56 3.54 M8.2 89.5 C31.37 64.76, 59.12 36.44, 84.71 7.02 M8.12 90.71 C30.92 66.74, 51.53 41.85, 83.34 6.64 M12.81 93.56 C35.75 65.49, 65.16 34.2, 86.04 7.21 M10.27 94.15 C39.29 61.45, 66.65 30.93, 87.5 6.59 M11.73 99.1 C43.59 65.36, 70.1 33.76, 92.07 9.07 M13.85 97.55 C40.42 66.43, 67.45 36.09, 90.65 7.51 M14.27 101.42 C39.93 75.38, 63.89 46.45, 96.43 10.05 M16.48 100.76 C43.17 71.12, 68.02 40.92, 94.92 9.92 M16.58 105.71 C36.99 82.19, 57.24 61.53, 99.83 12.01 M17.41 106.07 C35.49 83.04, 53.76 62.16, 98.37 12.74 M21.69 109.56 C38.85 87.75, 54.05 67.67, 101.51 16.77 M19.89 107.9 C43.04 82.18, 67.7 52.98, 101.83 15.01 M23.05 111.04 C53.61 77.47, 84.62 41.8, 103.34 17.22 M22.05 113.06 C44.07 88.5, 64.19 65.49, 105.34 18.11 M25.86 113.75 C50.68 86.26, 72.87 58.31, 105.96 20.09 M26.6 114.92 C54.74 81.44, 83.14 50.49, 107.55 20.74 M29.28 116.42 C58.65 80.75, 90.72 45.44, 110.8 22.76 M28.36 117.2 C61.76 81.07, 93.72 43.84, 110.23 22.86 M34.45 118.92 C54.43 94.85, 73.95 69.32, 112.97 23.87 M32.6 119.12 C63.33 84.74, 92.25 48.36, 114.37 24.44 M34.64 119.87 C60.62 95.74, 81.2 68.91, 118.59 28.34 M36.6 121.15 C56.16 98.16, 76.87 73.64, 117.93 27.65 M38.67 123.92 C61.31 98.9, 82.5 72.4, 121.62 29.93 M39.36 123.49 C57.7 102.82, 76.81 81.25, 119.97 29.61 M44.32 123.06 C73.72 91.21, 103.24 54.52, 119.97 34.34 M42.38 125.47 C66.9 98.16, 90.71 68.86, 121.15 34.57 M47.84 126.73 C61.61 109.08, 77.73 89.03, 121.53 39.21 M47.5 126.89 C78.2 91.71, 108.34 57.19, 123.03 40.17 M51.97 128.05 C68.3 106.15, 83.86 88.88, 125.01 45.52 M52.24 126.36 C69.61 108.47, 85.99 88.7, 123.38 43.87 M56.14 125.73 C85.19 96.46, 112.7 65.76, 126.04 49.56 M56.42 126.39 C77.64 102.43, 97.66 78.75, 125.46 49.19 M64.47 125.81 C83.35 103.02, 103.91 80.27, 125.27 54.57 M63.43 127.23 C87.69 98.16, 112.22 70.94, 126.62 52.45 M68.64 126.76 C84.72 107.61, 102.2 87.06, 127.78 57.75 M67.46 127.22 C80.78 111.21, 92.62 96.49, 126.93 57.94 M72.56 124.99 C87.25 107.7, 103.31 94, 127.21 65.33 M73.54 126.41 C90.44 106.22, 106.98 87.81, 127.74 66.17 M80.57 126.51 C97.14 105.72, 112.36 84.43, 125.19 72.18 M78.06 127.31 C95.71 105.34, 112.78 85.63, 126.4 71.6 M89.41 120.61 C99.51 110.03, 107.98 97.6, 125.43 78.55 M88.09 122.86 C99.06 111.3, 108.31 99.47, 124.74 78.56 M95.2 118.07 C104.83 110.59, 110.19 102.55, 122.54 88.69 M96.71 117.68 C102.69 111.86, 107.14 105.63, 123.17 88.02" stroke="#ced4da" stroke-width="0.5" fill="none"></path><path d="M65.73 -0.32 C74.95 -0.81, 84.92 3.87, 93.55 8.59 C102.19 13.31, 112.13 19.87, 117.54 28.02 C122.95 36.18, 125.15 47.58, 126.01 57.5 C126.88 67.43, 126.21 78.46, 122.73 87.55 C119.26 96.64, 112.81 105.7, 105.16 112.05 C97.52 118.4, 86.69 123.33, 76.87 125.65 C67.05 127.96, 55.76 128.54, 46.24 125.93 C36.72 123.31, 26.78 116.76, 19.73 109.94 C12.68 103.13, 7.08 94.38, 3.92 85.04 C0.75 75.71, -0.66 63.74, 0.74 53.94 C2.14 44.14, 6.54 34.11, 12.31 26.23 C18.07 18.34, 25.28 10.84, 35.35 6.62 C45.42 2.4, 65.31 1.46, 72.72 0.9 C80.12 0.33, 80.01 2.36, 79.78 3.22 M63.58 0.1 C72.93 -0.77, 85.59 3.49, 94.53 8.12 C103.46 12.76, 112.02 19.77, 117.17 27.89 C122.33 36.01, 124.34 47.02, 125.46 56.85 C126.57 66.67, 126.97 77.81, 123.85 86.85 C120.72 95.89, 114.45 104.45, 106.68 111.1 C98.91 117.74, 87.26 124.14, 77.24 126.73 C67.23 129.31, 55.89 129.39, 46.59 126.61 C37.28 123.83, 28.31 116.93, 21.42 110.05 C14.53 103.16, 8.61 94.51, 5.24 85.29 C1.86 76.06, 0.24 64.25, 1.2 54.72 C2.15 45.18, 5.7 36.06, 10.98 28.07 C16.26 20.07, 23.86 11.45, 32.88 6.77 C41.9 2.1, 59.96 1.07, 65.11 0.01 C70.27 -1.05, 64.04 -0.85, 63.8 0.43" stroke="#000000" stroke-width="1" fill="none"></path></g><g stroke-opacity="0.5" fill-opacity="0.5" stroke-linecap="round" transform="translate(50.18330401302927 24.655107183087637) rotate(0 9.218508258317058 8.036646375580887)"><path d="M3.3 1.54 C3.3 1.54, 3.3 1.54, 3.3 1.54 M3.3 1.54 C3.3 1.54, 3.3 1.54, 3.3 1.54 M1.19 10.97 C2.34 7.81, 5.13 6.59, 10.71 0.63 M1.91 10.21 C4.51 8.35, 4.83 4.03, 8.67 2.14 M0.97 15.86 C5.24 7.51, 11.11 4.73, 10.9 5.17 M2.99 15.09 C3.69 10.08, 8.27 7.53, 13.94 1.09 M9.47 14.01 C6.17 15.65, 9.18 12.51, 17.9 6.02 M6.92 17.74 C11.09 11.78, 12.55 9.02, 17.43 3.01 M9.78 18.27 C12.46 11.84, 13.89 12.94, 22.48 8.39 M10.2 18.58 C12.71 13.02, 18.18 10.56, 18.87 8.13" stroke="#12b886" stroke-width="0.5" fill="none"></path><path d="M6.49 -0.5 C8.32 -0.98, 10.87 0.94, 12.87 1.94 C14.86 2.94, 17.36 4.03, 18.48 5.49 C19.61 6.94, 20.16 9.43, 19.61 10.66 C19.07 11.89, 17.03 11.83, 15.21 12.89 C13.38 13.95, 10.75 16.9, 8.65 17.02 C6.55 17.15, 4.16 15.04, 2.62 13.62 C1.08 12.2, -0.73 10.52, -0.6 8.49 C-0.48 6.46, 1.22 3.01, 3.36 1.47 C5.5 -0.07, 9.68 -1.53, 12.22 -0.74 C14.76 0.05, 18.43 5.94, 18.62 6.2" stroke="#000000" stroke-width="1.5" fill="none" stroke-dasharray="1.5 7"></path></g><g stroke-opacity="0.4" fill-opacity="0.4" stroke-linecap="round" transform="translate(22.764148007868982 62.47467841375408) rotate(0 16.782435128097205 15.836951032042634)"><path d="M4.66 5.37 C4.66 5.37, 4.66 5.37, 4.66 5.37 M4.66 5.37 C4.66 5.37, 4.66 5.37, 4.66 5.37 M4 11.57 C7.68 8.76, 10.66 3.74, 11.89 -3.59 M4.64 14.3 C7.17 8.13, 12.34 1.63, 14.06 0.4 M4.89 21.92 C11.22 16.33, 13.98 9.2, 15.94 -0.13 M2.2 19.13 C9.9 12.36, 15.69 4.56, 17.11 2.68 M5.27 22.18 C11.22 14.88, 15.05 9.17, 25.23 6.62 M4.95 24.76 C9.84 17.79, 15.34 13.82, 22.14 1.77 M2.91 24.77 C13.26 16.29, 18.58 8.85, 27.45 3.38 M8 27.25 C14.21 17.72, 21.65 12.57, 26.14 5.36 M7.63 30.3 C13.26 25.33, 19.16 14.48, 32.76 4.3 M10.74 29.97 C13.15 24.95, 20.92 17.25, 33.48 3.81 M12.39 33.7 C13.42 29.95, 19.86 26.53, 34.75 12.8 M12.42 34.73 C17.08 28.2, 21.06 22.21, 31.43 7.05 M18.5 33.4 C26.2 26.79, 32.77 20.6, 32 15.87 M15.57 33.67 C21.02 26.08, 27.49 20.25, 36.04 15.53 M25.7 34.82 C24.54 32.66, 28.03 27.41, 33.49 22.49 M20.95 33.56 C26.56 30.34, 28.51 27.13, 35.59 21.55" stroke="#15aabf" stroke-width="0.5" fill="none"></path><path d="M29.21 1.96 C31.82 3.51, 31.88 9.01, 32.5 12.7 C33.12 16.38, 34.8 20.74, 32.94 24.07 C31.07 27.4, 25.16 31.41, 21.31 32.67 C17.46 33.93, 13.13 33.44, 9.85 31.65 C6.57 29.86, 3.04 25.22, 1.61 21.92 C0.18 18.63, 0.79 14.61, 1.28 11.87 C1.77 9.13, 2.27 7.51, 4.56 5.48 C6.86 3.45, 10.26 -1.03, 15.07 -0.31 C19.88 0.4, 30.25 7.25, 33.43 9.78 C36.61 12.32, 34.95 14.62, 34.16 14.9" stroke="#000000" stroke-width="1.5" fill="none" stroke-dasharray="1.5 7"></path></g><g stroke-opacity="0.5" fill-opacity="0.5" stroke-linecap="round" transform="translate(102.65796439300237 90.83934556564066) rotate(342.67203998071824 10.636756944625404 9.218526292098261)"><path d="M1.7 2.8 C1.7 2.8, 1.7 2.8, 1.7 2.8 M1.7 2.8 C1.7 2.8, 1.7 2.8, 1.7 2.8 M3.63 8.52 C4.77 6.22, 7.36 0.38, 8.67 -0.99 M3.16 7.31 C5.56 5.89, 7.64 2.52, 9.17 -0.63 M2.85 12.54 C5.31 7.03, 5.75 8.77, 12.03 -1.05 M2.44 15.22 C6.99 8.49, 11.11 5.53, 15.12 1.02 M3.21 15.08 C8.13 15.79, 15.48 6.35, 21.49 -0.28 M7.09 16.24 C10.84 9.99, 17.1 4.42, 18.16 0.97 M9.74 17.29 C13.91 18.44, 17.06 10.41, 24.26 8.34 M10.73 18.73 C13.03 13.88, 16.56 9.03, 22.5 3.87 M14.99 16.68 C14.72 17.31, 21.17 14.9, 24.32 10.24 M13.08 19.72 C17.02 17.12, 17.61 15.47, 21.51 9.03" stroke="#4c6ef5" stroke-width="0.5" fill="none"></path><path d="M17.68 0.41 C19.3 1.66, 20.65 5.61, 21.25 7.54 C21.85 9.48, 21.98 10.29, 21.29 12.03 C20.6 13.77, 19.43 17.13, 17.12 18 C14.81 18.88, 9.86 17.93, 7.4 17.27 C4.95 16.61, 3.35 15.79, 2.37 14.02 C1.39 12.26, 1.65 8.55, 1.54 6.68 C1.43 4.8, 0.66 3.99, 1.7 2.79 C2.75 1.58, 5.45 -0.47, 7.8 -0.56 C10.14 -0.65, 14.07 1.52, 15.76 2.23 C17.44 2.95, 17.7 3.83, 17.91 3.74" stroke="#000000" stroke-width="1.5" fill="none" stroke-dasharray="1.5 7"></path></g></svg>