<svg width="150" height="150" viewBox="0 0 150 150" fill="none" xmlns="http://www.w3.org/2000/svg">
<g clip-path="url(#clip0_5_13)">
<path d="M150 0H0V150H150V0Z" fill="white"/>
<path d="M16.3996 48.4241C24.6758 43.4706 30.0065 34.858 42.8285 19.9261M17.5411 48.2712C23.1673 42.6246 28.1718 36.4684 43.5318 19.7936M13.5151 62.7037C19.5592 50.8805 27.866 43.5827 48.363 20.4867M12.7099 60.8996C25.5422 44.6325 39.5262 27.8049 49.5147 19.9363M12.3022 68.1872C26.1231 50.3913 40.9021 35.8773 56.1092 16.7971M13.3011 66.8214C27.1628 50.0345 42.645 33.1049 56.1398 18.01M12.1086 72.7738C24.0847 61.2462 33.9611 48.0266 60.4716 16.5525M14.3203 72.2336C31.8615 51.5532 50.8194 28.7732 61.9597 16.8277M14.0655 79.2562C30.4549 56.8634 52.1851 34.8682 69.5224 13.7292M13.3011 77.4011C30.934 59.9415 47.466 39.3529 68.8293 15.2886M15.9409 82.1304C33.7471 62.7954 48.3936 46.6201 77.3298 11.9353M14.5955 83.802C35.5511 57.6483 56.6596 34.3994 76.9323 10.437M14.9013 88.5414C34.4503 67.4737 54.1421 45.3154 82.5483 13.7495M16.2671 89.7441C31.362 68.4114 49.5147 49.5657 82.3343 11.4359M15.1255 92.8834C45.3358 60.8487 70.8984 31.5353 84.8008 12.8322M14.8911 93.6784C42.0131 63.7433 67.5145 34.4096 85.973 12.4347M14.9421 101.037C30.7607 82.6095 49.1886 63.8962 91.1711 12.9036M17.6125 99.2129C38.7413 73.2222 61.8781 46.4672 91.2832 13.8005M18.5502 101.414C42.166 76.1984 70.4499 47.3335 96.5323 17.3475M18.4686 102.648C41.7073 78.2165 62.7139 52.8476 95.136 16.9602M23.2489 105.553C46.6303 76.9425 76.6062 45.0504 97.8879 17.5411M20.66 106.154C50.2384 72.8247 78.1248 41.7175 99.376 16.9092M22.1481 111.199C54.6211 76.81 81.6412 44.602 104.034 19.4369M24.3089 109.619C51.3901 77.9006 78.9402 46.9768 102.587 17.8469M24.737 113.564C50.8907 87.0228 75.3117 57.5361 108.478 20.4358M26.9895 112.891C54.193 82.6808 79.5212 51.8997 106.939 20.3033M27.0914 117.936C47.8941 93.9638 68.5338 72.9063 111.943 22.4335M27.9374 118.303C46.3653 94.8302 64.9868 73.5484 110.455 23.1775M32.2997 121.86C49.7899 99.6308 65.2824 79.1644 113.656 27.2851M30.4651 120.168C54.0605 93.9536 79.195 64.1918 113.982 25.4912M33.6859 123.369C64.8339 89.153 96.4406 52.7967 115.521 27.7437M32.6667 125.428C55.1104 100.395 75.6175 76.9425 117.559 28.6508M36.55 126.131C61.8475 98.1121 84.4645 69.6243 118.191 30.6689M37.3042 127.324C65.9857 93.1994 94.9321 61.6539 119.812 31.3314M40.0358 128.852C69.9709 92.4961 102.658 56.5067 123.124 33.3903M39.0981 129.647C73.1407 92.8222 105.716 54.8759 122.543 33.4922M45.3053 131.401C65.6697 106.867 85.5653 80.8462 125.336 34.5217M43.4197 131.604C74.7409 96.5629 104.217 59.4829 126.763 35.1026M45.4989 132.369C71.9788 107.775 92.9548 80.4283 131.064 39.0777M47.4966 133.673C67.433 110.241 88.5415 85.2493 130.391 38.3744M49.6065 136.497C72.6821 110.995 94.2798 83.9854 134.153 40.6983M50.3097 136.058C69.0026 114.991 88.4803 93.0057 132.471 40.3721M55.3652 135.62C85.3309 103.157 115.419 65.7614 132.471 45.1931M53.3878 138.077C78.3796 110.241 102.648 80.3773 133.673 45.4275M58.9529 139.361C72.9878 121.371 89.418 100.935 134.061 50.1568M58.6064 139.524C89.8971 103.667 120.617 68.4828 135.59 51.1353M63.1624 140.706C79.8066 118.385 95.666 100.783 137.608 56.5882M63.4376 138.984C81.1418 120.749 97.8369 100.599 135.946 54.9065M67.4126 138.342C97.0215 108.508 125.061 77.2177 138.658 60.706M67.698 139.014C89.3263 114.593 109.731 90.4576 138.066 60.3288M75.9029 138.423C95.1461 115.195 116.102 92.0069 137.873 65.8124M74.8429 139.87C99.5696 110.241 124.572 82.4973 139.249 63.6516M80.1531 139.391C96.5425 119.873 114.359 98.9275 140.431 69.0536M78.9504 139.86C92.5267 123.542 104.595 108.539 139.565 69.2472M84.1485 137.587C99.1212 119.965 115.49 106.001 139.85 76.7794M85.1474 139.035C102.373 118.456 119.231 99.6919 140.39 77.6356M92.3127 139.137C109.201 117.947 124.714 96.2469 137.791 83.7612M89.7544 139.952C107.744 117.559 125.142 97.47 139.024 83.17M101.323 133.123C111.617 122.339 120.25 109.67 138.036 90.2538M99.9773 135.416C111.158 123.634 120.586 111.576 137.333 90.264M107.224 130.534C117.039 122.91 122.503 114.716 135.09 100.589M108.763 130.137C114.858 124.205 119.394 117.855 135.732 99.906" stroke="#CED4DA" stroke-width="0.5" stroke-linecap="round"/>
<path d="M77.1871 9.86623C86.5845 9.3668 96.7463 14.1368 105.542 18.9477C114.349 23.7585 124.48 30.4447 129.994 38.7515C135.508 47.0685 137.75 58.6879 138.627 68.7987C139.514 78.9198 138.831 90.162 135.284 99.4269C131.747 108.692 125.173 117.926 117.376 124.398C109.589 130.871 98.5504 135.895 88.5415 138.26C78.5325 140.614 67.0253 141.206 57.3221 138.545C47.6189 135.875 37.4877 129.199 30.302 122.248C23.1164 115.307 17.4086 106.388 14.1878 96.8686C10.9568 87.3591 9.51971 75.1588 10.9466 65.1702C12.3736 55.1817 16.8582 44.9587 22.7393 36.9271C28.6101 28.8853 35.9588 21.241 46.2226 16.9398C56.4863 12.6386 76.759 11.6805 84.3116 11.1097C91.854 10.5287 91.7419 12.5978 91.5074 13.4743M74.9957 10.2943C84.5256 9.40757 97.4292 13.7495 106.541 18.4686C115.643 23.1979 124.368 30.3428 129.617 38.619C134.876 46.8952 136.925 58.1171 138.066 68.1362C139.198 78.1452 139.605 89.4995 136.425 98.7135C133.235 107.927 126.845 116.652 118.925 123.43C111.006 130.198 99.1314 136.721 88.9186 139.361C78.716 141.99 67.1578 142.072 57.6788 139.238C48.1897 136.405 39.0471 129.372 32.0245 122.36C25.002 115.337 18.9681 106.521 15.5332 97.1234C12.0882 87.7159 10.437 75.6786 11.4155 65.9652C12.3838 56.2417 16.0021 46.9462 21.3837 38.8025C26.7653 30.6485 34.5115 21.8627 43.705 17.0926C52.8986 12.3328 71.3061 11.283 76.5552 10.2026C81.8145 9.12218 75.4646 9.32603 75.22 10.6307" stroke="black" stroke-linecap="round"/>
<path d="M52.3617 36.3106C53.5339 33.0898 56.3776 31.8463 62.0649 25.7716M53.0956 35.5359C55.7456 33.6401 56.0718 29.237 59.9857 27.3107M52.1375 41.2946C56.4897 32.784 62.4726 29.9505 62.2586 30.399M54.1964 40.5098C54.9098 35.4034 59.578 32.8044 65.3571 26.2405M60.8011 39.409C57.4376 41.0806 60.5055 37.8802 69.3933 31.2653M58.202 43.2108C62.4522 37.1361 63.9403 34.323 68.9142 28.1974M61.117 43.751C63.8486 37.1973 65.3061 38.3185 74.0614 33.6809M61.5451 44.067C64.1034 38.4 69.6786 35.8927 70.3819 33.4159" stroke="#12B886" stroke-opacity="0.5" stroke-width="0.5" stroke-linecap="round"/>
<path d="M57.7637 24.6199C59.629 24.1306 62.228 26.0876 64.2665 27.1068C66.2948 28.1261 68.8429 29.237 69.9844 30.7251C71.1362 32.203 71.6968 34.7409 71.1362 35.9946C70.5858 37.2483 68.5065 37.1871 66.6515 38.2675C64.7863 39.3479 62.1057 42.3547 59.9653 42.477C57.8249 42.6095 55.3889 40.4589 53.8193 39.0116C52.2496 37.5642 50.4048 35.8519 50.5373 33.7829C50.6596 31.7138 52.3923 28.1974 54.5735 26.6278C56.7547 25.0582 61.0151 23.5701 63.604 24.3753C66.1929 25.1805 69.9335 31.1838 70.1271 31.4488" stroke="black" stroke-opacity="0.5" stroke-width="1.5" stroke-linecap="round" stroke-dasharray="1.5 7"/>
<path d="M27.2792 75.4694C31.03 72.6053 34.0673 67.4887 35.321 60.0177M27.9315 78.2519C30.5101 71.9632 35.7796 65.3381 37.5327 64.0845M28.1863 86.0185C34.6381 80.321 37.4512 73.0538 39.4489 63.5443M25.4445 83.1749C33.2927 76.2746 39.1941 68.3245 40.6414 66.4083M28.5736 86.2835C34.6381 78.8431 38.5418 73.0232 48.9176 70.4242M28.2474 88.9132C33.2315 81.8091 38.8373 77.7627 45.7682 65.4808M26.1682 88.9234C36.7173 80.2802 42.1397 72.6971 51.1804 67.1218M31.3561 91.4511C37.6856 81.7377 45.2688 76.4886 49.8451 69.1399M30.979 94.5598C36.7173 89.4941 42.7308 78.4354 56.5925 68.0595M34.1488 94.2234C36.6052 89.1068 44.5247 81.2587 57.3264 67.5601M35.8306 98.0252C36.8804 94.203 43.4443 90.7172 58.6208 76.7231M35.8612 99.075C40.6108 92.4194 44.6674 86.3141 55.2369 70.8624M42.0581 97.7194C49.9063 90.9822 56.6027 84.6731 55.8179 79.8521M39.0718 97.9946C44.6266 90.2586 51.2211 84.3164 59.9356 79.5056M49.3967 99.1667C48.2144 96.9652 51.7715 91.6142 57.3366 86.5995M44.5553 97.8825C50.2732 94.6005 52.2607 91.3288 59.477 85.6414" stroke="#15AABF" stroke-opacity="0.4" stroke-width="0.5" stroke-linecap="round"/>
<path d="M52.9742 65.6745C55.6344 67.2543 55.6956 72.8601 56.3275 76.6211C56.9594 80.3719 58.6717 84.8158 56.776 88.2099C54.87 91.604 48.8463 95.6911 44.9222 96.9754C40.9981 98.2596 36.5848 97.7602 33.2417 95.9358C29.8986 94.1113 26.3007 89.382 24.8431 86.0185C23.3856 82.6652 24.0074 78.5679 24.5068 75.7752C25.0062 72.9824 25.5158 71.3313 27.8499 69.2622C30.1942 67.1932 33.6596 62.627 38.5621 63.3608C43.4647 64.0845 54.0342 71.0663 57.2754 73.645C60.5166 76.2338 58.8246 78.5781 58.0194 78.8635" stroke="black" stroke-opacity="0.4" stroke-width="1.5" stroke-linecap="round" stroke-dasharray="1.5 7"/>
<path d="M108.445 103.431C108.856 100.847 109.603 94.3785 110.462 92.6478M107.621 102.396C109.525 100.286 110.525 96.3756 111.058 92.8463M108.907 107.579C109.628 101.471 110.584 103.03 113.713 91.5694M109.322 110.311C111.705 102.381 114.815 98.2507 117.348 92.6452M110.028 109.941C115.031 109.138 119.316 97.7218 123.151 89.4465M114.156 109.891C115.907 102.672 120.306 95.3522 120.29 91.6737M117.053 110.109C121.459 109.961 122.086 101.192 128.463 96.9923M118.453 111.209C119.218 105.792 121.181 100.001 125.393 93.1776M121.976 107.921C121.904 108.616 127.448 104.313 129.098 98.8227M121.04 111.459C124.084 107.733 124.157 105.948 125.997 98.4986" stroke="#4C6EF5" stroke-opacity="0.5" stroke-width="0.5" stroke-linecap="round"/>
<path d="M119.653 91.2745C121.609 91.9988 124.121 95.4321 125.291 97.1278C126.464 98.8331 126.836 99.5818 126.693 101.484C126.55 103.387 126.432 107.011 124.449 108.559C122.468 110.116 117.364 110.695 114.77 110.799C112.186 110.901 110.38 110.589 108.889 109.164C107.401 107.75 106.528 104.061 105.853 102.275C105.175 100.479 104.18 99.9249 104.828 98.4416C105.482 96.9456 107.487 94.1313 109.746 93.3303C111.995 92.5323 116.478 93.4505 118.338 93.6282C120.191 93.8186 120.711 94.5959 120.888 94.4446" stroke="black" stroke-opacity="0.5" stroke-width="1.5" stroke-linecap="round" stroke-dasharray="1.5 7"/>
</g>
<defs>
<clipPath id="clip0_5_13">
<rect width="150" height="150" fill="white"/>
</clipPath>
</defs>
</svg>
