<svg width="589" height="252" viewBox="0 0 589 252" fill="none" xmlns="http://www.w3.org/2000/svg">
<g clip-path="url(#clip0_3_3)">
<path d="M462.012 76.2034C465.233 77.5088 467.027 80.067 467.465 80.0845M462.179 76.3524C463.588 78.0169 465.688 78.3323 468.253 80.7416M459.212 74.0833C460.393 81.6878 465.951 82.4675 466.1 83.878M457.514 76.2648C460.052 78.5076 462.739 80.8993 469.137 84.4563M450.389 77.1847C457.575 78.9106 457.89 81.9506 465.041 88.1271M451.474 75.3536C457.093 81.425 463.238 85.6039 469.233 90.1947M448.752 73.7241C450.827 80.9343 455.868 87.654 471.351 92.3061M445.549 76.1246C454.135 80.5401 460.918 87.8205 469.321 95.8455M438.477 75.2397C453.164 84.6578 462.975 95.2322 467.911 101.584M440.858 76.0633C449.733 81.7228 457.05 87.6715 468.769 99.7266M434.302 76.3874C445.024 80.5576 454.319 93.5151 471.5 106.429M434.389 74.863C447.781 88.6177 462.94 97.7817 469.382 105.78M432.656 75.3887C443.492 83.1071 449.05 93.5939 465.645 107.322M430.136 75.2485C441.855 84.6227 453.645 97.2122 469.399 107.331M425.383 74.0482C435.186 84.6227 445.26 95.1621 470.739 114.121M425.672 76.8868C435.282 83.5188 442.976 90.5889 467.929 115.277M420.184 76.5188C432.902 90.0195 447.028 96.9143 470.441 115.155M419.449 76.0019C432.98 90.7729 450.021 102.092 469.277 117.625M416.035 79.445C436.184 97.7291 456.209 115.4 467.728 125.641M415.125 77.465C428.84 90.7379 442.783 101.242 469.881 121.734M409.567 77.7716C420.175 88.3286 429.628 97.9131 467.386 128.769M407.826 76.878C425.471 87.8292 440.682 100.112 469.618 127.797M401.848 78.7353C425.628 96.0032 453.741 114.839 468.997 131.1M405.743 75.5288C426.731 98.4563 448.761 117.546 469.251 132.606M398.145 73.9168C422.215 96.0996 440.236 111.65 470.441 138.704M399.336 77.7454C417.138 93.6465 438.617 109.153 467.719 138.073M393.279 79.9882C411.869 97.3261 433.252 111.501 467.929 142.489M393.043 76.5714C411.589 90.2122 426.661 104.747 470.108 140.912M389.139 79.883C414.574 98.7804 434.389 119.439 466.441 143.382M388.64 76.291C403.633 91.2372 421.917 106.893 467.43 144.749M380.002 77.5526C411.598 105.176 446.022 127.884 465.793 151.67M381.971 74.5651C406.609 94.6803 430.46 115.172 469.084 149.743M380.334 77.0182C404.211 104.939 436.796 125.361 471.097 156.121M377.621 77.3599C400.964 93.6202 421.996 112.684 468.655 154.202M375.547 75.3711C395.975 96.6427 420.701 115.523 471.754 158.381M372.019 75.2835C404.185 103.161 437.864 133.824 469.364 161.745M370.365 75.5639C398.426 107.962 427.633 131.669 465.977 163.095M367.722 78.3323C388.334 95.46 408.281 113.034 467.369 165.355M364.335 76.5626C396.132 106.56 431.457 134.692 467.815 170.252M360.23 75.3273C394.601 104.966 427.335 133.08 470.205 168.614M358.112 79.0858C396.097 111.151 429.138 142.971 466.581 170.629M355.775 75.6077C401.646 114.979 443.65 149.568 467.631 171.47M353.324 78.6653C368.702 97.9218 394.461 119.439 464.612 175.439M350.908 74.9243C373.656 93.8743 397.953 116.495 459.667 172.802M345.272 79.6903C376.325 97.4663 404.605 128.611 456.63 174.904M347.188 77.3424C376.711 102.469 406.303 129.356 454.424 171.856M343.346 80.1196C380.991 115.733 421.532 152.739 449.881 172.749M340.895 77.3862C382.741 111.361 425.943 148.753 450.582 172.101M332.467 75.6865C370.05 104.913 408.351 139.238 442.914 172.188M334.41 75.5551C377.56 110.906 418.565 149.033 445.006 171.601M328.458 79.6465C354.383 95.7053 380.115 124.485 438.914 174.729M329.438 74.495C368.632 111.309 406.609 145.897 440.035 173.196M321.841 73.8029C367.372 113.254 411.248 152.029 431.519 173.17M324.152 76.3786C356.554 103.056 385.192 126.78 433.602 171.374M319.566 78.5776C349.175 102.574 369.061 125.195 432.551 172.644M317.334 76.8342C344.922 99.7266 376.991 124.634 430.363 170.69M316.415 74.6703C352.615 114.165 397.682 151.889 422.407 175.404M312.152 75.0382C341.421 100.699 373.796 129.531 424.49 171.417M305.457 77.3774C343.985 101.724 372.684 133.316 416.526 170.909M309.964 75.3098C340.379 104.563 374.566 133.062 417.961 171.041M305.43 79.2084C331.898 104.449 364.072 126.439 415.755 169.718M303.584 76.221C329.386 97.2648 351.066 116.118 413.865 170.953M297.474 77.9907C338.103 118.598 386.207 149.866 406.119 175.404M298.918 74.9857C328.747 100.813 357.928 126.789 406.469 173.827M294.971 76.9043C315.872 98.9907 337.675 119.211 400.587 170.603M291.129 75.4062C326.016 102.425 359.932 130.469 402.951 174.011M286.831 76.2122C312.695 100.226 340.887 124.967 396.456 171.838M285.86 76.9656C307.986 94.9081 331.18 114.489 399.073 171.19M283.024 77.4387C317.824 108.891 359.643 139.501 392.824 170.629M282.586 76.4137C322.97 110.205 363.503 147.325 390.566 171.926M278.937 75.1434C313.185 109.075 352.746 142.454 382.916 174.282M274.858 77.8593C315.251 108.19 355.468 144.828 387.371 171.768M269.116 77.9293C301.404 107.918 339.583 132.528 381.927 170.874M271.952 76.2034C304.152 106.297 333.928 132.011 382.75 173.695M268.075 73.4875C288.949 97.2472 314.699 119.483 377.717 171.347M264.512 75.5464C311.618 113.963 355.923 152.739 374.995 171.479M260.644 76.3699C304.896 111.352 346.182 154.202 372.238 173.249M259.804 78.3061C300.739 113.779 341.027 145.546 371.1 173.871M254.43 76.1071C284.494 97.6064 315.338 126.535 363.958 171.856M254.517 76.2648C280.705 101.102 308.537 124.354 366.671 171.085M251.217 78.0432C273.239 99.6916 299.829 116.591 361.297 172.986M249.091 74.7141C283.05 103.599 316.266 134.613 360.116 172.986M246.701 75.2923C279.637 102.355 316.59 133.439 354.304 172.022M244.784 75.8705C269.073 95.5739 295.619 120.14 353.333 171.47M238.614 77.9819C267.541 95.6966 294.28 118.282 349.508 174.913M238.666 77.3862C267.436 100.725 290.779 122.908 348.834 172.872M239.419 83.4049C281.326 117.012 324.502 152.065 341.254 175.973M240.723 81.9681C270.167 107.804 299.741 137.031 342.996 173.108M240.137 90.1421C279.558 117.704 317.561 153.51 336.169 168.999M238.544 87.8467C275.514 116.688 311.198 145.038 337.394 173.196M241.721 93.3311C263.13 116.372 291.794 132.247 331.557 174.116M240.058 91.8943C262.517 110.319 282.796 130.39 332.064 171.934M243.428 93.9531C262.631 117.056 290.096 139.028 329.123 174.703M241.8 96.3098C261.318 112.053 285.37 130.881 329.631 173.757M239.314 102.994C265.537 121.375 283.899 136.006 320.8 173.476M240.259 99.674C259.051 118.081 279.681 134.218 321.981 172.18M239.262 105.789C257.003 117.012 274.447 136.926 316.073 170.279M239.795 104.125C263.751 126.824 287.672 147.264 318.472 173.914M237.424 108.181C265.502 133.518 289.982 157.347 310.472 173.213M239.489 109.924C264.889 129.426 291.015 152.906 311.785 172.425M240.277 114.883C261.187 132.659 282.919 154.316 305.947 169.376M240.995 115.68C253.983 126.544 269.3 136.619 306.209 172.031M242.115 119.588C250.517 128.366 264.267 141.245 303.601 173.949M238.964 119.833C254.71 131.275 266.385 144.434 300.73 171.365M239.008 125.352C257.992 138.643 277.134 154.614 296.512 174.168M239.393 124.424C263.804 144.618 286.262 162.937 296.722 171.234M239.349 127.744C258.526 138.722 270.517 156.208 290.078 170.156M239.489 129.619C258.596 141.884 274.315 157.847 291.138 174.282M242.841 135.191C247.629 142.042 258.692 152.354 284.459 172.022M239.06 133.894C257.292 148.394 273.134 161.272 284.433 172.504M236.968 138.1C249.204 148.429 261.615 161.176 281.011 170.647M241.388 139.098C254.43 151.513 268.827 165.6 280.722 171.426M238.386 142.682C251.716 152.424 261.265 160.764 274.989 172.732M239.463 143.093C247.27 149.401 256.53 159.029 274.508 173.468M236.68 149.944C245.423 153.396 252.224 157.26 269.361 172.793M241.091 147.631C248.198 154.921 259.068 162.07 268.749 171.847M243.121 148.709C250.561 156.2 256.486 165.889 267.182 172.977M238.106 152.31C250.08 160.633 259.55 167.519 264.67 171.277M241.065 156.454C242.272 160.545 251.655 164.847 261.003 173.152M241.572 157.654C243.787 161.158 247.918 164.934 259.06 171.934M238.395 160.344C247.428 168.045 249.397 170.095 253.336 169.735M240.609 159.678C243.524 164.926 249.029 167.405 251.541 172.618M239.752 165.679C243.918 167.449 245.651 170.086 248.776 170.848M239.016 164.75C242.019 166.485 242.412 168.544 248.408 172.04" stroke="#CED4DA" stroke-width="0.5" stroke-linecap="round"/>
<path d="M464.927 77.8067C466.502 113.63 471.062 150.505 470.581 169.254M467.098 75.4588C466.362 111.414 467.255 147.64 469.154 169.77M466.143 172.259C389.323 172.478 311.855 170.261 242.885 171.715M469.566 170.322C380.054 172.145 290.814 171.707 240.749 171.899M242.237 172.898C243.261 148.499 241.931 119.973 243.682 78.5076M240.364 170.892C239.069 132.799 240.916 95.3461 239.419 74.7141M238.763 75.7917C311.032 80.0583 376.606 76.5188 469.469 77.8505M240.697 76.2297C289.168 78.3586 338.812 77.7191 468.393 77.4124" stroke="black" stroke-linecap="round"/>
<path d="M564.069 103.22C569.714 108.836 571.272 107.705 577.408 114.04M563.623 101.801C567.894 106.891 569.548 110.316 579.009 114.819M558.117 99.3475C559.877 100.539 566.406 109.107 576.961 119.209M555.22 100.837C561.636 104.911 567.824 109.484 576.349 117.57M544.035 94.2224C553.015 100.075 562.642 106.488 575.421 122.547M546.897 97.0434C553.155 100.434 556.577 104.569 573.102 119.349M540.148 95.116C545.505 97.937 554.161 107.259 568.104 121.154M537.278 94.7918C548.21 100.048 555.553 109.738 570.546 123.878M532.131 89.6492C541.47 103.167 547.474 105.612 568.62 122.932M530.477 93.7931C540.385 101.441 550.118 109.414 569.539 124.719M525.295 91.4189C537.523 105.48 557.242 120.207 568.445 126.647M524.499 91.7956C532.814 98.6554 541.593 104.385 567.684 126.55M517.453 91.4364C527.072 101.24 540.98 110.973 561.837 133.068M514.775 87.6779C533.129 104.543 553.12 119.068 562.38 130.869M507.904 88.5978C525.059 104.368 543.124 123.274 560.078 130.931M509.208 86.5478C527.414 104.403 547.334 118.972 560.708 131.614M500.263 84.9007C518.407 97.6304 532.481 114.18 559.728 135.478M502.18 87.0471C524.578 103.237 545.785 121.907 557.295 135.276M495.458 86.1185C511.904 100.802 522.792 108.625 555.527 138.255M494.653 84.6905C518.267 103.824 541.321 124.229 553.347 137.896M488.255 83.6479C513.261 105.331 538.564 125.184 552.691 140.401M486.312 80.8181C506.889 99.6542 527.886 117.159 550.546 139.902M481.209 83.1573C492.019 90.499 508.753 103.798 550.45 136.275M478.181 78.8732C500.92 100.802 521.427 119.612 547.754 139.446M472.921 78.2599C493.148 95.7555 514.915 112.866 542.967 142.057M470.435 78.2336C502.084 102.125 529.129 126.025 544.516 142.522M470.496 83.1573C493.778 105.612 517.278 120.47 541.619 141.496M470.549 81.37C492.771 103.097 516.954 123.318 541.505 142.968M469.726 87.967C495.45 111.043 516.28 127.313 540.884 142.513M472.571 86.9508C485.988 100.355 499.861 113.558 540.507 146.56M470.794 92.2774C494.25 115.415 520.814 132.595 536.936 146.823M471.949 90.9195C484.798 100.294 497.323 112.349 537.654 146.884M468.562 96.5177C493.463 111.998 510.766 132.56 532.245 147.655M468.973 94.5115C488.981 111.683 511.545 128.933 534.118 150.082M471.827 100.154C490.968 122.082 517.348 142.548 529.453 151.282M469.638 98.0947C490.303 117.789 508.937 131.404 529.164 150.047M466.61 107.013C482.75 119.55 501.165 135.539 524.989 150.24M469.026 105.585C484.474 115.941 500.255 129.214 526.853 153.306M470.356 109.458C489.297 125.175 505.944 143.328 518.976 153.604M469.708 107.784C488.045 125.219 509.095 141.584 520.604 155.847M467.205 114.688C490.583 129.958 504.727 148.899 517.821 154.962M468.562 111.289C488.019 128.329 504.106 142.741 519.361 155.751M469.253 114.968C482.89 131.5 496.036 143.091 512.114 159.22M468.203 118.341C480.807 127.567 490.819 138.544 514.162 158.142M465.779 120.891C483.59 134.199 496.929 146.797 510.583 160.403M467.328 120.698C484.238 133.866 495.931 144.826 511.169 159.088M470.531 124.614C481.472 137.694 491.94 146.736 507.615 158.668M468.606 125.035C479.905 137.572 490.732 144.484 508.928 161.761M470.925 133.112C484.999 144.326 498.845 158.414 506.583 161.945M469.035 129.301C480.045 143.389 495.651 154.217 503.143 163.145M468.326 131.43C480.404 144.537 489.393 156.092 501.349 160.92M467.835 134.085C477.743 143.818 487.126 152.395 502.478 163.232M469.323 136.941C477.822 148.961 481.454 154.726 496.902 163.408M467.31 140.025C476.737 147.401 488.255 156.434 499.204 166.965M468.588 140.436C473.507 153.884 485.612 161.787 497.288 168.769M465.42 143.993C473.069 148.602 481.122 156.224 494.793 168.261M467.8 145.115C471.319 154.831 477.516 157.555 488.789 171.292M466.733 149.241C471.704 153.481 479.345 160.21 489.244 166.579M468.964 154.515C470.146 156.995 479.424 159.746 481.909 167.849M467.932 152.43C471.853 156.504 477.166 162.829 483.66 166.675M468.037 157.958C472.991 161.358 472.509 165.414 478.19 166.456M468.037 159.465C473.463 162.532 477.726 166.308 480.745 168.401M472.159 83.1923C472.308 82.4739 473.726 80.494 474.496 78.8644M471.485 83.1135C473.472 81.5978 474.531 80.31 475.266 78.5928M471.406 90.2274C472.728 84.7343 476.815 80.5991 477.349 81.922M471.66 88.9395C473.551 87.3888 473.621 85.6104 478.583 78.8031M468.728 97.937C473.84 94.3625 476.78 84.3225 485.664 78.6191M470.566 94.1873C472.317 91.9708 476.282 87.2487 484.369 79.1535M473.577 97.5778C476.964 92.6717 479.012 92.6717 484.001 81.6767M469.542 101.538C476.343 94.2749 482.373 85.7242 485.988 83.1836M468.851 110.395C472.824 102.834 481.069 94.4151 491.8 83.902M469.14 107.968C475.319 101.844 481.358 95.2386 489.655 81.4664M466.908 112.419C481.025 101.967 486.846 93.6792 497.611 83.6304M470.067 111.324C478.172 101.748 483.922 93.3375 496.185 84.3838M469.603 121.057C474.82 111.131 481.691 100.495 502.198 86.8106M467.363 118.481C478.855 106.619 486.329 97.2449 498.11 83.7267M468.212 121.215C480.763 109.361 489.437 99.4789 500.421 86.8456M467.074 123.212C477.533 114.259 486.452 103.649 502.705 84.2086M471.433 131.71C475.721 116.098 490.023 108.879 508.079 83.2186M467.792 129.564C478.093 119.454 486.96 107.688 505.462 86.2324M464.615 138.018C481.971 120.759 492.981 105.655 511.195 86.758M468.002 136.415C482.802 118.858 495.327 104.061 511.992 86.6792M469.166 140.655C476.64 127.023 488.404 117.535 513.2 89.8156M468.693 142.828C483.756 119.927 503.265 100.355 514.337 86.8807M465.665 145.334C478.023 135.53 491.8 122.766 519.256 85.5928M468.991 144.431C481.638 127.847 498.373 112.603 516.385 89.9207M471.354 151.624C485.235 131.211 495.843 112.909 521.024 86.7055M469.367 149.136C481.612 132.324 496.981 117.08 521.331 90.3676M468.457 158.116C488.763 132 515.869 106.558 527.632 91.0597M469.026 153.508C493.673 130.607 512.289 103.851 526.722 88.3087M474.076 158.773C491.607 131.465 514.547 104.201 532.403 90.1398M471.967 159.132C489.717 137.247 509.296 117.237 528.788 89.763M472.072 166.106C493.375 139.166 520.289 110.947 536.175 91.6028M470.426 163.495C494.513 139.464 514.731 112.296 534.459 93.3463M471.275 162.777C496.579 139.806 515.51 118.797 534.468 93.1623M474.304 166.737C489.822 146.797 505.812 128.898 537.111 94.8094M477.026 169.532C505.217 136.66 526.25 110.71 539.72 92.5052M478.225 168.568C497.655 141.733 520.525 117.115 541.4 96.1235M482.295 165.423C496.771 146.481 512.709 132.219 542.074 94.2662M479.905 168.305C497.594 148.391 514.486 130.808 544.245 97.4814M487.634 170.416C498.469 148.803 516.359 134.856 545.671 98.8482M485.104 169.461C504.911 145.807 527.702 121.898 549.181 95.8607M490.023 168.287C506.154 150.284 521.129 132.254 548.166 98.086M492.176 164.809C507.265 149.977 524.937 130.607 552.043 97.2099M498.653 164.862C523.659 137.528 546.266 112.358 552.402 102.134M499.948 165.826C517.339 138.938 540.849 114.267 555.238 100.521M498.749 164.643C522.994 142.469 541.488 118.516 557.102 103.369M502.206 164.257C520.342 146.376 535.168 127.006 557.592 99.3475M508.631 164.766C525.05 145.579 542.398 126.848 564.402 99.9958M508.797 160.403C527.904 138.062 547.185 119.165 560.953 101.021M516.368 161.726C528.481 144.011 541.251 126.033 567.675 105.323M516.508 158.37C530.179 146.122 544 129.231 567.701 103.527M522.731 158.519C539.711 134.777 558.853 116.633 571.885 102.554M526.591 154.804C539.571 138.176 555.702 119.585 568.708 105.533M534.267 147.769C541.995 139.963 555.693 125.7 574.336 109.256M533.427 149.215C548.271 131.027 564.069 117.649 572.191 106.803M543.509 142.662C551.483 130.37 562.03 125.297 571.727 111.376M545.969 142.513C554.608 131.378 566.415 118.122 574.905 108.021M559.273 135.504C565.373 130.134 567.15 120.856 575.272 107.32M557.54 136.678C562.012 126.533 568.76 121.215 579.893 108.363" stroke="#E64980" stroke-width="0.5" stroke-linecap="round"/>
<path d="M471.774 76.7618C490.049 82.2461 579.386 95.922 579.745 110.719C580.104 125.508 492.036 170.653 473.936 165.537C455.836 160.42 471.476 94.2574 471.153 80.0121M473.918 80.8006C492.045 87.0647 576.699 100.504 577.312 115.415C577.915 130.318 495.712 177.11 477.586 170.241C459.451 163.373 469.568 89.5353 468.518 74.2123" stroke="black" stroke-linecap="round"/>
<path d="M230.391 73.1328C230.907 73.3956 237.69 78.1265 240.298 81.7536M230.391 73.1328C233.366 75.4457 237.524 79.4932 240.298 81.7536M225.454 73.4745C230.741 75.6472 229.515 80.3693 238.005 84.3994M225.454 73.4745C228.964 74.517 231.738 77.6972 238.005 84.3994M219.853 73.2467C224.579 75.4019 228.439 78.3893 237.69 88.7711M219.853 73.2467C223.371 74.701 225.375 80.3168 237.69 88.7711M214.916 73.5971C218.575 77.8374 225.55 87.7548 238.032 93.7123M214.916 73.5971C223.345 82.7873 233.76 88.7974 238.032 93.7123M209.971 73.9388C217.656 84.89 225.367 88.6134 237.716 98.084M209.971 73.9388C221.052 83.5233 230.434 91.8199 237.716 98.084M206.356 75.4369C218.093 84.9863 220.815 86.5633 238.067 103.025M206.356 75.4369C214.207 81.3418 223.371 90.6021 238.067 103.025M204.063 78.0827C213.743 87.0715 225.349 101.255 237.751 107.397M204.063 78.0827C215.905 86.6772 226.434 95.517 237.751 107.397M203.748 82.4544C207.897 88.7185 216.999 91.9601 237.436 111.76M203.748 82.4544C210.908 89.9363 219.503 93.94 237.436 111.76M204.089 87.3956C210.916 92.9062 214.82 102.613 237.778 116.71M204.089 87.3956C216.623 100.362 231.292 111.918 237.778 116.71M203.774 91.7673C214.82 100.651 224.737 112.207 237.463 121.073M203.774 91.7673C214.794 101.212 225.944 110.919 237.463 121.073M204.116 96.7085C211.31 105.093 221.419 111.882 237.804 126.023M204.116 96.7085C214.05 108.089 224.929 114.844 237.804 126.023M203.801 101.08C213.673 105.759 222.61 116.762 237.489 130.386M203.801 101.08C212.614 108.623 220.693 113.608 237.489 130.386M204.151 106.021C214.872 116.333 219.678 118.322 237.839 135.336M204.151 106.021C214.093 115.431 224.623 123.517 237.839 135.336M203.836 110.393C218.732 125.62 226.251 133.978 237.524 139.699M203.836 110.393C211.757 118.006 219.371 125.339 237.524 139.699M203.52 114.756C217.91 126.391 228.097 136.247 237.209 144.07M203.52 114.756C214.916 123.692 227.248 134.871 237.209 144.07M203.862 119.706C214.601 133.478 228.57 139.558 237.55 149.011M203.862 119.706C213.638 127.407 219.056 133.145 237.55 149.011M203.547 124.069C216.798 133.373 229.953 144.832 237.235 153.383M203.547 124.069C212.536 132.304 221.393 141.205 237.235 153.383M203.897 129.019C214.409 142.055 228.658 152.656 237.585 158.324M203.897 129.019C212.072 135.887 220.544 143.352 237.585 158.324M203.582 133.382C215.783 139.69 222.014 152.568 237.27 162.696M203.582 133.382C212.964 143.142 223.704 150.877 237.27 162.696M203.923 138.332C210.452 145.761 218.155 153.523 237.611 167.637M203.923 138.332C216.343 146.935 226.662 159.279 237.611 167.637M203.608 142.695C214.023 148.495 223.31 161.102 237.962 172.587M203.608 142.695C218.102 154.303 230.566 163.52 237.962 172.587M203.293 147.066C214.304 153.812 220.246 161.881 235.66 175.233M203.293 147.066C214.662 158.035 223.642 166.857 235.66 175.233M203.643 152.008C215.441 159.603 226.653 173.183 233.366 177.879M203.643 152.008C214.312 161.811 225.122 169.582 233.366 177.879M203.328 156.379C210.251 166.875 221.761 174.891 227.765 177.642M203.328 156.379C208.501 162.424 217.796 167.777 227.765 177.642M203.669 161.321C212.894 170.055 215.091 169.775 222.828 177.993M203.669 161.321C212.649 169.424 216.754 173.735 222.828 177.993M203.354 165.692C208.772 165.298 213.096 174.12 217.227 177.765M203.354 165.692C207.284 170.265 213.402 173.165 217.227 177.765M201.717 168.908C206.33 171.071 204.65 170.975 211.625 177.537M201.717 168.908C205.814 173.279 209.253 176.372 211.625 177.537M204.159 83.1991C207.372 81.6046 209.201 81.4995 211.048 75.2617M204.159 83.1991C205.008 81.5345 206.846 79.6422 211.048 75.2617M203.932 88.7974C209.621 83.7248 213.586 80.1853 215.993 74.92M203.932 88.7974C207.844 85.0827 212.579 79.4144 215.993 74.92M204.282 93.7473C211.048 89.9713 210.47 84.7936 220.352 75.2354M204.282 93.7473C209.533 85.7047 213.997 81.885 220.352 75.2354M204.046 99.3543C209.647 88.517 222.75 84.8637 225.297 74.885M204.046 99.3543C210.759 93.5195 214.829 85.4945 225.297 74.885M203.818 104.953C208.273 96.5771 218.837 85.88 231.38 73.2204M203.818 104.953C214.417 92.7135 223.634 81.9288 231.38 73.2204M204.168 109.902C212.667 100.099 225.638 84.5833 235.169 74.1928M204.168 109.902C214.365 97.4532 226.785 85.3893 235.169 74.1928M203.941 115.501C220.36 98.268 231.861 84.6534 238.39 75.8311M203.941 115.501C217.236 99.6347 230.933 83.4619 238.39 75.8311M203.704 121.108C216.842 108.834 225.305 92.731 239.887 79.4494M203.704 121.108C218.872 103.2 230.417 87.527 239.887 79.4494M204.054 126.049C214.767 116.631 222.68 104.865 241.375 83.0765M204.054 126.049C209.752 117.577 218.015 108.921 241.375 83.0765M203.827 131.656C214.137 121.484 219.074 116.517 241.147 88.6835M203.827 131.656C214.925 116.018 230.968 100.73 241.147 88.6835M203.599 137.263C213.481 126.285 225.901 112.145 241.498 93.6246M203.599 137.263C211.564 127.048 221.839 119.548 241.498 93.6246M203.941 142.204C214.102 125.786 229.822 113.871 241.261 99.2317M203.941 142.204C216.78 129.22 225.139 118.55 241.261 99.2317M203.713 147.811C217.743 129.045 233.183 117.866 241.611 104.173M203.713 147.811C213.735 137.78 222.942 126.356 241.611 104.173M203.485 153.418C213.848 140.776 229.9 122.825 241.384 109.78M203.485 153.418C210.654 145.148 220.745 135.887 241.384 109.78M203.827 158.359C219.196 148.048 224.719 128.861 241.156 115.387M203.827 158.359C215.896 143.194 231.879 126.023 241.156 115.387M203.599 163.966C219.818 148.039 228.535 134.284 241.498 120.328M203.599 163.966C211.783 155.302 219.678 147.154 241.498 120.328M204.518 168.25C214.093 160.12 220.772 145.025 241.27 125.935M204.518 168.25C213.113 158.999 223.336 149.826 241.27 125.935M206.015 171.869C219.004 157.422 227.695 142.581 241.042 131.533M206.015 171.869C216.597 156.809 229.962 144.946 241.042 131.533M207.503 175.496C221.13 160.716 233.734 145.568 241.384 136.483M207.503 175.496C220.168 160.681 231.905 147.697 241.384 136.483M210.724 177.125C217.761 163.905 228.325 154.443 241.156 142.09M210.724 177.125C220.036 164.956 231.073 151.535 241.156 142.09M215.091 177.449C218.794 173.656 228.684 162.302 240.929 147.688M215.091 177.449C220.378 169.398 229.025 162.749 240.929 147.688M220.028 177.099C223.581 171.001 230.102 165.85 241.27 152.638M220.028 177.099C227.301 167.996 237.699 159.49 241.27 152.638M224.395 177.414C231.957 171.553 229.892 171.956 241.042 158.237M224.395 177.414C230.189 172.175 234.846 166.349 241.042 158.237M229.332 177.073C234.417 173.656 232.736 169.293 240.815 163.844M229.332 177.073C232.964 173.104 236.579 166.665 240.815 163.844M234.846 176.065C235.555 172.359 237.288 172.666 241.165 168.785M234.846 176.065C236.071 173.542 238.688 171.378 241.165 168.785" stroke="#868E96" stroke-width="0.5" stroke-linecap="round"/>
<path d="M240.079 81.7798C241.025 112.312 238.723 145.078 240.079 167.287M240.079 81.7798C242.127 110.866 242.075 141.775 240.079 167.287M240.079 167.287C240.788 175.25 236.57 173.612 230.968 176.407M240.079 167.287C241.655 174.041 234.119 174.374 230.968 176.407M230.968 176.407C224.911 174.041 216.938 174.9 212.754 176.407M230.968 176.407C225.725 176.021 219.905 178.326 212.754 176.407M212.754 176.407C208.999 178.431 205.752 171.352 203.652 167.287M212.754 176.407C207.546 176.03 203.949 175.031 203.652 167.287M203.652 167.287C202.776 139.725 203.818 116.088 203.652 81.7798M203.652 167.287C204.185 137.903 204.614 107.493 203.652 81.7798M203.652 81.7798C202.33 72.6159 205.104 73.9475 212.754 72.6597M203.652 81.7798C204.929 78.4857 207.013 69.8912 212.754 72.6597M212.754 72.6597C217.533 69.3918 224.824 74.7185 230.968 72.6597M212.754 72.6597C217.533 73.4569 220.894 70.8462 230.968 72.6597M230.968 72.6597C237.532 69.348 237.322 74.3681 240.079 81.7798M230.968 72.6597C237.672 73.93 236.867 74.4294 240.079 81.7798" stroke="black" stroke-linecap="round"/>
<path d="M395.431 107.595C398.739 110.845 406.739 115.454 409.067 120.973M392.989 106.176C399.86 111.24 404.892 115.944 408.7 120.272M388.954 105.396C395.545 112.344 399.545 117.951 408.542 123.102M388.569 107.464C394.459 111.625 400.822 115.909 409.925 124.127M384.114 106.693C394.599 114.332 404.175 124.758 409.129 129.313M385.077 108.944C391.527 114.078 398.162 119.16 410.8 130.733M381.637 109.715C388.114 117.951 395.764 122.129 409.785 133.492M381.751 111.126C391.562 119.107 402.24 128.446 408.892 132.117M380.289 111.292C387.107 119.519 397.427 125.678 405.19 135.271M378.495 111.511C384.84 118.45 392.849 123.82 405.741 135.446M374.723 114.656C386.197 122.042 397.917 134.447 403.159 137.54M375.834 114.613C383.353 120.22 391.317 127.719 401.995 138.215M374.95 118.126C382.18 126.142 392.788 131.933 400.359 139.765M375.615 117.618C382.845 124.714 389.173 130.812 399.781 139.432M374.775 121.805C379.09 125.397 386.057 133.676 397.855 139.389M372.639 120.973C379.799 126.633 384.954 131.145 395.974 141.57M371.572 126.116C379.099 129.357 385.488 138.285 393.26 140.852M371.353 123.847C377.9 130.645 383.921 135.656 392.28 142.402M375.432 130.277C381.068 135.77 383.711 139.24 386.845 144.82M374.434 131.854C379.003 135.665 384.044 139.108 387.729 144.041M374.145 121.683C379.913 115.638 383.09 112.449 385.479 108.226M374.381 122.007C377.086 118.774 380.359 114.586 387.125 107.735M376.097 124.013C380.858 118.406 387.44 112.273 391.466 108.121M375.572 125.029C379.589 122.226 382.232 117.74 391.545 106.526M376.219 129.48C382.328 123.715 385.899 119.79 393.943 109.558M378.075 127.885C380.595 124.67 385.269 120.369 395.186 107.367M378.372 133.694C383.694 127.307 387.685 124.223 398.03 108.629M379.029 131.714C385.033 124.258 392.193 117.469 399.545 109.076M380.193 138.215C384.385 128.753 391.895 124.495 403.509 111.73M380.219 136.349C386.442 127.807 394.013 120.027 403.378 110.477M381.479 139.783C386.32 132.669 393.147 126.624 405.076 112.598M382.941 138.705C390.223 130.689 397.374 122.173 405.146 112.344M386.941 141.141C394.757 131.293 400.621 123.996 406.617 114.411M385.917 140.58C390.284 134.325 396.367 128.026 407.186 115.454M390.048 143.252C395.729 135.034 402.205 126.764 410.459 117.933M388.849 141.307C394.153 136.69 398.669 129.655 410.678 117.898M392.052 142.551C401.33 134.482 409.794 127.114 411.807 122.261M392.604 144.146C395.982 138.591 400.787 133.966 412.279 121.516M396.919 143.979C401.908 139.441 405.575 134.298 412.49 126.484M398.109 143.568C402.485 136.524 409.102 128.744 413.015 125.301" stroke="#228BE6" stroke-width="0.5" stroke-linecap="round"/>
<path d="M410.433 129.883C409.199 133.247 404.84 137.417 401.4 139.318C397.969 141.228 393.584 141.912 389.812 141.334C386.048 140.755 381.453 138.898 378.775 135.849C376.105 132.8 373.882 127.009 373.769 123.032C373.646 119.046 375.414 114.893 378.057 111.941C380.709 108.979 385.698 105.825 389.646 105.282C393.593 104.739 398.363 106.491 401.75 108.664C405.137 110.828 408.796 114.569 409.995 118.275C411.194 121.972 409.321 128.534 408.945 130.864C408.577 133.203 407.956 132.415 407.763 132.292M408.315 132.275C407.168 135.595 404.945 139.231 401.321 140.799C397.698 142.367 390.565 142.665 386.591 141.684C382.626 140.703 379.458 138.022 377.497 134.894C375.528 131.758 374.232 127.088 374.801 122.9C375.362 118.713 378.049 112.86 380.893 109.777C383.738 106.693 388.35 104.669 391.86 104.415C395.37 104.152 399.046 105.641 401.969 108.235C404.901 110.837 408.227 116.049 409.435 119.983C410.634 123.917 409.26 129.953 409.172 131.845C409.085 133.738 409.382 131.504 408.884 131.337" stroke="black" stroke-linecap="round"/>
<path d="M337.39 173.1C337.834 173.946 338.983 174.421 339.552 175.613M337.228 172.961C338.28 173.708 339.086 174.721 339.833 175.438M331.752 172.479C334.166 173.951 334.656 175.839 337.47 178.161M332.123 172.815C333.733 173.793 334.853 174.653 337.108 177.553M326.758 172.634C329.916 175.826 331.09 176.946 333.119 179.727M327.099 172.474C330.326 174.89 332.756 177.975 333.742 179.12M323.257 172.189C324.725 175.839 328.047 180.764 330.647 182.66M322.33 171.78C326.164 176.413 329.763 179.948 331.483 181.677M317.069 172.147C321.716 175.144 321.736 177.514 330.245 183.79M318.739 172.603C323.12 176.947 327.133 181.281 328.794 184.227M311.61 172.731C318.527 176.526 323.526 182.806 326.389 184.895M313.335 172.903C316.292 176.172 319.144 179.175 325.755 186.056M307.407 172.006C312.877 178.244 318.589 181.585 321.761 188.986M308.893 173.077C310.893 176.692 314.813 179.299 323.244 188.491M303.658 171.58C305.956 177.962 309.402 178.603 319.971 191.608M303.065 172.683C307.442 176.719 309.844 181.42 320.281 190.794M297.696 171.208C305.079 179.706 313.538 186.937 319.124 194.033M298.696 171.598C304.789 179.263 310.99 185.399 317.094 193.4M292.642 170.38C300.393 181.731 310.11 190.197 315.558 195.58M292.654 171.94C297.436 177.925 303.289 181.35 315.118 195.765M287.971 172.337C296.293 179.255 301.816 186.899 310.823 198.807M288.947 172.513C297.469 181.054 305.293 191.056 312.451 197.208M282.406 172.392C292.937 180.815 302.082 190.262 308.647 197.692M284.63 173.387C290.537 179.106 297.621 188.049 308.796 198.764M280.793 173.49C283.597 179.728 289.985 187.264 308.509 200.769M278.904 172.853C285.125 179.044 290.329 183.61 307.159 201.083M273.785 173.384C285.744 184.343 296.287 197.882 304.628 203.191M276.055 173.107C284.446 182.885 292.571 193.305 303.577 204.214M272.656 172.523C280.21 182.49 289.82 195.153 300.964 204.306M271.215 173.216C276.91 180.728 283.364 187.064 300.854 206.126M266.723 175.939C276.616 184.317 286.972 197.529 297.007 206.598M265.966 173.637C276.217 184.62 284.248 193.587 297.77 207.695M261.53 173.848C273.104 188.695 285.099 200.723 294.866 208.419M262.862 175.855C272.722 185.268 281.005 194.629 296.191 209.422M259.347 176.439C268.345 185.766 279.558 200.454 294.227 213.179M257.631 174.754C267.831 187.141 278.36 197.536 292.054 211.854M253.327 175.409C265.742 187.541 274.799 199.568 290.553 216.001M252.905 175.315C260.848 183.577 270.255 192.954 290.326 214.913M249.86 175.241C263.541 191.741 281.166 207.401 287.093 218.078M248.732 177.224C263.725 191.742 277.323 205.963 287.301 217.394M247.617 179.068C260.967 193.572 275.01 205.962 284.542 217.719M246.749 177.705C260.575 194.422 276.869 210.46 284.156 219.661M241.766 178.909C254.063 190.897 266.677 203.506 280.367 221.776M242.568 178.619C254.448 191.542 265.252 203.417 282.812 221.068M240.053 182.075C247.26 192.712 257.463 202.573 277.273 224.418M240.215 181.51C249.424 191.642 257.567 201.078 278.274 223.989M238.47 186.258C251.429 198.135 264.131 210.207 276.476 226.161M238.242 185.267C248.267 197.196 259.897 208.906 276.146 225.758M233.88 186.946C243.997 196.701 254.818 207.618 274.539 226.18M234.578 187.896C250.497 203.104 264.835 218.736 272.454 227.337M234.737 189.839C247.611 204.182 262.825 219.4 268.588 229.074M233.3 190.233C242.672 199.607 250.659 208.041 270.896 229.392M232.739 196.692C246.091 206.742 254.139 217.41 265.935 232.508M233.006 194.447C244.177 206.974 254.619 217.088 267.273 230.185M231.445 200.798C243.325 212.471 255.555 225.667 264.596 235.007M233.074 199.445C244.591 212.033 256.498 225.382 263.854 233.71M232.589 205.233C239.35 213.08 248.03 223.317 262.724 236.062M232.312 205.004C241.117 212.648 248.959 221.393 261.417 234.339M232.647 211.128C241.859 220.169 252.03 229.736 256.38 236.708M232.082 209.91C238.585 217.255 245.712 222.559 257.221 237.276M233.776 215.536C242.732 223.785 249.472 232.827 255.346 239.687M232.935 215.867C238.657 221.145 243.66 227.39 254.448 239.157M233.605 221.805C237.882 227.908 246.252 234.963 250.948 241.195M233.74 219.908C239.813 227.598 246.919 235.513 252.868 241.879M232.689 225.983C237.476 229.258 238.76 232.634 247.62 242.652M233.555 225.33C238.136 230.855 244.621 236.605 247.895 242.186M235.529 235.42C238.35 235.974 240.772 239.859 245.524 244.098M236.858 234.963C239.06 236.889 241.021 239.734 245.358 243.193M239.382 186.463C245.043 181.347 248.917 178.906 249.745 177.025M240.205 187.205C242.72 185.174 245.062 182.661 250.777 175.314M235.711 195.103C241.662 187.42 249.229 181.886 255.789 175.24M236.144 194.645C239.717 190.713 244.141 187.076 257.975 174.216M233.649 200.383C241.337 192.476 248.361 186.923 262.217 174.814M235.141 201.394C243.35 191.866 253.957 183.879 262.303 175.192M233.209 207.32C242.066 198.534 249.414 190.584 269.399 173.705M234.708 206.219C247.212 193.015 260.436 181.785 269.188 174.23M232.984 210.035C246.596 197.461 263.969 183.949 275.502 171.318M234.741 210.685C245.396 200.881 254.368 191.191 274.682 173.297M236.435 214.63C247.577 202.84 263.322 188.885 276.816 173.509M234.643 215.226C249.309 202.484 261.703 189.692 277.965 174.424M236.39 221.122C246.144 209.758 254.792 201.92 283.905 173.245M233.926 220.692C248.054 208.416 260.514 196.634 282.331 175.192M233.181 226.085C246.761 213.569 262.807 199.776 288.592 174.23M233.694 226.321C247.007 211.965 262.111 199.161 289.123 174.291M236.717 228.839C254.017 211.174 268.937 196.318 294.734 173.238M234.534 228.851C249.202 216.189 263.31 204.201 293.486 173.756M236.156 233.08C255.668 216.268 271.45 199.367 298.884 174.055M235.689 232.822C254.114 215.876 272.732 199.301 299.057 173.808M236.303 237.02C254.832 218.227 272.739 205.358 304.214 174.769M238.937 236.173C254.6 220.299 271.071 205.148 304.564 173.721M240.934 239.461C258.818 222.118 277.028 204.771 307.3 173.711M240.817 239.397C265.148 216.461 288.598 193.28 308.981 174.768M242.433 240.314C264.333 218.828 290.4 196.663 312.499 175.302M242.558 241.445C262.578 224.921 282.034 206.713 313.381 174.659M246.099 240.775C276.865 215.829 304.549 190.129 320.818 175.063M246.302 242.899C275.021 216.069 303.557 189.044 318.56 175.033M256.356 238.018C275.391 220.243 298.998 200 323.614 173.114M256.119 238.989C272.176 224.193 287.948 207.485 324.71 174.842M271.541 226.876C286.997 213.271 302.005 197.429 328.143 173.573M272.35 228.744C291.089 209.602 312.163 190.876 328.799 174.412M280.419 223.383C301.082 207.557 318.658 188.264 332.411 175.062M281.295 224.219C299.097 208.681 315.666 191.823 334.089 175.167M315.003 198.967C321.221 194.091 328.242 185.458 340.182 175.913M313.966 199.761C319.823 193.283 325.886 186.509 338.434 175.528" stroke="#228BE6" stroke-width="0.5" stroke-linecap="round"/>
<path d="M341.821 174.016C325.955 185.274 262.577 239.947 246.042 240.734C229.515 241.522 226.489 189.997 242.655 178.724C258.821 167.451 326.582 174.236 343.047 173.09M342.675 173.291C326.659 184.825 264.381 241.984 247.534 242.722C230.695 243.461 225.802 189.295 241.627 177.733C257.462 166.163 326.042 174.094 342.531 173.329" stroke="black" stroke-linecap="round"/>
<path d="M251.258 12.9104C281.238 35.3373 312.293 53.9601 337.733 76.1867M253.223 12.768C270.863 26.852 288.036 40.1197 339.393 74.0323M243.502 11.4186C281.341 36.9115 318.045 66.0298 338.171 80.0781M243.71 10.5881C277.725 35.0349 310.967 58.3349 339.377 79.7294M239.533 13.0893C270.335 35.1969 302.701 57.642 333.225 78.3599M238.734 11.3288C261.651 27.8024 284.26 44.5354 334.035 78.6403M235.039 13.8967C263.606 32.978 289.297 51.4383 326.339 78.6391M237.076 14.5746C259.419 30.4889 281.475 45.7276 326.308 79.6633M235.71 17.7386C268.035 41.3761 302.263 66.55 322.987 80.5918M233.477 16.9568C264.778 38.5923 297.182 60.6286 321.465 79.7835M234.776 20.7451C253.608 36.2952 271.454 49.2584 316.831 80.5167M233.37 20.4974C252.795 36.8778 274.56 51.4851 315.565 78.565M234.285 25.9172C258.77 43.2121 283.473 61.4625 308.403 79.6991M232.692 24.4909C255.225 42.1382 277.361 56.8583 309.481 79.4776M232.252 29.4555C253.605 43.0122 274.533 58.6797 301.619 78.6124M232.647 28.0254C251.074 42.5946 271.577 56.8079 302.733 78.669M232.237 34.7299C245.422 43.5258 259.406 49.5486 297.593 78.4578M231.876 32.9436C254.927 48.9021 278.723 67.0577 296.809 79.1607M230.463 35.7336C249.965 51.2964 268.419 62.4034 291.314 81.1328M231.731 37.3419C245.183 46.525 258.485 57.2987 292.176 79.8059M232.332 39.6853C244.317 50.3963 260.421 61.3054 285.585 78.7969M231.454 42.2814C243.376 49.6006 255.432 58.7112 285.642 80.1733M230.18 46.202C248.824 58.6986 264.813 68.3603 280.393 79.8409M231.512 45.5327C248.936 57.9569 264.838 68.6044 279.468 79.387M230.907 47.0542C246.472 60.2615 265.553 74.8538 275.003 79.0647M229.98 49.3381C244.252 59.5138 260.222 69.6087 274.109 80.3419M231.05 53.6597C243.385 60.7971 254.843 70.9794 266.294 78.6975M230.715 54.1772C240.466 61.0782 251.585 67.8347 266.445 78.5329M233.046 59.958C239.101 65.4129 249.722 70.8719 259.835 77.517M231.123 57.5962C239.87 65.2748 250.913 72.0652 259.428 77.3109M235.512 65.4085C241.489 68.8289 246.382 71.7848 247.769 76.2861M235.435 65.5218C239.067 68.2684 242.441 71.428 248.238 74.6286M233.216 26.666C234.632 20.5393 237.575 17.386 240.714 11.2466M233.221 26.2781C236.029 22.6541 236.946 19.033 242.229 13.1383M232.259 31.0393C236.279 27.8406 240.824 20.7077 249.309 10.9033M232.438 31.1623C238.949 23.8077 242.984 17.2976 248.279 9.73802M232.23 39.273C240.115 29.0088 247.444 20.1468 250.667 12.8019M232.35 38.2663C236.525 33.1771 241.239 26.0538 250.935 12.0446M230.232 46.9011C238.538 34.0511 246.612 25.2471 255.042 13.9077M231.305 45.835C238.329 36.4663 244.298 28.1707 255.582 12.1639M230.615 49.4423C239.369 40.2187 244.781 31.0894 259.035 12.9213M231.963 50.2592C240.969 38.3431 248.338 26.7746 258.6 14.7514M233.774 55.1409C243.697 42.6232 254.039 28.3913 260.171 16.1359M232.802 56.3378C243.08 41.5489 251.962 29.0906 260.893 16.3195M234.988 59.9411C244.934 42.1482 258.732 26.3934 264.335 19.2873M234.398 59.8413C241.357 49.4667 250.306 38.1198 263.735 17.7537M235.768 63.5521C244.395 48.5222 257.145 33.4614 266.261 21.4112M236.335 64.5697C243.63 53.5895 250.155 44.244 266.48 20.1571M238.96 65.0571C246.624 54.8591 253.202 47.3833 269.507 21.9427M239.47 66.2918C247.923 51.1032 258.923 38.0912 270.327 23.12M242.246 69.9949C251.323 53.195 263.645 35.9495 272.379 24.1222M241.603 67.9373C249.238 58.4287 255.933 47.2528 272.13 23.3898M242.18 70.5649C250.346 60.5633 258.171 50.4019 274.393 25.5418M243.963 71.4265C255.67 53.5643 267.752 38.156 275.992 25.6118M247.426 74.8677C255.337 60.3316 264.631 46.1686 279.739 27.0354M246.599 73.0924C253.698 63.681 259.837 55.1397 278.069 27.932M249.971 73.7434C261.178 60.0682 271.637 44.0817 283.125 28.8116M249.856 74.5382C257.184 63.9773 265.192 52.4598 281.44 30.7133M253.928 74.1777C261.795 61.5034 271.405 50.2669 283.648 31.0661M254.085 74.5143C264.557 58.7553 275.798 43.1137 284.372 32.1649M257.682 75.759C264.885 64.7264 271.224 57.5913 287.288 32.8348M258.232 75.0089C268.218 60.4603 277.927 45.8688 286.521 33.4304M263.006 77.29C269.364 67.1511 276.976 56.5181 288.375 37.1459M262.175 75.7352C270 63.7077 278.982 52.0845 290.346 36.0874M267.157 76.6663C274.427 66.3137 282.573 55.8388 290.894 38.3306M265.543 76.4394C273.463 65.7228 281.49 53.4287 292.922 38.9213M270.11 75.6599C281.769 63.7092 289.193 47.8923 295.385 40.5164M270.518 76.4029C276.481 68.6712 282.053 60.2742 295.65 41.4232M274.66 78.1745C282.378 67.7333 288.328 57.5557 299.014 43.501M273.119 76.6462C279.159 69.8665 284.735 61.7685 297.987 42.1945M276.901 79.9325C284.944 70.4625 290.408 60.2629 301.366 45.4945M276.987 79.2021C282.25 69.5506 287.921 61.7865 301.468 44.921M281.078 79.5616C286.014 69.8985 292.524 61.6373 303.404 46.5332M281.194 77.5342C287.093 68.4445 294.449 60.4689 303.204 47.7944M286.889 77.2237C292.79 70.3697 296.453 63.1219 305.314 48.6763M285.137 77.653C291.37 69.3576 297.552 60.812 306.252 49.0849M289.679 79.6402C292.496 74.2458 298.974 68.0652 308.862 51.8186M291.036 77.7976C294.062 71.7575 297.358 66.3155 309.885 50.7751M293.783 78.0881C301.395 69.8582 305.9 62.9492 311.786 54.257M295.38 78.1407C300.427 69.9455 304.832 63.5307 311.951 54.3198M299.893 77.6131C304.835 68.3632 311.35 61.3162 313.673 55.3723M299.191 79.0474C302.381 72.806 307.869 66.847 315.269 55.8564M304.751 79.4192C308.374 72.9237 310.589 69.7019 318.828 58.0381M303.334 77.6322C307.428 71.7149 312.911 64.4623 316.979 58.2834M307.259 79.8743C312.138 74.7769 315.009 68.7698 319.81 59.4282M306.542 77.604C311.291 72.6163 315.144 67.0309 319.641 60.651M310.576 77.3001C314.88 71.7316 318.47 68.9013 324.681 62.4303M312.25 77.6003C314.506 74.172 317.075 70.7212 322.078 62.1695M317.79 79.1803C320.593 71.8682 324.48 67.3271 326.753 64.0818M316.845 78.7019C319.288 73.1687 323.957 67.5551 325.385 64.297M321.695 77.9384C323.665 74.0191 324.936 72.4667 328.637 67.1166M320.34 78.5484C322.75 75.2632 323.867 72.0624 328.265 67.0038M324.95 78.7418C325.682 75.7377 328.141 73.2135 331.714 67.9024M324.959 77.6758C326.898 74.7807 328.632 71.8619 331.697 68.4411M328.609 77.8501C329.865 76.1409 331.556 74.4763 333.957 71.0071M329.374 77.4924C331.091 75.4645 331.926 73.6825 333.783 70.8484M334.017 77.7442C334.33 76.5512 334.619 75.2988 336.424 73.6318M333.674 77.567C334.659 76.0519 335.283 75.1624 336.678 73.2632M337.498 78.4371C338.148 77.2722 338.57 76.5525 339.588 75.2893M337.439 78.1085C337.931 77.2058 338.571 76.5699 339.692 75.2702" stroke="#228BE6" stroke-width="0.5" stroke-linecap="round"/>
<path d="M340.978 75.2919C324.979 64.2844 260.95 10.5039 244.515 9.75105C228.08 8.99822 226.397 59.7029 242.366 70.7662C258.327 81.8304 324.006 74.9885 340.304 76.1335M342.094 76.6159C326.408 65.5685 262.665 10.3247 245.929 9.28487C229.193 8.24505 225.631 59.2509 241.675 70.3595C257.719 81.4595 325.42 74.8745 342.209 75.9178" stroke="black" stroke-linecap="round"/>
<path d="M186.592 83.6811C190.193 84.4572 190.439 87.411 197.564 94.9309M186.215 83.4778C189.714 85.6081 191.613 88.0955 197.406 94.3789M180.496 80.1141C187.903 89.3769 196.318 96.105 200.833 102.319M180.304 80.9229C187.264 87.5997 192.927 94.0467 200.262 103.232M175.985 81.0372C186.617 92.0696 195.939 102.281 201.577 107.608M175.673 80.6201C180.645 86.1034 185.555 91.8711 200.963 107.497M169.556 82.4365C179.93 91.1035 189.893 99.9423 203.712 114.351M170.623 81.386C177.506 88.6802 185.126 96.2738 202.268 114.459M166.537 82.0065C174.478 91.5756 185.809 101.364 203.479 120.752M167.066 81.9868C179.873 96.3074 193.946 111.189 202.772 119.497M161.643 80.1211C173.068 93.1741 185.599 107.16 201.628 125.864M161.23 80.8559C176.103 96.8439 193.232 114.06 202.199 125.135M156.516 80.5011C174.255 100.266 191.744 121.177 203.998 130.508M156.854 81.1935C168.214 93.1755 180.075 106.543 204.276 131.195M151.713 81.6337C166.822 98.366 180.065 113.556 203.433 135.32M153.081 83.3224C170.473 102.306 188.016 119.606 203.139 136.375M147.977 81.8919C162.137 95.2157 175.709 109.354 200.817 141.731M147.823 82.4932C158.909 95.4082 170.006 106.371 202.13 140.317M144.081 84.2114C154.132 95.8922 165.697 108.211 201.766 145.051M144.571 84.6015C165.56 106.798 185.758 127.142 202.237 144.261M138.077 82.5276C152.922 100.739 166.066 115.4 202.373 147.996M140.043 83.7631C154.896 100.603 169.785 115.404 201.149 149.586M136.192 83.9486C148.814 99.4746 165.462 114.365 199.534 153.787M135.99 86.1555C161.067 111.401 184.223 137.422 201.116 153.701M130.37 85.8988C151.528 107.61 174.621 130.607 200.68 158.552M132.178 86.3888C153.606 108.408 175.816 132.27 199.228 157.823M129.256 85.6865C153.153 113.706 175.345 136.563 199.383 160.434M127.943 86.1767C153.065 113.988 180.139 141.889 197.352 161.269M123.37 85.8091C146.103 108.525 166.014 132.801 196.556 166.015M123.331 86.7733C149.975 116.692 178.376 145.891 196.81 164.913M118.364 86.7639C149.242 118.013 175.009 145.428 195.19 168.436M119.576 88.8071C139.993 108.151 157.834 127.679 194.431 168.372M114.469 90.166C132.419 107.267 147.083 123.499 193.861 170.482M114.51 89.3691C140.484 115.625 166.977 142.986 193.402 171.415M111.848 88.8853C139.389 120.377 167.77 149.873 192.623 172.581M111.083 89.7184C136.467 116.991 162.968 144.169 191.875 173.97M106.429 89.9326C133.866 115.686 158.949 144.646 188.908 175.015M108.338 90.749C129.764 113.34 151.646 135.481 188.995 177.056M104.303 92.58C132.001 126.014 162.927 155.472 186.115 177.29M104.514 92.5826C127.056 114.814 148.519 139.133 184.794 177.401M101.298 94.9585C122.975 117.776 142.883 142.35 181.294 178.421M99.9333 92.3023C119.89 115.359 140.583 137.343 182.08 179.218M95.4029 93.1531C118.78 118.421 142.294 142.901 176.739 179.534M95.5986 93.6822C122.702 123.029 149.701 150.518 176.424 180.163M91.176 94.8777C110.572 113.305 126.774 131.946 172.472 178.087M92.5937 95.2247C119.061 123.402 145.448 150.12 173.113 179.846M89.6937 95.2989C106.138 116.84 125.817 138.384 169.387 180.281M89.3059 96.2297C115.412 124.417 142.848 153.954 168.139 180.822M84.6216 95.7459C102.479 116.666 123.797 138.815 162.406 180.73M84.0841 96.3103C107.58 121.625 130.834 145.059 162.618 180.451M81.9109 100.009C110.137 131.039 140.575 159.35 157.637 179.015M79.8238 98.5686C102.995 122.215 127.173 146.565 158.94 181.489M75.1243 100.547C102.874 127.906 130.454 158.152 154.519 181.84M76.1617 98.7986C103.983 130.018 132.615 158.817 155.925 182.679M73.3165 100.233C90.1346 120.526 109.989 142.72 150.095 181.478M72.8579 100.893C101.276 131.202 130.507 161.29 150.35 181.203M68.8979 100.743C88.2132 124.627 111.304 144.421 143.616 179.256M69.3423 100.785C90.2975 122.504 109.625 144.233 144.389 180.096M64.1702 103.66C83.5596 123.821 102.653 144.41 138.078 180.811M64.7594 102.185C88.1927 128.066 113.237 152.816 139.965 180.657M59.6426 103.746C77.5571 123.052 97.9987 141.861 133.762 180.521M60.5048 103.74C88.6203 132.797 115.486 161.127 134.056 180.663M58.1 106.088C72.8831 119.789 88.9535 138.61 129.735 178.305M57.9478 104.551C77.1132 125.676 97.1991 146.554 127.954 179.19M54.8653 106.078C75.1141 125.801 92.2367 146.035 123.843 179.976M55.0132 105.449C80.5903 133.005 105.797 159.469 123.141 177.84M49.4708 107.875C77.6195 132.623 101.375 162.591 117.343 175.666M50.5345 106.956C72.6839 131.455 94.4912 154.012 116.808 177.216M46.6194 109.468C63.0393 124.627 79.4199 142.502 109.764 175.943M47.0334 108.17C70.979 134.302 94.6192 160.501 111.967 177.175M41.5364 108.646C57.879 122.866 71.6004 136.359 103.839 175.745M42.9473 109.433C65.6672 132.746 89.1526 157.619 104.567 175.481M40.0675 111.691C53.104 125.91 66.3747 138.507 100.91 175.201M39.2164 110.474C52.2961 124.795 66.9275 140.636 99.1798 174.349M35.1184 112.599C58.3848 135.806 79.0664 159.838 89.4181 170.774M36.0218 112.254C47.6726 126.068 60.995 139.135 91.8637 170.577M32.7072 112.896C47.9951 130.243 65.61 149.741 85.6018 167.46M32.3537 114.481C52.3873 135.169 72.3656 154.964 83.9862 168.265M27.8339 116.142C40.8755 128.373 53.2141 141.523 79.2402 165.848M29.2336 114.006C45.5334 134.293 63.8094 152.024 78.4238 166.755M26.4492 114.989C36.698 130.041 47.1625 139.887 70.9092 163.589M24.3654 115.264C37.1075 127.502 47.6901 139.058 72.2446 164.43M22.3555 118.081C35.3548 131.769 48.9764 145.939 65.9617 163.282M22.2917 117.644C35.5541 132.906 50.2773 148.616 64.5545 163.931M18.5943 117.783C32.9512 137.329 50.9218 153.746 62.4549 165.753M18.4278 119.712C27.094 128.039 36.5115 137.89 61.5768 164.913M14.2286 120.224C28.3338 136.421 43.8305 150.568 52.48 161.833M14.6146 119.865C28.3216 134.061 41.413 148.259 54.1327 161.929M12.0877 124.138C20.0355 131.516 29.5834 141.292 43.201 154.951M13.112 123.356C18.8285 129.975 26.1795 136.513 41.2278 154.437M11.5005 127.434C14.0869 132.302 17.4299 137.074 33.4621 148.651M11.2176 125.7C17.2567 133.362 25.3487 141.256 32.9164 148.748M11.8558 131.358C14.5378 134.21 20.4139 138.698 20.7366 141.949M10.0505 131.017C12.7156 133.772 15.5281 137.561 22.619 142.587M12.811 128.352C14.4973 125.055 20.2786 120.311 25.5785 115.636M12.691 128.595C17.0355 123.336 23.2302 117.945 25.5829 114.668M12.3677 131.706C16.9665 128.204 25.3901 119.912 34.8248 112.359M11.7688 133.743C19.2451 125.703 27.684 119.278 33.3254 111.855M15.3262 135.623C19.1783 130.088 26.8723 124.005 40.9969 108.771M13.3655 136.175C22.3476 126.731 30.9067 119.508 41.1644 109.227M16.5616 137.88C23.4501 129.643 33.868 120.724 50.1496 105.001M15.9834 138.687C27.1198 127.769 39.4832 115.049 49.3196 106.972M19.9283 142.127C33.583 127.948 46.0677 114.695 58.2214 102.606M19.0055 140.833C31.6922 129.148 45.1544 116.341 58.0238 104.215M19.5083 144.04C29.715 135.215 39.1368 123.191 66.6878 102.986M21.0606 143.899C33.9239 131.377 46.0619 118.9 64.9383 100.495M24.7559 146.637C37.3212 131.526 52.2906 119.418 69.169 104.35M23.7565 146.146C34.7362 134.658 45.3645 125.653 67.8866 102.679M28.0435 147.568C40.6985 133.636 56.5134 121.696 74.9411 101.269M26.9807 148.109C45.9828 128.572 64.8933 109.995 76.1057 101.688M29.8 148.511C43.7822 135.322 58.0395 121.737 81.2597 99.2781M30.2593 148.766C42.9753 136.221 57.3852 124.446 82.6543 99.1301M34.6221 150.407C46.9589 137.967 60.4098 126.566 89.0381 98.2984M34.3853 151.414C49.4887 136.52 63.2172 122.119 89.5946 98.0877M37.4509 153.934C59.0567 132.544 79.6008 113.894 96.0623 94.1666M37.1534 152.26C60.0645 130 84.638 107.917 96.3388 95.0467M40.8623 152.738C64.7163 132.391 88.8224 106.822 104.988 95.7255M39.3501 155.04C58.8518 138.006 76.7965 120.427 103.966 94.3605M43.4372 154.595C68.1707 133.417 90.2182 109.701 109.055 93.4663M43.168 155.758C56.4275 143.599 70.8264 129.729 109.496 93.1742M46.9739 157.891C73.8407 134.444 96.7764 108.702 118.73 90.3012M46.7146 156.185C74.9229 131.397 103.306 103.299 118.453 89.2451M49.0353 159.232C71.4217 138.876 91.234 120.983 126.456 88.3046M51.3562 158.407C66.3481 142.746 83.3817 127.895 124.798 88.0754M53.8153 158.713C82.4236 132.221 110.839 105.543 132.121 86.8937M53.7488 160.792C79.4959 136.64 103.965 114.08 132.165 86.1587M57.0991 161.527C87.1416 135.577 117.267 108.112 137.565 83.6577M58.2707 161.78C85.8625 133.87 115.746 107.192 137.813 84.4647M63.3136 162.008C81.5872 143.563 103.265 121.423 144.114 84.505M61.8868 163.323C92.0562 134.754 121.634 105.847 143.45 85.2862M64.3286 166.021C86.3554 146.668 104.387 125.235 148.404 82.3024M65.1461 164.181C91.338 138.962 116.092 114.987 149.214 84.4127M69.8161 164.171C94.3448 143.571 120.673 117.661 156.723 82.4745M69.2778 164.744C88.1674 146.754 106.885 130.569 156.604 82.8062M72.77 165.466C92.1975 148.381 112.211 130.402 162.075 81.676M72.5992 166.241C103.793 138.184 133.314 109.491 163.054 80.6346M76.0786 166.821C109.765 135.764 140.882 106.758 170.32 80.4154M76.4688 167.8C105.79 142.309 134.3 115.376 169.099 80.5888M81.5152 167.254C115.668 134.446 151.257 99.2071 175.896 81.143M82.0642 168.503C106.2 144.187 131.477 119.901 173.58 80.3492M83.5563 168.347C121.333 135.068 159.121 102.125 179.483 79.3923M85.3456 169.407C110.021 145.89 135.109 120.724 178.776 79.7117M90.5093 170.764C114.826 145.11 141.748 120.251 184.266 81.056M88.8705 170.431C120.858 140.874 153.024 109.989 182.552 81.1382M94.5399 172.294C123.608 144.297 149.173 116.809 189.501 79.9207M92.2501 171.687C122.073 143.059 151.213 114.963 187.812 80.7533M96.1979 171.045C121.251 152.132 141.468 128.619 189.698 83.653M97.2368 172.596C128.731 143.6 158.399 113.46 191.593 84.0721M102.395 172.536C126.028 149.439 152.746 123.038 192.554 86.3465M102.31 172.968C120.724 155.997 138.75 137.476 193.166 86.0092M104.061 174.147C131.729 152.44 154.411 127.237 198.156 87.9918M104.61 175.124C140.735 140.543 176.836 105.371 195.725 88.4981M111.155 176.103C138.213 147.245 168.262 119.201 199.18 89.7883M109.898 176.282C135.41 150.821 162.671 124.623 197.888 91.0725M113.521 177.385C145.78 145.259 175.486 117.948 199.667 95.5547M112.923 176.378C138.155 152.924 162.773 129.455 199.514 94.0265M117.522 175.639C139.309 157.135 161.114 136.978 199.814 97.7071M118.003 176.028C145.534 150.876 172.762 124.929 200.612 97.722M122.345 178.811C147.88 151.902 178.276 125.29 201.304 102.637M122.872 177.894C146.381 154.715 168.647 132.763 201.676 102.329M125.378 176.603C148.927 156.595 171.573 136.105 202.908 107.85M126.926 179.083C157.133 151.6 184.979 123.424 202.076 105.967M131.688 179.222C152 159.318 170.892 142.217 203.381 110.166M130.92 178.603C154.762 156.081 179.21 134.39 202.756 110.643M136.295 178.942C155.291 158.833 175.532 140.224 204.486 114.804M136.112 178.836C158.732 156.584 182.268 133.311 203.37 114.521M139.114 181.473C156.735 164.154 169.203 149.139 205.184 119.191M141.174 179.506C156.991 164.416 172.438 148.411 204.408 118.941M147.073 179.517C157.348 169.519 169.392 156.646 202.684 123.457M144.659 180.764C160.265 164.932 176.808 150.158 203.906 123.926M148.521 179.365C168.567 164.733 187.026 146.103 204.677 128.004M149.844 180.609C165.398 164.218 181.851 148.45 203.75 128.32M153.409 181.672C168.588 164.145 184.965 151.661 205.07 133.004M154.45 182.01C172.451 163.099 191.695 144.254 205.783 132.536M159.504 182.124C172.889 166.986 186.115 156.101 204.471 136.423M159.848 181.462C173.125 167.924 185.977 156.255 205.387 137.056M164.592 182.796C176.255 169.033 192.035 154.239 204.265 142.361M165.025 181.667C175.895 171.788 185.347 161.474 205.161 143.476M168.831 181.31C180.682 171.2 189.531 163.978 202.363 148.012M170.362 180.384C177.558 174.271 183.287 168.598 204.278 149.129M174.948 179.503C183.357 174.307 190.177 165.501 202.26 157.005M175.474 180.16C182.321 173.838 190.904 165.165 200.436 155.853M181.688 180.096C184.336 177.041 187.736 173.116 197.648 164.06M179.77 180.018C184.005 177.29 187.545 173.916 197.837 163.462" stroke="#FAB005" stroke-width="0.5" stroke-linecap="round"/>
<path d="M204.963 129.8C200.711 121.288 209.932 80.0472 178.26 78.4831C146.597 76.9198 34.1193 106.396 14.9421 120.398C-4.24387 134.4 35.2113 152.619 63.161 162.503C91.1099 172.396 159.151 185.082 182.647 179.73C206.142 174.377 200.319 138.753 204.132 130.398M202.856 131.243C198.501 122.607 208.632 79.2979 177.145 77.3555C145.659 75.4132 32.6429 105.374 13.9282 119.597C-4.77855 133.829 36.7755 152.813 64.8742 162.703C92.9816 172.593 159.298 184.102 182.565 178.93C205.832 173.758 200.937 139.921 204.477 131.671" stroke="black" stroke-linecap="round"/>
<path d="M183.053 88.5807C186.957 91.6558 187.99 94.5031 193.758 98.2966M182.309 87.4856C186.248 91.4719 188.883 93.9687 193.451 97.6483M174.922 86.6095C182.012 93.2065 186.213 96.7985 195.998 103.947M175.202 85.7247C180.428 89.378 184.253 93.6183 195.946 105.235M171.903 87.766C181.548 96.6408 192.261 103.01 197.828 111.981M171.421 86.6709C178.765 92.3129 185.775 99.1027 198.773 111.648M165.942 87.363C175.85 94.7397 182.178 102.011 202.046 117.264M166.065 88.1515C175.815 95.5369 186.134 104.552 201.066 116.896M161.251 88.2566C170.03 97.1752 179.237 105.314 202.116 125.456M162.459 88.756C170.721 96.5445 181.224 105.516 202.151 124.527M158.459 89.6671C173.373 101.678 186.476 116.642 205.215 131.317M157.592 88.3267C169.365 98.6033 182.143 110.141 204.812 131.544M152.096 90.9024C171.141 106.076 189.67 123.598 203.394 135.25M153.076 89.413C165.82 101.433 177.697 112.551 205.311 135.899M149.549 89.9562C164.971 105.165 179.517 116.546 204.48 138.325M149.225 90.2628C164.507 105.06 182.012 120.62 204.515 139.675M145.47 92.5057C166.678 109.966 188.27 129.994 205.075 144.388M145.26 91.5857C161.251 106.996 178.231 122.529 203.307 143.889M142.171 94.1615C153.75 105.673 168.139 118.894 201.985 146.289M139.982 92.3742C153.006 104.447 167.807 115.398 203.035 148.199M135.799 94.1264C161.032 117.518 184.314 136.871 201.39 153.061M136.797 94.3805C159.763 113.952 182.782 133.323 203.709 151.449M131.212 96.7021C161.058 120.225 186.108 140.936 201.784 155.208M131.913 96.194C157.146 118.543 183.193 139.92 200.567 154.971M128.893 97.5257C156.813 120.83 181.907 145.028 200.558 158.774M128.77 96.5357C153.409 119.323 179.456 140.314 200.69 159.501M125.768 99.1202C153.663 121.023 180.848 145.869 197.679 161.752M124.473 97.0701C146.092 116.274 167.64 135.566 199.972 162.146M119.642 100.548C137.689 111.508 154.205 126.752 196.812 165.528M120.736 98.7435C139.606 115.17 158.363 130.791 197.854 165.616M117.007 99.0238C146.783 125.631 177.496 152.325 193.723 169.769M117.313 101.074C140.368 120.418 164.227 141.488 193.994 167.464M112.981 100.583C136.053 120.304 158.371 140.376 190.476 169.961M112.456 101.932C138.092 122.775 163.15 145.325 189.81 169.409M110.303 104.692C129.488 123.222 152.569 141.988 187.176 169.234M109.235 102.782C131.519 123.239 154.302 142.688 185.014 169.471M107.082 105.665C130.897 125.517 151.343 145.404 181.259 171.135M106.338 104.315C126.582 122.197 145.645 139.543 181.706 170.075M102.285 105.253C130.503 130.712 156.98 154.498 176.664 168.297M103.161 106.392C125.462 128.11 150.039 147.989 175.666 169.769M98.3469 108.24C123.423 129.985 147.422 149.846 167.08 170.031M98.4344 108.424C122.609 126.682 144.429 146.999 168.813 169.383M96.7977 107.539C115.082 127.76 140.035 145.939 163.413 167.71M95.9312 109.852C111.939 123.931 128.088 138.238 163.098 168.481M90.3996 111.386C114.942 129.976 135.562 148.751 156.42 167.131M90.916 110.571C111.931 129.547 133.602 147.446 155.859 167.508M86.7586 110.904C104.509 127.05 122.267 140.919 150.179 166.028M88.0627 111.359C102.959 124.965 118.136 138.08 148.394 165.922M82.9512 114.259C108.351 135.925 131.204 153.333 144.157 167.193M84.4217 114.32C99.5459 127.506 116.193 140.682 145.111 166.063M82.146 114.268C92.789 124.886 105.279 136.626 135.79 164.854M80.3255 114.566C99.4847 131.387 117.865 148.146 136.376 164.398M75.2403 115.556C93.5593 131.483 108.123 143.626 129.952 162.917M76.3256 116.423C92.9466 130.879 109.13 145.299 128.569 162.269M74.9865 119.63C84.9468 128.171 98.5569 139.797 120.342 160.753M73.6824 118.096C87.4763 129.03 99.1608 140.34 121.532 160.044M68.9298 119.971C79.0651 127.12 91.4762 137.957 111.782 158.151M68.8072 118.534C80.1942 129.363 90.4609 137.3 112.911 158.116M67.3806 121.531C76.9996 131.431 90.846 142.504 104.447 156.767M65.8314 120.777C82.5486 134.961 97.9793 147.936 106.504 156.154M61.5427 124.15C72.7458 130.774 79.9841 138.799 98.7232 154.595M62.2954 123.668C75.2315 134.585 88.0802 144.003 97.3578 152.387M58.8119 125.745C68.0282 131.886 74.295 138.422 87.3187 148.585M59.5033 124.588C65.5426 130.318 70.9691 135.855 87.9752 149.312M56.6938 127.83C64.2384 135.794 71.4592 140.901 76.4656 144.8M58.7506 128.084C64.8861 133.752 73.411 140.761 77.6122 145.869" stroke="#FD7E14" stroke-width="0.5" stroke-linecap="round"/>
<path d="M206.729 128.487C201.88 121.049 201.854 85.8736 177.513 84.8749C153.172 83.8761 73.6736 111.473 60.6762 122.494C47.67 133.516 78.0411 143.398 99.5022 151.003C120.972 158.607 171.728 171.862 189.469 168.113C207.219 164.372 203.342 135.058 205.976 128.531M204.751 129.862C199.727 122.363 200.182 85.3304 176.419 84.4368C152.656 83.5432 75.109 113.392 62.1991 124.501C49.2804 135.601 77.3497 144.038 98.9508 151.073C120.552 158.108 173.82 170.364 191.797 166.728C209.766 163.093 204.427 135.487 206.799 129.24" stroke="black" stroke-linecap="round"/>
<path d="M193.455 109.06C194.838 111.031 196.982 112.485 201.578 114.369M193.096 108.762C195.302 110.383 197 112.214 201.017 115.035M188.773 109.647C192.335 111.714 197.14 117.672 202.243 120.572M187.092 107.492C192.247 113.16 198.085 117.479 201.201 119.766M178.681 108.193C186.191 113.835 192.93 118.653 199.792 126.757M180.283 106.913C188.449 114.483 195.748 121.29 201.718 125.18M174.506 105.652C179.189 112.617 185.167 117.926 201.656 131.523M173.193 105.888C181.263 111.951 189.289 119.258 201.796 130.191M167.574 103.576C177.937 116.279 191.608 125.311 202.829 136.315M166.182 103.26C178.103 114.115 190.208 125.513 202.558 134.826M163.224 106.23C174.296 114.071 185.333 125.811 201.166 138.067M162.9 104.574C170.918 112.959 179.854 120.011 200.308 138.094M156.651 104.636C171.758 119.1 185.736 131.505 198.856 140.468M156.266 103.952C166.996 113.729 177.158 124.032 198.199 141.87M151.566 104.189C169.683 119.275 186.164 134.37 196.545 145.602M151.925 104.18C169.937 119.959 187.171 136.131 198.05 145.611M148.625 106.896C164.388 119.88 181.21 136.639 195.897 146.11M147.443 107.378C161.272 117.83 173.631 129.324 193.805 146.767M143.829 106.458C155.277 119.144 165.806 127.712 190.523 149.825M144.319 107.798C154.866 118.522 166.69 128.089 189.954 147.573M141.457 107.755C158.664 122.832 174.226 138.146 187.293 149.868M141.229 109.209C154.988 121.623 171.241 134.747 185.736 149.124M137.921 110.838C151.723 125.101 170.743 140.074 182.156 148.8M136.66 111.855C151.067 124.111 164.581 136.052 181.946 150.631M135.488 114.106C149.316 123.857 161.281 137.787 178.882 153.101M133.466 113.51C145.15 122.534 157.439 132.276 178.278 152.181M132.459 115.219C142.63 122.333 149.667 131.847 174.427 151.892M130.359 115.219C141.387 123.84 152.056 132.25 172.257 150.578M127.777 115.455C136.118 125.268 148.616 133.354 165.955 150.99M127.847 116.393C140.651 127.861 155.058 140.109 167.565 151.91M127.138 118.828C138.656 131.479 151.653 145.269 161.544 152.847M125.09 120.554C137.159 129.122 147.671 137.463 161.544 151.051M121.965 121.895C131.199 130.367 142.332 138.979 156.318 150.447M123.05 121.185C134.875 132.574 147.05 143.692 155.907 149.658M121.195 123.945C129.597 129.727 136.091 136.622 148.66 146.189M120.722 123.717C127.173 130.296 134.297 135.413 146.271 148.344M119.059 126.713C128.363 133.582 133.159 143.28 140.231 145.208M119.304 129.079C126.315 135.334 134.35 140.827 139.216 144.778M116.748 131.803C122.499 136.122 128.696 138.523 130.236 142.833M118.902 132.408C121.361 135.115 126.105 139.092 130.385 143.534" stroke="#FA5252" stroke-width="0.5" stroke-linecap="round"/>
<path d="M199.468 111.206C191.407 110.304 164.598 101.692 151.084 105.091C137.571 108.49 117.562 124.26 118.376 131.584C119.199 138.908 142.656 147.161 155.986 149.045C169.316 150.92 190.97 149.308 198.339 142.851C205.717 136.403 199.792 115.701 200.247 110.321M199.941 110.409C191.836 109.428 163.907 101.289 150.139 104.714C136.38 108.14 116.486 123.586 117.361 130.954C118.245 138.313 141.518 146.627 155.417 148.905C169.307 151.183 193.096 150.858 200.711 144.629C208.334 138.409 201.341 117.137 201.122 111.583" stroke="black" stroke-linecap="round"/>
<path d="M397.16 95.3866C403.855 100.468 407.82 106.268 416.879 113.601M398.332 96.2452C402.892 101.099 409.483 105.181 415.479 111.98M392.958 95.3165C400.459 104.437 411.409 111.848 417.404 118.603M392.197 96.1751C399.024 101.467 405.072 106.758 417.903 118.717M389.449 95.9035C395.82 104.06 403.925 110.333 416.17 124.482M388.95 98.3478C397.886 105.689 407.015 114.196 417.08 123.632M384.582 99.3641C394.464 109.536 409.343 118.402 417.675 128.608M383.199 99.1275C396.687 110.342 409.501 120.522 417.404 127.39M380.224 100.696C388.372 109.544 398.262 117.561 414.997 130.86M379.445 99.548C388.118 107.766 398.044 115.712 415.619 130.571M377.108 100.284C385.099 107.932 394.639 115.23 415.207 137.343M376.066 101.651C388.451 112.05 401.282 121.617 417.01 135.17M373.335 102.395C384.906 115.055 397.247 122.081 412.406 137.991M373.878 103.114C388.836 116.071 403.873 129.887 413.29 139.358M371.987 105.637C381.563 114.056 392.372 123.912 413.387 141.171M371.042 106.504C386.937 119.435 402.901 133.26 411.312 141.811M369.563 108.405C382.228 120.583 393.597 130.273 410.043 143.721M368.609 108.502C380.434 118.279 391.033 127.574 410.288 144.614M367.795 110.394C382.158 121.95 395.532 137.317 405.597 146.402M366.106 111.533C381.431 122.519 395.698 135.082 406.577 147.216M365.747 115.195C382.543 127.828 398.131 141.688 403.251 149.503M363.734 113.618C373.685 122.379 382.508 130.693 404.66 148.671M364.46 117.166C376.924 127.574 389.589 140.777 400.486 150.826M364.784 117.613C374.981 127.566 384.433 136.423 400.477 150.379M363.585 123.387C377.44 132.752 389.939 144.343 399.138 151.746M363.104 122.931C375.856 133.006 388.783 145.21 398.114 151.246M362.99 126.427C370.981 132.174 375.698 138.087 393.58 152.911M363.541 127.653C371.322 133.234 379.952 140.873 393.991 153.419M364.049 133.847C374.254 141.11 381.58 148.469 392.153 154.506M363.506 131.324C373.213 139.253 382.097 147.593 390.893 155.119M368.565 142.196C376.154 147.19 382.648 153.244 388.967 155.951M368.977 141.776C375.033 146.2 381.283 151.378 386.797 156.906M367.322 113.408C373.755 109.5 377.108 105.173 382.902 97.2702M367.506 114.38C373.152 108.037 377.817 103.14 383.637 97.8747M368.74 121.205C374.762 112.067 382.342 105.024 389.974 94.2915M367.331 121.039C374.456 113.504 379.882 106.89 389.589 95.8159M367.314 125.77C375.751 117.596 381.449 112.085 393.203 94.8784M368.145 125.086C375.2 116.465 383.357 108.905 394 94.6769M366.815 133.514C378.21 118.875 387.015 107.293 395.829 96.1926M366.5 132.577C374.639 124.14 382.648 115.782 397.396 96.4729M367.41 135.678C378.674 127.32 386.98 114.249 401.291 99.5217M367.865 137.097C377.755 124.289 389.177 112.05 400.363 97.314M370.788 138.158C381.834 124.657 395.12 111.332 406.07 99.145M370.298 138.596C379.226 128.818 388.924 118.848 404.634 100.363M373.362 140.926C385.064 126.9 399.479 109.29 407.461 100.03M371.191 141.671C379.497 133.576 387.024 125.095 408.231 101.537M374.097 146.121C386.018 132.314 397.256 117.797 410.901 102.08M372.994 145.639C382.937 134.723 391.584 124.061 410.568 103.149M375.453 148.163C390.123 133.926 404.319 117.158 414.542 106.934M374.841 148.303C387.12 135.661 398.175 123.553 412.336 106.198M380.136 149.547C389.361 138.902 398.096 126.891 414.717 110.28M379.471 150.773C390.893 138.061 402.569 124.517 413.544 109.281M382.088 150.791C389.064 142.88 399.619 131.639 417.938 112.812M382.018 152.201C391.269 142.853 400.1 131.832 416.336 112.102M386.604 152.604C396.967 140.427 405.326 130.246 420.214 114.994M386.123 153.288C397.965 140.33 410.166 125.989 417.868 115.055M388.468 155.434C399.969 141.329 410.236 130.527 418.98 117.017M388.678 155.399C401.273 140.689 413.203 126.926 420.021 118.735M392.013 158.185C398.481 150.642 403.803 142.205 419.268 125.445M392.486 157.072C398.875 148.452 407.024 140.505 419.426 124.911M397.448 152.455C404.013 147.462 411.032 142.433 420.45 131.876M399.059 154.847C404.372 146.086 410.954 138.823 418.253 130.457" stroke="#CED4DA" stroke-width="0.5" stroke-linecap="round"/>
<path d="M418.953 117.368C420.362 122.677 418.734 130.5 416.45 135.836C414.166 141.163 409.658 146.183 405.238 149.363C400.827 152.543 395.173 155.171 389.974 154.917C384.784 154.663 378.28 151.702 374.079 147.838C369.869 143.984 366.115 137.623 364.767 131.753C363.41 125.883 363.848 118.139 365.966 112.628C368.084 107.126 372.828 101.686 377.475 98.7157C382.123 95.7458 388.425 94.1863 393.842 94.8084C399.251 95.4304 405.763 98.2952 409.938 102.43C414.122 106.574 417.535 116.562 418.91 119.646C420.284 122.73 418.743 120.732 418.192 120.942M417.395 137.641C415.496 142.924 409.588 148.417 404.713 151.01C399.838 153.612 393.422 153.945 388.136 153.226C382.849 152.517 376.898 150.817 373.003 146.735C369.108 142.652 365.913 134.347 364.758 128.722C363.603 123.106 363.926 118.121 366.08 113.005C368.233 107.88 372.801 100.994 377.677 98.0061C382.56 95.0186 389.79 93.941 395.374 95.0799C400.967 96.2276 407.461 100.915 411.19 104.875C414.91 108.826 416.643 113.285 417.71 118.831C418.778 124.377 417.71 134.881 417.579 138.149C417.457 141.425 417.413 138.674 416.958 138.455" stroke="black" stroke-linecap="round"/>
<path d="M452.652 83.3038C454.604 85.4502 455.374 85.5816 458.026 89.5153M453.099 83.6893C454.586 85.5904 456.433 87.1323 458.919 88.9283M450.333 86.1599C452.302 88.2888 453.484 88.5253 456.127 91.0835M450.21 86.4052C451.908 87.6843 453.878 89.7781 456.241 91.2762M452.643 87.8157C453.965 87.1761 454.762 86.3701 456.293 83.9346M452.661 88.1398C454.289 86.1686 455.733 84.3814 456.801 83.1461M454.438 91.101C455.567 89.9446 458.21 87.8157 459.383 85.2925M454.788 91.1799C455.829 89.6379 457.422 87.7894 460.057 84.8457" stroke="#868E96" stroke-width="0.5" stroke-linecap="round"/>
<path d="M458.831 88.5954C458.691 89.3138 457.764 89.9008 456.993 90.1899C456.223 90.4702 455.024 90.4702 454.21 90.3125C453.405 90.1548 452.591 89.7256 452.136 89.2437C451.672 88.7619 451.646 88.1661 451.436 87.4302C451.226 86.6943 450.525 85.4853 450.875 84.8282C451.226 84.1711 452.678 83.7856 453.554 83.479C454.429 83.1724 455.155 82.7256 456.127 82.9796C457.107 83.2337 458.849 84.1186 459.418 85.0034C459.978 85.897 459.602 87.5528 459.497 88.3413C459.4 89.1298 458.901 89.8395 458.805 89.7256M458.219 86.3789C458.665 86.9659 459.532 86.6067 459.505 87.439C459.488 88.28 459.077 90.7506 458.105 91.3901C457.133 92.0297 454.814 91.3814 453.685 91.2763C452.547 91.1624 451.768 91.5566 451.304 90.7243C450.849 89.892 450.683 87.474 450.91 86.265C451.147 85.056 452.031 83.8557 452.696 83.4702C453.37 83.0848 454.14 84.0572 454.928 83.9609C455.724 83.8557 456.565 82.6905 457.449 82.857C458.341 83.0322 459.926 84.688 460.267 84.9859C460.608 85.275 459.856 84.5303 459.497 84.6179" stroke="black" stroke-linecap="round"/>
<path d="M453.16 97.5972C454.307 98.4208 457.527 101.198 459.733 102.416M453.23 97.6586C455.103 98.78 456.451 100.085 459.532 102.477M451.296 100.453C452.679 102.127 453.396 103.634 457.519 105.973M450.937 100.015C452.215 101.058 453.624 102.206 457.186 105.333M453.09 101.969C454.823 100.55 457.046 99.0078 458.271 96.4233M453.633 102.135C455.112 100.883 456.311 99.0778 458.219 97.1767M455.348 106.034C456.53 103.651 458.446 100.874 461.125 100.059M454.534 106.122C456.223 104.615 457.685 103.082 460.512 99.0603" stroke="#868E96" stroke-width="0.5" stroke-linecap="round"/>
<path d="M459.934 98.8063C460.232 99.4808 459.838 100.891 459.4 101.855C458.963 102.819 458.228 103.975 457.3 104.562C456.363 105.149 454.587 105.587 453.816 105.368C453.046 105.149 453.099 104.001 452.696 103.248C452.285 102.486 451.444 101.627 451.383 100.821C451.322 100.024 451.97 99.1392 452.346 98.4471C452.714 97.7549 452.775 96.8964 453.615 96.6773C454.455 96.4496 456.372 96.5109 457.387 97.1066C458.394 97.7024 459.435 99.8138 459.663 100.252C459.899 100.681 458.849 99.7962 458.77 99.7086M460.521 100.988C460.661 101.68 459.672 102.792 458.63 103.467C457.597 104.142 455.182 105.14 454.315 105.035C453.449 104.939 454.114 103.458 453.458 102.863C452.792 102.267 450.683 101.934 450.333 101.461C449.992 100.988 450.683 100.637 451.374 100.015C452.066 99.402 453.414 98.3156 454.49 97.7462C455.567 97.1855 457.195 96.4058 457.825 96.6511C458.455 96.8964 458.236 98.4471 458.28 99.2093C458.324 99.9715 457.869 100.883 458.079 101.233C458.289 101.583 459.339 101.189 459.541 101.294" stroke="black" stroke-linecap="round"/>
<path d="M453.528 112.224C454.972 114.108 457.046 116.298 458.858 117.717M453.335 112.741C454.596 113.495 455.769 114.853 458.604 117.279M451.366 114.826C453.134 117.008 454.079 118.655 455.506 119.89M450.99 115.466C452.635 117.262 454.972 119.014 456.39 120.013M453.038 118.646C454.683 116.079 455.961 113.749 456.81 112.89M452.854 117.91C454.176 116.316 456.101 114.406 457.467 113.127M455.681 120.372C456.933 118.716 457.554 116.771 459.751 114.66M455.9 119.478C457.038 118.331 457.685 116.903 460.022 114.809" stroke="#868E96" stroke-width="0.5" stroke-linecap="round"/>
<path d="M459.882 113.968C460.154 114.66 459.147 116.342 458.674 117.165C458.211 117.998 457.843 118.76 457.073 118.944C456.302 119.128 454.902 118.392 454.071 118.278C453.239 118.155 452.653 118.769 452.101 118.208C451.541 117.656 450.622 115.843 450.718 114.931C450.815 114.029 452.04 113.442 452.679 112.767C453.318 112.102 453.528 110.875 454.57 110.919C455.602 110.963 457.939 112.373 458.919 113.022C459.9 113.67 460.25 114.423 460.451 114.809C460.652 115.194 460.311 115.203 460.11 115.334M460.591 114.958C460.67 115.65 460.793 116.298 460.18 116.92C459.567 117.542 458.07 118.331 456.915 118.69C455.76 119.04 454.272 119.452 453.257 119.049C452.241 118.655 451.287 117.13 450.823 116.281C450.36 115.431 450.193 114.45 450.465 113.95C450.745 113.451 451.349 113.845 452.478 113.293C453.607 112.75 456.259 110.63 457.248 110.665C458.237 110.709 457.965 112.855 458.412 113.521C458.858 114.187 459.707 114.511 459.917 114.66C460.119 114.8 459.681 114.432 459.628 114.38" stroke="black" stroke-linecap="round"/>
<path d="M452.233 125.001C453.554 126.307 455.27 128.646 458.202 132.176M452.145 125.474C453.756 127.323 455.393 128.295 459.2 131.073M452.986 129.636C454.202 128.558 454.92 127.743 456.119 126.289M452.951 129.776C453.948 128.97 454.587 127.673 456.504 125.79M455.97 131.703C457.458 130.442 458.115 129.627 459.874 128.129M456.268 131.546C457.546 130.188 458.246 129.242 459.734 127.927" stroke="#868E96" stroke-width="0.5" stroke-linecap="round"/>
<path d="M460.023 127.647C460.486 128.392 460.837 129.119 460.513 129.776C460.198 130.433 458.946 131.309 458.123 131.589C457.301 131.861 456.487 131.668 455.585 131.432C454.684 131.204 453.397 130.731 452.714 130.188C452.032 129.636 451.524 128.979 451.471 128.164C451.419 127.349 451.83 125.912 452.39 125.282C452.951 124.651 453.94 124.274 454.832 124.405C455.725 124.528 456.767 125.606 457.747 126.035C458.727 126.464 460.373 126.613 460.705 126.981C461.038 127.358 459.918 128.234 459.751 128.287M460.04 126.797C460.04 127.288 459.112 127.621 458.692 128.462C458.281 129.294 458.281 131.029 457.546 131.808C456.819 132.597 454.937 133.263 454.307 133.158C453.668 133.061 454.342 131.879 453.747 131.186C453.143 130.503 450.911 129.977 450.701 129.031C450.491 128.076 451.874 126.254 452.487 125.466C453.091 124.677 453.519 124.335 454.333 124.283C455.147 124.221 456.329 124.537 457.362 125.141C458.386 125.755 460.005 127.629 460.504 127.936C461.003 128.234 460.705 127.121 460.338 126.946" stroke="black" stroke-linecap="round"/>
<path d="M453.599 140.909C455.796 144.002 457.222 145.552 459.27 145.903M453.24 141.259C455.454 142.775 457.003 144.492 459.244 146.534M452.041 144.221C453.581 146.428 455.2 148.356 457.257 148.952M451.761 144.597C452.583 145.342 454.185 146.385 457.065 149.223M453.1 147.497C455.122 146.262 456.303 144.089 457.791 142.766M453.144 147.664C455.192 145.465 456.995 143.257 457.975 142.328M455.218 149.731C457.327 148.741 458.938 146.989 460.373 142.871M455.139 149.994C456.828 148.172 458.281 146.989 461.178 144.072" stroke="#868E96" stroke-width="0.5" stroke-linecap="round"/>
<path d="M460.478 144.589C460.434 145.325 459.874 146.236 459.34 146.866C458.815 147.506 458.238 148.102 457.301 148.382C456.356 148.671 454.64 148.987 453.695 148.584C452.75 148.189 451.822 146.805 451.629 145.999C451.437 145.184 452.05 144.615 452.531 143.721C453.012 142.828 453.572 140.962 454.5 140.646C455.428 140.331 457.143 141.47 458.097 141.829C459.051 142.188 459.857 142.074 460.242 142.793C460.627 143.52 460.513 145.552 460.399 146.166C460.294 146.779 459.629 146.639 459.577 146.472M459.708 143.283C460.251 143.914 461.135 144.851 460.784 145.57C460.434 146.279 458.605 147.059 457.616 147.567C456.627 148.067 455.515 148.549 454.85 148.575C454.185 148.592 453.958 148.592 453.616 147.699C453.275 146.814 452.881 144.159 452.82 143.231C452.767 142.302 452.601 142.591 453.266 142.136C453.931 141.671 456.006 140.725 456.82 140.48C457.634 140.234 457.555 140.304 458.167 140.664C458.78 141.023 460.207 142.162 460.487 142.626C460.767 143.082 460.119 143.371 459.865 143.423" stroke="black" stroke-linecap="round"/>
<path d="M453.878 157.279C456.119 158.891 457.283 160.039 459.567 160.696M453.73 157.078C455.506 158.287 456.513 159.32 459.296 161.353M451.41 159.171C452.522 159.811 453.502 161.493 454.937 162.711M451.174 158.909C452.504 159.855 453.703 161.186 454.859 162.255M452.198 162.15C454.158 159.855 454.36 158.672 458.158 156.745M453.169 161.747C454.841 160.021 456.487 157.673 457.353 156.263M456.767 163.526C456.837 161.703 459.034 159.548 460.206 157.778M456.145 163.526C457.169 161.87 458.106 161.037 460.355 158.059" stroke="#868E96" stroke-width="0.5" stroke-linecap="round"/>
<path d="M460.075 157.393C460.434 158.059 460.81 159.443 460.6 160.337C460.381 161.239 459.69 162.501 458.806 162.781C457.922 163.07 456.32 162.352 455.287 162.045C454.255 161.738 453.213 161.353 452.627 160.95C452.032 160.547 451.883 160.214 451.751 159.627C451.62 159.04 451.165 158.26 451.813 157.437C452.46 156.604 454.596 154.914 455.629 154.642C456.67 154.379 457.441 155.273 458.045 155.833C458.648 156.394 458.911 157.603 459.252 158.006C459.585 158.409 459.926 158.269 460.049 158.269M460.434 158.427C460.705 159.145 461.222 160.012 460.583 160.564C459.944 161.108 457.659 161.484 456.6 161.712C455.533 161.931 454.692 161.922 454.202 161.914C453.721 161.905 454.185 162.211 453.668 161.668C453.161 161.125 451.218 159.382 451.148 158.663C451.078 157.945 452.574 158.032 453.248 157.367C453.913 156.71 454.255 155.168 455.165 154.695C456.066 154.221 458.045 154.265 458.657 154.554C459.27 154.852 458.631 155.947 458.832 156.464C459.034 156.981 459.585 157.279 459.856 157.656" stroke="black" stroke-linecap="round"/>
<path d="M252.186 87.0743C253.805 88.7564 255.477 89.3609 256.098 90.7452M251.967 86.8903C252.764 87.8541 254.453 88.6776 256.089 90.7189M250.138 90.5349C251.302 90.4648 252.203 91.8666 254.085 94.2408M249.98 89.6851C251.109 91.2708 252.51 92.0768 254.628 94.0042M251.249 90.7802C252.23 89.9216 254.418 87.0743 255.704 86.5049M251.004 90.9204C252.58 89.7552 253.376 88.5549 255.17 86.4173M253.315 93.8203C254.584 92.4536 256.72 90.9642 257.674 89.5362M253.954 93.5136C254.847 92.3397 256.125 90.973 257.227 89.5449" stroke="#868E96" stroke-width="0.5" stroke-linecap="round"/>
<path d="M256.938 89.0893C257.061 89.8691 256.763 90.237 256.448 90.8853C256.133 91.5249 255.836 92.7689 255.065 92.9354C254.295 93.1019 252.615 92.4098 251.818 91.8929C251.022 91.376 250.794 90.4035 250.295 89.834C249.796 89.2558 248.562 89.0105 248.816 88.4586C249.079 87.9066 251.022 86.9604 251.871 86.5049C252.711 86.0493 253.07 85.7251 253.875 85.7251C254.68 85.7164 256.098 85.8215 256.702 86.4873C257.306 87.1619 257.49 89.0718 257.507 89.7289C257.516 90.3947 256.807 90.5962 256.79 90.4648M257.411 89.2821C257.49 89.8691 256.623 90.4385 256.168 91.0518C255.704 91.6651 255.267 92.8215 254.637 92.9705C254.015 93.1106 253.35 92.3922 252.422 91.9191C251.494 91.446 249.569 90.789 249.07 90.1319C248.58 89.4748 249.175 88.5111 249.438 87.9767C249.709 87.4335 250.033 87.5124 250.663 86.8816C251.284 86.2596 252.212 84.2708 253.201 84.2095C254.19 84.1482 255.783 85.7164 256.58 86.5136C257.376 87.3109 257.998 88.9229 257.98 88.9842C257.963 89.0543 256.623 87.0831 256.457 86.9079" stroke="black" stroke-linecap="round"/>
<path d="M251.083 100.141C253.464 101.42 254.628 102.612 257.157 105.556M251.731 100.395C253.77 102.419 255.162 103.418 257.306 105.573M248.501 102.13C249.079 102.883 250.033 103.9 253 106.826M247.871 102.288C249.123 103.269 250.208 103.996 252.807 106.283M249.516 104.986C252.238 103.654 253.14 101.149 254.059 99.9222M250.033 105.231C250.672 103.908 251.81 103.374 253.963 100.457M252.746 107.369C253.936 106.107 255.214 103.619 257.683 100.86M252.991 106.519C253.954 105.696 254.934 104.452 258.103 101.455" stroke="#868E96" stroke-width="0.5" stroke-linecap="round"/>
<path d="M258.146 102.515C258.427 103.181 257.604 104.145 257.219 104.627C256.834 105.109 256.527 105.153 255.827 105.398C255.136 105.643 254.12 106.274 253.052 106.099C251.993 105.915 250.19 104.785 249.446 104.32C248.703 103.856 248.492 104.066 248.597 103.295C248.703 102.533 249.306 100.369 250.077 99.712C250.838 99.0637 252.212 99.3966 253.166 99.3878C254.129 99.3878 255.101 99.16 255.836 99.6682C256.571 100.185 257.157 101.832 257.578 102.463C257.998 103.102 258.321 103.532 258.348 103.488M257.079 104.767C256.834 105.617 255.442 107.001 254.759 107.343C254.077 107.684 253.639 107.281 252.991 106.826C252.344 106.37 251.398 105.214 250.873 104.609C250.348 103.996 249.998 103.952 249.858 103.181C249.709 102.402 249.236 100.614 249.989 99.9397C250.742 99.2564 253.429 99.0899 254.374 99.0987C255.311 99.1075 255.214 99.5981 255.643 100.01C256.072 100.413 256.431 100.833 256.939 101.525C257.446 102.226 258.549 103.523 258.672 104.198C258.785 104.881 258.006 105.538 257.648 105.608" stroke="black" stroke-linecap="round"/>
<path d="M252.703 115.855C253.744 115.907 254.024 117.046 256.694 119.184M251.959 115.285C253.963 116.398 255.224 118.071 257.018 119.052M250.06 117.651C251.224 119.079 251.941 120.235 253.482 120.612M249.823 118.106C250.83 118.728 251.582 119.464 253.289 120.752M251.731 120.603C254.103 117.528 255.845 116.494 257.429 114.707M252.388 120.007C253.35 118.588 255.075 116.547 257.027 114.821M254.383 122.671C256.055 121.619 256.738 120.577 258.803 118.448M254.751 122.487C256.256 120.866 257.499 119.263 258.024 118.124" stroke="#868E96" stroke-width="0.5" stroke-linecap="round"/>
<path d="M257.692 118.325C257.692 119.07 257.569 120.603 256.895 121.015C256.213 121.427 254.532 121.076 253.639 120.796C252.747 120.524 252.265 119.815 251.521 119.368C250.768 118.921 249.158 118.737 249.132 118.133C249.114 117.528 250.733 116.415 251.39 115.758C252.055 115.101 252.283 114.453 253.097 114.19C253.902 113.927 255.442 113.831 256.248 114.181C257.044 114.541 257.744 115.487 257.911 116.337C258.086 117.186 257.298 118.903 257.272 119.298C257.245 119.701 257.876 118.833 257.762 118.711M257.237 117.94C257.21 118.614 257.132 120.086 256.729 120.524C256.318 120.962 255.775 120.691 254.803 120.577C253.841 120.454 251.688 120.218 250.909 119.806C250.13 119.394 250.261 118.623 250.13 118.106C249.998 117.589 249.832 117.546 250.138 116.704C250.445 115.872 251.084 113.498 251.976 113.095C252.869 112.683 254.523 113.787 255.495 114.269C256.458 114.742 257.508 115.609 257.797 115.96C258.077 116.301 257.149 116.126 257.175 116.345C257.21 116.564 257.692 116.994 257.981 117.283" stroke="black" stroke-linecap="round"/>
<path d="M251.942 127.195C253.578 128.824 255.565 131.304 256.545 132.513M251.994 128.045C253.543 129.227 255.6 131.26 256.668 132.153M248.537 129.587C250.454 131.496 253.114 134.133 254.261 133.993M248.668 129.963C249.806 130.664 250.996 131.786 253.71 134.3M251.023 133.783C251.434 131.356 252.756 129.63 255.259 126.59M249.911 133.038C251.574 132.083 252.642 130.322 255.731 127.046M253.053 135.579C255.233 131.821 257.167 129.665 257.928 128.158M253.211 135.018C255.049 132.74 257.298 130.804 258.874 129.332" stroke="#868E96" stroke-width="0.5" stroke-linecap="round"/>
<path d="M258.252 130.98C258.2 131.488 258.138 131.759 257.604 132.215C257.079 132.662 256.16 133.617 255.066 133.695C253.981 133.765 252.02 132.942 251.084 132.653C250.139 132.373 249.596 132.723 249.421 131.978C249.237 131.234 249.491 128.991 250.025 128.194C250.559 127.396 251.714 127.458 252.598 127.204C253.482 126.949 254.506 126.494 255.338 126.678C256.169 126.862 256.974 127.449 257.578 128.316C258.191 129.184 258.847 131.321 258.987 131.882C259.127 132.451 258.611 131.689 258.427 131.715M257.683 132.881C257.534 133.634 257.394 133.967 256.799 134.116C256.204 134.256 255.014 133.853 254.103 133.739C253.193 133.617 252.125 134.02 251.329 133.389C250.541 132.767 249.193 130.909 249.351 129.963C249.5 129.026 251.574 128.29 252.239 127.755C252.904 127.221 252.747 126.932 253.351 126.757C253.955 126.582 254.83 126.362 255.88 126.722C256.931 127.081 259.232 127.878 259.67 128.912C260.116 129.946 258.874 132.416 258.532 132.933C258.191 133.45 257.858 132.408 257.631 132.022" stroke="black" stroke-linecap="round"/>
<path d="M253.579 144.312C253.841 145.67 255.233 146.651 258.445 150.26M253.097 144.25C253.841 145.626 255.574 146.405 258.445 150.111M250.682 147.387C251.076 148.307 252.712 148.745 254.279 149.989M250.655 147.308C251.601 148.184 252.782 149.043 253.666 150.339M251.723 149.34C253.412 148.394 254.988 146.651 256.887 144.312M250.988 150.444C253.159 147.921 255.312 146.011 256.152 143.839M256.17 150.69C257.421 148.929 258.909 147.387 258.857 146.922M255.741 150.584C256.485 149.516 257.132 148.237 258.997 146.292" stroke="#868E96" stroke-width="0.5" stroke-linecap="round"/>
<path d="M259.469 148.534C259.268 149.279 257.859 149.533 257.027 149.77C256.205 149.997 255.557 149.936 254.498 149.919C253.439 149.901 251.233 150.111 250.673 149.665C250.113 149.209 250.988 148.061 251.128 147.203C251.268 146.344 250.962 145.24 251.513 144.522C252.065 143.812 253.517 143.041 254.445 142.901C255.373 142.761 256.45 143.19 257.097 143.69C257.745 144.189 258.104 145.126 258.314 145.906C258.524 146.677 258.629 147.807 258.358 148.342C258.095 148.876 256.931 149.025 256.721 149.104M258.629 147.474C258.83 148.096 258.795 148.359 258.095 148.718C257.386 149.086 255.321 149.551 254.393 149.665C253.474 149.778 253.159 149.603 252.546 149.402C251.933 149.2 251.006 149.349 250.717 148.473C250.428 147.606 250.349 144.942 250.804 144.163C251.268 143.383 252.572 143.847 253.482 143.786C254.384 143.725 255.627 143.909 256.24 143.803C256.861 143.698 256.747 142.708 257.176 143.173C257.605 143.646 258.358 145.906 258.83 146.616C259.303 147.325 259.863 147.282 260.012 147.439" stroke="black" stroke-linecap="round"/>
<path d="M252.738 157.712C254.917 160.428 256.449 162.127 258.681 163.275M252.782 158.141C254.541 159.919 255.548 160.804 258.06 163.275M249.508 160.261C251.128 161.961 252.195 161.917 254.27 163.871M249.753 160.296C251.583 161.952 253.009 163.301 254.48 164.72M251.198 163.082C252.834 161.067 254.314 159.192 254.917 158.465M251.285 163.66C252.344 161.996 253.981 160.296 254.97 159.035M255.486 163.231C256.738 161.785 257.727 160.165 259.32 160.025M255.486 163.66C257.079 162.215 258.41 160.892 259.031 159.884" stroke="#868E96" stroke-width="0.5" stroke-linecap="round"/>
<path d="M258.716 158.938C259.119 159.551 259.145 161.181 258.585 161.926C258.016 162.679 256.37 162.907 255.346 163.441C254.322 163.984 253.272 165.316 252.441 165.158C251.618 165.001 250.778 163.205 250.392 162.486C250.007 161.759 250.007 161.54 250.139 160.813C250.279 160.086 250.611 158.737 251.206 158.123C251.793 157.51 252.686 157.116 253.701 157.133C254.716 157.142 256.44 157.65 257.307 158.22C258.165 158.78 258.734 159.823 258.891 160.533C259.04 161.234 258.401 162.294 258.243 162.443M259.119 161.584C259.294 162.145 258.699 162.618 258.007 163.249C257.316 163.888 256.143 165.307 254.987 165.386C253.823 165.465 251.679 164.326 251.04 163.713C250.41 163.1 251.355 162.451 251.18 161.715C251.014 160.979 249.92 160.095 250.034 159.28C250.147 158.465 250.725 157.256 251.863 156.836C252.992 156.424 255.766 156.292 256.826 156.774C257.885 157.265 257.99 158.991 258.191 159.762C258.401 160.524 258.103 161.33 258.042 161.391C257.981 161.453 257.832 160.331 257.806 160.112" stroke="black" stroke-linecap="round"/>
</g>
<defs>
<clipPath id="clip0_3_3">
<rect width="251" height="588" fill="white" transform="translate(588.5 0.5) rotate(90)"/>
</clipPath>
</defs>
</svg>
