<svg width="588" height="251" viewBox="0 0 588 251" fill="none" xmlns="http://www.w3.org/2000/svg">
<g clip-path="url(#clip0_6_3)">
<path d="M126.488 75.7034C123.267 77.0088 121.473 79.567 121.035 79.5845M126.321 75.8524C124.912 77.5169 122.812 77.8323 120.247 80.2416M129.289 73.5833C128.107 81.1878 122.549 81.9675 122.4 83.378M130.987 75.7648C128.448 78.0076 125.761 80.3993 119.363 83.9563M138.111 76.6847C130.925 78.4106 130.61 81.4506 123.459 87.6271M137.026 74.8536C131.407 80.925 125.262 85.1039 119.267 89.6947M139.748 73.2241C137.673 80.4343 132.632 87.154 117.149 91.8061M142.951 75.6246C134.365 80.0401 127.582 87.3205 119.179 95.3455M150.023 74.7397C135.336 84.1578 125.525 94.7322 120.589 101.084M147.642 75.5633C138.767 81.2228 131.45 87.1715 119.731 99.2266M154.198 75.8874C143.476 80.0576 134.181 93.0151 117 105.929M154.111 74.363C140.719 88.1177 125.56 97.2817 119.118 105.28M155.844 74.8887C145.008 82.6071 139.45 93.0939 122.855 106.822M158.364 74.7485C146.645 84.1227 134.855 96.7122 119.101 106.831M163.117 73.5482C153.314 84.1227 143.24 94.6621 117.762 113.621M162.828 76.3868C153.218 83.0188 145.524 90.0889 120.571 114.777M168.316 76.0188C155.598 89.5195 141.472 96.4143 118.059 114.655M169.051 75.5019C155.52 90.2729 138.479 101.592 119.223 117.125M172.465 78.945C152.316 97.2291 132.291 114.9 120.772 125.141M173.375 76.965C159.66 90.2379 145.717 100.742 118.619 121.234M178.933 77.2716C168.325 87.8286 158.872 97.4131 121.114 128.269M180.674 76.378C163.029 87.3292 147.818 99.6121 118.882 127.297M186.652 78.2353C162.872 95.5032 134.759 114.339 119.503 130.6M182.757 75.0288C161.769 97.9563 139.739 117.046 119.249 132.106M190.355 73.4168C166.285 95.5996 148.264 111.15 118.059 138.204M189.164 77.2454C171.362 93.1465 149.883 108.653 120.781 137.573M195.221 79.4882C176.631 96.8261 155.248 111.001 120.571 141.989M195.457 76.0714C176.911 89.7122 161.839 104.247 118.392 140.412M199.361 79.383C173.926 98.2804 154.111 118.939 122.059 142.882M199.86 75.791C184.867 90.7372 166.583 106.393 121.07 144.249M208.499 77.0526C176.902 104.676 142.479 127.384 122.707 151.17M206.529 74.0651C181.891 94.1803 158.04 114.672 119.416 149.243M208.166 76.5182C184.289 104.439 151.704 124.861 117.403 155.621M210.879 76.8599C187.536 93.1202 166.504 112.184 119.845 153.702M212.954 74.8711C192.525 96.1427 167.799 115.023 116.746 157.881M216.481 74.7835C184.315 102.661 150.636 133.324 119.136 161.245M218.135 75.0639C190.075 107.462 160.867 131.169 122.523 162.595M220.778 77.8323C200.166 94.96 180.219 112.534 121.131 164.855M224.165 76.0626C192.368 106.06 157.043 134.192 120.685 169.752M228.27 74.8273C193.899 104.466 161.165 132.58 118.295 168.114M230.388 78.5858C192.403 110.651 159.362 142.471 121.919 170.129M232.725 75.1077C186.854 114.479 144.85 149.068 120.869 170.97M235.176 78.1653C219.798 97.4218 194.039 118.939 123.888 174.939M237.592 74.4243C214.844 93.3743 190.547 115.995 128.833 172.302M243.228 79.1903C212.175 96.9663 183.895 128.111 131.871 174.404M241.312 76.8424C211.789 101.969 182.197 128.856 134.076 171.356M245.154 79.6196C207.509 115.233 166.968 152.239 138.619 172.249M247.605 76.8862C205.759 110.861 162.557 148.253 137.918 171.601M256.033 75.1865C218.45 104.413 180.149 138.738 145.586 171.688M254.09 75.0551C210.94 110.406 169.935 148.533 143.494 171.101M260.042 79.1465C234.117 95.2053 208.385 123.985 149.586 174.229M259.062 73.995C219.868 110.809 181.891 145.397 148.465 172.696M266.659 73.3029C221.128 112.754 177.252 151.529 156.981 172.67M264.348 75.8786C231.946 102.556 203.308 126.28 154.898 170.874M268.934 78.0776C239.325 102.074 219.439 124.695 155.949 172.144M271.166 76.3342C243.578 99.2266 211.509 124.134 158.137 170.19M272.085 74.1703C235.885 113.665 190.818 151.389 166.093 174.904M276.348 74.5382C247.079 100.199 214.704 129.031 164.01 170.917M283.043 76.8774C244.515 101.224 215.816 132.816 171.974 170.409M278.536 74.8098C248.121 104.063 213.934 132.562 170.539 170.541M283.07 78.7084C256.602 103.949 224.428 125.939 172.745 169.218M284.916 75.721C259.114 96.7648 237.434 115.618 174.635 170.453M291.026 77.4907C250.397 118.098 202.293 149.366 182.381 174.904M289.582 74.4857C259.753 100.313 230.572 126.289 182.031 173.327M293.529 76.4043C272.628 98.4907 250.826 118.711 187.913 170.103M297.371 74.9062C262.484 101.925 228.568 129.969 185.55 173.511M301.669 75.7122C275.805 99.726 247.613 124.467 192.044 171.338M302.64 76.4656C280.514 94.4081 257.32 113.989 189.427 170.69M305.476 76.9387C270.676 108.391 228.857 139.001 195.676 170.129M305.914 75.9137C265.53 109.705 224.997 146.825 197.934 171.426M309.563 74.6434C275.315 108.575 235.754 141.954 205.584 173.782M313.642 77.3593C273.249 107.69 233.032 144.328 201.129 171.268M319.384 77.4293C287.096 107.418 248.917 132.028 206.573 170.374M316.548 75.7034C284.348 105.797 254.572 131.511 205.75 173.195M320.425 72.9875C299.551 96.7472 273.801 118.983 210.783 170.847M323.988 75.0464C276.882 113.463 232.577 152.239 213.505 170.979M327.856 75.8699C283.604 110.852 242.318 153.702 216.262 172.749M328.696 77.8061C287.761 113.279 247.473 145.046 217.4 173.371M334.07 75.6071C304.006 97.1064 273.162 126.035 224.542 171.356M333.983 75.7648C307.795 100.602 279.963 123.854 221.829 170.585M337.283 77.5432C315.261 99.1916 288.671 116.091 227.203 172.486M339.409 74.2141C305.45 103.099 272.234 134.113 228.384 172.486M341.799 74.7923C308.863 101.855 271.91 132.939 234.196 171.522M343.716 75.3705C319.428 95.0739 292.881 119.64 235.167 170.97M349.886 77.4819C320.959 95.1966 294.22 117.782 238.992 174.413M349.834 76.8862C321.064 100.225 297.721 122.408 239.666 172.372M349.081 82.9049C307.174 116.512 263.998 151.565 247.246 175.473M347.777 81.4681C318.333 107.304 288.759 136.531 245.504 172.608M348.363 89.6421C308.942 117.204 270.939 153.01 252.331 168.499M349.956 87.3467C312.986 116.188 277.302 144.538 251.106 172.696M346.779 92.8311C325.37 115.872 296.706 131.747 256.944 173.616M348.442 91.3943C325.983 109.819 305.704 129.89 256.436 171.434M345.072 93.4531C325.869 116.556 298.404 138.528 259.377 174.203M346.7 95.8098C327.182 111.553 303.13 130.381 258.869 173.257M349.186 102.494C322.963 120.875 304.601 135.506 267.7 172.976M348.241 99.174C329.449 117.581 308.82 133.718 266.519 171.68M349.238 105.289C331.497 116.512 314.053 136.426 272.427 169.779M348.705 103.625C324.749 126.324 300.828 146.764 270.028 173.414M351.076 107.681C322.999 133.018 298.518 156.847 278.028 172.713M349.011 109.424C323.611 128.926 297.485 152.406 276.715 171.925M348.223 114.383C327.313 132.159 305.581 153.816 282.553 168.876M347.505 115.18C334.517 126.044 319.2 136.119 282.291 171.531M346.385 119.088C337.983 127.866 324.233 140.745 284.899 173.449M349.536 119.333C333.79 130.775 322.115 143.934 287.77 170.865M349.492 124.852C330.508 138.143 311.366 154.114 291.988 173.668M349.107 123.924C324.696 144.118 302.238 162.437 291.778 170.734M349.151 127.244C329.974 138.222 317.983 155.708 298.422 169.656M349.011 129.119C329.904 141.384 314.185 157.347 297.362 173.782M345.659 134.691C340.871 141.542 329.808 151.854 304.041 171.522M349.44 133.394C331.208 147.894 315.366 160.772 304.067 172.004M351.532 137.6C339.296 147.929 326.885 160.676 307.489 170.147M347.112 138.598C334.07 151.013 319.673 165.1 307.778 170.926M350.114 142.182C336.784 151.924 327.235 160.264 313.511 172.232M349.037 142.593C341.23 148.901 331.97 158.529 313.992 172.968M351.82 149.444C343.077 152.896 336.276 156.76 319.139 172.293M347.409 147.131C340.302 154.421 329.432 161.57 319.751 171.347M345.379 148.209C337.939 155.7 332.014 165.389 321.318 172.477M350.394 151.81C338.42 160.133 328.95 167.019 323.83 170.777M347.435 155.954C346.228 160.045 336.845 164.347 327.497 172.652M346.928 157.154C344.713 160.658 340.582 164.434 329.44 171.434M350.105 159.844C341.072 167.545 339.103 169.595 335.164 169.235M347.891 159.178C344.976 164.426 339.471 166.905 336.959 172.118M348.748 165.179C344.582 166.949 342.849 169.586 339.725 170.348M349.484 164.25C346.481 165.985 346.088 168.044 340.092 171.54" stroke="#CED4DA" stroke-width="0.5" stroke-linecap="round"/>
<path d="M123.573 77.3067C121.998 113.13 117.438 150.005 117.919 168.754M121.403 74.9587C122.138 110.914 121.245 147.14 119.346 169.27M122.357 171.759C199.177 171.978 276.645 169.761 345.615 171.215M118.934 169.822C208.446 171.645 297.686 171.207 347.751 171.399M346.263 172.398C345.239 147.999 346.569 119.473 344.819 78.0076M348.136 170.392C349.431 132.299 347.584 94.8461 349.081 74.2141M349.737 75.2917C277.468 79.5582 211.895 76.0188 119.031 77.3505M347.803 75.7297C299.332 77.8586 249.688 77.2191 120.107 76.9124" stroke="black" stroke-linecap="round"/>
<path d="M24.431 102.72C18.7856 108.336 17.2277 107.205 11.0922 113.54M24.8773 101.301C20.6061 106.391 18.9519 109.816 9.49047 114.319M30.3827 98.8475C28.6234 100.039 22.0941 108.607 11.5386 118.709M33.2797 100.337C26.8642 104.411 20.6761 108.984 12.1512 117.07M44.4654 93.7224C35.4854 99.5747 25.8576 105.988 13.079 122.047M41.6033 96.5434C35.3453 99.9339 31.9231 104.069 15.3984 118.849M48.3515 94.616C42.995 97.437 34.3388 106.759 20.3961 120.654M51.2223 94.2918C40.2905 99.5484 32.9471 109.238 17.9541 123.378M56.3688 89.1492C47.0299 102.667 41.0257 105.112 19.8797 122.432M58.023 93.2931C48.1152 100.941 38.3824 108.914 18.9607 124.219M63.2045 90.9189C50.9773 104.98 31.2579 119.707 20.0547 126.147M64.001 91.2956C55.6861 98.1554 46.9073 103.885 20.8162 126.05M71.0467 90.9364C61.4277 100.74 47.52 110.473 26.6629 132.568M73.725 87.1779C55.371 104.043 35.3803 118.568 26.1202 130.369M80.5957 88.0978C63.4408 103.868 45.3757 122.774 28.4221 130.431M79.2915 86.0478C61.0864 103.903 41.1657 118.472 27.7919 131.114M88.2366 84.4007C70.0927 97.1304 56.0187 113.68 28.7722 134.978M86.3198 86.5471C63.9222 102.737 42.7149 121.407 31.2054 134.776M93.0417 85.6185C76.5958 100.302 65.7077 108.125 32.9734 137.755M93.8469 84.1905C70.2327 103.324 47.1787 123.729 35.1528 137.396M100.245 83.1479C75.2391 104.831 49.9357 124.684 35.8092 139.901M102.188 80.3181C81.611 99.1542 60.6137 116.659 37.9536 139.402M107.291 82.6573C96.4814 89.999 79.7467 103.298 38.0498 135.775M110.319 78.3732C87.5802 100.302 67.0731 119.112 40.7456 138.946M115.579 77.7599C95.3524 95.2555 73.5849 112.366 45.5332 141.557M118.065 77.7336C86.4161 101.625 59.3709 125.525 43.984 142.022M118.004 82.6573C94.7222 105.112 71.2218 119.97 46.8811 140.996M117.951 80.87C95.7287 102.597 71.5456 122.818 46.9949 142.468M118.774 87.467C93.0505 110.543 72.2195 126.813 47.6163 142.013M115.929 86.4508C102.512 99.855 88.6392 113.058 47.9927 146.06M117.706 91.7774C94.2495 114.915 67.6857 132.095 51.5637 146.323M116.551 90.4195C103.702 99.7937 91.1774 111.849 50.846 146.384M119.938 96.0177C95.0373 111.498 77.7336 132.06 56.255 147.155M119.527 94.0115C99.5185 111.183 76.9546 128.433 54.382 149.582M116.673 99.6535C97.5317 121.582 71.1517 142.048 59.047 150.782M118.862 97.5947C98.1969 117.289 79.5629 130.904 59.3359 149.547M121.89 106.513C105.75 119.05 87.3351 135.039 63.5108 149.74M119.474 105.085C104.026 115.441 88.2453 128.714 61.6465 152.806M118.144 108.958C99.2035 124.675 82.5562 142.828 69.5238 153.104M118.792 107.284C100.455 124.719 79.4053 141.084 67.8958 155.347M121.295 114.188C97.9168 129.458 83.7728 148.399 70.6791 154.462M119.938 110.789C100.481 127.829 84.3942 142.241 69.1387 155.251M119.247 114.468C105.61 131 92.464 142.591 76.3857 158.72M120.297 117.841C107.693 127.067 97.6805 138.044 74.3376 157.642M122.721 120.391C104.91 133.699 91.5713 146.297 77.9174 159.903M121.172 120.198C104.262 133.366 92.5691 144.326 77.331 158.588M117.969 124.114C107.028 137.194 96.5602 146.236 80.8845 158.168M119.894 124.535C108.595 137.072 97.768 143.984 79.5716 161.261M117.575 132.612C103.501 143.826 89.6545 157.914 81.9173 161.445M119.465 128.801C108.455 142.889 92.8492 153.717 85.357 162.645M120.174 130.93C108.096 144.037 99.1072 155.592 87.1513 160.42M120.665 133.585C110.757 143.318 101.374 151.895 86.0222 162.732M119.177 136.441C110.678 148.461 107.046 154.226 91.5975 162.908M121.19 139.525C111.763 146.901 100.245 155.934 89.2956 166.465M119.912 139.936C114.993 153.384 102.888 161.287 91.2124 168.269M123.08 143.493C115.431 148.102 107.378 155.724 93.7069 167.761M120.7 144.615C117.181 154.331 110.984 157.055 99.7111 170.792M121.767 148.741C116.796 152.981 109.155 159.71 99.256 166.079M119.535 154.015C118.354 156.495 109.076 159.246 106.591 167.349M120.568 151.93C116.647 156.004 111.334 162.329 104.84 166.175M120.463 157.458C115.509 160.858 115.991 164.914 110.31 165.956M120.463 158.965C115.037 162.032 110.774 165.808 107.755 167.901M116.341 82.6923C116.192 81.9739 114.774 79.994 114.004 78.3644M117.015 82.6135C115.028 81.0978 113.969 79.81 113.234 78.0928M117.094 89.7274C115.772 84.2343 111.684 80.0991 111.151 81.422M116.84 88.4395C114.949 86.8888 114.879 85.1104 109.916 78.3031M119.772 97.437C114.66 93.8625 111.72 83.8225 102.836 78.1191M117.934 93.6873C116.183 91.4708 112.218 86.7487 104.131 78.6535M114.923 97.0778C111.536 92.1717 109.488 92.1717 104.499 81.1767M118.958 101.038C112.157 93.7749 106.127 85.2242 102.512 82.6836M119.649 109.895C115.676 102.334 107.431 93.9151 96.7002 83.402M119.36 107.468C113.181 101.344 107.142 94.7386 98.8446 80.9664M121.592 111.919C107.475 101.467 101.654 93.1792 90.8886 83.1304M118.433 110.824C110.328 101.248 104.577 92.8375 92.3152 83.8838M118.897 120.557C113.68 110.631 106.809 99.9952 86.3023 86.3106M121.137 117.981C109.645 106.119 102.171 96.7449 90.3897 83.2267M120.288 120.715C107.737 108.861 99.0634 98.9789 88.079 86.3456M121.426 122.712C110.967 113.759 102.048 103.149 85.7946 83.7086M117.067 131.21C112.779 115.598 98.477 108.379 80.4206 82.7186M120.708 129.064C110.407 118.954 101.54 107.188 83.0376 85.7324M123.885 137.518C106.529 120.259 95.5187 105.155 77.3047 86.258M120.498 135.915C105.698 118.358 93.173 103.561 76.5083 86.1792M119.334 140.155C111.86 126.523 100.096 117.035 75.3004 89.3156M119.807 142.328C104.744 119.427 85.2345 99.855 74.1626 86.3807M122.835 144.834C110.477 135.03 96.7002 122.266 69.2437 85.0928M119.509 143.931C106.862 127.347 90.1271 112.103 72.1145 89.4207M117.146 151.124C103.265 130.711 92.6566 112.409 67.4757 86.2055M119.133 148.636C106.888 131.824 91.5188 116.58 67.1694 89.8676M120.043 157.616C99.7374 131.5 72.6309 106.058 60.8676 90.5597M119.474 153.008C94.8272 130.107 76.2107 103.351 61.7778 87.8087M114.424 158.273C96.8928 130.965 73.9525 103.701 56.0975 89.6398M116.533 158.632C98.7833 136.747 79.204 116.737 59.7122 89.263M116.428 165.606C95.1248 138.666 68.2109 110.447 52.3251 91.1028M118.074 162.995C93.987 138.964 73.7687 111.796 54.0406 92.8463M117.225 162.277C91.9214 139.306 72.9898 118.297 54.0319 92.6623M114.196 166.237C98.6783 146.297 82.6875 128.398 51.3886 94.3094M111.474 169.032C83.2827 136.16 62.2505 110.21 48.7804 92.0052M110.275 168.068C90.8448 141.233 67.9746 116.615 47.0999 95.6235M106.205 164.923C91.7288 145.981 75.7906 131.719 46.426 93.7662M108.595 167.805C90.9061 147.891 74.0138 130.308 44.2553 96.9814M100.866 169.916C90.0308 148.303 72.1408 134.356 42.8287 98.3482M103.396 168.961C83.589 145.307 60.7975 121.398 39.3189 95.3607M98.477 167.787C82.3462 149.784 67.3707 131.754 40.3342 97.586M96.3239 164.309C81.2346 149.477 63.5633 130.107 36.4569 96.7099M89.847 164.362C64.8412 137.028 42.2335 111.858 36.098 101.634M88.5517 165.326C71.1605 138.438 47.6513 113.767 33.2622 100.021M89.7508 164.143C65.5064 141.969 47.0124 118.016 31.3979 102.869M86.2935 163.757C68.1584 145.876 53.3317 126.506 30.9078 98.8475M79.8692 164.266C63.4495 145.079 46.1021 126.348 24.0984 99.4958M79.7029 159.903C60.5962 137.562 41.3145 118.665 27.5469 100.521M72.132 161.226C60.0186 143.511 47.2487 125.533 20.8249 104.823M71.992 157.87C58.3206 145.622 44.5004 128.731 20.7987 103.027M65.769 158.019C48.7891 134.277 29.6475 116.133 16.615 102.054M61.9091 154.304C48.9292 137.676 32.7983 119.085 19.7922 105.033M54.2332 147.269C46.5047 139.463 32.8071 125.2 14.1643 108.756M55.0734 148.715C40.2292 130.527 24.431 117.149 16.3087 106.303M44.9906 142.162C37.017 129.87 26.4703 124.797 16.7725 110.876M42.5311 142.013C33.8924 130.878 22.0853 117.622 13.5954 107.521M29.2273 135.004C23.1268 129.634 21.3501 120.356 13.2278 106.82M30.9603 136.178C26.4878 126.033 19.7396 120.715 8.60648 107.863" stroke="#E64980" stroke-width="0.5" stroke-linecap="round"/>
<path d="M116.726 76.2618C98.4507 81.7461 9.11413 95.422 8.75527 110.219C8.39642 125.008 96.4639 170.153 114.564 165.037C132.664 159.92 117.024 93.7574 117.347 79.5121M114.582 80.3006C96.4552 86.5647 11.8011 100.004 11.1885 114.915C10.5845 129.817 92.7879 176.61 110.914 169.741C129.049 162.873 118.932 89.0353 119.982 73.7123" stroke="black" stroke-linecap="round"/>
<path d="M358.109 72.6328C357.593 72.8956 350.81 77.6265 348.202 81.2536M358.109 72.6328C355.134 74.9457 350.976 78.9932 348.202 81.2536M363.046 72.9745C357.759 75.1472 358.985 79.8693 350.495 83.8994M363.046 72.9745C359.536 74.017 356.761 77.1972 350.495 83.8994M368.647 72.7467C363.921 74.9019 360.061 77.8894 350.81 88.2711M368.647 72.7467C365.129 74.201 363.125 79.8168 350.81 88.2711M373.584 73.0971C369.925 77.3374 362.949 87.2548 350.468 93.2123M373.584 73.0971C365.155 82.2874 354.74 88.2974 350.468 93.2123M378.529 73.4388C370.844 84.39 363.133 88.1134 350.784 97.584M378.529 73.4388C367.448 83.0233 358.066 91.3199 350.784 97.584M382.144 74.9369C370.407 84.4864 367.685 86.0633 350.433 102.525M382.144 74.9369C374.293 80.8418 365.129 90.1021 350.433 102.525M384.437 77.5827C374.757 86.5715 363.151 100.755 350.749 106.897M384.437 77.5827C372.595 86.1772 362.065 95.017 350.749 106.897M384.752 81.9544C380.603 88.2185 371.501 91.4601 351.064 111.26M384.752 81.9544C377.592 89.4363 368.997 93.44 351.064 111.26M384.411 86.8956C377.584 92.4063 373.68 102.113 350.722 116.21M384.411 86.8956C371.877 99.8618 357.208 111.418 350.722 116.21M384.726 91.2673C373.68 100.151 363.763 111.707 351.037 120.573M384.726 91.2673C373.706 100.712 362.556 110.419 351.037 120.573M384.384 96.2085C377.19 104.593 367.081 111.382 350.696 125.523M384.384 96.2085C374.45 107.589 363.571 114.344 350.696 125.523M384.699 100.58C374.827 105.259 365.89 116.262 351.011 129.886M384.699 100.58C375.886 108.123 367.807 113.108 351.011 129.886M384.349 105.521C373.628 115.833 368.822 117.822 350.661 134.836M384.349 105.521C374.406 114.931 363.877 123.017 350.661 134.836M384.664 109.893C369.768 125.12 362.249 133.478 350.976 139.199M384.664 109.893C376.743 117.506 369.129 124.839 350.976 139.199M384.979 114.256C370.59 125.891 360.403 135.747 351.291 143.57M384.979 114.256C373.584 123.192 361.252 134.371 351.291 143.57M384.638 119.206C373.899 132.978 359.93 139.058 350.95 148.511M384.638 119.206C374.862 126.907 369.444 132.645 350.95 148.511M384.953 123.569C371.702 132.873 358.547 144.332 351.265 152.883M384.953 123.569C375.964 131.804 367.107 140.705 351.265 152.883M384.603 128.519C374.091 141.555 359.842 152.156 350.915 157.824M384.603 128.519C376.428 135.388 367.956 142.852 350.915 157.824M384.918 132.882C372.717 139.19 366.485 152.068 351.23 162.196M384.918 132.882C375.536 142.642 364.796 150.377 351.23 162.196M384.577 137.832C378.048 145.261 370.345 153.023 350.889 167.137M384.577 137.832C372.157 146.435 361.838 158.779 350.889 167.137M384.892 142.195C374.477 147.995 365.19 160.602 350.538 172.087M384.892 142.195C370.398 153.803 357.934 163.02 350.538 172.087M385.207 146.566C374.196 153.312 368.253 161.381 352.84 174.733M385.207 146.566C373.838 157.535 364.858 166.357 352.84 174.733M384.857 151.508C373.059 159.103 361.847 172.683 355.134 177.379M384.857 151.508C374.188 161.311 363.378 169.082 355.134 177.379M385.172 155.879C378.249 166.375 366.739 174.391 360.735 177.142M385.172 155.879C379.999 161.924 370.704 167.277 360.735 177.142M384.831 160.821C375.606 169.555 373.409 169.275 365.672 177.493M384.831 160.821C375.851 168.924 371.746 173.235 365.672 177.493M385.146 165.192C379.728 164.798 375.404 173.62 371.273 177.265M385.146 165.192C381.216 169.765 375.098 172.665 371.273 177.265M386.783 168.408C382.17 170.571 383.85 170.475 376.875 177.037M386.783 168.408C382.686 172.779 379.247 175.872 376.875 177.037M384.341 82.6991C381.128 81.1046 379.299 80.9995 377.452 74.7617M384.341 82.6991C383.492 81.0345 381.654 79.1422 377.452 74.7617M384.568 88.2974C378.879 83.2248 374.914 79.6854 372.507 74.42M384.568 88.2974C380.656 84.5827 375.921 78.9144 372.507 74.42M384.218 93.2473C377.452 89.4713 378.03 84.2936 368.148 74.7354M384.218 93.2473C378.967 85.2048 374.503 81.385 368.148 74.7354M384.454 98.8543C378.853 88.017 365.75 84.3637 363.203 74.385M384.454 98.8543C377.741 93.0195 373.671 84.9945 363.203 74.385M384.682 104.453C380.227 96.0771 369.663 85.38 357.12 72.7204M384.682 104.453C374.083 92.2135 364.866 81.4288 357.12 72.7204M384.332 109.403C375.833 99.599 362.862 84.0833 353.331 73.6929M384.332 109.403C374.135 96.9532 361.715 84.8894 353.331 73.6929M384.559 115.001C368.14 97.768 356.639 84.1534 350.11 75.3312M384.559 115.001C371.264 99.1347 357.567 82.9619 350.11 75.3312M384.796 120.608C371.658 108.334 363.195 92.231 348.613 78.9494M384.796 120.608C369.628 102.7 358.083 87.027 348.613 78.9494M384.446 125.549C373.733 116.131 365.82 104.365 347.125 82.5765M384.446 125.549C378.748 117.077 370.485 108.421 347.125 82.5765M384.673 131.156C374.363 120.984 369.426 116.017 347.353 88.1835M384.673 131.156C373.575 115.518 357.532 100.23 347.353 88.1835M384.901 136.763C375.019 125.785 362.599 111.645 347.002 93.1247M384.901 136.763C376.936 126.548 366.661 119.048 347.002 93.1247M384.559 141.704C374.398 125.286 358.678 113.371 347.239 98.7317M384.559 141.704C371.719 128.72 363.361 118.05 347.239 98.7317M384.787 147.311C370.757 128.545 355.317 117.366 346.889 103.673M384.787 147.311C374.765 137.28 365.558 125.856 346.889 103.673M385.014 152.918C374.652 140.276 358.599 122.325 347.116 109.28M385.014 152.918C377.846 144.648 367.755 135.387 347.116 109.28M384.673 157.859C369.304 147.548 363.781 128.361 347.344 114.887M384.673 157.859C372.603 142.694 356.621 125.523 347.344 114.887M384.901 163.466C368.682 147.539 359.965 133.784 347.002 119.828M384.901 163.466C376.717 154.802 368.822 146.654 347.002 119.828M383.982 167.75C374.406 159.62 367.728 144.525 347.23 125.435M383.982 167.75C375.387 158.499 365.164 149.326 347.23 125.435M382.485 171.369C369.496 156.922 360.805 142.081 347.458 131.033M382.485 171.369C371.903 156.309 358.538 144.446 347.458 131.033M380.997 174.996C367.369 160.216 354.766 145.068 347.116 135.983M380.997 174.996C368.332 160.181 356.595 147.197 347.116 135.983M377.776 176.625C370.739 163.405 360.175 153.943 347.344 141.59M377.776 176.625C368.464 164.456 357.427 151.035 347.344 141.59M373.409 176.949C369.706 173.156 359.816 161.802 347.571 147.189M373.409 176.949C368.122 168.898 359.475 162.249 347.571 147.189M368.472 176.599C364.919 170.501 358.398 165.35 347.23 152.138M368.472 176.599C361.199 167.496 350.801 158.99 347.23 152.138M364.105 176.914C356.543 171.053 358.608 171.456 347.458 157.737M364.105 176.914C358.311 171.675 353.654 165.849 347.458 157.737M359.168 176.573C354.083 173.156 355.764 168.793 347.685 163.344M359.168 176.573C355.536 172.604 351.921 166.165 347.685 163.344M353.654 175.565C352.945 171.859 351.212 172.166 347.335 168.285M353.654 175.565C352.429 173.042 349.812 170.878 347.335 168.285" stroke="#868E96" stroke-width="0.5" stroke-linecap="round"/>
<path d="M348.421 81.2798C347.475 111.812 349.777 144.578 348.421 166.787M348.421 81.2798C346.372 110.366 346.425 141.275 348.421 166.787M348.421 166.787C347.712 174.75 351.93 173.112 357.532 175.907M348.421 166.787C346.845 173.541 354.381 173.874 357.532 175.907M357.532 175.907C363.589 173.541 371.562 174.4 375.746 175.907M357.532 175.907C362.775 175.521 368.595 177.826 375.746 175.907M375.746 175.907C379.501 177.931 382.748 170.852 384.848 166.787M375.746 175.907C380.954 175.53 384.551 174.531 384.848 166.787M384.848 166.787C385.724 139.225 384.682 115.588 384.848 81.2798M384.848 166.787C384.314 137.403 383.886 106.993 384.848 81.2798M384.848 81.2798C386.17 72.1159 383.395 73.4475 375.746 72.1597M384.848 81.2798C383.571 77.9857 381.487 69.3912 375.746 72.1597M375.746 72.1597C370.967 68.8918 363.676 74.2185 357.532 72.1597M375.746 72.1597C370.967 72.9569 367.606 70.3462 357.532 72.1597M357.532 72.1597C350.968 68.848 351.178 73.8681 348.421 81.2798M357.532 72.1597C350.827 73.43 351.633 73.9294 348.421 81.2798" stroke="black" stroke-linecap="round"/>
<path d="M193.069 107.095C189.761 110.345 181.761 114.954 179.433 120.473M195.511 105.676C188.64 110.74 183.608 115.444 179.8 119.772M199.546 104.896C192.955 111.844 188.955 117.451 179.958 122.602M199.931 106.964C194.041 111.125 187.678 115.409 178.575 123.627M204.386 106.193C193.901 113.832 184.325 124.258 179.371 128.813M203.423 108.444C196.973 113.578 190.338 118.66 177.7 130.233M206.863 109.215C200.386 117.451 192.736 121.629 178.715 132.992M206.749 110.626C196.938 118.607 186.26 127.946 179.608 131.617M208.211 110.792C201.393 119.019 191.074 125.178 183.31 134.771M210.005 111.011C203.66 117.95 195.651 123.32 182.759 134.946M213.777 114.156C202.303 121.542 190.583 133.947 185.341 137.04M212.666 114.113C205.148 119.72 197.183 127.219 186.505 137.715M213.55 117.626C206.32 125.642 195.712 131.433 188.141 139.265M212.885 117.118C205.655 124.214 199.327 130.312 188.719 138.932M213.725 121.305C209.41 124.897 202.443 133.176 190.645 138.889M215.861 120.473C208.701 126.133 203.546 130.645 192.526 141.07M216.928 125.616C209.401 128.857 203.012 137.785 195.24 140.352M217.147 123.347C210.6 130.145 204.579 135.156 196.22 141.902M213.069 129.777C207.432 135.27 204.789 138.74 201.655 144.32M214.066 131.354C209.498 135.165 204.456 138.608 200.771 143.541M214.355 121.183C208.587 115.138 205.41 111.949 203.021 107.726M214.119 121.507C211.414 118.274 208.141 114.086 201.375 107.235M212.403 123.513C207.642 117.906 201.06 111.773 197.034 107.621M212.928 124.529C208.911 121.726 206.268 117.24 196.955 106.026M212.281 128.98C206.172 123.215 202.601 119.29 194.557 109.058M210.425 127.385C207.905 124.17 203.231 119.869 193.314 106.867M210.128 133.194C204.806 126.807 200.815 123.723 190.47 108.129M209.471 131.214C203.467 123.758 196.308 116.969 188.955 108.576M208.307 137.715C204.115 128.253 196.605 123.995 184.991 111.23M208.281 135.849C202.058 127.307 194.487 119.527 185.122 109.977M207.021 139.283C202.18 132.169 195.353 126.124 183.424 112.098M205.559 138.205C198.277 130.189 191.126 121.673 183.354 111.844M201.559 140.641C193.743 130.793 187.879 123.496 181.883 113.911M202.583 140.08C198.216 133.825 192.133 127.526 181.315 114.954M198.452 142.752C192.772 134.534 186.295 126.264 178.041 117.433M199.651 140.807C194.347 136.19 189.831 129.155 177.822 117.398M196.448 142.051C187.17 133.982 178.706 126.614 176.693 121.761M195.896 143.646C192.518 138.091 187.713 133.466 176.221 121.016M191.581 143.479C186.592 138.941 182.925 133.798 176.011 125.984M190.391 143.068C186.015 136.024 179.398 128.244 175.485 124.801" stroke="#228BE6" stroke-width="0.5" stroke-linecap="round"/>
<path d="M178.067 129.383C179.301 132.747 183.66 136.917 187.1 138.818C190.531 140.728 194.916 141.412 198.688 140.834C202.452 140.255 207.047 138.398 209.725 135.349C212.395 132.3 214.618 126.509 214.731 122.532C214.854 118.546 213.086 114.393 210.443 111.441C207.791 108.479 202.802 105.325 198.854 104.782C194.907 104.239 190.137 105.991 186.75 108.164C183.363 110.328 179.704 114.069 178.505 117.775C177.306 121.472 179.179 128.034 179.555 130.364C179.923 132.703 180.544 131.915 180.737 131.792M180.185 131.775C181.332 135.095 183.555 138.731 187.179 140.299C190.802 141.867 197.935 142.165 201.909 141.184C205.874 140.203 209.042 137.522 211.003 134.394C212.972 131.258 214.268 126.588 213.699 122.4C213.139 118.213 210.452 112.36 207.607 109.277C204.762 106.193 200.15 104.169 196.64 103.915C193.13 103.652 189.454 105.141 186.531 107.735C183.599 110.337 180.273 115.549 179.065 119.483C177.866 123.417 179.24 129.453 179.328 131.345C179.415 133.238 179.118 131.004 179.617 130.837" stroke="black" stroke-linecap="round"/>
<path d="M251.11 172.6C250.666 173.446 249.517 173.921 248.948 175.113M251.272 172.461C250.22 173.208 249.414 174.221 248.667 174.938M256.748 171.979C254.334 173.451 253.844 175.339 251.03 177.661M256.377 172.315C254.767 173.293 253.647 174.153 251.392 177.053M261.742 172.134C258.584 175.326 257.41 176.446 255.381 179.227M261.401 171.974C258.174 174.39 255.744 177.475 254.758 178.62M265.243 171.689C263.775 175.339 260.453 180.264 257.853 182.16M266.17 171.28C262.336 175.913 258.737 179.448 257.017 181.177M271.431 171.647C266.784 174.644 266.764 177.014 258.255 183.29M269.761 172.103C265.38 176.447 261.367 180.781 259.706 183.727M276.89 172.231C269.973 176.026 264.974 182.306 262.111 184.395M275.165 172.403C272.208 175.672 269.356 178.675 262.745 185.556M281.093 171.506C275.623 177.744 269.911 181.085 266.739 188.486M279.607 172.577C277.607 176.192 273.687 178.799 265.256 187.991M284.842 171.08C282.544 177.462 279.098 178.103 268.529 191.108M285.435 172.183C281.058 176.219 278.656 180.92 268.219 190.294M290.804 170.708C283.421 179.206 274.962 186.437 269.376 193.533M289.804 171.098C283.711 178.763 277.51 184.899 271.406 192.9M295.858 169.88C288.107 181.231 278.39 189.697 272.942 195.08M295.846 171.44C291.064 177.425 285.211 180.85 273.382 195.265M300.529 171.837C292.207 178.755 286.684 186.399 277.677 198.307M299.553 172.013C291.031 180.554 283.207 190.556 276.049 196.708M306.094 171.892C295.563 180.315 286.418 189.762 279.853 197.192M303.87 172.887C297.963 178.606 290.879 187.549 279.704 198.264M307.707 172.99C304.903 179.228 298.515 186.764 279.991 200.269M309.596 172.353C303.375 178.544 298.171 183.11 281.341 200.583M314.715 172.884C302.756 183.843 292.213 197.382 283.872 202.691M312.445 172.607C304.054 182.385 295.929 192.805 284.923 203.714M315.844 172.023C308.29 181.99 298.68 194.653 287.536 203.806M317.285 172.716C311.59 180.228 305.136 186.564 287.646 205.626M321.777 175.439C311.884 183.817 301.528 197.029 291.493 206.098M322.534 173.137C312.283 184.12 304.252 193.087 290.73 207.195M326.97 173.348C315.396 188.195 303.401 200.223 293.634 207.919M325.638 175.355C315.778 184.768 307.495 194.129 292.309 208.922M329.153 175.939C320.155 185.266 308.942 199.954 294.273 212.679M330.869 174.254C320.669 186.641 310.14 197.036 296.446 211.354M335.173 174.909C322.758 187.041 313.701 199.068 297.947 215.501M335.595 174.815C327.652 183.078 318.245 192.454 298.174 214.413M338.64 174.741C324.959 191.241 307.334 206.901 301.407 217.578M339.768 176.724C324.775 191.242 311.177 205.463 301.199 216.894M340.883 178.568C327.533 193.072 313.49 205.462 303.958 217.219M341.751 177.205C327.925 193.922 311.631 209.96 304.344 219.161M346.734 178.409C334.437 190.397 321.823 203.006 308.133 221.276M345.932 178.119C334.052 191.042 323.248 202.917 305.688 220.568M348.447 181.575C341.24 192.212 331.037 202.073 311.227 223.918M348.285 181.01C339.076 191.142 330.933 200.578 310.226 223.489M350.03 185.758C337.071 197.635 324.369 209.707 312.024 225.661M350.258 184.767C340.233 196.696 328.603 208.406 312.354 225.258M354.62 186.446C344.503 196.201 333.682 207.118 313.961 225.68M353.922 187.396C338.003 202.604 323.665 218.237 316.046 226.837M353.763 189.339C340.889 203.682 325.675 218.9 319.912 228.574M355.2 189.733C345.828 199.107 337.841 207.541 317.604 228.892M355.761 196.192C342.409 206.242 334.361 216.91 322.565 232.008M355.494 193.947C344.323 206.474 333.881 216.588 321.227 229.685M357.055 200.298C345.175 211.971 332.945 225.167 323.904 234.507M355.426 198.945C343.909 211.533 332.002 224.882 324.646 233.21M355.911 204.733C349.15 212.58 340.47 222.817 325.776 235.562M356.188 204.504C347.383 212.148 339.541 220.894 327.083 233.839M355.853 210.628C346.641 219.669 336.47 229.236 332.12 236.208M356.418 209.41C349.915 216.755 342.788 222.059 331.279 236.776M354.724 215.037C345.768 223.286 339.028 232.327 333.154 239.187M355.565 215.367C349.843 220.645 344.84 226.89 334.052 238.657M354.895 221.305C350.618 227.408 342.248 234.463 337.552 240.695M354.76 219.408C348.687 227.098 341.581 235.013 335.632 241.379M355.811 225.483C351.024 228.758 349.74 232.134 340.88 242.152M354.945 224.83C350.364 230.355 343.879 236.105 340.605 241.686M352.971 234.92C350.15 235.474 347.728 239.359 342.976 243.598M351.642 234.463C349.44 236.389 347.479 239.234 343.142 242.693M349.118 185.963C343.457 180.847 339.583 178.406 338.755 176.525M348.295 186.705C345.78 184.674 343.438 182.161 337.723 174.815M352.789 194.603C346.838 186.92 339.271 181.386 332.711 174.74M352.356 194.145C348.783 190.213 344.359 186.576 330.525 173.716M354.851 199.883C347.163 191.976 340.139 186.423 326.283 174.314M353.359 200.894C345.15 191.366 334.543 183.379 326.197 174.692M355.291 206.82C346.434 198.034 339.086 190.084 319.101 173.205M353.792 205.719C341.288 192.515 328.064 181.285 319.312 173.73M355.516 209.535C341.904 196.961 324.531 183.449 312.998 170.818M353.759 210.185C343.104 200.381 334.132 190.691 313.818 172.797M352.065 214.13C340.923 202.34 325.178 188.385 311.684 173.009M353.857 214.726C339.191 201.984 326.797 189.192 310.535 173.924M352.11 220.622C342.356 209.258 333.708 201.42 304.595 172.745M354.574 220.192C340.446 207.916 327.986 196.134 306.169 174.692M355.319 225.585C341.739 213.069 325.693 199.276 299.908 173.73M354.806 225.821C341.493 211.465 326.389 198.661 299.377 173.791M351.783 228.339C334.483 210.674 319.563 195.818 293.766 172.738M353.966 228.351C339.298 215.689 325.19 203.701 295.014 173.256M352.344 232.58C332.832 215.768 317.05 198.867 289.616 173.555M352.811 232.322C334.386 215.376 315.768 198.801 289.443 173.308M352.197 236.52C333.668 217.727 315.761 204.858 284.286 174.269M349.563 235.673C333.9 219.799 317.429 204.648 283.936 173.221M347.566 238.961C329.682 221.618 311.472 204.272 281.2 173.211M347.683 238.897C323.352 215.961 299.902 192.78 279.519 174.268M346.067 239.814C324.167 218.328 298.1 196.163 276.001 174.802M345.942 240.945C325.922 224.421 306.466 206.213 275.119 174.159M342.401 240.275C311.635 215.33 283.951 189.629 267.682 174.563M342.198 242.399C313.479 215.569 284.943 188.544 269.94 174.533M332.144 237.518C313.109 219.743 289.502 199.5 264.886 172.614M332.381 238.489C316.324 223.693 300.552 206.985 263.79 174.342M316.959 226.376C301.503 212.771 286.495 196.929 260.357 173.073M316.15 228.244C297.411 209.102 276.337 190.376 259.701 173.912M308.081 222.883C287.418 207.057 269.842 187.764 256.089 174.562M307.205 223.719C289.403 208.181 272.834 191.323 254.411 174.667M273.497 198.467C267.279 193.591 260.258 184.958 248.318 175.413M274.534 199.261C268.677 192.783 262.614 186.009 250.066 175.028" stroke="#228BE6" stroke-width="0.5" stroke-linecap="round"/>
<path d="M246.679 173.516C262.545 184.774 325.923 239.447 342.458 240.234C358.985 241.022 362.011 189.497 345.845 178.224C329.679 166.951 261.918 173.736 245.453 172.59M245.825 172.791C261.841 184.325 324.119 241.484 340.966 242.222C357.805 242.961 362.698 188.795 346.873 177.233C331.038 165.663 262.458 173.594 245.969 172.829" stroke="black" stroke-linecap="round"/>
<path d="M337.242 12.4104C307.262 34.8373 276.207 53.4601 250.767 75.6867M335.277 12.268C317.637 26.352 300.464 39.6197 249.107 73.5323M344.998 10.9186C307.159 36.4115 270.455 65.5298 250.329 79.5781M344.79 10.0881C310.775 34.5349 277.533 57.8349 249.123 79.2294M348.967 12.5893C318.165 34.6969 285.799 57.142 255.275 77.8599M349.766 10.8288C326.849 27.3024 304.24 44.0354 254.465 78.1403M353.461 13.3967C324.894 32.478 299.203 50.9383 262.161 78.1391M351.424 14.0746C329.081 29.989 307.025 45.2276 262.192 79.1633M352.79 17.2386C320.465 40.8761 286.237 66.05 265.513 80.0918M355.023 16.4568C323.722 38.0923 291.318 60.1287 267.035 79.2835M353.724 20.2451C334.892 35.7952 317.046 48.7584 271.669 80.0167M355.13 19.9974C335.705 36.3778 313.94 50.9851 272.935 78.065M354.215 25.4172C329.73 42.7121 305.027 60.9625 280.097 79.1991M355.808 23.9909C333.275 41.6382 311.139 56.3583 279.019 78.9776M356.248 28.9555C334.895 42.5122 313.967 58.1798 286.881 78.1124M355.853 27.5254C337.426 42.0946 316.923 56.3079 285.767 78.169M356.263 34.2299C343.078 43.0258 329.094 49.0486 290.907 77.9578M356.624 32.4436C333.573 48.4021 309.777 66.5577 291.691 78.6607M358.037 35.2336C338.535 50.7964 320.081 61.9034 297.186 80.6328M356.769 36.8419C343.317 46.025 330.015 56.7987 296.324 79.3059M356.168 39.1853C344.183 49.8963 328.079 60.8054 302.915 78.2969M357.046 41.7814C345.124 49.1006 333.068 58.2112 302.858 79.6733M358.32 45.702C339.676 58.1986 323.687 67.8603 308.107 79.3409M356.988 45.0327C339.564 57.4569 323.662 68.1044 309.032 78.887M357.593 46.5542C342.028 59.7615 322.947 74.3538 313.497 78.5647M358.52 48.8381C344.248 59.0138 328.278 69.1087 314.391 79.8419M357.45 53.1597C345.115 60.2971 333.657 70.4794 322.206 78.1975M357.785 53.6772C348.034 60.5782 336.915 67.3347 322.055 78.0329M355.454 59.458C349.399 64.9129 338.778 70.3719 328.665 77.017M357.377 57.0962C348.63 64.7748 337.587 71.5652 329.072 76.8109M352.988 64.9085C347.011 68.3289 342.118 71.2848 340.731 75.7861M353.065 65.0218C349.433 67.7684 346.059 70.928 340.262 74.1286M355.284 26.166C353.868 20.0393 350.925 16.886 347.786 10.7466M355.279 25.7781C352.471 22.1541 351.554 18.533 346.271 12.6383M356.241 30.5393C352.221 27.3406 347.676 20.2077 339.191 10.4033M356.062 30.6623C349.551 23.3077 345.516 16.7976 340.221 9.23802M356.27 38.773C348.385 28.5088 341.056 19.6468 337.833 12.3019M356.15 37.7663C351.975 32.6771 347.261 25.5538 337.565 11.5446M358.268 46.4011C349.962 33.5511 341.888 24.7471 333.458 13.4077M357.195 45.335C350.171 35.9663 344.202 27.6707 332.918 11.6639M357.885 48.9423C349.131 39.7187 343.719 30.5894 329.465 12.4213M356.537 49.7592C347.531 37.8432 340.162 26.2746 329.9 14.2514M354.726 54.6409C344.803 42.1232 334.461 27.8913 328.329 15.6359M355.698 55.8378C345.42 41.0489 336.538 28.5906 327.607 15.8195M353.512 59.4411C343.566 41.6482 329.768 25.8934 324.165 18.7874M354.102 59.3413C347.143 48.9667 338.194 37.6198 324.765 17.2537M352.732 63.0521C344.105 48.0222 331.355 32.9614 322.239 20.9112M352.165 64.0697C344.87 53.0895 338.345 43.744 322.02 19.6571M349.54 64.5571C341.876 54.3591 335.298 46.8833 318.993 21.4427M349.03 65.7918C340.577 50.6032 329.577 37.5912 318.173 22.62M346.254 69.4949C337.177 52.695 324.855 35.4495 316.121 23.6222M346.897 67.4373C339.262 57.9287 332.567 46.7528 316.37 22.8898M346.32 70.0649C338.154 60.0633 330.329 49.9019 314.107 25.0418M344.537 70.9265C332.83 53.0643 320.748 37.656 312.508 25.1118M341.074 74.3677C333.163 59.8316 323.869 45.6686 308.761 26.5354M341.901 72.5924C334.802 63.181 328.663 54.6397 310.431 27.432M338.529 73.2434C327.322 59.5682 316.863 43.5817 305.375 28.3116M338.644 74.0382C331.316 63.4773 323.308 51.9598 307.06 30.2133M334.572 73.6777C326.705 61.0034 317.095 49.7669 304.852 30.5661M334.415 74.0143C323.943 58.2553 312.702 42.6137 304.128 31.6649M330.818 75.259C323.615 64.2264 317.276 57.0913 301.212 32.3348M330.268 74.5089C320.282 59.9603 310.573 45.3688 301.979 32.9304M325.494 76.79C319.136 66.6511 311.524 56.0181 300.125 36.6459M326.325 75.2352C318.5 63.2077 309.518 51.5845 298.154 35.5874M321.343 76.1663C314.073 65.8137 305.927 55.3388 297.606 37.8306M322.957 75.9394C315.037 65.2228 307.01 52.9287 295.578 38.4213M318.39 75.1599C306.731 63.2092 299.307 47.3923 293.115 40.0165M317.982 75.9029C312.019 68.1712 306.447 59.7742 292.85 40.9232M313.84 77.6745C306.122 67.2333 300.172 57.0557 289.486 43.001M315.381 76.1462C309.341 69.3665 303.765 61.2685 290.513 41.6945M311.599 79.4325C303.556 69.9625 298.092 59.7629 287.134 44.9945M311.513 78.7021C306.25 69.0506 300.579 61.2865 287.032 44.421M307.422 79.0616C302.486 69.3985 295.976 61.1373 285.096 46.0332M307.306 77.0342C301.407 67.9445 294.051 59.9689 285.296 47.2944M301.611 76.7237C295.71 69.8697 292.047 62.6219 283.186 48.1763M303.363 77.153C297.13 68.8576 290.948 60.312 282.248 48.5849M298.821 79.1402C296.004 73.7458 289.526 67.5652 279.638 51.3186M297.464 77.2976C294.438 71.2575 291.142 65.8155 278.615 50.2751M294.717 77.5881C287.105 69.3582 282.6 62.4492 276.714 53.757M293.12 77.6407C288.073 69.4455 283.668 63.0307 276.549 53.8198M288.607 77.1131C283.665 67.8632 277.15 60.8162 274.827 54.8723M289.309 78.5474C286.119 72.306 280.631 66.347 273.231 55.3564M283.749 78.9193C280.126 72.4237 277.911 69.2019 269.672 57.5381M285.166 77.1322C281.072 71.2149 275.589 63.9623 271.521 57.7834M281.241 79.3743C276.362 74.2769 273.491 68.2698 268.69 58.9282M281.958 77.104C277.209 72.1163 273.356 66.5309 268.859 60.1511M277.924 76.8001C273.62 71.2316 270.03 68.4013 263.819 61.9303M276.25 77.1003C273.994 73.672 271.425 70.2212 266.422 61.6695M270.71 78.6803C267.907 71.3682 264.02 66.8271 261.747 63.5818M271.655 78.2019C269.212 72.6687 264.543 67.0551 263.115 63.797M266.805 77.4384C264.835 73.5191 263.564 71.9667 259.863 66.6166M268.16 78.0484C265.75 74.7632 264.633 71.5624 260.235 66.5038M263.55 78.2418C262.818 75.2377 260.359 72.7135 256.786 67.4024M263.541 77.1758C261.602 74.2807 259.868 71.3619 256.803 67.9411M259.891 77.3501C258.635 75.6409 256.944 73.9763 254.543 70.5071M259.126 76.9924C257.409 74.9645 256.574 73.1825 254.717 70.3484M254.483 77.2442C254.17 76.0512 253.881 74.7988 252.076 73.1318M254.826 77.067C253.841 75.5519 253.217 74.6624 251.822 72.7632M251.002 77.9371C250.352 76.7722 249.93 76.0525 248.912 74.7893M251.061 77.6085C250.569 76.7058 249.929 76.0699 248.808 74.7702" stroke="#228BE6" stroke-width="0.5" stroke-linecap="round"/>
<path d="M247.522 74.7919C263.521 63.7844 327.55 10.0039 343.985 9.25106C360.42 8.49823 362.103 59.2029 346.134 70.2662C330.173 81.3304 264.494 74.4885 248.196 75.6335M246.406 76.1159C262.092 65.0685 325.835 9.8247 342.571 8.78488C359.307 7.74505 362.869 58.7509 346.825 69.8595C330.781 80.9595 263.08 74.3745 246.291 75.4178" stroke="black" stroke-linecap="round"/>
<path d="M401.908 83.1811C398.307 83.9572 398.061 86.911 390.936 94.4309M402.285 82.9778C398.786 85.1081 396.887 87.5955 391.094 93.8789M408.004 79.6141C400.597 88.8769 392.182 95.605 387.667 101.819M408.196 80.4229C401.236 87.0997 395.573 93.5467 388.238 102.732M412.515 80.5372C401.883 91.5696 392.561 101.781 386.923 107.108M412.827 80.1201C407.855 85.6034 402.945 91.3711 387.537 106.997M418.944 81.9365C408.57 90.6035 398.607 99.4423 384.788 113.851M417.877 80.886C410.994 88.1802 403.374 95.7738 386.232 113.959M421.963 81.5065C414.022 91.0756 402.691 100.864 385.021 120.252M421.434 81.4868C408.627 95.8075 394.554 110.689 385.728 118.997M426.857 79.6211C415.432 92.6741 402.901 106.66 386.872 125.364M427.27 80.3559C412.397 96.3439 395.268 113.56 386.301 124.635M431.984 80.0011C414.245 99.7659 396.756 120.677 384.502 130.008M431.646 80.6935C420.286 92.6756 408.426 106.043 384.224 130.695M436.787 81.1337C421.678 97.866 408.435 113.056 385.067 134.82M435.419 82.8224C418.027 101.806 400.484 119.106 385.361 135.875M440.523 81.3919C426.363 94.7157 412.791 108.854 387.683 141.231M440.677 81.9932C429.591 94.9082 418.494 105.871 386.37 139.817M444.419 83.7114C434.368 95.3922 422.803 107.711 386.734 144.551M443.929 84.1015C422.94 106.298 402.742 126.642 386.263 143.761M450.423 82.0276C435.578 100.239 422.434 114.9 386.127 147.496M448.457 83.2631C433.604 100.103 418.715 114.904 387.351 149.086M452.308 83.4486C439.686 98.9746 423.038 113.865 388.966 153.287M452.51 85.6555C427.433 110.901 404.277 136.922 387.384 153.201M458.13 85.3988C436.972 107.11 413.879 130.107 387.82 158.052M456.322 85.8888C434.894 107.908 412.684 131.77 389.272 157.323M459.244 85.1865C435.347 113.206 413.155 136.063 389.117 159.934M460.557 85.6767C435.435 113.488 408.361 141.389 391.148 160.769M465.13 85.3091C442.397 108.025 422.486 132.301 391.944 165.515M465.169 86.2733C438.525 116.192 410.124 145.391 391.69 164.413M470.136 86.2639C439.258 117.513 413.491 144.928 393.31 167.936M468.924 88.3071C448.507 107.651 430.667 127.179 394.069 167.872M474.031 89.666C456.081 106.767 441.417 122.999 394.639 169.982M473.99 88.8691C448.016 115.125 421.524 142.486 395.098 170.915M476.652 88.3853C449.111 119.877 420.73 149.373 395.877 172.081M477.417 89.2184C452.033 116.491 425.532 143.669 396.625 173.47M482.071 89.4326C454.634 115.186 429.552 144.146 399.592 174.515M480.162 90.249C458.736 112.84 436.854 134.981 399.505 176.556M484.197 92.08C456.499 125.514 425.573 154.972 402.385 176.79M483.986 92.0826C461.444 114.314 439.981 138.633 403.706 176.901M487.202 94.4585C465.526 117.276 445.617 141.85 407.206 177.921M488.567 91.8023C468.61 114.859 447.917 136.843 406.42 178.718M493.097 92.6531C469.72 117.921 446.206 142.401 411.761 179.034M492.901 93.1822C465.798 122.529 438.799 150.018 412.076 179.663M497.324 94.3777C477.928 112.805 461.726 131.446 416.028 177.587M495.906 94.7247C469.439 122.902 443.052 149.62 415.387 179.346M498.806 94.7989C482.362 116.34 462.683 137.884 419.113 179.781M499.194 95.7297C473.088 123.917 445.652 153.454 420.361 180.322M503.878 95.2459C486.021 116.166 464.703 138.315 426.094 180.23M504.416 95.8104C480.92 121.125 457.666 144.559 425.882 179.951M506.589 99.5092C478.363 130.539 447.925 158.85 430.863 178.515M508.676 98.0686C485.505 121.715 461.327 146.065 429.56 180.989M513.376 100.047C485.626 127.406 458.046 157.652 433.981 181.34M512.338 98.2986C484.517 129.518 455.885 158.317 432.575 182.179M515.183 99.7332C498.365 120.026 478.511 142.22 438.405 180.978M515.642 100.393C487.224 130.702 457.993 160.79 438.15 180.703M519.602 100.243C500.287 124.127 477.196 143.921 444.884 178.756M519.158 100.285C498.203 122.004 478.875 143.733 444.111 179.596M524.33 103.16C504.94 123.321 485.847 143.91 450.422 180.311M523.741 101.685C500.307 127.566 475.263 152.316 448.535 180.157M528.857 103.246C510.943 122.552 490.501 141.361 454.738 180.021M527.995 103.24C499.88 132.297 473.014 160.627 454.444 180.163M530.4 105.588C515.617 119.289 499.547 138.11 458.765 177.805M530.552 104.051C511.387 125.176 491.301 146.054 460.546 178.69M533.635 105.578C513.386 125.301 496.263 145.535 464.657 179.476M533.487 104.949C507.91 132.505 482.703 158.969 465.359 177.34M539.029 107.375C510.881 132.123 487.125 162.091 471.157 175.166M537.966 106.456C515.816 130.955 494.009 153.512 471.692 176.716M541.881 108.968C525.461 124.127 509.08 142.002 478.736 175.443M541.467 107.67C517.521 133.802 493.881 160.001 476.533 176.675M546.964 108.146C530.621 122.366 516.9 135.859 484.661 175.245M545.553 108.933C522.833 132.246 499.347 157.119 483.933 174.981M548.433 111.191C535.396 125.41 522.125 138.007 487.59 174.701M549.284 109.974C536.204 124.295 521.572 140.136 489.32 173.849M553.382 112.099C530.115 135.306 509.434 159.338 499.082 170.274M552.478 111.754C540.827 125.568 527.505 138.635 496.636 170.077M555.793 112.396C540.505 129.743 522.89 149.241 502.898 166.96M556.146 113.981C536.113 134.669 516.134 154.464 504.514 167.765M560.666 115.642C547.624 127.873 535.286 141.023 509.26 165.348M559.266 113.506C542.967 133.793 524.691 151.524 510.076 166.255M562.051 114.489C551.802 129.541 541.338 139.387 517.591 163.089M564.135 114.764C551.393 127.002 540.81 138.558 516.255 163.93M566.145 117.581C553.145 131.269 539.524 145.439 522.538 162.782M566.208 117.144C552.946 132.406 538.223 148.116 523.946 163.431M569.906 117.283C555.549 136.829 537.578 153.246 526.045 165.253M570.072 119.212C561.406 127.539 551.988 137.39 526.923 164.413M574.271 119.724C560.166 135.921 544.67 150.068 536.02 161.333M573.885 119.365C560.178 133.561 547.087 147.759 534.367 161.429M576.412 123.638C568.465 131.016 558.917 140.792 545.299 154.451M575.388 122.856C569.671 129.475 562.321 136.013 547.272 153.937M577 126.934C574.413 131.802 571.07 136.574 555.038 148.151M577.282 125.2C571.243 132.862 563.151 140.756 555.584 148.248M576.644 130.858C573.962 133.71 568.086 138.198 567.763 141.449M578.45 130.517C575.784 133.272 572.972 137.061 565.881 142.087M575.689 127.852C574.003 124.555 568.221 119.811 562.922 115.136M575.809 128.095C571.465 122.836 565.27 117.445 562.917 114.168M576.132 131.206C571.534 127.704 563.11 119.412 553.675 111.859M576.731 133.243C569.255 125.203 560.816 118.778 555.175 111.355M573.174 135.123C569.322 129.588 561.628 123.505 547.503 108.271M575.135 135.675C566.152 126.231 557.593 119.008 547.336 108.727M571.938 137.38C565.05 129.143 554.632 120.224 538.35 104.501M572.517 138.187C561.38 127.269 549.017 114.549 539.18 106.472M568.572 141.627C554.917 127.448 542.432 114.195 530.279 102.106M569.495 140.333C556.808 128.648 543.346 115.841 530.476 103.715M568.992 143.54C558.785 134.715 549.363 122.691 521.812 102.486M567.439 143.399C554.576 130.877 542.438 118.4 523.562 99.9954M563.744 146.137C551.179 131.026 536.209 118.918 519.331 103.85M564.744 145.646C553.764 134.158 543.135 125.153 520.613 102.179M560.457 147.068C547.802 133.136 531.987 121.196 513.559 100.769M561.519 147.609C542.517 128.072 523.607 109.495 512.394 101.188M558.7 148.011C544.718 134.822 530.461 121.237 507.24 98.7781M558.241 148.266C545.525 135.721 531.115 123.946 505.846 98.6301M553.878 149.907C541.541 137.467 528.09 126.066 499.462 97.7984M554.115 150.914C539.011 136.02 525.283 121.619 498.905 97.5877M551.049 153.434C529.443 132.044 508.899 113.394 492.438 93.6666M551.347 151.76C528.436 129.5 503.862 107.417 492.161 94.5467M547.638 152.238C523.784 131.891 499.678 106.322 483.512 95.2255M549.15 154.54C529.648 137.506 511.704 119.927 484.534 93.8605M545.063 154.095C520.329 132.917 498.282 109.201 479.445 92.9663M545.332 155.258C532.073 143.099 517.674 129.229 479.004 92.6742M541.526 157.391C514.659 133.944 491.724 108.202 469.77 89.8012M541.785 155.685C513.577 130.897 485.194 102.799 470.047 88.7451M539.465 158.732C517.078 138.376 497.266 120.483 462.044 87.8046M537.144 157.907C522.152 142.246 505.118 127.395 463.702 87.5754M534.685 158.213C506.076 131.721 477.661 105.043 456.379 86.3937M534.751 160.292C509.004 136.14 484.535 113.58 456.335 85.6587M531.401 161.027C501.358 135.077 471.233 107.612 450.935 83.1577M530.229 161.28C502.638 133.37 472.754 106.692 450.687 83.9647M525.186 161.508C506.913 143.063 485.235 120.923 444.386 84.005M526.613 162.823C496.444 134.254 466.866 105.347 445.05 84.7862M524.171 165.521C502.145 146.168 484.113 124.735 440.096 81.8024M523.354 163.681C497.162 138.462 472.408 114.487 439.286 83.9127M518.684 163.671C494.155 143.071 467.827 117.161 431.777 81.9745M519.222 164.244C500.333 146.254 481.615 130.069 431.896 82.3062M515.73 164.966C496.303 147.881 476.289 129.902 426.425 81.176M515.901 165.741C484.707 137.684 455.186 108.991 425.446 80.1346M512.421 166.321C478.735 135.264 447.618 106.258 418.18 79.9154M512.031 167.3C482.71 141.809 454.2 114.876 419.401 80.0888M506.985 166.754C472.832 133.946 437.243 98.7071 412.604 80.643M506.436 168.003C482.3 143.687 457.024 119.401 414.92 79.8492M504.944 167.847C467.167 134.568 429.379 101.625 409.017 78.8923M503.154 168.907C478.479 145.39 453.392 120.224 409.724 79.2117M497.991 170.264C473.674 144.61 446.752 119.751 404.234 80.556M499.63 169.931C467.642 140.374 435.476 109.489 405.948 80.6383M493.96 171.794C464.892 143.797 439.327 116.309 398.999 79.4207M496.25 171.187C466.427 142.559 437.287 114.463 400.688 80.2533M492.302 170.545C467.249 151.632 447.032 128.119 398.802 83.153M491.263 172.096C459.769 143.1 430.101 112.96 396.907 83.5721M486.105 172.036C462.472 148.939 435.754 122.538 395.946 85.8465M486.19 172.468C467.776 155.497 449.75 136.976 395.334 85.5092M484.439 173.647C456.771 151.94 434.089 126.737 390.344 87.4918M483.89 174.624C447.765 140.043 411.664 104.871 392.775 87.9981M477.345 175.603C450.287 146.745 420.238 118.701 389.32 89.2883M478.602 175.782C453.09 150.321 425.829 124.123 390.612 90.5725M474.979 176.885C442.72 144.759 413.014 117.448 388.833 95.0547M475.577 175.878C450.345 152.424 425.727 128.955 388.986 93.5265M470.978 175.139C449.191 156.635 427.386 136.478 388.686 97.2071M470.497 175.528C442.966 150.376 415.738 124.429 387.888 97.222M466.155 178.311C440.62 151.402 410.224 124.79 387.196 102.137M465.628 177.394C442.119 154.215 419.853 132.263 386.824 101.829M463.122 176.103C439.573 156.095 416.927 135.605 385.592 107.35M461.574 178.583C431.367 151.1 403.521 122.924 386.424 105.467M456.812 178.722C436.5 158.818 417.608 141.717 385.119 109.666M457.58 178.103C433.738 155.581 409.29 133.89 385.744 110.143M452.205 178.442C433.209 158.333 412.968 139.724 384.014 114.304M452.388 178.336C429.768 156.084 406.232 132.811 385.13 114.021M449.386 180.973C431.765 163.654 419.297 148.639 383.316 118.691M447.326 179.006C431.509 163.916 416.062 147.911 384.092 118.441M441.427 179.017C431.152 169.019 419.108 156.146 385.816 122.957M443.841 180.264C428.235 164.432 411.692 149.658 384.594 123.426M439.979 178.865C419.933 164.233 401.474 145.603 383.823 127.504M438.656 180.109C423.102 163.718 406.649 147.95 384.75 127.82M435.091 181.172C419.912 163.645 403.535 151.161 383.43 132.504M434.05 181.51C416.049 162.599 396.805 143.754 382.717 132.036M428.996 181.624C415.611 166.486 402.385 155.601 384.029 135.923M428.652 180.962C415.375 167.424 402.523 155.755 383.113 136.556M423.908 182.296C412.245 168.533 396.465 153.739 384.235 141.861M423.475 181.167C412.605 171.288 403.153 160.974 383.339 142.976M419.669 180.81C407.818 170.7 398.969 163.478 386.137 147.512M418.138 179.884C410.942 173.771 405.213 168.098 384.222 148.629M413.552 179.003C405.143 173.807 398.323 165.001 386.24 156.505M413.026 179.66C406.179 173.338 397.596 164.665 388.064 155.353M406.812 179.596C404.164 176.541 400.764 172.616 390.852 163.56M408.73 179.518C404.495 176.79 400.955 173.416 390.663 162.962" stroke="#FAB005" stroke-width="0.5" stroke-linecap="round"/>
<path d="M383.537 129.3C387.789 120.788 378.568 79.5472 410.24 77.9831C441.903 76.4198 554.381 105.896 573.558 119.898C592.744 133.9 553.289 152.119 525.339 162.003C497.39 171.896 429.349 184.582 405.853 179.23C382.358 173.877 388.181 138.253 384.368 129.898M385.644 130.743C389.999 122.107 379.868 78.7979 411.355 76.8556C442.841 74.9132 555.857 104.874 574.572 119.097C593.279 133.329 551.724 152.313 523.626 162.203C495.518 172.093 429.202 183.602 405.935 178.43C382.668 173.258 387.563 139.421 384.023 131.171" stroke="black" stroke-linecap="round"/>
<path d="M405.447 88.0807C401.543 91.1558 400.51 94.0031 394.742 97.7966M406.19 86.9856C402.252 90.9719 399.617 93.4687 395.049 97.1483M413.578 86.1095C406.488 92.7065 402.287 96.2985 392.502 103.447M413.298 85.2247C408.072 88.878 404.247 93.1183 392.554 104.735M416.597 87.266C406.952 96.1408 396.239 102.51 390.672 111.481M417.079 86.1709C409.735 91.8129 402.725 98.6026 389.727 111.148M422.558 86.863C412.65 94.2397 406.322 101.511 386.454 116.764M422.435 87.6515C412.685 95.0369 402.366 104.052 387.434 116.396M427.249 87.7566C418.47 96.6752 409.263 104.814 386.384 124.956M426.041 88.256C417.779 96.0444 407.276 105.016 386.349 124.027M430.041 89.1671C415.127 101.178 402.024 116.142 383.285 130.817M430.908 87.8267C419.135 98.1033 406.357 109.641 383.688 131.044M436.404 90.4024C417.359 105.576 398.83 123.098 385.106 134.75M435.424 88.913C422.68 100.933 410.803 112.051 383.189 135.399M438.951 89.4562C423.529 104.665 408.983 116.046 384.02 137.825M439.275 89.7628C423.993 104.56 406.488 120.12 383.985 139.175M443.03 92.0057C421.822 109.466 400.23 129.494 383.425 143.888M443.24 91.0857C427.249 106.496 410.269 122.029 385.193 143.389M446.329 93.6615C434.75 105.173 420.361 118.394 386.515 145.789M448.518 91.8742C435.494 103.947 420.693 114.898 385.465 147.699M452.701 93.6264C427.468 117.018 404.186 136.371 387.11 152.561M451.703 93.8805C428.737 113.452 405.718 132.823 384.791 150.949M457.288 96.2021C427.442 119.725 402.392 140.436 386.716 154.708M456.587 95.694C431.354 118.043 405.306 139.42 387.933 154.471M459.607 97.0257C431.686 120.33 406.593 144.528 387.942 158.274M459.729 96.0357C435.091 118.823 409.044 139.814 387.81 159.001M462.732 98.6202C434.837 120.523 407.652 145.369 390.821 161.252M464.027 96.5701C442.408 115.774 420.86 135.066 388.528 161.646M468.858 100.048C450.811 111.008 434.295 126.252 391.688 165.028M467.764 98.2434C448.894 114.67 430.137 130.291 390.646 165.116M471.493 98.5238C441.717 125.131 411.004 151.825 394.777 169.269M471.186 100.574C448.132 119.918 424.273 140.988 394.506 166.964M475.519 100.083C452.447 119.804 430.129 139.876 398.024 169.461M476.044 101.432C450.408 122.275 425.35 144.825 398.69 168.909M478.197 104.192C459.012 122.722 435.931 141.488 401.324 168.734M479.265 102.282C456.981 122.739 434.198 142.188 403.486 168.971M481.418 105.165C457.603 125.017 437.157 144.904 407.241 170.635M482.162 103.815C461.918 121.697 442.855 139.043 406.794 169.575M486.214 104.753C457.996 130.212 431.52 153.998 411.836 167.797M485.339 105.892C463.038 127.61 438.461 147.489 412.834 169.269M490.153 107.74C465.077 129.485 441.078 149.346 421.42 169.531M490.066 107.924C465.891 126.182 444.071 146.499 419.687 168.883M491.702 107.039C473.418 127.26 448.465 145.439 425.087 167.21M492.569 109.352C476.56 123.431 460.412 137.738 425.402 167.981M498.1 110.886C473.558 129.476 452.938 148.251 432.08 166.631M497.584 110.071C476.569 129.047 454.898 146.946 432.641 167.008M501.741 110.404C483.991 126.55 466.233 140.419 438.321 165.528M500.437 110.859C485.541 124.465 470.364 137.58 440.106 165.422M505.549 113.759C480.149 135.425 457.296 152.833 444.343 166.693M504.078 113.82C488.954 127.006 472.307 140.182 443.389 165.563M506.354 113.768C495.711 124.386 483.221 136.126 452.71 164.354M508.174 114.066C489.015 130.887 470.635 147.646 452.124 163.898M513.26 115.056C494.941 130.983 480.377 143.126 458.548 162.417M512.174 115.923C495.553 130.379 479.37 144.799 459.931 161.769M513.513 119.13C503.553 127.671 489.943 139.297 468.158 160.253M514.818 117.596C501.024 128.53 489.339 139.84 466.968 159.544M519.57 119.471C509.435 126.62 497.024 137.457 476.718 157.651M519.693 118.034C508.306 128.863 498.039 136.8 475.589 157.616M521.119 121.031C511.5 130.931 497.654 142.004 484.053 156.267M522.669 120.277C505.951 134.461 490.521 147.436 481.996 155.654M526.957 123.65C515.754 130.274 508.516 138.299 489.777 154.095M526.205 123.168C513.268 134.085 500.42 143.503 491.142 151.887M529.688 125.245C520.472 131.386 514.205 137.922 501.181 148.085M528.997 124.088C522.957 129.818 517.531 135.355 500.525 148.812M531.806 127.33C524.262 135.294 517.041 140.401 512.034 144.3M529.749 127.584C523.614 133.252 515.089 140.261 510.888 145.369" stroke="#FD7E14" stroke-width="0.5" stroke-linecap="round"/>
<path d="M381.771 127.987C386.62 120.549 386.646 85.3736 410.987 84.3749C435.328 83.3761 514.826 110.973 527.824 121.994C540.83 133.016 510.459 142.898 488.998 150.503C467.528 158.107 416.772 171.362 399.031 167.613C381.281 163.872 385.158 134.558 382.524 128.031M383.749 129.362C388.773 121.863 388.318 84.8304 412.081 83.9368C435.844 83.0432 513.391 112.892 526.301 124.001C539.22 135.101 511.15 143.538 489.549 150.573C467.948 157.608 414.68 169.864 396.703 166.228C378.734 162.593 384.073 134.987 381.701 128.74" stroke="black" stroke-linecap="round"/>
<path d="M395.045 108.56C393.662 110.531 391.518 111.985 386.923 113.869M395.404 108.262C393.198 109.883 391.5 111.714 387.483 114.535M399.727 109.147C396.165 111.214 391.36 117.172 386.257 120.072M401.408 106.992C396.253 112.66 390.415 116.979 387.299 119.266M409.819 107.693C402.309 113.335 395.57 118.153 388.708 126.257M408.217 106.413C400.051 113.983 392.752 120.79 386.782 124.68M413.994 105.152C409.311 112.117 403.333 117.426 386.844 131.023M415.307 105.388C407.237 111.451 399.211 118.758 386.704 129.691M420.926 103.076C410.563 115.779 396.892 124.811 385.671 135.815M422.318 102.76C410.397 113.615 398.292 125.013 385.942 134.326M425.276 105.73C414.204 113.571 403.167 125.311 387.334 137.567M425.6 104.074C417.582 112.459 408.646 119.511 388.192 137.594M431.849 104.136C416.742 118.6 402.765 131.005 389.645 139.968M432.234 103.452C421.504 113.229 411.342 123.532 390.301 141.37M436.934 103.689C418.817 118.775 402.336 133.87 391.955 145.102M436.575 103.68C418.563 119.459 401.329 135.631 390.45 145.111M439.875 106.396C424.112 119.38 407.29 136.139 392.603 145.61M441.057 106.878C427.228 117.33 414.869 128.824 394.695 146.267M444.671 105.958C433.223 118.644 422.694 127.212 397.977 149.325M444.181 107.298C433.635 118.022 421.81 127.589 398.546 147.073M447.043 107.255C429.836 122.332 414.274 137.646 401.207 149.368M447.271 108.709C433.512 121.123 417.259 134.247 402.765 148.624M450.579 110.338C436.777 124.601 417.758 139.574 406.344 148.3M451.84 111.355C437.433 123.611 423.919 135.552 406.554 150.131M453.013 113.606C439.184 123.357 427.219 137.287 409.618 152.601M455.034 113.01C443.35 122.034 431.061 131.776 410.222 151.681M456.041 114.719C445.87 121.833 438.833 131.347 414.073 151.392M458.141 114.719C447.113 123.34 436.444 131.75 416.243 150.078M460.723 114.955C452.382 124.768 439.884 132.854 422.545 150.49M460.653 115.893C447.849 127.361 433.442 139.609 420.935 151.41M461.362 118.328C449.844 130.979 436.847 144.769 426.956 152.347M463.41 120.054C451.341 128.622 440.829 136.963 426.956 150.551M466.535 121.395C457.301 129.867 446.168 138.479 432.182 149.947M465.45 120.685C453.625 132.074 441.45 143.192 432.593 149.158M467.305 123.445C458.903 129.227 452.409 136.122 439.84 145.689M467.778 123.217C461.327 129.796 454.203 134.913 442.229 147.844M469.441 126.213C460.137 133.082 455.341 142.78 448.269 144.708M469.196 128.579C462.185 134.834 454.15 140.327 449.284 144.278M471.752 131.303C466.001 135.622 459.804 138.023 458.264 142.333M469.598 131.908C467.139 134.615 462.395 138.592 458.115 143.034" stroke="#FA5252" stroke-width="0.5" stroke-linecap="round"/>
<path d="M389.032 110.706C397.093 109.804 423.902 101.192 437.416 104.591C450.929 107.99 470.938 123.76 470.124 131.084C469.301 138.408 445.844 146.661 432.514 148.545C419.184 150.42 397.531 148.808 390.161 142.351C382.783 135.903 388.708 115.201 388.253 109.821M388.559 109.909C396.664 108.928 424.593 100.789 438.361 104.214C452.12 107.64 472.014 123.086 471.139 130.454C470.255 137.813 446.982 146.127 433.083 148.405C419.193 150.683 395.404 150.358 387.789 144.129C380.166 137.909 387.159 116.637 387.378 111.083" stroke="black" stroke-linecap="round"/>
<path d="M191.34 94.8866C184.645 99.9679 180.68 105.768 171.621 113.101M190.168 95.7452C185.608 100.599 179.017 104.681 173.021 111.48M195.542 94.8165C188.041 103.937 177.091 111.348 171.096 118.103M196.303 95.6751C189.476 100.967 183.428 106.258 170.597 118.217M199.051 95.4035C192.68 103.56 184.575 109.833 172.33 123.982M199.55 97.8478C190.614 105.189 181.485 113.696 171.42 123.132M203.918 98.8641C194.036 109.036 179.157 117.902 170.825 128.108M205.301 98.6275C191.813 109.842 178.999 120.022 171.096 126.89M208.276 100.196C200.128 109.044 190.238 117.061 173.503 130.36M209.055 99.048C200.382 107.266 190.456 115.212 172.881 130.071M211.392 99.784C203.401 107.432 193.861 114.73 173.293 136.843M212.434 101.151C200.049 111.55 187.218 121.117 171.49 134.67M215.165 101.895C203.594 114.555 191.253 121.581 176.094 137.491M214.622 102.614C199.664 115.571 184.627 129.387 175.21 138.858M216.513 105.137C206.937 113.556 196.128 123.412 175.113 140.671M217.458 106.004C201.563 118.935 185.599 132.76 177.188 141.311M218.937 107.905C206.272 120.083 194.903 129.773 178.457 143.221M219.891 108.002C208.066 117.779 197.467 127.074 178.212 144.114M220.705 109.894C206.342 121.45 192.968 136.817 182.903 145.902M222.394 111.033C207.069 122.019 192.802 134.582 181.923 146.716M222.753 114.695C205.957 127.328 190.369 141.188 185.249 149.003M224.766 113.118C214.815 121.879 205.992 130.193 183.84 148.171M224.04 116.666C211.576 127.074 198.911 140.277 188.014 150.326M223.716 117.113C213.519 127.066 204.067 135.923 188.023 149.879M224.915 122.887C211.06 132.252 198.561 143.843 189.362 151.246M225.396 122.431C212.644 132.506 199.717 144.71 190.386 150.746M225.51 125.927C217.519 131.674 212.802 137.587 194.92 152.411M224.959 127.153C217.178 132.734 208.548 140.373 194.509 152.919M224.451 133.347C214.246 140.61 206.92 147.969 196.347 154.006M224.994 130.824C215.287 138.753 206.403 147.093 197.607 154.619M219.935 141.696C212.346 146.69 205.852 152.744 199.533 155.451M219.523 141.276C213.467 145.7 207.217 150.878 201.703 156.406M221.178 112.908C214.745 109 211.392 104.673 205.598 96.7702M220.994 113.88C215.348 107.537 210.683 102.64 204.863 97.3747M219.76 120.705C213.738 111.567 206.158 104.524 198.526 93.7915M221.169 120.539C214.044 113.004 208.618 106.39 198.911 95.3159M221.186 125.27C212.749 117.096 207.051 111.585 195.297 94.3784M220.355 124.586C213.3 115.965 205.143 108.405 194.5 94.1769M221.685 133.014C210.29 118.375 201.485 106.793 192.671 95.6926M222 132.077C213.861 123.64 205.852 115.282 191.104 95.9729M221.09 135.178C209.826 126.82 201.52 113.749 187.209 99.0217M220.635 136.597C210.745 123.789 199.323 111.55 188.137 96.814M217.712 137.658C206.666 124.157 193.38 110.832 182.43 98.645M218.202 138.096C209.274 128.318 199.576 118.348 183.866 99.8628M215.138 140.426C203.436 126.4 189.021 108.79 181.039 99.5299M217.309 141.171C209.003 133.076 201.476 124.595 180.269 101.037M214.403 145.621C202.482 131.814 191.244 117.297 177.599 101.58M215.506 145.139C205.563 134.223 196.916 123.561 177.932 102.649M213.047 147.663C198.377 133.426 184.181 116.658 173.958 106.434M213.659 147.803C201.38 135.161 190.325 123.053 176.164 105.698M208.364 149.047C199.139 138.402 190.404 126.391 173.783 109.78M209.029 150.273C197.607 137.561 185.931 124.017 174.956 108.781M206.412 150.291C199.436 142.38 188.881 131.139 170.562 112.312M206.482 151.701C197.231 142.353 188.4 131.332 172.164 111.602M201.896 152.104C191.533 139.927 183.174 129.746 168.286 114.494M202.377 152.788C190.535 139.83 178.334 125.489 170.632 114.555M200.032 154.934C188.531 140.829 178.264 130.027 169.52 116.517M199.822 154.899C187.227 140.189 175.297 126.426 168.479 118.235M196.487 157.685C190.019 150.142 184.697 141.705 169.232 124.945M196.014 156.572C189.625 147.952 181.476 140.005 169.074 124.411M191.052 151.955C184.487 146.962 177.468 141.933 168.05 131.376M189.441 154.347C184.128 145.586 177.546 138.323 170.247 129.957" stroke="#CED4DA" stroke-width="0.5" stroke-linecap="round"/>
<path d="M169.547 116.868C168.138 122.177 169.766 130 172.05 135.336C174.334 140.663 178.842 145.683 183.262 148.863C187.673 152.043 193.327 154.671 198.526 154.417C203.716 154.163 210.22 151.202 214.421 147.338C218.631 143.484 222.385 137.123 223.733 131.253C225.09 125.383 224.652 117.639 222.534 112.128C220.416 106.626 215.672 101.186 211.025 98.2157C206.377 95.2458 200.075 93.6863 194.658 94.3084C189.249 94.9304 182.737 97.7952 178.562 101.93C174.378 106.074 170.965 116.062 169.591 119.146C168.216 122.23 169.757 120.232 170.308 120.442M171.105 137.141C173.004 142.424 178.912 147.917 183.787 150.51C188.662 153.112 195.078 153.445 200.364 152.726C205.651 152.017 211.602 150.317 215.497 146.235C219.392 142.152 222.587 133.847 223.742 128.222C224.897 122.606 224.574 117.621 222.421 112.505C220.267 107.38 215.699 100.494 210.823 97.5061C205.94 94.5186 198.71 93.441 193.126 94.58C187.533 95.7276 181.039 100.415 177.31 104.375C173.59 108.326 171.857 112.785 170.79 118.331C169.722 123.877 170.79 134.381 170.921 137.649C171.043 140.925 171.087 138.174 171.542 137.955" stroke="black" stroke-linecap="round"/>
<path d="M135.848 82.8038C133.896 84.9502 133.126 85.0816 130.474 89.0153M135.401 83.1893C133.914 85.0904 132.067 86.6323 129.581 88.4283M138.167 85.6599C136.198 87.7888 135.016 88.0253 132.373 90.5835M138.29 85.9052C136.592 87.1843 134.622 89.2781 132.259 90.7763M135.857 87.3157C134.535 86.6761 133.738 85.8701 132.207 83.4346M135.839 87.6398C134.211 85.6686 132.767 83.8814 131.699 82.6461M134.062 90.601C132.933 89.4446 130.29 87.3157 129.117 84.7925M133.712 90.6799C132.671 89.138 131.078 87.2894 128.443 84.3457" stroke="#868E96" stroke-width="0.5" stroke-linecap="round"/>
<path d="M129.669 88.0954C129.809 88.8138 130.736 89.4008 131.507 89.6899C132.277 89.9702 133.476 89.9702 134.29 89.8125C135.095 89.6548 135.909 89.2256 136.364 88.7437C136.828 88.2619 136.854 87.6661 137.064 86.9302C137.274 86.1943 137.975 84.9853 137.625 84.3282C137.274 83.6711 135.822 83.2856 134.946 82.979C134.071 82.6724 133.345 82.2256 132.373 82.4796C131.393 82.7337 129.651 83.6186 129.082 84.5034C128.522 85.397 128.898 87.0528 129.003 87.8413C129.1 88.6298 129.599 89.3395 129.695 89.2256M130.281 85.8789C129.835 86.4659 128.968 86.1067 128.995 86.939C129.012 87.78 129.424 90.2506 130.395 90.8901C131.367 91.5297 133.686 90.8814 134.815 90.7763C135.953 90.6624 136.732 91.0566 137.196 90.2243C137.651 89.392 137.817 86.974 137.59 85.765C137.353 84.556 136.469 83.3557 135.804 82.9702C135.13 82.5848 134.36 83.5572 133.572 83.4609C132.776 83.3557 131.935 82.1905 131.051 82.357C130.159 82.5322 128.575 84.188 128.233 84.4859C127.892 84.775 128.645 84.0303 129.003 84.1179" stroke="black" stroke-linecap="round"/>
<path d="M135.34 97.0972C134.193 97.9208 130.973 100.698 128.767 101.916M135.27 97.1586C133.397 98.28 132.049 99.5853 128.968 101.977M137.204 99.9533C135.821 101.627 135.104 103.134 130.981 105.473M137.563 99.5153C136.285 100.558 134.876 101.705 131.314 104.833M135.41 101.469C133.677 100.05 131.454 98.5077 130.229 95.9233M134.867 101.635C133.388 100.383 132.189 98.5778 130.281 96.6767M133.152 105.534C131.97 103.151 130.054 100.374 127.375 99.5591M133.966 105.622C132.277 104.115 130.815 102.582 127.988 98.5603" stroke="#868E96" stroke-width="0.5" stroke-linecap="round"/>
<path d="M128.566 98.3062C128.268 98.9808 128.662 100.391 129.099 101.355C129.537 102.319 130.272 103.475 131.2 104.062C132.137 104.649 133.913 105.087 134.684 104.868C135.454 104.649 135.401 103.501 135.804 102.748C136.215 101.986 137.056 101.127 137.117 100.321C137.178 99.524 136.53 98.6392 136.154 97.9471C135.786 97.2549 135.725 96.3964 134.885 96.1773C134.045 95.9496 132.128 96.0109 131.113 96.6066C130.106 97.2024 129.064 99.3138 128.837 99.7518C128.601 100.181 129.651 99.2962 129.73 99.2086M127.979 100.488C127.839 101.18 128.828 102.292 129.87 102.967C130.903 103.642 133.318 104.64 134.185 104.535C135.051 104.439 134.386 102.958 135.042 102.363C135.708 101.767 137.817 101.434 138.167 100.961C138.508 100.488 137.817 100.137 137.126 99.5153C136.434 98.902 135.086 97.8156 134.01 97.2462C132.933 96.6855 131.305 95.9057 130.675 96.1511C130.045 96.3964 130.264 97.947 130.22 98.7093C130.176 99.4715 130.631 100.383 130.421 100.733C130.211 101.083 129.161 100.689 128.959 100.794" stroke="black" stroke-linecap="round"/>
<path d="M134.972 111.724C133.528 113.608 131.454 115.798 129.642 117.217M135.165 112.241C133.904 112.995 132.731 114.353 129.896 116.779M137.134 114.326C135.366 116.508 134.421 118.155 132.994 119.39M137.51 114.966C135.865 116.762 133.528 118.514 132.11 119.513M135.462 118.146C133.817 115.579 132.539 113.249 131.69 112.39M135.646 117.41C134.324 115.816 132.399 113.906 131.033 112.627M132.819 119.872C131.567 118.216 130.946 116.271 128.749 114.16M132.6 118.978C131.462 117.831 130.815 116.403 128.478 114.309" stroke="#868E96" stroke-width="0.5" stroke-linecap="round"/>
<path d="M128.618 113.468C128.346 114.16 129.353 115.842 129.826 116.665C130.289 117.498 130.657 118.26 131.427 118.444C132.198 118.628 133.598 117.892 134.429 117.778C135.261 117.655 135.847 118.269 136.399 117.708C136.959 117.156 137.878 115.343 137.782 114.431C137.685 113.529 136.46 112.942 135.821 112.267C135.182 111.602 134.972 110.375 133.93 110.419C132.898 110.463 130.561 111.873 129.581 112.522C128.6 113.17 128.25 113.923 128.049 114.309C127.848 114.694 128.189 114.703 128.39 114.834M127.909 114.458C127.83 115.15 127.707 115.798 128.32 116.42C128.933 117.042 130.43 117.831 131.585 118.19C132.74 118.54 134.228 118.952 135.243 118.549C136.259 118.155 137.213 116.63 137.677 115.781C138.14 114.931 138.307 113.95 138.035 113.45C137.755 112.951 137.151 113.345 136.022 112.793C134.893 112.25 132.241 110.13 131.252 110.165C130.263 110.209 130.535 112.355 130.088 113.021C129.642 113.687 128.793 114.011 128.583 114.16C128.381 114.3 128.819 113.932 128.872 113.88" stroke="black" stroke-linecap="round"/>
<path d="M136.267 124.501C134.946 125.807 133.23 128.146 130.298 131.676M136.355 124.974C134.744 126.823 133.107 127.795 129.3 130.573M135.514 129.136C134.298 128.058 133.58 127.243 132.381 125.789M135.549 129.276C134.552 128.47 133.913 127.173 131.996 125.29M132.53 131.203C131.042 129.942 130.385 129.127 128.626 127.629M132.232 131.046C130.954 129.688 130.254 128.741 128.766 127.427" stroke="#868E96" stroke-width="0.5" stroke-linecap="round"/>
<path d="M128.477 127.147C128.014 127.892 127.663 128.619 127.987 129.276C128.302 129.933 129.554 130.809 130.377 131.089C131.199 131.361 132.013 131.168 132.915 130.932C133.816 130.704 135.103 130.231 135.786 129.688C136.468 129.136 136.976 128.479 137.029 127.664C137.081 126.849 136.67 125.412 136.11 124.782C135.549 124.151 134.56 123.774 133.668 123.905C132.775 124.028 131.733 125.106 130.753 125.535C129.773 125.964 128.127 126.113 127.795 126.481C127.462 126.858 128.582 127.734 128.749 127.787M128.46 126.297C128.46 126.788 129.388 127.121 129.808 127.962C130.219 128.794 130.219 130.529 130.954 131.308C131.681 132.097 133.563 132.763 134.193 132.658C134.832 132.561 134.158 131.379 134.753 130.686C135.357 130.003 137.589 129.477 137.799 128.531C138.009 127.576 136.626 125.754 136.013 124.966C135.409 124.177 134.981 123.835 134.167 123.783C133.353 123.721 132.171 124.037 131.138 124.641C130.114 125.255 128.495 127.129 127.996 127.436C127.497 127.734 127.795 126.621 128.162 126.446" stroke="black" stroke-linecap="round"/>
<path d="M134.901 140.409C132.704 143.502 131.278 145.052 129.23 145.403M135.26 140.759C133.046 142.275 131.497 143.992 129.256 146.034M136.459 143.721C134.919 145.928 133.3 147.856 131.243 148.452M136.739 144.097C135.917 144.842 134.315 145.885 131.435 148.723M135.4 146.997C133.378 145.762 132.197 143.589 130.709 142.266M135.356 147.164C133.308 144.965 131.505 142.757 130.525 141.828M133.282 149.231C131.173 148.241 129.562 146.489 128.127 142.371M133.361 149.494C131.672 147.672 130.219 146.489 127.322 143.572" stroke="#868E96" stroke-width="0.5" stroke-linecap="round"/>
<path d="M128.022 144.089C128.066 144.825 128.626 145.736 129.16 146.366C129.685 147.006 130.263 147.602 131.199 147.882C132.144 148.171 133.86 148.487 134.805 148.084C135.75 147.689 136.678 146.305 136.871 145.499C137.063 144.684 136.451 144.115 135.969 143.221C135.488 142.328 134.928 140.462 134 140.146C133.072 139.831 131.357 140.97 130.403 141.329C129.449 141.688 128.643 141.574 128.258 142.293C127.873 143.02 127.987 145.052 128.101 145.666C128.206 146.279 128.871 146.139 128.923 145.972M128.792 142.783C128.249 143.414 127.365 144.351 127.716 145.07C128.066 145.779 129.895 146.559 130.884 147.067C131.873 147.567 132.985 148.049 133.65 148.075C134.315 148.092 134.542 148.092 134.884 147.199C135.225 146.314 135.619 143.659 135.68 142.731C135.733 141.802 135.899 142.091 135.234 141.636C134.569 141.171 132.494 140.225 131.68 139.98C130.866 139.734 130.945 139.804 130.333 140.164C129.72 140.523 128.293 141.662 128.013 142.126C127.733 142.582 128.381 142.871 128.635 142.923" stroke="black" stroke-linecap="round"/>
<path d="M134.622 156.779C132.381 158.391 131.217 159.539 128.933 160.196M134.77 156.578C132.994 157.787 131.987 158.82 129.204 160.853M137.09 158.671C135.978 159.311 134.998 160.993 133.563 162.211M137.326 158.409C135.996 159.355 134.797 160.686 133.641 161.755M136.302 161.65C134.342 159.355 134.14 158.172 130.342 156.245M135.331 161.247C133.659 159.521 132.013 157.173 131.147 155.763M131.733 163.026C131.663 161.203 129.466 159.048 128.294 157.278M132.355 163.026C131.331 161.37 130.394 160.537 128.145 157.559" stroke="#868E96" stroke-width="0.5" stroke-linecap="round"/>
<path d="M128.425 156.893C128.066 157.559 127.69 158.943 127.9 159.837C128.119 160.739 128.81 162.001 129.694 162.281C130.578 162.57 132.18 161.852 133.212 161.545C134.245 161.238 135.287 160.853 135.873 160.45C136.468 160.047 136.617 159.714 136.748 159.127C136.88 158.54 137.335 157.76 136.687 156.937C136.04 156.104 133.904 154.414 132.871 154.142C131.83 153.879 131.059 154.773 130.455 155.333C129.852 155.894 129.589 157.103 129.248 157.506C128.915 157.909 128.574 157.769 128.451 157.769M128.066 157.927C127.795 158.645 127.278 159.512 127.917 160.064C128.556 160.608 130.841 160.984 131.9 161.212C132.967 161.431 133.808 161.422 134.298 161.414C134.779 161.405 134.315 161.711 134.832 161.168C135.339 160.625 137.282 158.882 137.352 158.163C137.422 157.445 135.926 157.532 135.252 156.867C134.587 156.21 134.245 154.668 133.335 154.195C132.434 153.721 130.455 153.765 129.843 154.054C129.23 154.352 129.869 155.447 129.668 155.964C129.466 156.481 128.915 156.779 128.644 157.156" stroke="black" stroke-linecap="round"/>
<path d="M336.314 86.5743C334.695 88.2564 333.023 88.8609 332.402 90.2452M336.533 86.3903C335.736 87.354 334.047 88.1776 332.411 90.2189M338.362 90.0349C337.198 89.9648 336.297 91.3666 334.415 93.7408M338.52 89.1851C337.391 90.7708 335.99 91.5768 333.872 93.5042M337.251 90.2802C336.27 89.4216 334.082 86.5743 332.796 86.0049M337.496 90.4204C335.92 89.2552 335.124 88.0549 333.33 85.9173M335.185 93.3203C333.916 91.9535 331.78 90.4642 330.826 89.0362M334.546 93.0136C333.653 91.8397 332.376 90.4729 331.273 89.0449" stroke="#868E96" stroke-width="0.5" stroke-linecap="round"/>
<path d="M331.562 88.5893C331.439 89.3691 331.737 89.737 332.052 90.3853C332.367 91.0249 332.664 92.2689 333.435 92.4354C334.205 92.6019 335.885 91.9098 336.682 91.3929C337.478 90.876 337.706 89.9035 338.205 89.334C338.704 88.7558 339.938 88.5105 339.684 87.9586C339.421 87.4066 337.478 86.4604 336.629 86.0049C335.789 85.5493 335.43 85.2251 334.625 85.2251C333.82 85.2164 332.402 85.3215 331.798 85.9873C331.194 86.6619 331.01 88.5718 330.993 89.2289C330.984 89.8947 331.693 90.0962 331.71 89.9648M331.089 88.7821C331.01 89.3691 331.877 89.9385 332.332 90.5518C332.796 91.1651 333.233 92.3215 333.863 92.4705C334.485 92.6106 335.15 91.8922 336.078 91.4191C337.006 90.946 338.931 90.289 339.43 89.6319C339.92 88.9748 339.325 88.0111 339.062 87.4767C338.791 86.9335 338.467 87.0124 337.837 86.3816C337.216 85.7596 336.288 83.7708 335.299 83.7095C334.31 83.6482 332.717 85.2164 331.92 86.0136C331.124 86.8109 330.503 88.4229 330.52 88.4842C330.538 88.5543 331.877 86.5831 332.043 86.4079" stroke="black" stroke-linecap="round"/>
<path d="M337.417 99.6412C335.036 100.92 333.872 102.112 331.343 105.056M336.769 99.8953C334.73 101.919 333.338 102.918 331.194 105.073M339.999 101.63C339.421 102.383 338.467 103.4 335.5 106.326M340.629 101.788C339.377 102.769 338.292 103.496 335.693 105.783M338.983 104.486C336.261 103.154 335.36 100.649 334.441 99.4222M338.467 104.731C337.828 103.408 336.69 102.874 334.537 99.9566M335.754 106.869C334.563 105.607 333.286 103.119 330.817 100.36M335.509 106.019C334.546 105.196 333.566 103.952 330.397 100.955" stroke="#868E96" stroke-width="0.5" stroke-linecap="round"/>
<path d="M330.354 102.015C330.073 102.681 330.896 103.645 331.281 104.127C331.666 104.609 331.973 104.653 332.673 104.898C333.364 105.143 334.38 105.774 335.447 105.599C336.507 105.415 338.31 104.285 339.054 103.82C339.797 103.356 340.008 103.566 339.902 102.795C339.797 102.033 339.194 99.869 338.423 99.212C337.662 98.5637 336.288 98.8966 335.334 98.8878C334.371 98.8878 333.399 98.66 332.664 99.1682C331.929 99.6851 331.343 101.332 330.922 101.963C330.502 102.602 330.178 103.032 330.152 102.988M331.421 104.267C331.666 105.117 333.058 106.501 333.741 106.843C334.423 107.184 334.861 106.781 335.509 106.326C336.156 105.87 337.102 104.714 337.627 104.109C338.152 103.496 338.502 103.452 338.642 102.681C338.791 101.902 339.264 100.114 338.511 99.4397C337.758 98.7564 335.071 98.5899 334.126 98.5987C333.189 98.6075 333.286 99.0981 332.857 99.5098C332.428 99.9128 332.069 100.333 331.561 101.025C331.054 101.726 329.951 103.023 329.828 103.698C329.715 104.381 330.494 105.038 330.852 105.108" stroke="black" stroke-linecap="round"/>
<path d="M335.797 115.355C334.756 115.407 334.476 116.546 331.806 118.684M336.541 114.785C334.537 115.898 333.276 117.571 331.482 118.552M338.44 117.151C337.276 118.579 336.559 119.735 335.018 120.112M338.677 117.606C337.67 118.228 336.918 118.964 335.211 120.252M336.769 120.103C334.397 117.028 332.655 115.994 331.071 114.207M336.112 119.507C335.15 118.088 333.425 116.047 331.473 114.321M334.117 122.171C332.445 121.119 331.762 120.077 329.697 117.948M333.749 121.987C332.244 120.366 331.001 118.763 330.476 117.624" stroke="#868E96" stroke-width="0.5" stroke-linecap="round"/>
<path d="M330.808 117.825C330.808 118.57 330.931 120.103 331.605 120.515C332.287 120.927 333.968 120.576 334.861 120.296C335.753 120.024 336.235 119.315 336.979 118.868C337.732 118.421 339.342 118.237 339.368 117.632C339.386 117.028 337.767 115.915 337.11 115.258C336.445 114.601 336.217 113.953 335.403 113.69C334.598 113.427 333.058 113.331 332.252 113.681C331.456 114.041 330.756 114.987 330.589 115.837C330.414 116.686 331.202 118.403 331.228 118.798C331.255 119.201 330.625 118.333 330.738 118.211M331.263 117.44C331.29 118.114 331.368 119.586 331.771 120.024C332.182 120.462 332.725 120.191 333.697 120.077C334.659 119.954 336.813 119.718 337.591 119.306C338.37 118.894 338.239 118.123 338.37 117.606C338.502 117.089 338.668 117.046 338.362 116.204C338.055 115.372 337.416 112.998 336.524 112.595C335.631 112.183 333.977 113.287 333.005 113.769C332.042 114.242 330.992 115.109 330.703 115.46C330.423 115.801 331.351 115.626 331.325 115.845C331.29 116.064 330.808 116.494 330.519 116.783" stroke="black" stroke-linecap="round"/>
<path d="M336.558 126.695C334.922 128.324 332.935 130.804 331.955 132.013M336.506 127.545C334.957 128.727 332.9 130.76 331.832 131.653M339.963 129.087C338.046 130.996 335.386 133.633 334.239 133.493M339.832 129.463C338.694 130.164 337.504 131.286 334.79 133.8M337.477 133.283C337.066 130.856 335.744 129.13 333.241 126.09M338.589 132.538C336.926 131.583 335.858 129.822 332.769 126.546M335.447 135.079C333.267 131.321 331.333 129.165 330.572 127.658M335.289 134.518C333.451 132.24 331.202 130.304 329.626 128.832" stroke="#868E96" stroke-width="0.5" stroke-linecap="round"/>
<path d="M330.248 130.48C330.3 130.988 330.362 131.259 330.896 131.715C331.421 132.162 332.34 133.117 333.434 133.195C334.519 133.265 336.48 132.442 337.416 132.153C338.361 131.873 338.904 132.223 339.079 131.478C339.263 130.734 339.009 128.491 338.475 127.694C337.941 126.896 336.786 126.958 335.902 126.704C335.018 126.449 333.994 125.994 333.162 126.178C332.331 126.362 331.526 126.949 330.922 127.816C330.309 128.684 329.653 130.821 329.513 131.382C329.373 131.951 329.889 131.189 330.073 131.215M330.817 132.381C330.966 133.134 331.106 133.467 331.701 133.616C332.296 133.756 333.486 133.353 334.397 133.239C335.307 133.117 336.375 133.52 337.171 132.889C337.959 132.267 339.307 130.409 339.149 129.463C339 128.526 336.926 127.79 336.261 127.255C335.596 126.721 335.753 126.432 335.149 126.257C334.545 126.082 333.67 125.862 332.62 126.222C331.569 126.581 329.268 127.378 328.83 128.412C328.384 129.446 329.626 131.916 329.968 132.433C330.309 132.95 330.642 131.908 330.869 131.522" stroke="black" stroke-linecap="round"/>
<path d="M334.921 143.812C334.659 145.17 333.267 146.151 330.055 149.76M335.403 143.75C334.659 145.126 332.926 145.905 330.055 149.611M337.818 146.887C337.424 147.807 335.788 148.245 334.221 149.489M337.845 146.808C336.899 147.684 335.718 148.543 334.834 149.839M336.777 148.84C335.088 147.894 333.512 146.151 331.613 143.812M337.512 149.944C335.341 147.421 333.188 145.511 332.348 143.339M332.33 150.19C331.079 148.429 329.591 146.887 329.643 146.422M332.759 150.084C332.015 149.016 331.368 147.737 329.503 145.792" stroke="#868E96" stroke-width="0.5" stroke-linecap="round"/>
<path d="M329.031 148.034C329.232 148.779 330.641 149.033 331.473 149.27C332.295 149.497 332.943 149.436 334.002 149.419C335.061 149.401 337.267 149.611 337.827 149.165C338.387 148.709 337.512 147.561 337.372 146.703C337.232 145.844 337.538 144.74 336.987 144.022C336.435 143.312 334.983 142.541 334.055 142.401C333.127 142.261 332.05 142.69 331.403 143.19C330.755 143.689 330.396 144.626 330.186 145.406C329.976 146.177 329.871 147.307 330.142 147.842C330.405 148.376 331.569 148.525 331.779 148.604M329.871 146.974C329.67 147.596 329.705 147.859 330.405 148.218C331.114 148.586 333.179 149.051 334.107 149.165C335.026 149.278 335.341 149.103 335.954 148.902C336.567 148.7 337.494 148.849 337.783 147.973C338.072 147.106 338.151 144.442 337.696 143.663C337.232 142.883 335.928 143.347 335.018 143.286C334.116 143.225 332.873 143.409 332.26 143.303C331.639 143.198 331.753 142.208 331.324 142.673C330.895 143.146 330.142 145.406 329.67 146.116C329.197 146.825 328.637 146.782 328.488 146.939" stroke="black" stroke-linecap="round"/>
<path d="M335.762 157.212C333.583 159.928 332.051 161.627 329.819 162.775M335.718 157.641C333.959 159.419 332.952 160.304 330.44 162.775M338.992 159.761C337.372 161.461 336.305 161.417 334.23 163.371M338.747 159.796C336.917 161.452 335.491 162.801 334.02 164.22M337.302 162.582C335.666 160.567 334.186 158.692 333.583 157.965M337.215 163.16C336.156 161.496 334.519 159.796 333.53 158.535M333.014 162.731C331.762 161.285 330.773 159.665 329.18 159.525M333.014 163.16C331.421 161.715 330.09 160.392 329.469 159.384" stroke="#868E96" stroke-width="0.5" stroke-linecap="round"/>
<path d="M329.784 158.438C329.381 159.051 329.355 160.681 329.915 161.426C330.484 162.179 332.13 162.407 333.154 162.941C334.178 163.484 335.228 164.816 336.06 164.658C336.882 164.501 337.722 162.705 338.108 161.986C338.493 161.259 338.493 161.04 338.361 160.313C338.221 159.586 337.889 158.237 337.294 157.623C336.707 157.01 335.814 156.616 334.799 156.633C333.784 156.642 332.06 157.15 331.193 157.72C330.335 158.28 329.766 159.323 329.609 160.033C329.46 160.734 330.099 161.794 330.257 161.943M329.381 161.084C329.206 161.645 329.801 162.118 330.493 162.749C331.184 163.388 332.357 164.807 333.513 164.886C334.677 164.965 336.821 163.826 337.46 163.213C338.09 162.6 337.145 161.951 337.32 161.215C337.486 160.479 338.58 159.595 338.466 158.78C338.353 157.965 337.775 156.756 336.637 156.336C335.508 155.924 332.734 155.792 331.675 156.274C330.615 156.765 330.51 158.491 330.309 159.262C330.099 160.024 330.397 160.83 330.458 160.891C330.519 160.953 330.668 159.831 330.694 159.612" stroke="black" stroke-linecap="round"/>
</g>
<defs>
<clipPath id="clip0_6_3">
<rect width="251" height="588" fill="white" transform="matrix(0 1 1 0 0 0)"/>
</clipPath>
</defs>
</svg>
