<svg version="1.1" xmlns="http://www.w3.org/2000/svg" viewBox="0 0 286.4984488064564 671.8091912361572" width="286.4984488064564" height="671.8091912361572">
  <!-- svg-source:excalidraw -->
  
  <defs>
    <style>
      @font-face {
        font-family: "Virgil";
        src: url("https://excalidraw.com/Virgil.woff2");
      }
      @font-face {
        font-family: "Cascadia";
        src: url("https://excalidraw.com/Cascadia.woff2");
      }
    </style>
  </defs>
  <g stroke-linecap="round" transform="translate(86.65001470032712 137.34634722820422) rotate(0 53.72058666625901 130.00000762939453)"><path d="M0 0 C0 0, 0 0, 0 0 M0 0 C0 0, 0 0, 0 0 M-0.24 7.17 C1.25 3.49, 4.17 1.44, 4.19 0.94 M-0.07 6.98 C1.83 5.37, 2.19 2.97, 4.94 0.04 M-2.66 10.37 C6.02 9.02, 6.91 2.67, 8.52 2.5 M-0.17 12.31 C2.39 9.41, 5.12 6.34, 9.18 -0.97 M0.88 20.45 C2.85 12.24, 6.32 11.88, 13.37 3.71 M-1.21 19.21 C5.72 12.79, 10.49 5.77, 15.73 -1.08 M-3.07 22.32 C5.16 19.95, 12.83 14.19, 18.14 -3.5 M-0.33 25.98 C4.71 16.17, 13.02 8.42, 22.18 -1.18 M-1.34 34.06 C9.41 17.28, 21.48 6.07, 28.73 0.43 M-0.4 31.34 C6.06 21.2, 12.85 12.84, 26.61 -0.55 M-0.03 38.83 C4.73 26.58, 19.52 15.96, 34.26 -3.67 M-1.77 38.73 C13.93 23.43, 24.39 6.11, 33.52 -1.25 M-1.17 40.71 C7.64 28.33, 19.61 21.98, 35.28 3.02 M-1.33 43.59 C9.37 30.2, 23.74 16.73, 35.29 -1.27 M-2.7 49.02 C9.37 37.82, 21.4 26.31, 43.04 -2.8 M0.54 48.69 C8.11 37.71, 16.18 28.92, 44.36 0.41 M0.12 54.96 C15.53 40.43, 23.4 24.29, 44.22 -2.46 M-0.47 55.8 C16.39 40.34, 29.31 20.87, 47.04 -1.13 M3.46 59.7 C24.33 36.68, 44.5 13.8, 56.19 0.64 M1.2 60.74 C16.35 45.07, 28.34 29.14, 51.73 -1.82 M1.55 67.09 C13.6 54.97, 24.54 44.17, 59.76 1.03 M0.53 69.08 C13.03 48.92, 27.05 31.54, 58.65 -1.52 M2.65 75.91 C22.36 48.74, 43.86 16.62, 62.42 -0.81 M-1.01 71.46 C25.16 47.48, 46.95 22.31, 64.14 -1.1 M-2.85 80.14 C22.47 52.64, 40.22 32.05, 71.1 -2.46 M1.52 78.78 C19.67 58.44, 37.37 33.9, 70.38 0.65 M4.08 85.7 C23.87 64.46, 40.05 40.03, 75.42 0.41 M0.18 85.97 C15.75 64.78, 32.34 47.56, 73.62 -2.08 M3.96 90.43 C25.53 61.37, 49.11 38.73, 76.44 2.11 M-0.14 91 C16.92 73.87, 34.79 52.98, 78 0.98 M1.3 100.87 C32.83 64.77, 58.75 25.44, 85.9 2.85 M-2.11 98.62 C20.85 70.47, 44.24 43.22, 83.7 -0.91 M0.69 100.49 C32.56 73.21, 55.87 35.98, 90.98 -3.21 M1.08 103.59 C19.64 76.92, 41.4 52.89, 88.79 -0.42 M-1.19 105.96 C23.09 82.62, 44.64 54.37, 93.56 -3.96 M-1.29 109.99 C30.53 73.24, 65.53 34.76, 97.4 -1.23 M-0.97 111.88 C36.01 79.82, 63.07 46.45, 98.94 2.64 M2.19 114.9 C21.74 91.35, 41.8 68.56, 101.52 1.05 M0.17 118.77 C34.41 82.44, 66.52 42.08, 107.11 0.54 M-1.24 123.46 C32.59 84.19, 64.68 46.79, 105.24 -2.19 M3.05 125.88 C39.65 82.48, 75.97 44.73, 107.54 1.95 M-0.92 128.55 C44.02 76.14, 83.5 28.15, 108.5 0.75 M2.57 131.35 C24.55 113.78, 49.11 84.35, 113.03 4.2 M-1.7 134.11 C19.93 108.12, 45.75 80.36, 110.02 9.85 M3.74 140.55 C24.03 105.07, 59.58 72.76, 112.42 13.32 M1.06 138.36 C29.74 104.63, 60.43 70.82, 108.94 15.84 M4.23 142.75 C44.88 99.74, 87.12 53.42, 109.96 21.03 M1.11 145.55 C39.89 97.74, 82.57 48.38, 109.22 20.23 M-0.83 155.18 C32.53 112.24, 71.71 68.48, 109.32 28.99 M-0.98 152.96 C39.37 103.66, 82.89 56.81, 108.65 26.6 M3.69 159.76 C22.02 130.14, 54.87 100.74, 112.22 33.56 M-2.19 158.64 C39.83 113.86, 79.31 70.47, 110.47 32.28 M-2.98 167.32 C42.05 115.3, 86.31 65.17, 110.44 42.01 M-0.04 164.68 C30.41 127.66, 57.49 94.94, 108.39 39.63 M2.47 169.92 C29.86 136.09, 55.68 113.37, 109.84 40.83 M0.48 172.47 C26.61 140.95, 55.04 104.31, 107.61 43.33 M-1.99 173.52 C43.09 132.16, 86.15 80.67, 112.99 52.42 M-1.57 178.39 C27.72 144.95, 60.63 107.96, 108.44 50.04 M1.1 186.04 C28.89 142.02, 64.95 109.23, 107.86 59.14 M-1.26 180.89 C32.13 146.14, 64.66 107.08, 108.01 57.5 M3.19 186.07 C32 155.83, 57.1 119.07, 106.5 60.02 M-0.22 188.18 C23.8 158.7, 45.32 133.93, 107.91 62.18 M1.8 195.16 C48.15 148.74, 83.84 93.78, 112.99 71.03 M-1.63 193.51 C27.85 159.43, 57.5 126.09, 111.19 70.63 M0.56 198.02 C25.77 174.14, 48.85 149.23, 107.51 77.35 M-1.15 202.41 C29.69 162.55, 61.7 123.8, 111.4 74.65 M-0.23 207.32 C27.18 177.77, 55.42 145.56, 108.92 82.07 M0.63 208.43 C21.11 183.15, 43.46 156.65, 108.18 79.08 M1.17 211.67 C37.07 171.91, 72.01 124.13, 107.54 86.22 M0 212.17 C38.57 166.03, 80.94 119.72, 109.02 88.8 M-1.45 216.34 C37.28 177.21, 75.38 132.01, 111.71 97.54 M1.65 221 C36.27 174.85, 78.09 128.9, 108.84 92.45 M1.73 227.56 C35.96 190.67, 64.05 147.05, 107.82 98.67 M-0.24 224.32 C34.11 187.53, 63.46 153.51, 111.04 97.73 M-3.34 228.75 C23.78 204.9, 49.16 175.48, 108.36 103.48 M-0.99 232.82 C42.86 179, 87.12 128.38, 108.51 106.59 M-0.05 237.24 C39.88 186.68, 88.79 139.51, 110.53 109.74 M2.16 238.2 C42.65 191.43, 78.91 145.4, 111.24 111.04 M-0.35 244.34 C24.19 209.99, 57.21 174.75, 108.94 119.2 M-0.17 244.24 C28.18 214.32, 54.72 182.52, 108.06 116.1 M1.86 248.01 C26.57 222.85, 45.86 192.47, 110.23 122.24 M-1.94 250.44 C31.03 211.64, 66.43 173.69, 110.23 123.59 M-1.28 253.17 C29.61 215.54, 65.09 173.32, 109.13 130.23 M-0.62 255.36 C21.87 227.61, 49.91 197.28, 108.5 131.34 M1.79 262.41 C22.01 229.36, 47.79 198.81, 112.43 135.71 M1.11 262.35 C27.75 229.48, 53.07 202.81, 110.1 136.48 M7.98 261.49 C46.34 213.61, 86.35 164.28, 113.64 145.14 M6.34 260 C35.83 226.36, 69.19 192.57, 110.37 143.15 M15.67 260.67 C47.13 215.63, 88 172.21, 105.68 150.95 M13.05 262.49 C45.97 220.25, 78.33 179.48, 110.47 149.55 M19.31 258.86 C45.61 234.4, 63.73 201.65, 111.52 156.22 M17.67 260.76 C38.7 235.1, 61.61 211.93, 109.03 155.64 M20.02 256.91 C46.39 234.97, 71.47 203.59, 112.19 159 M22.71 258.77 C40.68 236.47, 62.17 208.99, 111.11 158.42 M30.34 261.61 C51.32 231.65, 68.02 210.67, 110.79 168.51 M26.55 260.53 C47.56 239.06, 65.98 215.49, 109.31 167.16 M33.53 261.67 C46.34 241.4, 69.07 221.47, 107.14 173.91 M31.63 261.06 C57.54 233.69, 80.87 206.36, 111.29 171.17 M36.26 263.77 C65.18 231.69, 92.38 203.72, 110.49 180.31 M38.25 261.41 C60.51 232.39, 87.31 202.54, 109.59 178.81 M43.91 260.51 C64.2 236.62, 88.92 211.79, 106.11 185.48 M44.82 259.69 C57.22 244.85, 68.72 227.35, 109.14 185.18 M49.28 258.41 C59.3 248.81, 74 233.1, 111.33 188.16 M49.56 262.01 C62.62 244.02, 77.64 230.68, 108.38 191.44 M55.86 261.96 C71.03 240.27, 89.26 218.4, 111.58 196.26 M54.8 261.52 C77.85 233.63, 98.76 207.97, 108.23 196.02 M58.59 261.57 C71.12 239.66, 91.08 225.96, 107 203.61 M60.73 261.41 C74.73 239.58, 92.95 221.62, 111.71 202.4 M67.09 257.58 C74.91 252.11, 86.68 239.47, 109.13 210.03 M65.61 261.9 C82.16 241.07, 96.86 222.97, 109.68 210.06 M70.41 264.29 C82.2 250.31, 96.75 236.13, 107.56 213.97 M71.55 259.24 C85.72 244.34, 101.8 227.89, 108.45 214.3 M75.64 262.67 C86.76 247.44, 96.28 236.53, 109.94 220.85 M76.11 261.44 C83.31 252.52, 94.3 241.94, 110.78 221.4 M83.93 264.62 C87.87 254.63, 92.28 246.86, 110.01 227.28 M81.29 259.58 C89.61 251.46, 97.77 239.04, 108.93 227.98 M82.52 257.26 C91.07 248.76, 102.13 241.99, 110.22 229.77 M86.63 262.99 C96.13 249.31, 103.99 238.49, 108.28 232.64 M91.36 259.61 C96.03 258.23, 100.94 247.51, 110.42 236.83 M92.73 259.03 C96.73 256.5, 101.04 251.78, 109.03 239.05 M95.8 262.66 C104.59 252.34, 106.93 250.09, 106.52 245.59 M95.04 260.13 C101.03 256.8, 103.86 250.51, 109.81 247.64 M101.89 261.11 C103.91 256.35, 106.92 254.37, 107.79 250.8 M100.83 261.95 C102.81 258.52, 105.16 258.07, 109.15 251.22" stroke="#ced4da" stroke-width="0.5" fill="none"></path><path d="M1.59 3.84 C42.48 2.04, 84.57 -3.17, 105.97 -2.62 M-1.09 1.36 C39.95 2.2, 81.3 1.18, 106.56 -0.99 M109.4 2.45 C109.65 90.22, 107.12 178.73, 108.78 257.53 M107.19 -1.46 C109.27 100.81, 108.77 202.77, 108.99 259.97 M110.13 258.27 C82.28 257.1, 49.72 258.62, 2.39 256.62 M107.84 260.41 C64.36 261.89, 21.61 259.78, -1.94 261.49 M-0.71 262.24 C4.16 179.67, 0.12 104.75, 1.64 -1.35 M-0.21 260.03 C2.22 204.65, 1.49 147.93, 1.14 -0.12" stroke="#000000" stroke-width="1" fill="none"></path></g><g stroke-linecap="round"><g transform="translate(88.11735068867745 133.32318156015745) rotate(0 51.21541101781048 -57.87839821370483)" fill-rule="evenodd"><path d="M36.52 -120.63 C36.52 -120.63, 36.52 -120.63, 36.52 -120.63 M36.52 -120.63 C36.52 -120.63, 36.52 -120.63, 36.52 -120.63 M29.13 -105.41 C35.54 -111.86, 34.25 -113.64, 41.48 -120.65 M27.51 -104.9 C33.32 -109.78, 37.23 -111.67, 42.37 -122.48 M24.71 -98.61 C26.07 -100.62, 35.85 -108.08, 47.38 -120.14 M26.41 -95.3 C31.06 -102.63, 36.28 -109.7, 45.51 -119.44 M18.86 -82.52 C25.54 -92.78, 32.86 -103.78, 51.19 -118.38 M22.08 -85.79 C25.95 -92.94, 30.67 -96.85, 47.54 -115.73 M19.88 -78.08 C23.1 -84.2, 33.74 -94.09, 49.6 -110.02 M19.51 -74.8 C25.51 -87.29, 36.57 -95.68, 52.71 -112.81 M13.64 -68.92 C29.07 -79.59, 31.86 -86.45, 51.63 -110.61 M18.37 -67.03 C27.1 -78.35, 36.2 -89.47, 53.67 -111.66 M15.66 -61.11 C31.71 -75.08, 48.52 -97.61, 55.87 -110.41 M16.09 -60.2 C23.92 -69.7, 30.46 -79.73, 55.76 -109.54 M15.68 -52.15 C26.87 -63.14, 37.98 -79.03, 63.2 -102.86 M11.39 -49.09 C30.64 -70.06, 47.22 -92.9, 60.69 -103.48 M12.44 -41.24 C30.44 -60.84, 52.02 -81.48, 60.76 -100.85 M10.1 -42.73 C30.48 -63.53, 47.11 -86.29, 61.54 -101.57 M8.22 -32.51 C22.75 -53.24, 41.64 -69.32, 65.95 -100.45 M10.67 -34.7 C29.15 -60.29, 50.46 -84.52, 65.72 -97.67 M9.61 -27.02 C26.37 -45.81, 35.3 -58.25, 69.12 -95.65 M7.98 -26.1 C29.82 -53.08, 53.11 -79.42, 68.71 -93.16 M6.79 -18.79 C31.54 -47.36, 54.2 -76.27, 71.57 -92.41 M3.56 -16.57 C25.06 -40.08, 45.04 -64.07, 71 -89.96 M6.23 -10.74 C14.61 -23.09, 29.79 -42.21, 66.86 -89.85 M1.34 -7.28 C26.37 -33.26, 47.84 -56.69, 70.48 -86.77 M0.64 -1.27 C20.61 -24.38, 40.14 -49.25, 73.46 -81.3 M0.61 1.57 C27.88 -34.59, 55.16 -65.49, 73.99 -83.07 M6.23 1.5 C31.86 -25.1, 48.82 -51.95, 72.82 -79.76 M4.19 1.44 C28.99 -23.95, 52.07 -51.58, 74.5 -79.63 M11.72 2.38 C38.06 -27.01, 56.63 -50.81, 73.98 -78.92 M10.56 -0.87 C25.86 -16.2, 40.93 -32.05, 78.6 -78.49 M16.64 1.16 C43.05 -25.64, 62.66 -55.99, 78.9 -74.41 M15.09 -0.16 C25.79 -14.84, 39.55 -29.15, 78.97 -75.23 M21.48 3.71 C39.15 -24.74, 62.62 -44.51, 79.85 -69.05 M19.19 3.24 C38.79 -19.62, 58.48 -45.4, 82.62 -71.19 M25.63 -0.02 C50.66 -21.89, 74.02 -52.03, 83.99 -65.86 M23.28 2.48 C45.76 -21.13, 61.3 -42.42, 82.58 -65.53 M33.46 5.94 C47.77 -12.5, 66.02 -33.54, 82.8 -60.76 M31.83 3.18 C43.65 -14.47, 58.8 -32.5, 86.3 -62.89 M36.25 1.66 C54.19 -19.98, 74.91 -39, 86.64 -53.89 M34.34 2.4 C54.24 -18.55, 72.92 -42.6, 89.2 -55.75 M42.22 5.26 C59.65 -21.45, 81.27 -37.61, 88.19 -52.57 M38.34 3.71 C57.79 -18.52, 74.24 -36.9, 89.09 -54.33 M42.54 2.92 C61.41 -12.66, 74.64 -27.68, 93.05 -46.05 M46.39 4.12 C56.92 -10.28, 69.45 -21.72, 91.82 -48.39 M49.3 6.89 C64.49 -13.46, 78.87 -28.7, 94.4 -44.3 M49.08 5.12 C64.11 -14.2, 76.62 -27.56, 92.9 -44.97 M53.55 1.46 C68.48 -11.04, 78.8 -23, 92.42 -40.91 M54.03 3.66 C68.34 -9.25, 76.23 -21.62, 95.95 -42.41 M63.25 1.01 C76.05 -15.07, 92.13 -30.89, 96.16 -39.73 M58.9 3.17 C74.98 -9.41, 87.34 -27.24, 97.53 -35.8 M61.33 3.98 C76.29 -9.82, 89.48 -20.09, 94.99 -33.75 M64.36 4.54 C75.47 -6.78, 85.26 -17.5, 97.63 -35.04 M67.62 2.84 C81.34 -6.87, 87.92 -11.02, 97.83 -28.67 M71.14 5.14 C79.56 -5.63, 89.87 -18.79, 101.89 -31.3 M71.61 3.68 C86.96 -1.94, 95.98 -15.77, 103.95 -29.11 M75.67 7.3 C80.93 -1.44, 89.63 -10.64, 103.37 -26.26 M76.95 4.58 C88.04 0.56, 91.15 -6.52, 106.83 -19.4 M81.66 5.8 C86.5 0.12, 94.18 -8.61, 101.45 -19.92 M87.68 3.25 C90.51 1.9, 93.65 -8.7, 102.9 -11.54 M85.3 4.43 C89.95 -0.05, 97.17 -6.12, 101.56 -13.54 M91.61 4.31 C95.49 -1.35, 100.12 -0.8, 101.31 -7.29 M93.33 4.31 C96.83 -1.89, 101.14 -6.76, 103.53 -10.21 M0 0 C0 0, 0 0, 0 0 M0 0 C0 0, 0 0, 0 0 M6.27 -0.4 C5.45 -0.57, 3.19 -2.19, 1.33 -3.07 M6.18 0.37 C4.45 -1.9, 2.98 -3.11, 1.02 -3.95 M14.3 0.46 C8.03 -1.05, 3.31 -5.72, 4.82 -6.33 M12.83 0.17 C11.06 -1.99, 9.03 -2.07, 1.26 -7.74 M23.1 3.52 C19.02 -2.32, 7.56 -5.68, 1.05 -15.83 M18.82 1.42 C16.29 -0.58, 10.9 -5.11, 1.66 -14.35 M22.69 -2.02 C17.09 -5.89, 17.09 -8.23, 4.54 -13.93 M27.21 2.59 C18.92 -5.18, 9.16 -12.07, 6.26 -16.2 M37.32 3.38 C28.69 -1.16, 19.08 -10.58, 7.08 -22.84 M34.55 3.05 C27.56 -4.01, 20.02 -10.91, 4.3 -20.39 M39.63 5.6 C27.7 -10.53, 18.24 -17.18, 6.77 -29.48 M38.38 1.99 C27.45 -7.27, 17.85 -13.84, 7.63 -27.85 M49.49 2.52 C38.16 -3.44, 26.02 -11.29, 10.4 -34.72 M46.55 5.08 C33.01 -8.05, 22.31 -16.59, 6.88 -30.05 M49.67 4.11 C36.14 -10.23, 24.86 -20.14, 10.44 -32.69 M51.95 5.41 C41.73 -6.54, 29.62 -16.73, 7.43 -35.3 M61.65 0.43 C43.83 -4.47, 35.59 -20.81, 6.3 -41.44 M59.2 4.59 C47.66 -7.18, 34.23 -17.31, 9.74 -38.45 M68.85 8.22 C49.15 -11.61, 31.91 -24.19, 10.34 -45 M67.02 4.35 C46.98 -12.56, 30.09 -26.87, 10.25 -45.91 M71.86 3.02 C56.3 -5.52, 45.47 -18.96, 13.83 -47.29 M74.34 3.56 C48.2 -13.65, 25.86 -35.94, 10.48 -48.59 M77.2 7.02 C66.01 -7.1, 51.44 -22.84, 9.01 -54.21 M76.17 3.22 C57.24 -11.23, 39.84 -30.35, 13.95 -50.93 M84.38 0.52 C61.08 -15.34, 40.19 -27.46, 10.28 -56.23 M81.54 2.79 C62.35 -11.2, 44.95 -28.76, 14.46 -56.58 M91.79 3.83 C61.98 -19.37, 32.94 -50.34, 15.25 -63.78 M86.53 3.18 C60.39 -24.98, 29.85 -46.25, 12.11 -62.74 M92.54 -2.59 C61.37 -22.62, 30.25 -48.83, 14.2 -69.23 M92.95 -0.18 C67.97 -20.46, 45.13 -42.83, 13.77 -65.1 M100.91 -0.3 C70.16 -24.64, 37.95 -55.39, 15.87 -73.54 M97.93 1.58 C70.5 -25.94, 39.49 -49.04, 17.86 -71.58 M97.11 0.61 C70.89 -28.3, 46.91 -49.93, 17.65 -71.59 M101.63 -2.85 C78.87 -20.58, 58.44 -38.85, 19.53 -74.61 M104.82 -5.96 C67.3 -38.17, 37.68 -62.2, 16.9 -77.59 M103.72 -7.33 C73.09 -29.53, 44.99 -55.66, 21.03 -79.51 M100.13 -11.98 C78.51 -28.52, 62.23 -46.73, 18.91 -80.28 M103.42 -9.25 C80.69 -29.46, 60.62 -48.76, 22.58 -82.76 M105.83 -18.08 C81.16 -30.46, 65.24 -50.9, 24.14 -84.39 M104.74 -15.19 C77.74 -37.82, 50.45 -63.86, 20.73 -88.4 M103.4 -20.81 C82.85 -39.24, 62.27 -56.35, 23.27 -87.24 M99.43 -23.27 C82.5 -40.51, 60.39 -60.7, 22.27 -91.67 M99.49 -30.67 C68.29 -59.24, 39.56 -85.07, 27.89 -92.08 M100.59 -32.15 C69.9 -52.02, 41.74 -78.88, 26.05 -95.32 M99.24 -30.78 C73.93 -58.48, 46.59 -79.61, 29.3 -97.45 M98.8 -34.73 C78.39 -55.45, 56.28 -72.39, 24.71 -98.01 M99.38 -42.07 C77.48 -60.83, 56.1 -80.65, 25.45 -105.79 M94.4 -42.26 C68.9 -64.09, 47.33 -86.12, 26.62 -101.85 M95.91 -50.91 C75.69 -64.75, 55.17 -79.34, 31.53 -109.53 M92.08 -51.07 C78.1 -66.69, 58.82 -82.48, 29.48 -109.56 M92.25 -58.18 C65.15 -77.58, 44.44 -99.45, 28.37 -114.34 M88.01 -62.59 C69.03 -77.42, 47.81 -95.85, 31.77 -110.71 M79.98 -71.36 C71.07 -80.19, 54.79 -95.84, 36.02 -117.14 M81.63 -70.4 C60.87 -87.36, 45.6 -105.41, 33.22 -114.69 M74.15 -81.92 C60.12 -91.03, 54.33 -103.08, 38.44 -114.16 M73.98 -84.73 C61.27 -94.6, 46.14 -108.09, 34.61 -117.79 M65.98 -99.93 C59.85 -106.9, 49.26 -108.93, 33.81 -118.21 M67.32 -97.95 C55.74 -103.06, 49.67 -110.77, 35 -123.49" stroke="#e64980" stroke-width="0.5" fill="none"></path><path d="M-1.07 0.04 C5.19 -20.84, 20.8 -122.91, 37.69 -123.32 C54.57 -123.73, 106.1 -23.11, 100.26 -2.43 C94.42 18.25, 18.9 0.38, 2.64 0.75 M3.54 -2.41 C10.69 -23.12, 26.03 -119.84, 43.05 -120.54 C60.06 -121.23, 113.47 -27.31, 105.63 -6.6 C97.79 14.12, 13.51 2.56, -3.98 3.76" stroke="#000000" stroke-width="1" fill="none"></path></g></g><g stroke-linecap="round" transform="translate(82.36509233792708 398.0816706146452) rotate(0 59.2092939218424 20.810988720048158)"><path d="M2.77 2.41 C2.77 2.41, 2.77 2.41, 2.77 2.41 M2.77 2.41 C2.77 2.41, 2.77 2.41, 2.77 2.41 M0.54 11.07 C0.84 10.48, 6.24 2.73, 10.38 -0.25 M0.54 11.07 C3.18 7.67, 7.8 2.92, 10.38 -0.25 M0.93 16.71 C3.41 10.67, 8.8 12.07, 13.4 2.37 M0.93 16.71 C2.12 12.7, 5.75 9.53, 13.4 2.37 M0.67 23.11 C3.13 17.71, 6.54 13.3, 18.39 2.73 M0.67 23.11 C2.33 19.09, 8.74 16.8, 18.39 2.73 M1.07 28.75 C5.91 24.57, 17.23 16.6, 24.03 2.34 M1.07 28.75 C11.56 19.12, 18.42 7.22, 24.03 2.34 M1.46 34.4 C13.96 25.62, 18.21 16.81, 29.02 2.7 M1.46 34.4 C12.4 21.74, 21.87 11.02, 29.02 2.7 M3.17 38.53 C14.07 25.12, 15.87 22.01, 34.66 2.3 M3.17 38.53 C9.91 29.56, 20.48 19.09, 34.66 2.3 M6.19 41.15 C16.45 30.09, 32.64 16.83, 39.65 2.66 M6.19 41.15 C16 27.62, 26.09 15.59, 39.65 2.66 M11.18 41.51 C18.33 36.77, 22.03 26.37, 44.63 3.02 M11.18 41.51 C19.72 33.33, 24.29 23.51, 44.63 3.02 M16.82 41.12 C23.11 33.32, 34.19 28.86, 50.28 2.63 M16.82 41.12 C31.62 26.8, 44.81 10.04, 50.28 2.63 M21.81 41.48 C31.95 28.86, 45.14 17.53, 55.26 2.99 M21.81 41.48 C32.59 28.89, 43.67 16.15, 55.26 2.99 M27.45 41.09 C37.02 32.87, 44.77 21.32, 60.91 2.6 M27.45 41.09 C40.44 29.74, 48.15 17.31, 60.91 2.6 M32.44 41.45 C37.78 30.17, 50.34 19.96, 65.89 2.96 M32.44 41.45 C41.05 31.38, 46.74 22.15, 65.89 2.96 M38.08 41.05 C49.85 28.8, 52.12 23.31, 71.54 2.56 M38.08 41.05 C48.82 29.69, 58.05 17.66, 71.54 2.56 M43.07 41.41 C60.45 24.39, 69.99 15.8, 76.52 2.92 M43.07 41.41 C51.76 32.36, 60.13 23.66, 76.52 2.92 M48.05 41.77 C61.33 25.33, 72.58 13.69, 81.51 3.28 M48.05 41.77 C58.25 28.75, 71.01 14.66, 81.51 3.28 M53.7 41.38 C69.42 29.11, 76.36 13.15, 87.15 2.89 M53.7 41.38 C62.49 30.21, 69.04 24.02, 87.15 2.89 M58.68 41.74 C69.3 26.6, 82.38 11.57, 92.14 3.25 M58.68 41.74 C68.08 31.47, 78.24 21.35, 92.14 3.25 M64.33 41.34 C79.21 29.33, 91.31 13.05, 97.78 2.85 M64.33 41.34 C72.17 32, 80.69 22.32, 97.78 2.85 M69.31 41.7 C76.51 27.76, 91.21 20.64, 102.77 3.21 M69.31 41.7 C80.45 30.98, 89.28 18.71, 102.77 3.21 M74.96 41.31 C83.44 33.85, 92.3 25.05, 108.41 2.82 M74.96 41.31 C84.78 27.12, 98.87 15.33, 108.41 2.82 M79.94 41.67 C86.56 29.77, 100.95 19.16, 114.06 2.42 M79.94 41.67 C93.19 25.11, 103.71 10.87, 114.06 2.42 M84.93 42.03 C92.63 29.45, 101.84 22.66, 117.08 5.05 M84.93 42.03 C97.45 29.04, 107.52 18.78, 117.08 5.05 M90.57 41.63 C99.24 28.15, 114.74 15.34, 120.1 7.67 M90.57 41.63 C101.76 29.44, 110.63 17.09, 120.1 7.67 M95.56 41.99 C107.54 34.08, 116.69 20.93, 119.83 14.07 M95.56 41.99 C102.46 36.08, 108.57 25.46, 119.83 14.07 M101.2 41.6 C111.17 31.06, 110.85 28.55, 120.23 19.71 M101.2 41.6 C110.45 31.34, 115.37 26.65, 120.23 19.71 M106.19 41.96 C105.74 35.77, 115.81 30.83, 119.97 26.11 M106.19 41.96 C111.41 37.47, 114.72 30.48, 119.97 26.11 M109.86 43.83 C112.33 38.56, 112.22 40.48, 119.71 32.51 M109.86 43.83 C114.85 39.15, 118.38 35.22, 119.71 32.51 M5.63 40.78 C5.63 40.78, 5.63 40.78, 5.63 40.78 M5.63 40.78 C5.63 40.78, 5.63 40.78, 5.63 40.78 M12.03 41.04 C10.21 37.37, 10.09 35.28, 2.97 33.17 M12.03 41.04 C10.13 40.07, 7.97 37.97, 2.97 33.17 M18.42 41.3 C12.63 34.8, 8.59 30.27, 2.58 27.52 M18.42 41.3 C14.18 36.83, 7.71 31.42, 2.58 27.52 M24.07 40.9 C19.76 33.17, 13.85 33.83, 2.94 22.54 M24.07 40.9 C14.89 34.9, 10.53 29.8, 2.94 22.54 M30.47 41.17 C18.1 34.77, 13.93 19.8, 2.54 16.89 M30.47 41.17 C23.81 33.5, 14.65 28.85, 2.54 16.89 M36.86 41.43 C27.3 36.34, 15.09 24.27, 0.64 9.94 M36.86 41.43 C22.89 29.32, 10.58 18.79, 0.64 9.94 M42.51 41.03 C31.32 31.32, 13.61 16.5, 1.75 5.61 M42.51 41.03 C28.3 29.38, 14.53 15.19, 1.75 5.61 M48.9 41.29 C29.23 22.53, 13.69 9.39, 3.62 1.93 M48.9 41.29 C30.79 26.1, 12.33 10.45, 3.62 1.93 M55.3 41.56 C41.29 26.55, 22.91 16.88, 7.75 0.22 M55.3 41.56 C34.86 24.23, 16.97 11.04, 7.75 0.22 M60.94 41.16 C50.19 28.92, 36.76 19.88, 11.89 -1.48 M60.94 41.16 C51.27 34.65, 41.39 25.21, 11.89 -1.48 M67.34 41.42 C55.73 29.64, 50.06 24, 18.29 -1.22 M67.34 41.42 C49.49 28.74, 32.04 10.41, 18.29 -1.22 M73.74 41.68 C61.21 30.39, 45.07 16.2, 23.93 -1.62 M73.74 41.68 C62.08 32.58, 53.52 20.84, 23.93 -1.62 M79.38 41.29 C60.64 29.68, 47.04 11.72, 30.33 -1.35 M79.38 41.29 C64.56 26.62, 52.38 17.07, 30.33 -1.35 M85.78 41.55 C64.36 25.52, 51.6 7.88, 35.97 -1.75 M85.78 41.55 C74.33 30.1, 61.29 19.58, 35.97 -1.75 M92.18 41.81 C77.75 29.97, 57.26 11.63, 42.37 -1.49 M92.18 41.81 C82.74 33.62, 72.17 22.09, 42.37 -1.49 M97.82 41.42 C86.05 23.86, 64.15 17.55, 48.77 -1.23 M97.82 41.42 C80.51 27.63, 60.91 9.37, 48.77 -1.23 M104.22 41.68 C86.04 23.15, 70.34 13.19, 54.41 -1.62 M104.22 41.68 C94.33 32.33, 85.03 23.31, 54.41 -1.62 M109.11 40.63 C99.83 29.69, 82.6 22.06, 60.81 -1.36 M109.11 40.63 C98.55 30.81, 88.08 19.13, 60.81 -1.36 M113.24 38.92 C96.75 24.08, 79.81 14.15, 67.2 -1.1 M113.24 38.92 C96.05 26.83, 82.51 11.56, 67.2 -1.1 M117.38 37.22 C100.51 21.65, 83.22 7.25, 72.85 -1.49 M117.38 37.22 C100.47 22.75, 85.65 9.34, 72.85 -1.49 M119.24 33.54 C104.15 25.5, 93.35 13.43, 79.25 -1.23 M119.24 33.54 C105.35 22.9, 90.03 10.29, 79.25 -1.23 M119.61 28.55 C115.28 24.32, 102.32 13.02, 85.64 -0.97 M119.61 28.55 C110.42 22.51, 102.83 12.63, 85.64 -0.97 M119.21 22.91 C112.25 18.85, 106.37 11.4, 91.29 -1.36 M119.21 22.91 C108.82 14.6, 99.11 2.72, 91.29 -1.36 M119.57 17.92 C112.88 9.28, 113.34 11.64, 97.68 -1.1 M119.57 17.92 C113.59 11.3, 106.94 5.98, 97.68 -1.1 M119.18 12.28 C115.28 6.47, 110.3 8.39, 104.08 -0.84 M119.18 12.28 C114.65 8.13, 107.3 4, 104.08 -0.84 M118.03 5.98 C113.8 5.17, 114.15 3.19, 109.72 -1.24 M118.03 5.98 C115.15 4.58, 112.68 1.59, 109.72 -1.24" stroke="#868e96" stroke-width="0.5" fill="none"></path><path d="M10.41 0 M10.41 0 C45.26 -1.08, 82.66 1.55, 108.01 0 M10.41 0 C43.61 -2.34, 78.89 -2.28, 108.01 0 M108.01 0 C117.1 -0.81, 115.23 4.01, 118.42 10.41 M108.01 0 C115.72 -1.8, 116.1 6.81, 118.42 10.41 M118.42 10.41 C115.72 17.33, 116.7 26.44, 118.42 31.22 M118.42 10.41 C117.98 16.4, 120.61 23.05, 118.42 31.22 M118.42 31.22 C120.73 35.51, 112.65 39.22, 108.01 41.62 M118.42 31.22 C117.99 37.17, 116.85 41.28, 108.01 41.62 M108.01 41.62 C76.55 42.62, 49.57 41.43, 10.41 41.62 M108.01 41.62 C74.47 41.01, 39.76 40.52, 10.41 41.62 M10.41 41.62 C-0.05 43.13, 1.47 39.96, 0 31.22 M10.41 41.62 C6.65 40.16, -3.16 37.78, 0 31.22 M0 31.22 C-3.73 25.76, 2.35 17.43, 0 10.41 M0 31.22 C0.91 25.76, -2.07 21.92, 0 10.41 M0 10.41 C-3.78 2.91, 1.95 3.15, 10.41 0 M0 10.41 C1.45 2.75, 2.02 3.67, 10.41 0" stroke="#000000" stroke-width="1" fill="none"></path></g><g stroke-linecap="round" transform="translate(119.88131761654927 202.9777141162928) rotate(0 20.831665603577278 20.83166560357725)"><path d="M3.9 10.02 C3.9 10.02, 3.9 10.02, 3.9 10.02 M3.9 10.02 C3.9 10.02, 3.9 10.02, 3.9 10.02 M2.36 17.61 C6.07 13.83, 11.33 4.69, 17.63 2.03 M0.74 20.4 C6.52 12.55, 11.89 6.8, 16.83 2.45 M-0.15 25.01 C7.78 17.48, 14.18 12.91, 20.06 2.63 M2.21 25.45 C6.96 18.72, 11.85 11.45, 21.23 1.05 M1.33 30.54 C10.05 18.56, 21.95 7.62, 27.15 1.96 M3.9 29.44 C9.76 22.07, 15.56 14.49, 28.77 0.05 M4.78 33.37 C14.18 25.97, 18.95 17.23, 31.92 1.21 M6.39 33.24 C15.5 22.03, 26.16 9.83, 30.35 2.23 M6.58 34.91 C15.97 27.12, 23 15.33, 33.95 6.46 M6.83 36.96 C14.75 29.71, 20.88 20.56, 34.15 5.83 M10.42 41.27 C18.85 28.16, 33.01 14.77, 36.54 8.78 M10.37 40 C16.77 31.41, 25.33 22.31, 37.31 10.11 M14.38 41.01 C23.53 32.75, 30.14 20.63, 39.08 11.98 M13.8 40.25 C21.9 31.99, 28.86 24.76, 38.7 12.64 M18.58 41.21 C22.68 36.28, 32.13 28.32, 38.65 14.84 M17.63 43.65 C24.09 35.47, 29.24 29.58, 41.14 16.99 M23.5 44.87 C27.2 36.27, 37.39 28.97, 40.32 20.09 M20.91 45.12 C28.67 37.64, 34.39 30.76, 42.09 21.21 M28.25 40.46 C34.52 34.02, 38.48 31, 44.85 27.42 M30.05 41.6 C34.4 36.38, 38.33 30.62, 43.96 26.41 M7.24 37.4 C7.24 37.4, 7.24 37.4, 7.24 37.4 M7.24 37.4 C7.24 37.4, 7.24 37.4, 7.24 37.4 M18.44 41.93 C11.54 35.34, 7.9 31.71, 3.08 28.98 M18.81 41.66 C15.12 38.57, 10.34 34.83, 2.52 27.1 M21.1 39.7 C14.7 34.26, 7.7 26.74, 2.96 22.14 M22.26 40.3 C19.06 35.71, 13.94 32.69, 1.14 22.05 M27.34 39.56 C20.76 32.58, 16.28 28.5, 4.6 19.31 M25.52 37.44 C21.85 34.56, 16.94 29.22, 2.1 17.89 M32.15 37.1 C24.86 31.02, 21.34 26.46, 3.54 14.64 M29.89 36.35 C21.38 29.49, 13.63 21.31, 4.05 12.91 M37.31 35.02 C26.51 30.23, 21.65 21.65, 7.08 8.38 M35.18 34.99 C25.43 27.88, 16.55 19.23, 5.65 8.53 M39.1 33.55 C30.98 28.02, 24.08 20.22, 8.07 6.59 M37.87 31.88 C28.72 23.56, 19 15.39, 7.78 6.51 M40.65 27.31 C29.41 18.38, 21.08 11.68, 10.14 4.83 M40.01 28.48 C32.87 23.49, 25.68 16.54, 11.33 4.18 M43.06 23.76 C33.68 17.27, 24.24 9.87, 14.16 0.44 M40.84 25.13 C35.57 19.07, 27.54 13.91, 14.12 0.19 M42.26 21.47 C33.05 10.87, 24.64 1.2, 19.1 -1.1 M44.08 20.84 C37.74 16.98, 32.46 11.49, 18.25 -1.64 M43.89 15.91 C38.71 10.21, 32.84 6.02, 23.92 -1.88 M43.42 14.55 C35.38 9.55, 26.5 1.99, 22.57 -2.48" stroke="#228be6" stroke-width="0.5" fill="none"></path><path d="M27.8 0.47 C31.64 1.88, 36.4 6.86, 38.57 10.79 C40.75 14.71, 41.53 19.72, 40.87 24.03 C40.21 28.33, 38.09 33.58, 34.61 36.64 C31.13 39.69, 24.52 42.23, 19.98 42.36 C15.43 42.5, 10.69 40.48, 7.32 37.46 C3.94 34.43, 0.34 28.73, -0.28 24.22 C-0.9 19.71, 1.1 14.26, 3.58 10.39 C6.05 6.52, 10.32 2.34, 14.55 0.97 C18.77 -0.4, 26.26 1.74, 28.92 2.17 C31.59 2.59, 30.69 3.3, 30.55 3.52 M30.53 2.89 C34.32 4.2, 38.47 6.74, 40.26 10.88 C42.05 15.02, 42.39 23.17, 41.27 27.71 C40.15 32.24, 37.09 35.86, 33.52 38.1 C29.94 40.35, 24.61 41.83, 19.83 41.18 C15.05 40.54, 8.37 37.47, 4.85 34.22 C1.33 30.97, -0.98 25.7, -1.27 21.69 C-1.57 17.68, 0.13 13.48, 3.09 10.14 C6.06 6.79, 12.01 2.99, 16.5 1.61 C20.99 0.24, 27.88 1.81, 30.04 1.91 C32.2 2.01, 29.65 1.67, 29.46 2.24" stroke="#000000" stroke-width="1" fill="none"></path></g><g stroke-linecap="round"><g transform="translate(190.86013701186107 285.58819804323787) rotate(5.663717017709196 44.836489346347776 60.38694622951104)" fill-rule="evenodd"><path d="M-0.17 -0.15 C-0.17 -0.15, -0.17 -0.15, -0.17 -0.15 M-0.17 -0.15 C-0.17 -0.15, -0.17 -0.15, -0.17 -0.15 M0.5 5.42 C1.41 4.82, 1.82 3.46, 3.11 2.68 M0.36 5.62 C1.09 4.34, 2.15 3.31, 2.88 2.38 M0.43 11.9 C1.83 8.99, 3.92 8.22, 6.24 4.76 M0.77 11.44 C1.7 9.5, 2.55 8.13, 5.59 5.24 M1.17 17.56 C4.44 13.61, 5.58 12.15, 8.51 9.53 M0.95 17.19 C3.33 13.25, 6.56 10.14, 7.75 8.89 M1.06 21.59 C5.04 19.51, 10.26 15.18, 12.12 12.01 M0.7 22.69 C5.53 17.81, 9.14 13.32, 10.91 11.17 M1.71 28.63 C4.59 23.01, 7.28 22.72, 13.45 12.34 M2.04 26.68 C6.48 21.21, 10.95 16.16, 14.11 13.94 M2.99 34.77 C6.52 26.48, 13.09 20.09, 15.14 16.6 M2.99 32.79 C6.37 29.06, 9.46 25.48, 16.53 17.19 M2.64 39.63 C9.11 32.71, 12.26 25.84, 20.31 21.4 M3.69 37.82 C7.57 35.14, 10.09 30.39, 19.58 19.77 M2.58 43.94 C9.57 40.61, 9.91 36.62, 23.49 23.14 M3.9 44.49 C7.99 39.06, 13.06 35.8, 22.53 22.88 M2.83 50.76 C11.65 41.41, 18.91 30.98, 26.34 23.83 M3.16 49.58 C11.18 41.79, 17.45 34.05, 25.85 26.21 M2.46 56.6 C14.48 46.51, 23 34.51, 28.5 27.71 M4.23 56.41 C10.49 50.3, 13.72 43.26, 28.76 28.19 M5.21 61.69 C12.13 51.45, 20.19 44.31, 32.7 32.73 M5.3 60.56 C14.04 49.91, 24.52 39.89, 30.7 31.06 M5.9 68.01 C14.28 55.09, 23.98 43.63, 31.68 35.33 M6.78 65.37 C12.61 58.01, 21.97 48.95, 32.88 35.04 M7.33 69.72 C14.1 65.83, 21.94 57.72, 35.19 35.14 M6.82 71.94 C13.15 64.17, 17.75 57.74, 35.7 36.64 M8 77.7 C19.1 62.87, 33.29 49.36, 38.38 39.28 M7.43 75.15 C17.59 64.51, 28.51 54.1, 39.66 40.36 M7.15 79.08 C17.62 69.37, 30.92 57.02, 40.06 43.32 M8.1 80.64 C15.99 73.32, 22.46 65.27, 42.14 43.24 M11.7 85.44 C20.1 73.25, 33.94 59.99, 43.11 47.56 M9.17 86.56 C20.49 73.67, 29.77 63.53, 44.27 46.57 M9.91 91.58 C25.47 76.75, 37.78 61.76, 45.42 49.79 M12.04 89.84 C21.62 77.57, 31.32 67.1, 46.41 48.17 M13.1 93.77 C22.68 82.49, 38.1 68.09, 50.9 49.98 M11.38 95.91 C24.3 82.92, 34.92 69.78, 49.64 52.6 M12.61 100.73 C24.99 85.25, 37.63 73.6, 54.52 53.84 M12.55 101.22 C21.04 91.26, 30.63 79.51, 53.31 54.22 M12.81 104.69 C30.01 87.28, 45.81 65.48, 57.27 57.54 M15.19 105.75 C29.99 87.07, 44.61 70.01, 56.47 57.38 M17.41 106.81 C32.38 90, 44.87 72.64, 57.15 60.48 M15.96 107.95 C33.39 90.35, 49.77 70.02, 59.4 60.7 M17.89 113.48 C30.12 98.15, 43.02 82.39, 62.23 64.77 M17.47 112.6 C30.81 97.64, 43.08 84.02, 61.15 62.07 M21.68 115.07 C32.95 105.68, 43 92.97, 65.58 67.99 M21.02 114.95 C31.49 103.34, 41.29 93.02, 64.98 66.9 M26.61 116.4 C38.64 100.33, 50.92 84.53, 67.65 68.7 M25.51 116.77 C37.93 104.03, 49.92 89.49, 67.23 69.12 M27.91 121.54 C37.85 108.94, 49.03 95.41, 67.89 70.9 M28.91 120.64 C44.39 100.83, 60.53 82.77, 69.44 73.14 M31.1 120.24 C45.94 103.99, 61.51 84.98, 71.85 77.34 M31.71 121.83 C41.3 110.12, 49.98 100.09, 71.95 74.68 M39.11 121.74 C49.02 105.43, 60.23 95.08, 76.05 79.97 M36.53 121.69 C49.5 107.58, 59.81 94.57, 73.26 78.71 M43.92 122.75 C55.84 107.93, 69.45 92.54, 79.04 81.21 M42.2 121.05 C55.2 106.54, 69.02 91.5, 77.65 82.2 M48.83 120.95 C56.98 112.38, 67.63 101.36, 80.45 83.22 M48.6 121.29 C56.29 110.42, 65.34 100.52, 78.64 84.9 M55.52 120.22 C64.75 108.73, 74.47 96.09, 81.9 90.36 M54.2 121 C61.81 112.78, 67.03 104.08, 82.45 89.34 M60.4 118.44 C68.76 107.33, 78.27 98.65, 85.4 91.2 M60.87 119.36 C66.22 112.26, 72.75 105.87, 84.9 92.28 M67.54 117.93 C73.99 112.38, 81.06 102.07, 87.61 96.03 M65.37 117.99 C73.42 110.22, 81.61 101.25, 88.17 93.77 M72.39 118.5 C75.57 112.69, 79.26 110.85, 89.64 99.65 M71.55 117.59 C77.31 111.76, 83.11 103.74, 89.08 99.39 M82.79 114.21 C83.1 110.94, 87.24 107.75, 91.52 101.87 M82.12 112.75 C84.06 110.03, 87.07 107.48, 90.51 102.16 M17.7 112.25 C17.7 112.25, 17.7 112.25, 17.7 112.25 M17.7 112.25 C17.7 112.25, 17.7 112.25, 17.7 112.25 M26.74 115.34 C20.29 109.48, 17.08 105.35, 14.85 104.62 M27.49 114.32 C24.9 111.69, 21.78 109.31, 12.79 103.64 M36.97 118.54 C27.57 112.64, 20.43 104.66, 12.14 97.95 M36.4 118.1 C31.53 114.48, 26.9 109.86, 10.73 95.58 M43.2 120.29 C33.35 112.44, 26.25 105.08, 10.93 90.69 M44.18 118.48 C32.43 110.22, 22.16 99.06, 11.35 90.55 M51.13 120.01 C40.15 110.93, 30.29 103.47, 8.86 82.65 M49.71 118.43 C33.3 105.7, 19.05 91.93, 9.48 82.83 M54.24 119.96 C38.42 105.9, 21.11 87.67, 5.46 75.98 M54.78 117.89 C42.44 106.88, 30.42 97.77, 7.8 76.69 M59.07 115.52 C44.42 104.18, 26.79 87.85, 7.8 74.24 M59.95 117.49 C43.82 102.25, 27.89 89.6, 8.71 72.83 M66.45 114.84 C52.44 105.03, 42.56 96.08, 6.7 66.21 M66.24 117.69 C50.7 103.01, 35.91 90.17, 9.09 67.78 M72.45 117.93 C56.7 103.9, 39.22 87.21, 7.29 60.77 M72.66 117.32 C54.85 103.8, 38.6 88.07, 7.3 60.16 M75.18 113.6 C53.16 95.92, 34.6 80.63, 5.47 53.9 M75.44 116.08 C59.4 100.83, 44.19 86.14, 6.2 55.26 M80.06 113.76 C58.76 93.47, 37.78 77.43, 5.93 49.09 M79.82 114.32 C58.49 95.28, 37.56 75.98, 5.63 48.92 M84.52 113.15 C61.08 94.2, 44.44 75.29, 6.14 42.95 M83.26 110.25 C63.46 94.23, 44.39 77.21, 4.91 42.67 M86.77 107.61 C65.05 89.23, 43.29 70.48, 4.59 39.56 M86.71 107.75 C57.91 82.67, 28.93 58.62, 5.6 37.53 M87.57 105.81 C60.69 83.33, 32.57 56.19, 5.81 33.47 M88.84 105.54 C67.81 84.64, 44.93 64.57, 4.98 32.54 M87.68 101.59 C55.87 69.42, 23.55 40.84, 4.6 24.04 M90.07 101.12 C56.35 71.49, 22.43 42.09, 4.82 26.61 M83.39 90.24 C61.05 70.6, 35.39 46.04, 2.07 21.08 M84.52 90.4 C65.9 73.81, 45.14 57.76, 3.91 19.64 M69.02 74.23 C51.82 58.19, 32.13 42.91, 2.08 15.88 M71.05 73.1 C47.19 53.95, 23.54 32.1, 2.96 15.04 M64.05 64.53 C43.74 42.82, 19.84 25.01, 3.29 10.86 M64.9 63.44 C45.24 44.95, 24.22 28.01, 3.22 8.94 M32.41 27.96 C26.17 21.44, 15.57 14.43, 3.38 1.93 M33.43 29.05 C25.41 23.12, 17.03 16.99, 3.14 3.96" stroke="#228be6" stroke-width="0.5" fill="none"></path><path d="M1.04 0.28 C15.62 17.05, 84.88 82.95, 87.64 101.66 C90.4 120.36, 32.21 129.6, 17.58 112.49 C2.95 95.38, 3.01 17.58, -0.15 -1.01 M0.12 -0.61 C15.03 16.3, 86.99 80.67, 89.73 99.74 C92.47 118.8, 31.49 130.46, 16.57 113.77 C1.64 97.07, 2.91 18.21, 0.18 -0.45" stroke="#000000" stroke-width="1" fill="none"></path></g></g><g stroke-linecap="round"><g transform="translate(92.58513067545005 286.80516629167096) rotate(354.3362829822908 -43.191899147352046 59.74685191150519)" fill-rule="evenodd"><path d="M-62.18 65.2 C-62.18 65.2, -62.18 65.2, -62.18 65.2 M-62.18 65.2 C-62.18 65.2, -62.18 65.2, -62.18 65.2 M-82.08 94.84 C-53.22 63.28, -28.56 30.07, -0.44 3.65 M-82.02 92.59 C-64.03 74.12, -47.02 56.09, -2.7 1.52 M-84.65 103.49 C-51.42 63.34, -14.2 24.89, 4.03 3.59 M-85.57 103.16 C-53.96 67.24, -23.74 32.07, 3.77 2.18 M-83.2 108.19 C-54.61 75.66, -25.46 41.39, 1.52 9.02 M-85.29 108.9 C-63.99 84.7, -42.43 60.88, 1.93 8.13 M-82.79 113.39 C-57.89 83.06, -34.02 55.93, 1.06 16.88 M-81.79 111.15 C-61.19 87.54, -41.39 64.18, 2.22 17.03 M-78.35 113.06 C-47.85 78.97, -15.39 42.89, 2.9 20.91 M-79.49 115.51 C-51.38 82.36, -22.69 48, 1.81 22.55 M-75.04 114.46 C-55.25 94.8, -38.51 75.97, 2.12 27.9 M-75.48 116.03 C-54.68 95.79, -35.63 72.69, -0.24 29.12 M-69.22 115.6 C-46.81 89.71, -23.29 63.68, 0.24 37.39 M-71.02 117.25 C-48.43 93.62, -29.21 70.11, 0.11 36.14 M-65.43 118.31 C-47.62 95.56, -27.46 73.53, -1.76 44.98 M-67.01 117.7 C-48.38 98.39, -29.92 76.68, -1.57 43.72 M-59.44 118.92 C-47.96 104.92, -39.54 89.7, -2.39 49.54 M-61.51 119.13 C-40.78 94.72, -17.47 69.71, -1.68 50.51 M-58.5 121.05 C-38.62 100.63, -23.92 80.9, -0.06 56.98 M-56.53 119.79 C-44.58 105.53, -30.84 91.62, -1.47 55.85 M-53.8 119.37 C-40.28 106.95, -26.07 89.87, -3.36 63.23 M-50.95 120.66 C-41.29 107.93, -29.58 95.25, -1.79 63.32 M-46.64 122.55 C-30.34 102.76, -17.56 85.67, -2.76 69.25 M-47.25 120.96 C-31.17 102.55, -17.28 85.67, -3.38 70.25 M-45.59 121.82 C-28.83 105.61, -10.1 85.56, -4.25 75.29 M-43.1 123.13 C-29.93 108.05, -16.66 91.03, -2.9 76.45 M-38.07 122.4 C-28.57 109.18, -15.71 97.3, -5.65 85.15 M-37.52 122.84 C-28.58 112.53, -19.65 100.65, -5.82 84.96 M-30.69 120.84 C-23.81 114.57, -16.41 103.11, -7.72 92.36 M-33.59 122.76 C-23.88 113.68, -14.92 101.89, -8 92.8 M-24.22 118.65 C-19.66 112.24, -15.75 107.01, -10.48 105.94 M-24.1 118.75 C-20.57 114.93, -16.6 111.45, -12.31 105.22 M-79.95 113.31 C-79.95 113.31, -79.95 113.31, -79.95 113.31 M-79.95 113.31 C-79.95 113.31, -79.95 113.31, -79.95 113.31 M-68.49 116.9 C-75.29 114.6, -78.54 110.9, -85.16 106.64 M-68.93 116.85 C-72.73 113.25, -76.74 111.8, -82.84 105.13 M-63.63 118.48 C-66.81 113.55, -74.4 107.58, -84.58 96.83 M-63.47 118.29 C-71.09 110.06, -78.03 104.74, -86.02 97.87 M-54.28 119.44 C-65.05 109.32, -74.29 99.99, -82.27 95.5 M-55.41 119.19 C-60.72 113.87, -68.28 107.71, -83.1 95.11 M-45.84 122.57 C-59.5 111.68, -68.59 101.51, -80.52 90.65 M-46.93 121.23 C-56.78 112.19, -65.53 104.47, -82.44 89.84 M-42.91 122.42 C-52.4 111.43, -62.16 104.25, -81.19 86 M-41.83 120.98 C-54.35 109.4, -66.66 99.72, -79.16 86.7 M-36.08 119.47 C-49.18 106.78, -64.18 93.42, -77.41 85.07 M-34.83 120.71 C-50.47 107.36, -63.62 95.86, -77.12 84.27 M-30.49 118.63 C-49.58 105.32, -65.92 87.86, -73.36 80.69 M-30.67 119.29 C-41.67 110.21, -53.55 98.76, -75.17 81.2 M-26.3 118.15 C-42.4 106.65, -58.07 90.46, -70.73 78.74 M-25.08 117.62 C-36.73 108.09, -46.61 99.62, -72.13 78.35 M-24.23 114.69 C-34.95 104.83, -42.7 96.51, -69.76 75.11 M-22.77 114.25 C-39.07 102.93, -52.61 88.96, -68.33 74.31 M-18.25 111.51 C-36.31 99.3, -54.51 83.35, -66.96 72.09 M-20.66 112.01 C-30.6 102.26, -42.54 93.39, -67.82 72.29 M-17.61 111.65 C-28.05 101.24, -38.71 91.2, -65.12 69.96 M-16.43 109.72 C-35.4 94.4, -51.54 78.93, -64.86 68.15 M-12.13 106.17 C-27.75 95.54, -42.79 83.38, -62.82 64.05 M-14.24 106.91 C-24.13 97.78, -33.14 89.84, -61.99 66.05 M-13.12 103.15 C-27.39 88.87, -44.37 75.18, -60.42 60.4 M-12.23 103.37 C-23.4 93.85, -35.58 83.45, -58.45 62.53 M-12.18 98.7 C-25.69 88.33, -37.37 76.14, -57.8 60.06 M-11.78 98.56 C-28.5 84.88, -45 70.34, -56.47 59.36 M-9.96 94.61 C-21.68 85.18, -29.07 77.17, -55.38 56.12 M-10.75 93.9 C-26.15 80.91, -41.63 68.23, -54.79 57.06 M-7.62 88.73 C-18.42 80.36, -29.64 70.51, -50.36 55.37 M-9.48 89.5 C-22.26 79.25, -34.45 67.73, -51.34 53.01 M-7.86 83.94 C-18.8 74.51, -29.78 64.07, -48.73 52.64 M-8.3 85.75 C-19.58 75.54, -32.64 65.03, -47.83 50.4 M-8.67 80.47 C-20.93 65.87, -38.06 55.65, -45.74 47.78 M-7.78 80.09 C-15.89 72.44, -24.8 65.16, -44.68 47.58 M-5.3 75.58 C-16.29 65.63, -27.18 57.72, -41.94 43.99 M-7.21 77.16 C-14.23 69.53, -22.8 62.28, -43.54 45.01 M-3.05 73.23 C-12.9 63.02, -23.87 55.66, -39.41 41.54 M-3.87 73.05 C-14.24 65.98, -22.42 58.66, -40.05 41.36 M-3 68.44 C-13.42 61.74, -22.07 53.41, -38 39.34 M-5.29 68.08 C-14.95 60.35, -23.18 51.09, -36.59 39.71 M-5 61.57 C-12.12 54.09, -19.94 49.11, -35.35 37.41 M-4.71 63.61 C-13.43 55.59, -22.44 47.6, -34.78 36.39 M-1.94 58.67 C-7.75 54.86, -14.04 46.8, -31.38 33.73 M-3.88 56.92 C-10.4 52.8, -16.21 48.44, -32.45 32.45 M-3.24 53.83 C-11.73 44.25, -19.07 38.35, -28.28 30.68 M-3 52.02 C-11.74 45.36, -18.53 39.63, -28.19 30.5 M-3.09 46.83 C-13.04 40.17, -20.31 31.97, -26.8 28.66 M-1.54 47.79 C-8.27 43.46, -14.42 36.55, -26.07 26.9 M-0.49 41.51 C-7.46 36.66, -10.87 33.78, -23.19 23.1 M-2.68 42.92 C-8.94 37.6, -16.56 30.55, -23.12 25.23 M0.31 38.71 C-4.93 32.59, -11.43 28.65, -21.5 22.14 M-2.35 39.27 C-7.48 33.31, -13.39 28.3, -20.13 22.47 M-2.24 34.65 C-8.08 29.13, -10.89 24.73, -17.54 16.94 M-1.71 32.78 C-5.35 29.83, -8.98 26.52, -18.13 19.87 M0.71 26.66 C-7.28 22.65, -12 17.72, -15.43 14.77 M0.06 27.68 C-5.95 24.28, -11.8 18.34, -15.34 16.35 M-0.26 22.08 C-4.49 19.4, -6.11 17.78, -11.77 12.97 M0.28 23.69 C-3.18 20.58, -6.69 18.95, -11.94 13.38 M1.02 18.47 C-2.31 17.3, -4.9 14.22, -10.53 9.56 M-0.19 18.34 C-3.26 15.81, -6.38 13.51, -9.92 9.64 M0.42 14.21 C-1.38 12.59, -3.08 10.48, -6.75 7.36 M0.1 13.3 C-2.01 11.12, -3.94 9.97, -6.95 7.54 M0.91 8.05 C-0.41 7.56, -1.8 7.09, -3.49 4.85 M0.67 8.42 C-0.94 7.13, -1.88 6.32, -3.88 4.52 M2.09 4.17 C0.84 3.3, 0.07 2.74, -1.25 1.44 M1.71 4.2 C0.74 3.54, 0.09 2.74, -1.26 1.32" stroke="#228be6" stroke-width="0.5" fill="none"></path><path d="M-1.09 -0.14 C-15.4 16.81, -83.72 83.55, -86.43 102.15 C-89.14 120.75, -31.73 128.37, -17.36 111.46 C-2.99 94.56, -3.35 19.12, -0.21 0.72 M0.54 -1.26 C-13.78 15.33, -83.73 81.58, -86.8 100.49 C-89.87 119.4, -32.33 129.19, -17.9 112.2 C-3.48 95.21, -3.32 17.5, -0.24 -1.47" stroke="#000000" stroke-width="1" fill="none"></path></g></g><g stroke-linecap="round"><g transform="translate(137.5748146913411 438.72356694504924) rotate(5.46198298990807 2.6492080953174764 110.73148027864903)" fill-rule="evenodd"><path d="M-49.01 15.69 C-49.01 15.69, -49.01 15.69, -49.01 15.69 M-49.01 15.69 C-49.01 15.69, -49.01 15.69, -49.01 15.69 M-51.03 25.19 C-50.54 21.01, -47.21 20.41, -39.44 11.49 M-51.22 25.64 C-49.18 21.43, -46.56 19, -40.05 11.73 M-54.42 32.51 C-44.7 23.08, -37.97 12.78, -31.4 6.97 M-53.48 32.64 C-46.65 24, -39.94 16.86, -30.3 7.52 M-52.88 37.54 C-41.5 24.25, -30.91 12.54, -25.47 5.55 M-53.32 37.94 C-47.63 31.69, -41.61 25.48, -25.53 6.26 M-50.59 44.7 C-41.87 31.96, -32.91 19.67, -18.04 2.39 M-51.9 43.6 C-44.36 34.98, -36.56 25.49, -17.76 4.02 M-50.75 48.18 C-40.74 38.11, -30.85 24.16, -10.74 1.96 M-50.83 47.58 C-35.95 31.46, -20.57 13.84, -12.09 2.9 M-52.36 53.95 C-38.77 39.54, -24.24 23.77, -4.73 3.51 M-51.48 54.34 C-34.93 35.69, -17.23 14.34, -5.62 2.94 M-51.37 59.74 C-30.84 37.42, -8.98 15.26, 0.29 0.31 M-50.62 59.28 C-38.24 45.06, -24.34 30.12, 1.04 -0.08 M-49.56 65.08 C-32.19 46.08, -16.37 29.37, 5.82 0.43 M-47.79 63.34 C-28.11 41.5, -10.36 19.67, 7.05 0.65 M-48.86 69.3 C-35.26 51.75, -20.67 34.78, 13.39 2.71 M-48.16 69.41 C-34.69 55.4, -23.44 41.59, 11.64 1.37 M-45.8 73.48 C-33.62 60.78, -20.88 46.29, 17.06 1.27 M-45.41 72.88 C-22.47 46.6, -1.55 21.42, 16.11 0.82 M-47.06 80.49 C-27.98 61.63, -12.75 45.09, 20.34 0.26 M-45.87 78.12 C-28.35 59.4, -13.15 40.86, 22.28 1.48 M-45.24 82.48 C-28.97 66.44, -13.86 45.89, 27.23 2.86 M-42.71 82.47 C-16.75 51.21, 10.3 22.05, 26.96 1.07 M-42.39 88.89 C-20.02 62.47, 3.6 33.71, 32.52 1.04 M-42.03 86.78 C-19.34 60.02, 5.36 32.17, 31.85 2.77 M-42.51 90.18 C-13.27 59.96, 10.29 32.24, 34.8 2.31 M-41.81 91.62 C-12.94 60.03, 15.82 26.21, 35.97 4.53 M-41.73 96.86 C-18.39 68.54, 7.03 43.26, 41.45 4.92 M-40.63 96.8 C-9.53 63.25, 20.56 27.78, 40.17 4.75 M-40.1 102.45 C-7.95 63.94, 20.4 31.66, 44.35 6.21 M-37.91 100.85 C-18.15 75.53, 2.1 53.12, 44.36 7.08 M-35.81 106.51 C-18.33 84.24, -1.48 65.8, 46.82 7.5 M-36.72 106.55 C-9.71 74.16, 18.5 41.06, 47.93 7.92 M-36.98 109.63 C-4.19 74.89, 26.24 39.41, 49.34 8.68 M-35.95 110.41 C-7.72 78.58, 20.28 45.49, 51 9.38 M-35.2 115.68 C-8.92 81.68, 21.26 50.01, 52.51 12.64 M-34.48 113.42 C-11.14 86.6, 11.64 59.31, 54.82 12.32 M-31.96 117.81 C3.02 82.68, 33.13 44.31, 55.4 15.57 M-31.98 117.57 C-9.17 89.52, 16.13 62.47, 55.67 17.06 M-28.93 120.97 C-5.36 93.84, 20.4 68.53, 57.21 20.93 M-31.8 122.81 C-7.77 97.61, 14.96 71.69, 58.03 19.95 M-30.34 127.87 C-4.17 98.54, 21.09 69.14, 58.97 25.99 M-29.76 127.59 C0.64 93.58, 28.94 59.89, 59.72 26.28 M-27.92 132.49 C-9.09 108.43, 10.33 87.98, 57.79 31 M-27.68 130.84 C1.46 97.68, 28.95 64.77, 59.72 30.08 M-27.28 134.13 C-4.59 113.09, 17.75 88.37, 60.62 34.27 M-26.18 134.47 C3.01 101.72, 33.59 67.31, 61.37 35.63 M-26.22 139.85 C-4.39 117.27, 18.46 90.62, 61.89 42.16 M-25.52 140.4 C0.69 110.93, 24.79 81.94, 61.55 41.95 M-21.08 142.47 C11.11 107, 39.97 69.31, 60.46 47.77 M-22.49 145 C1.86 116.08, 26.9 85.94, 63.13 46.02 M-19.73 150.13 C8.34 115.6, 39.71 80.95, 64.01 51.01 M-21.83 149.14 C10.62 114.11, 40.23 78.42, 64.81 49.32 M-19.89 152.22 C1.34 130.89, 24.4 105.9, 64.08 56.08 M-19.09 152.67 C12.26 117.06, 43.27 80.55, 63.74 55.82 M-18.83 157.19 C6.21 132.63, 26.19 104.22, 62.26 63.69 M-18.83 156.68 C3.57 130.49, 26.16 106.15, 63.13 62.72 M-15 162.25 C5.8 138.01, 27.12 114.06, 64.63 69.82 M-16.74 161.74 C10.12 132.28, 35.52 101.11, 64.25 67.69 M-14.41 167.39 C5.58 144.92, 24.73 119.63, 64.77 74.76 M-14.51 166.41 C15.45 131.28, 44.72 97.65, 64.9 74.41 M-11.58 168.89 C2.38 150.59, 22.02 130.27, 62.69 79.58 M-13.31 169.23 C8.61 145.14, 30.15 120.03, 63.89 81.51 M-11.24 172.57 C8.97 147.4, 30.1 125.73, 65.23 86.1 M-11.97 172.47 C16.56 140.39, 43.89 108.85, 62.88 87.13 M-8.61 178.51 C16.45 143.81, 47.92 113.54, 61.04 93.96 M-9.77 177.4 C15.66 149.55, 38.92 122.3, 62.86 94.4 M-6.49 181.58 C8.95 161.26, 27.48 140.69, 62.18 102.55 M-8.01 181.25 C19.08 151.18, 46.28 121.45, 63.34 99.91 M-6.87 187.45 C7.51 167.32, 21.35 150.25, 62.6 109.31 M-6.13 185.76 C17.89 157.39, 43.6 127.98, 62.22 108.51 M-3.25 188.79 C11.49 172.42, 24.36 155.96, 62.3 112.7 M-4.54 189.89 C10.31 173.46, 26.72 155.1, 61.52 114.76 M-1.68 194.32 C22.16 165.34, 47.22 139.21, 58.52 126.25 M-2.17 193.33 C12.26 178.58, 25.66 162.01, 58.03 123.49 M-1.08 197.03 C16.97 177.76, 37.21 155.61, 55.17 130.95 M0.76 197.26 C22.09 172.23, 42.41 147.36, 56.26 132.7 M3.14 202.22 C15.62 186.06, 29.22 170.6, 54.03 138.36 M0.56 200.86 C21.84 180.12, 40 157.41, 55.15 139.19 M1.98 203.92 C17.97 190.63, 28.02 177.66, 52.37 148.08 M2.52 206.26 C15.04 190.44, 27.02 177.15, 53.18 146.47 M5.94 208.24 C20.08 191.97, 34.7 174.94, 52.56 153.74 M5.45 208.36 C21.35 191.62, 37.6 173.17, 53.45 155.27 M6.01 212.55 C26.66 194.1, 43.36 171.88, 55.75 157.46 M8.22 212.53 C16.74 201.77, 26.91 189.99, 54.89 158.55 M9.26 217.25 C26.13 199.45, 40.52 180.29, 52.38 169.23 M8.81 216.85 C23.45 199.72, 38.16 183.29, 52.31 167.34 M13.94 219.26 C21.46 209.42, 31.53 197.5, 45.57 180.53 M12.94 218.18 C19.84 210.96, 26.47 201.89, 45.2 182.83 M17.75 219.57 C23 216.1, 28.06 211.78, 39.47 192.29 M15.81 220.08 C23.86 212.38, 31.95 202.32, 39.64 192.9 M22.17 218.74 C25.12 215.38, 29.58 208.21, 33.24 207.49 M21.98 220.83 C24.82 217.5, 28.82 213.89, 33.76 205.28 M9.28 216.44 C9.28 216.44, 9.28 216.44, 9.28 216.44 M9.28 216.44 C9.28 216.44, 9.28 216.44, 9.28 216.44 M18.65 217.98 C14.72 216.42, 8.7 210.36, 2.81 204.84 M18.94 218.09 C12.49 213.72, 5.69 207.26, 1.71 204.94 M22.51 218.12 C18.03 213.27, 7.69 204.59, -1.92 194.68 M24.89 218.58 C14.94 210.95, 6.72 202.05, -2.33 196.44 M26.64 214.33 C19.93 210.55, 12.18 202.46, -6.67 188.05 M27.48 216.5 C15.77 207.31, 6.63 198.36, -6.17 187.81 M29.07 212.68 C18.96 205.74, 7.69 194.86, -11.95 178.05 M30.05 213.25 C16.43 201.77, 0.63 189.09, -9.62 178.78 M33.53 208.39 C15.93 194.4, -0.49 181.64, -15.55 169.13 M32.16 209.58 C17.5 196.42, 1.48 182.5, -13.7 169.18 M35.75 208.66 C24.61 198.01, 9.92 188.6, -16.04 159.46 M35.42 206.91 C19.79 193.64, 4.29 181.19, -18.68 161.72 M38.13 202.41 C19.59 189.76, 4.2 174.05, -14.76 156.49 M37.68 203.6 C23.43 192.36, 12.04 181.25, -16.52 158.13 M38.83 198.57 C21.62 185.69, 6.33 169, -18.89 150.26 M39.56 199.72 C15.29 180.23, -7.88 160.74, -18.54 148.89 M39.71 196.47 C23.2 182, 6.21 167.26, -21.84 143.29 M39.95 195.92 C24.31 182.82, 9.36 167.71, -22.16 141.72 M41.34 190.78 C25.86 178.1, 11.44 164.04, -23.8 134.55 M42.51 190.94 C23.94 175.38, 6.08 161.33, -24.1 133.94 M45.04 187.18 C18.38 164.93, -5.05 143.59, -29.26 127.01 M43.17 187.7 C15.38 164.06, -12.39 138.51, -28.29 126.6 M43.31 183.43 C17.59 158.51, -14.09 133.87, -28.46 116.69 M46.09 184.9 C24.61 164.57, 2.68 146.07, -29.9 118 M45.14 180.3 C18.38 154.47, -10.97 131.97, -31.47 112.31 M46.49 180.48 C31.23 166.72, 13.9 151.85, -31.85 111.84 M48.5 175.92 C18.93 147.91, -12.82 124.62, -36.12 101.65 M46.59 176.4 C15.35 147.01, -19.67 117.78, -37.29 102.08 M49.8 173.43 C24.23 150.18, 1.74 129.59, -39.23 93.08 M48.61 170.88 C29.18 155.53, 10.45 137.77, -39.31 94.99 M48.69 168.05 C15.47 138.39, -17.94 108.97, -41.45 86.79 M51.06 167.9 C20.81 141.24, -7.49 115.86, -42.29 86.82 M51.53 164.01 C18.77 132.66, -15.72 101.38, -45.72 80.95 M51.69 162.65 C16.97 134.3, -16.6 103.21, -44.83 80.58 M51.4 156.89 C28.45 138.11, 0.93 115.86, -45.47 73.41 M53.05 158.37 C17.3 127.16, -18.77 96.66, -44.51 74.08 M55.85 155.3 C31.46 132.35, 5.14 114.17, -48.44 68.77 M53.67 154.57 C22.16 127.52, -7.78 101.97, -46.13 67.62 M53.15 149.26 C27.07 123.6, -5.24 96.47, -49.15 59.29 M53.86 149.81 C31.36 130.28, 10.93 110.75, -48.76 59.39 M54.3 145.76 C32.77 125.52, 10.16 104.71, -50.64 53.29 M55.2 145.87 C19.92 113.44, -15.9 82.98, -51.93 52.29 M55.48 141.85 C16.52 106.91, -19.83 74.67, -52.97 44.05 M56.55 141.3 C24.39 110.72, -9.32 81.22, -52.64 45.42 M55.38 135.62 C14.38 100.34, -29.54 63.69, -52.75 37.63 M56.74 134.86 C26.48 110.05, -3.87 83.94, -53.4 40.35 M56.4 133.18 C14.47 93.83, -27.08 54.43, -55.13 33.74 M57.41 131.03 C28 105.52, -3.33 79.72, -54.69 34.51 M58.39 125.01 C26.59 100.14, -4.59 72.22, -53.76 28.12 M58.19 126.91 C21.12 93.74, -17.48 60.51, -53.48 30.06 M59.69 120.26 C24.71 90.24, -9.31 64.15, -55.62 22.29 M59.25 122.93 C23.47 92.12, -11.63 62.03, -54.49 24.12 M58.09 118.51 C33.87 92.07, 4.95 71.63, -51.4 21.66 M59.74 117.16 C23.36 84.49, -14.12 54.02, -51.13 19.46 M59.11 111.3 C30.29 86.93, -2.62 59.41, -48.65 18.12 M59.61 111.35 C38.32 92.25, 15.31 73.76, -49.1 17.46 M60.76 109.23 C33.08 80.12, 1.97 57.06, -47.39 11.57 M61.81 108.5 C18.58 71.17, -25.32 33.93, -46.55 14.28 M62.21 100.95 C26.47 73.31, -8.67 42.18, -45.46 10.21 M62.55 102.36 C30.84 76.11, -1.9 47.95, -43.86 11.54 M63.41 98.12 C23.39 64.92, -10.88 34.1, -38.96 9.03 M62.33 98.91 C32.93 72.76, 3.58 47.31, -40.68 9.37 M60.99 93.76 C37.59 70.99, 12.31 48.38, -36.53 8.63 M61.38 93.17 C29.8 64.59, -2.65 36.44, -36.6 7.72 M64.07 87.93 C30.71 61.81, -2.84 30.13, -31.09 6.4 M62.97 87.43 C34.07 63.21, 6.7 40.27, -31.48 6.01 M61.23 84.72 C35.93 60.11, 10.18 36.58, -25.34 4.01 M63.88 82.69 C29.36 51.32, -5.69 22.71, -27.39 5.16 M63.52 77.26 C38.69 56.32, 17.2 36.69, -22.76 3.22 M62.9 78.2 C34.71 53.53, 7.4 28.08, -22.15 3.88 M62.7 72.05 C37.78 52.63, 14.43 31.63, -17.61 1.46 M62.6 72.27 C34.85 48.96, 5.84 24.72, -17.81 2.76 M65.27 68.57 C43.67 50.41, 25.25 37.86, -12.7 0.19 M62.81 66.44 C43.94 50.09, 24.07 34.26, -12.9 1.1 M62.18 59.73 C49.7 49.13, 33.76 36.83, -7.58 2.57 M63.86 62.34 C44.17 46.31, 25.58 29.1, -7.18 1.13 M61.85 58.1 C43.04 36.89, 19.86 17.92, -2.63 -0.19 M63.12 56.46 C42.8 40.55, 23.09 23.55, -2.17 0.83 M63.94 52.29 C42.37 36.93, 26.4 19.66, 3.01 -1.18 M64.21 51.07 C40.76 32.65, 17.25 12.81, 2.4 -1.94 M63.79 45.31 C45.13 31.73, 31.32 17.87, 6.96 -0.87 M63 44.99 C46.17 31.36, 31.51 18.01, 7.58 -1.98 M64 39.45 C47.09 27.68, 28.56 11.34, 13.73 -1.28 M62.67 39.08 C50.26 27.79, 37.51 18.16, 14.9 -2.42 M61.85 34.79 C49.07 22.41, 39.9 13.13, 20.36 0.27 M60.63 33.15 C52.9 25.63, 45.83 19.73, 21.42 -2.03 M59.13 28.03 C52.31 19.03, 41.56 12.23, 30.59 -0.59 M59.82 27.36 C51.89 20.26, 41.1 11.44, 29.48 1.61 M59.07 20.3 C55.31 17.62, 50.48 14.18, 39.11 3.89 M59.19 22.49 C55.63 17.97, 51.41 14.31, 38.41 3.74" stroke="#fab005" stroke-width="0.5" fill="none"></path><path d="M-0.62 -0.71 C-9.83 5.05, -57.7 -0.96, -56.03 35.23 C-54.36 71.41, -8.62 196.13, 9.38 216.42 C27.38 236.72, 43.79 189.87, 51.98 157.01 C60.18 124.15, 67.19 45.39, 58.55 19.25 C49.91 -6.89, 10.06 3.6, 0.15 0.17 M1.25 1.53 C-8.09 7.42, -58.41 0.6, -57.19 36.62 C-55.97 72.64, -9.62 197.92, 8.58 217.66 C26.79 237.39, 43.84 188.07, 52.02 155.04 C60.2 122, 66.06 45.33, 57.65 19.43 C49.24 -6.47, 11.32 2.77, 1.56 -0.36" stroke="#000000" stroke-width="1" fill="none"></path></g></g><g stroke-linecap="round"><g transform="translate(147.27783523935966 436.85596290359797) rotate(0 -3.350656702729111 84.5116113521338)" fill-rule="evenodd"><path d="M-44.34 17.11 C-44.34 17.11, -44.34 17.11, -44.34 17.11 M-44.34 17.11 C-44.34 17.11, -44.34 17.11, -44.34 17.11 M-46.74 26.38 C-43.23 21.92, -39.98 20.74, -35.65 14.15 M-47.99 27.23 C-43.44 22.73, -40.59 19.72, -36.39 14.5 M-48.99 35.67 C-41.46 27.57, -37.36 22.77, -29.2 11.59 M-50 35.35 C-45.83 29.38, -40.99 25.01, -27.73 11.65 M-47.67 39.12 C-37.54 28.1, -30.27 15.86, -20.03 9.5 M-48.92 39.67 C-42.48 31.28, -34.73 23.27, -20.41 8.42 M-48.13 45.93 C-39.71 34.61, -31.41 27.38, -14 4.68 M-47.23 45.79 C-38.8 34.65, -28.51 22.86, -14.42 5.8 M-47.11 51.29 C-36.93 41.26, -27.64 30.74, -4.65 4.6 M-46.54 49.91 C-37.65 40.47, -27.41 28.47, -5.71 4.56 M-45.5 54.48 C-31.79 37.44, -14.71 22.47, 2.04 1.06 M-47.03 55.47 C-35.3 42.02, -22.13 27.42, 2.3 1.52 M-44.09 61.75 C-26.77 39.99, -6.77 18.82, 6.53 3.14 M-45.79 60.63 C-32.07 46.07, -19.38 32.5, 7.27 0.95 M-45.17 64.66 C-27.81 47.04, -14.82 30.42, 10.04 1.9 M-44.82 65.03 C-27.93 47.57, -10.17 27.57, 11.58 1.86 M-42.26 69.32 C-22.33 45.09, 0.53 20.42, 16.96 1.22 M-43.31 69.56 C-25.72 51.29, -7.99 31.89, 16.39 3.24 M-40.37 73.09 C-27.23 59.86, -12.14 43.42, 19.13 4.75 M-42.41 75.59 C-28.63 60.71, -16.13 43.8, 21.31 3.55 M-40.41 80.37 C-13.71 51.54, 8.38 24.94, 26.86 5.43 M-40.12 79.23 C-17.78 52.99, 4.33 26.69, 25.02 2.78 M-37.47 85.61 C-10.62 51.51, 13.02 22.89, 29.31 4.98 M-38.05 84.81 C-12.54 55.98, 11.86 26.22, 29.04 6.37 M-36.53 88.26 C-9.93 56.36, 17.69 27.69, 33.38 6.38 M-37.66 88.4 C-11.65 60.25, 12.31 30.49, 34.21 6.23 M-34.71 91.83 C-9.71 59.96, 18.65 28.9, 36.78 9.67 M-37.05 93.31 C-15.13 68.61, 6.89 43.99, 37.23 7.05 M-33.08 98.83 C-20.57 78.21, -3.17 59.34, 41.09 10.66 M-35.14 97.58 C-16.39 76.02, 1.44 54.59, 41.19 9.47 M-34.82 101.84 C-4.45 67.82, 26.02 32.73, 45.93 14.19 M-32.48 101.49 C-10.4 75.15, 13.65 47.89, 43.3 13.88 M-33.04 106.44 C-10.53 80.08, 12.38 54.58, 46.15 17.9 M-31.5 107.04 C-7.71 77.75, 18.03 49.12, 45.52 18.66 M-28.35 109.5 C-7.2 87.58, 14.22 61.21, 45.32 21.67 M-30.53 110.72 C-7.18 85.26, 15.02 59.23, 45.59 24.14 M-27.24 113.18 C-4.58 85.97, 18.12 62.61, 47.49 28.43 M-28.78 114.03 C-8.37 90.9, 11.43 69.12, 46.28 27.92 M-27.71 118.66 C1.35 86.42, 28.5 56.17, 44.25 33.68 M-26.41 117.66 C-1.62 92.18, 21.07 64.1, 45.93 34.82 M-24.3 123.16 C0.52 94.51, 23.19 67.09, 46.23 44.63 M-24.09 123.06 C-3.25 95.44, 19.94 70.51, 45.49 42.65 M-25.1 124.93 C-2.02 104.04, 18.73 75.53, 43.58 48.82 M-22.46 125.92 C-6.39 107.63, 9.94 89.18, 44.46 49.18 M-20.71 132.24 C0.51 104.2, 21.94 80.64, 42.92 56.81 M-21.64 131.65 C0.02 107.64, 20.45 82.88, 43.35 57.45 M-21.26 136.4 C-2.83 116.12, 13 95.83, 41.66 63.94 M-20.74 134.91 C-5.21 117.89, 9.76 100.55, 41.54 65.98 M-17.43 140.75 C7.3 111.73, 27.17 85.62, 42.99 70.82 M-17.36 139.07 C-2.31 121.79, 12.73 102.77, 41.7 69.73 M-17.42 141.67 C-5.3 129.51, 8.1 115.24, 40.32 80.38 M-17.08 143.75 C2.12 121.86, 21.25 100.86, 39.8 79.71 M-15.95 149.56 C2.23 128.63, 16.09 111.99, 38.11 87.05 M-14.96 148.32 C1.54 129.33, 18 110.84, 37.37 88.63 M-11.3 149.85 C-1.55 138.47, 11.72 122.92, 35.64 98.03 M-13.05 151.34 C-0.57 135.58, 12.34 122.23, 34.83 96.67 M-10.91 156.77 C-2.75 145.19, 9.62 131.01, 32.67 107.81 M-12.55 156.91 C-0.19 143.9, 8.87 132.17, 32.63 106.52 M-9.13 158.54 C2.17 147.55, 14.81 131.73, 31.09 116.19 M-9.99 160.31 C6.2 141.21, 21.01 123.58, 30.39 113.84 M-6.14 165.21 C1.42 152.41, 10.58 144.14, 28.61 122.73 M-6.69 164.35 C5.77 149.57, 16.52 134.89, 26.09 124.29 M-4.32 168.33 C2.69 157.8, 10.15 150.64, 21.75 135.76 M-5.64 167.54 C0.9 160.64, 7.22 154.44, 22.58 135.01 M-1.94 170.75 C7.15 162.13, 12.98 153.88, 17.43 148.16 M-1.65 168.4 C4.82 161.39, 12.82 151.65, 18.65 146.85" stroke="#fd7e14" stroke-width="0.5" fill="none"></path><path d="M-1.19 -0.67 C-9.68 4.87, -49.83 4.9, -50.97 32.71 C-52.11 60.52, -20.61 151.35, -8.03 166.2 C4.55 181.06, 15.83 146.36, 24.51 121.84 C33.19 97.31, 48.32 39.32, 44.04 19.05 C39.77 -1.23, 6.31 3.2, -1.14 0.19 M0.38 1.59 C-8.18 7.33, -50.45 6.81, -51.47 33.96 C-52.49 61.11, -18.42 149.71, -5.74 164.46 C6.93 179.22, 16.56 147.15, 24.59 122.47 C32.62 97.79, 46.61 36.93, 42.46 16.39 C38.31 -4.14, 6.8 1.96, -0.33 -0.75" stroke="#000000" stroke-width="1" fill="none"></path></g></g><g stroke-linecap="round"><g transform="translate(125.31330284158798 443.52156212961813) rotate(0 19.122970290074647 45.14175734929165)" fill-rule="evenodd"><path d="M0 0 C0 0, 0 0, 0 0 M0 0 C0 0, 0 0, 0 0 M-1.4 7.83 C0.85 6.25, 2.51 3.8, 4.66 -1.45 M-1.74 8.24 C0.11 5.72, 2.2 3.78, 5.42 -0.81 M-0.73 13.18 C1.63 9.11, 8.43 3.62, 11.74 -2.21 M-3.19 15.1 C3.28 9.21, 8.21 2.54, 10.82 -1.02 M-2.39 24.71 C4.05 16.13, 9.55 8.43, 18.8 0.59 M-3.85 22.88 C4.79 13.55, 12.56 5.21, 17 -1.61 M-5.29 29.48 C2.66 24.13, 8.72 17.3, 24.24 -1.54 M-5.02 30.98 C1.9 21.76, 10.24 12.59, 22.72 -1.7 M-7.66 37.4 C6.84 25.56, 17.15 9.94, 29.71 -2.88 M-8.02 38.99 C4.37 25.37, 17.38 11.54, 28.01 -2.57 M-4.63 42.37 C4.32 29.72, 17.72 17.11, 31.71 -0.98 M-6.52 42.74 C3.05 33.58, 11.1 23.37, 31.74 0 M-6.45 49.88 C10.06 32.62, 24.22 16.65, 34.45 1.66 M-7.23 50.32 C3.93 38.06, 15.69 26.45, 36.05 2.41 M-6.96 55.69 C10.26 34.99, 27.49 16.16, 40.31 4.3 M-6.97 55.28 C11.04 34.7, 29.5 15.01, 40.32 2.58 M-3.87 59.05 C10.95 41.04, 30.08 21.82, 40.89 5.04 M-3.32 60.4 C8.61 44.6, 21.73 30.48, 41.64 7.43 M-4.37 64.53 C10.11 51.45, 19.89 39.42, 45.13 11.18 M-2.84 63.97 C9.4 51.92, 20.32 38.41, 42.56 11.83 M-2.89 67.24 C14.32 47.58, 31.8 29.8, 45.18 14.87 M-1.23 67.5 C12.94 51.78, 27.92 33.21, 44.33 16.65 M0.63 71.28 C16.91 55.51, 34 33.78, 43.96 20.74 M1.79 72.72 C15.78 56.26, 29.41 40.82, 46.05 20.98 M4.36 74.06 C15.49 58.26, 31.39 44.59, 48.87 24.48 M3.68 76.37 C13.98 63.02, 25.1 48.98, 47.82 25.17 M5.63 77.52 C13.75 65.9, 24.61 57.86, 47.49 29.57 M5.63 79.92 C15.47 67.32, 25.07 55.13, 45.99 32.05 M5.9 82.87 C17.1 73.34, 26.33 59.06, 46.46 39.25 M6.97 82.79 C20.06 68.16, 34.04 51.7, 47.51 37.41 M9.75 83.6 C24.19 70.44, 39.93 55.59, 48.58 44.29 M11.72 85.94 C21.5 72.15, 31.02 60.14, 46.53 44.29 M13.25 89.51 C22.92 78.96, 32.75 66.24, 45.84 50.26 M12.44 88.27 C25.44 74.76, 38.13 60.85, 44.94 50.73 M15.59 90.39 C22.19 80.79, 30.06 73.37, 40.98 59.01 M15.33 90.93 C22.84 83.56, 28.68 75.42, 43.44 61.74 M18.75 92.83 C26.59 82.2, 37.66 76.72, 39.86 68.64 M21.45 92.55 C28.59 84.54, 34.86 75.36, 39.37 69.8 M24.56 95.47 C29.49 88.9, 32.23 81.82, 37.15 80.06 M25.25 93.01 C28.34 90.2, 32.88 84.78, 37.95 79.89" stroke="#fa5252" stroke-width="0.5" fill="none"></path><path d="M1.05 0.96 C0.02 10.17, -9.81 40.8, -5.93 56.24 C-2.05 71.68, 15.95 94.54, 24.31 93.61 C32.67 92.67, 42.09 65.87, 44.24 50.64 C46.38 35.41, 44.54 10.67, 37.17 2.25 C29.81 -6.18, 6.18 0.59, 0.04 0.07 M0.14 0.42 C-0.98 9.68, -10.27 41.59, -6.36 57.32 C-2.45 73.04, 15.18 95.77, 23.59 94.77 C31.99 93.76, 41.48 67.17, 44.08 51.29 C46.68 35.42, 46.31 8.24, 39.2 -0.46 C32.1 -9.17, 7.82 -1.18, 1.48 -0.93" stroke="#000000" stroke-width="1" fill="none"></path></g></g><g stroke-linecap="round" transform="translate(108.15620705104016 193.4226460978617) rotate(0 33.79420350068938 31.380318667518367)"><path d="M7.94 10.88 C7.94 10.88, 7.94 10.88, 7.94 10.88 M7.94 10.88 C7.94 10.88, 7.94 10.88, 7.94 10.88 M0.15 25.19 C5.95 17.54, 12.57 13.01, 20.94 2.66 M1.13 23.85 C6.67 18.64, 11.33 11.11, 19.09 4.26 M0.07 29.99 C10.48 21.42, 18.94 8.91, 26.65 2.06 M1.05 30.86 C7.09 23.06, 13.13 16.15, 26.78 1.49 M0.74 34 C10.05 26.72, 17.21 17.46, 33.36 3.47 M3.53 34.57 C11.91 24.36, 21.62 13.93, 32.39 2.43 M4.69 39.56 C16.3 28.27, 26.42 11.27, 38.07 1.75 M4.42 41.14 C17.22 25.73, 28.84 11.09, 36.68 2.06 M6.21 44.54 C16.31 35.23, 25.46 23.93, 40.64 4.81 M4.9 45.43 C14.28 35.52, 23.35 24.18, 40.31 4.1 M5.74 48.1 C14.47 38.97, 22.8 28.07, 48.04 4.57 M7.3 49.29 C19.17 35.14, 30.09 20.48, 45.56 2.51 M8.15 52.41 C22.6 39.19, 30.62 25.09, 48.78 7.77 M8.97 51.79 C23.76 34.7, 39.53 17.52, 50.34 6.76 M11.85 53.95 C21.46 43.01, 32.71 30.66, 52.41 6.65 M12.84 55.03 C27.6 36.87, 43.38 18.63, 53.14 9.02 M15.01 56.72 C28.91 42.25, 39.97 29.26, 55.32 10.47 M15.12 57.81 C26.28 44.3, 36.89 32.19, 56.34 10.19 M17.28 58.74 C30.47 42.33, 48.01 27.05, 58.38 15.55 M18.58 60.67 C31.12 43.16, 45.46 26.86, 59.31 14.43 M22.76 61.08 C37.18 41.89, 53 24.08, 61.92 18.23 M20.96 63.38 C30.96 52.01, 40.45 41.93, 60.97 16.62 M25.01 62.55 C36.89 48.31, 51.96 33.84, 63.43 21.39 M25.52 62.18 C36.88 50.53, 46.99 39.73, 62.92 21.4 M32.11 63.55 C42.8 47.72, 56.03 33.44, 64.48 22.93 M31.59 64.1 C43.09 49.53, 57.02 34.76, 63.91 24.1 M35.58 64.23 C42.14 55.1, 48.89 49.71, 65.81 29.28 M36.98 63.6 C43.35 54.71, 52.07 44.85, 66.39 28.81 M44.05 63.02 C52.34 51.36, 60.74 42.99, 67.63 30.91 M41.17 63.64 C50.22 52.55, 59.74 42.4, 68.33 32.35 M53.58 57.86 C59.28 49.19, 66.19 41.77, 69.28 34.55 M53.1 57.39 C58.15 50.47, 64.06 43.33, 70.37 37.03 M3.75 47.51 C3.75 47.51, 3.75 47.51, 3.75 47.51 M3.75 47.51 C3.75 47.51, 3.75 47.51, 3.75 47.51 M20.72 59.28 C16.26 51.93, 11.32 48.1, 2.3 41.48 M21.83 59.07 C14.59 52.62, 9 47.29, 2.99 40.64 M29.62 57.66 C19.19 50.78, 11.15 42.12, -1.1 33.4 M29.43 59.27 C20.83 51.13, 13.28 44.93, 0.64 33.84 M34.83 59.29 C25.5 49.65, 19.21 43.14, -0.43 29.71 M34.05 58.34 C24.21 50.28, 15.58 40.96, -0.66 28.8 M43.67 59.86 C26.96 46.84, 13.74 36.78, 1.07 26.71 M42.6 60.22 C32.97 50.92, 23.43 41.77, 1.39 24.92 M46.14 59.18 C36.6 46.31, 21.68 36.82, 4.87 20.47 M47.76 58.66 C33.14 47.36, 19.17 34.31, 2.35 21.53 M48.97 55.32 C33.56 42.7, 18.35 27.52, 4.44 15.01 M49.47 55.88 C38.31 45.68, 26.93 34.6, 5.83 16.65 M52.13 52.38 C36.12 39.01, 16.02 22.54, 5.45 13.42 M52.98 54.86 C43.74 45.37, 34.06 36.77, 7.17 12.54 M58.06 51.54 C42.3 37.92, 25.73 25.08, 7.79 9.49 M57.51 52.8 C45.05 41.44, 32.88 31.56, 9.01 9.87 M60.39 49.99 C44.14 33.23, 25 17.01, 13.33 5.33 M60.55 50.69 C46.12 36.66, 32.3 24.03, 12.49 7.85 M61.97 44.64 C49.82 34.1, 36.11 24.12, 17.15 5.13 M63.37 45.4 C48.86 32.35, 33.4 19.01, 16.01 6.47 M63.39 42.41 C54.36 34.44, 41.53 22.38, 20.04 1.45 M65 42.49 C54.33 31.92, 41.75 21.83, 19.23 3.28 M65.46 37.25 C51.56 25.41, 39.94 15.86, 22.53 -1.15 M66.24 37.8 C51.45 24.27, 35.08 10.33, 22.6 1.53 M68.69 35.12 C52.59 21.98, 40.26 10.25, 24.84 0.26 M68.65 34.88 C51.86 20.49, 36.15 6.86, 26.8 -0.93 M71.83 31.07 C63.22 23.68, 53.59 17.6, 34.46 -0.07 M70.56 30.53 C60.72 23.23, 51.65 13.92, 33.85 -0.25 M65.29 24.86 C59.59 17.36, 53.85 9.34, 41.8 -1.42 M68.02 23.02 C58.02 16.95, 49.73 9.43, 40.18 1.09" stroke="#ced4da" stroke-width="0.5" fill="none"></path><path d="M25.24 0.29 C31.3 -1.32, 40.23 0.54, 46.32 3.15 C52.4 5.76, 58.13 10.91, 61.76 15.96 C65.39 21, 68.39 27.46, 68.1 33.4 C67.81 39.33, 64.43 46.76, 60.02 51.56 C55.62 56.37, 48.36 60.66, 41.66 62.2 C34.96 63.75, 26.12 63.25, 19.83 60.83 C13.55 58.41, 7.34 52.99, 3.95 47.68 C0.56 42.37, -1.22 35.17, -0.51 28.98 C0.2 22.8, 3.47 15.36, 8.19 10.59 C12.92 5.81, 24.32 1.91, 27.84 0.34 C31.36 -1.23, 29.08 0.53, 29.32 1.16 M48.38 2.07 C54.41 4.24, 60.68 10.99, 63.64 16.56 C66.61 22.13, 66.99 29.46, 66.17 35.5 C65.36 41.54, 63.42 48.34, 58.76 52.79 C54.1 57.24, 44.62 60.89, 38.2 62.21 C31.79 63.53, 26.1 63.16, 20.26 60.7 C14.41 58.24, 6.55 53.02, 3.14 47.45 C-0.27 41.87, -1.5 33.61, -0.2 27.23 C1.11 20.84, 6.46 13.42, 10.98 9.16 C15.49 4.91, 20.58 2.93, 26.91 1.71 C33.24 0.49, 45.23 1.71, 48.96 1.86 C52.7 2, 49.56 2.05, 49.31 2.57" stroke="#000000" stroke-width="1" fill="none"></path></g><g stroke-linecap="round" transform="translate(94.45455551228508 147.6605590002625) rotate(0 4.324077849466221 4.804536374325892)"><path d="M1.71 0.16 C1.71 0.16, 1.71 0.16, 1.71 0.16 M1.71 0.16 C1.71 0.16, 1.71 0.16, 1.71 0.16 M0.06 7.55 C2.51 5.32, 2.66 4.44, 7.15 1.41 M0.5 7.04 C2.67 5.34, 4.43 3.23, 6.48 0.39 M3.32 10.2 C5.75 7.95, 6.02 6.6, 8.94 3.58 M3.6 10.34 C5.06 8.4, 7.45 6.15, 9.16 3.45 M2.07 9.81 C2.07 9.81, 2.07 9.81, 2.07 9.81 M2.07 9.81 C2.07 9.81, 2.07 9.81, 2.07 9.81 M5.21 7.56 C4.48 6.05, 3.56 5.14, 0.78 3.39 M5.58 7.54 C3.33 5.68, 1.29 4.03, -0.12 2.81 M8.96 5.51 C7.64 4.22, 5.21 1.2, 2.33 -0.14 M9.05 5.11 C7.29 3.92, 5.18 2.1, 1.82 -0.91" stroke="#868e96" stroke-width="0.5" fill="none"></path><path d="M6.1 0.49 C6.92 0.65, 7.59 1.71, 7.92 2.59 C8.24 3.47, 8.24 4.84, 8.06 5.77 C7.88 6.69, 7.39 7.62, 6.84 8.14 C6.29 8.67, 5.61 8.7, 4.77 8.94 C3.93 9.18, 2.55 9.98, 1.8 9.58 C1.05 9.18, 0.61 7.52, 0.26 6.52 C-0.09 5.52, -0.6 4.69, -0.31 3.58 C-0.02 2.46, 0.99 0.47, 2 -0.18 C3.02 -0.82, 4.91 -0.39, 5.81 -0.27 C6.71 -0.16, 7.52 0.41, 7.39 0.52 M3.57 1.19 C4.24 0.68, 3.83 -0.31, 4.78 -0.28 C5.74 -0.26, 8.56 0.21, 9.29 1.32 C10.02 2.43, 9.28 5.08, 9.16 6.37 C9.03 7.67, 9.48 8.56, 8.53 9.09 C7.58 9.61, 4.82 9.8, 3.44 9.54 C2.06 9.27, 0.69 8.26, 0.25 7.5 C-0.19 6.73, 0.92 5.85, 0.81 4.95 C0.69 4.04, -0.64 3.08, -0.45 2.07 C-0.25 1.05, 1.64 -0.76, 1.98 -1.15 C2.31 -1.54, 1.46 -0.68, 1.56 -0.27" stroke="#000000" stroke-width="1" fill="none"></path></g><g stroke-linecap="round" transform="translate(110.30951577270628 147.50041023149842) rotate(0 4.324077849466221 4.804536374325892)"><path d="M2.09 -0.83 C2.09 -0.83, 2.09 -0.83, 2.09 -0.83 M2.09 -0.83 C2.09 -0.83, 2.09 -0.83, 2.09 -0.83 M0.52 7.13 C1.46 5.82, 4.63 2.14, 6.02 -0.38 M0.59 7.05 C1.87 4.91, 3.36 3.37, 6.09 -0.15 M3.78 9.26 C5.69 7.68, 7.41 6.86, 10.08 2.15 M3.28 9.67 C4.47 8.21, 5.78 6.6, 9.35 2.53 M-0.48 6.65 C-0.48 6.65, -0.48 6.65, -0.48 6.65 M-0.48 6.65 C-0.48 6.65, -0.48 6.65, -0.48 6.65 M5.51 7.21 C3.89 5.23, 2.13 2.69, -0.82 1.29 M5.7 6.59 C4.27 4.9, 2.21 3.53, 0.04 1.35 M10.15 4.63 C7.43 3.28, 4.26 1.09, 3.33 -1.97 M10.25 5.56 C8.53 3.63, 6.78 1.96, 2.19 -1.27" stroke="#868e96" stroke-width="0.5" fill="none"></path><path d="M1.9 -0.61 C2.67 -0.95, 4.28 -0.5, 5.38 0 C6.48 0.5, 7.8 1.34, 8.47 2.4 C9.14 3.47, 9.64 5.5, 9.39 6.38 C9.14 7.26, 7.83 7.2, 6.97 7.66 C6.1 8.13, 5.12 9.09, 4.2 9.16 C3.29 9.23, 2.28 8.49, 1.49 8.06 C0.7 7.64, -0.28 7.57, -0.53 6.61 C-0.79 5.65, -0.72 3.46, -0.04 2.3 C0.64 1.15, 3.05 -0.04, 3.55 -0.3 C4.04 -0.57, 3.03 0.63, 2.93 0.72 M4.39 -1.28 C5.18 -1.44, 6.45 -0.31, 7.22 0.88 C7.99 2.06, 9.13 4.82, 9.01 5.81 C8.9 6.8, 7.21 6.04, 6.53 6.79 C5.85 7.55, 5.47 9.96, 4.93 10.36 C4.39 10.75, 3.99 9.96, 3.28 9.17 C2.58 8.38, 1.34 6.84, 0.69 5.61 C0.05 4.38, -0.84 2.52, -0.56 1.8 C-0.28 1.08, 1.49 1.33, 2.36 1.28 C3.23 1.23, 4.27 1.75, 4.67 1.51 C5.07 1.27, 4.62 0.07, 4.74 -0.16" stroke="#000000" stroke-width="1" fill="none"></path></g><g stroke-linecap="round" transform="translate(126.96525653265087 147.01996392520672) rotate(0 4.324077849466221 4.804536374325892)"><path d="M1.35 1.17 C1.35 1.17, 1.35 1.17, 1.35 1.17 M1.35 1.17 C1.35 1.17, 1.35 1.17, 1.35 1.17 M0.56 7.19 C2.71 5.54, 5.21 3.17, 6.83 1.1 M1.15 7.41 C2.01 5.97, 3.56 4.63, 6.33 1.39 M3.53 9.66 C6.02 7.64, 7.9 6.56, 9.31 4.93 M4.26 10.09 C6.31 8.21, 8.31 5.54, 9.45 3.92 M3.97 10.67 C3.97 10.67, 3.97 10.67, 3.97 10.67 M3.97 10.67 C3.97 10.67, 3.97 10.67, 3.97 10.67 M7.89 7.75 C4.96 5.87, 2.3 4.41, 1.32 3.44 M7.05 7.96 C5.23 6.45, 3.05 4.25, 1.59 2.69 M9.86 4.73 C7.97 3.3, 5.75 2.59, 3.34 0.08 M8.84 4.48 C7.53 3.18, 5.9 2.44, 3.51 -0.23" stroke="#868e96" stroke-width="0.5" fill="none"></path><path d="M2.55 -0.07 C3.34 -0.38, 5.26 0.77, 6.2 1.31 C7.15 1.84, 8.02 2.26, 8.23 3.14 C8.44 4.02, 7.6 5.62, 7.47 6.57 C7.33 7.52, 8.03 8.19, 7.39 8.82 C6.76 9.46, 4.69 10.51, 3.65 10.4 C2.62 10.29, 1.95 8.89, 1.18 8.16 C0.42 7.43, -0.98 7.19, -0.93 6 C-0.88 4.82, 0.73 2.15, 1.47 1.03 C2.21 -0.09, 3.07 -0.49, 3.51 -0.72 C3.95 -0.95, 3.96 -0.56, 4.11 -0.33 M3.68 -0.88 C4.47 -0.97, 5.21 -1.11, 5.92 -0.41 C6.63 0.29, 7.53 2, 7.94 3.32 C8.34 4.64, 8.81 6.34, 8.35 7.5 C7.9 8.66, 6.16 9.75, 5.19 10.28 C4.22 10.81, 3.1 11, 2.53 10.69 C1.96 10.37, 2.41 9.68, 1.78 8.39 C1.16 7.1, -1.26 4.07, -1.22 2.94 C-1.17 1.81, 1.28 2.12, 2.04 1.61 C2.8 1.1, 3.17 0.13, 3.34 -0.11 C3.5 -0.34, 3.08 0.16, 3.02 0.22" stroke="#000000" stroke-width="1" fill="none"></path></g><g stroke-linecap="round" transform="translate(141.69916319315655 146.69965416911086) rotate(0 4.324077849466221 4.804536374325892)"><path d="M3.31 0.23 C3.31 0.23, 3.31 0.23, 3.31 0.23 M3.31 0.23 C3.31 0.23, 3.31 0.23, 3.31 0.23 M0.41 8.99 C1.9 7.48, 4.57 5.52, 8.6 2.17 M0.95 9.09 C3.06 7.25, 4.17 5.38, 7.34 1.03 M0.48 8.59 C0.48 8.59, 0.48 8.59, 0.48 8.59 M0.48 8.59 C0.48 8.59, 0.48 8.59, 0.48 8.59 M5.7 8.13 C4.47 6.74, 3.54 5.92, 1.88 4.55 M5.86 8.17 C4.94 7.03, 3.46 6.3, 1.31 4.11 M8.06 4.72 C6.62 3.02, 5.69 2.27, 3.98 0.26 M7.88 4.38 C6.33 2.92, 5.25 2.12, 3.75 0.42" stroke="#868e96" stroke-width="0.5" fill="none"></path><path d="M3.43 0.09 C4.28 -0.44, 5.11 -0.84, 5.86 -0.47 C6.61 -0.11, 7.61 1.32, 7.93 2.26 C8.24 3.2, 8.02 4.13, 7.75 5.16 C7.49 6.19, 6.95 7.66, 6.33 8.44 C5.7 9.22, 4.95 9.8, 4.02 9.86 C3.09 9.92, 1.45 9.45, 0.73 8.81 C0.01 8.17, -0.42 7.04, -0.27 6.02 C-0.13 5, 1.1 3.81, 1.59 2.69 C2.08 1.57, 2.25 -0.31, 2.67 -0.69 C3.1 -1.07, 4.1 0.21, 4.16 0.4 M2.46 0.07 C3.02 0.07, 3.4 1.13, 4.36 1.61 C5.31 2.08, 7.29 2.08, 8.18 2.92 C9.08 3.75, 9.84 5.9, 9.72 6.62 C9.61 7.35, 8.26 6.58, 7.47 7.26 C6.69 7.95, 6.09 10.5, 5.01 10.74 C3.92 10.98, 1.84 9.4, 0.94 8.7 C0.04 8.01, -0.35 7.52, -0.41 6.59 C-0.48 5.66, -0.12 4.31, 0.57 3.13 C1.27 1.96, 3.41 0.11, 3.76 -0.46 C4.1 -1.03, 2.83 -0.69, 2.63 -0.27" stroke="#000000" stroke-width="1" fill="none"></path></g><g stroke-linecap="round" transform="translate(160.35676967193444 146.139127369153) rotate(0 4.324077849466221 4.804536374325892)"><path d="M2.03 0.44 C2.03 0.44, 2.03 0.44, 2.03 0.44 M2.03 0.44 C2.03 0.44, 2.03 0.44, 2.03 0.44 M-0.09 7.99 C3.44 5.48, 5.21 3.85, 5.61 1.51 M0.31 8.4 C2.04 5.87, 4 4.1, 6.33 1.54 M3.69 9.77 C6.21 8.01, 8.41 6.16, 9.09 3.81 M4.12 10.09 C4.97 9.15, 6.16 7.32, 9.4 4.03 M-0.6 6.78 C-0.6 6.78, -0.6 6.78, -0.6 6.78 M-0.6 6.78 C-0.6 6.78, -0.6 6.78, -0.6 6.78 M7.43 8.56 C6.02 6.25, 3.54 4.9, 2.03 3.2 M7.62 8.51 C5.11 6.17, 2.59 4.11, 1.53 2.99 M9.98 6.14 C8.85 3.73, 6.85 1.89, 2.15 0.25 M10.28 6.23 C8.2 4.3, 6.85 2.64, 3.52 -0.67" stroke="#868e96" stroke-width="0.5" fill="none"></path><path d="M4.11 0.13 C4.95 0.18, 5.99 0.82, 6.71 1.43 C7.44 2.03, 8.12 2.69, 8.44 3.76 C8.77 4.84, 9.13 6.8, 8.67 7.88 C8.22 8.96, 6.64 10.02, 5.72 10.24 C4.79 10.46, 4.14 9.76, 3.12 9.21 C2.1 8.66, -0.03 8.02, -0.39 6.96 C-0.75 5.9, 0.55 3.94, 0.96 2.85 C1.37 1.76, 1.24 0.84, 2.06 0.4 C2.89 -0.04, 5.21 0.09, 5.91 0.22 C6.61 0.34, 6.45 1.1, 6.26 1.16 M2.62 1.01 C3.34 0.39, 4.41 -0.62, 5.23 -0.22 C6.04 0.18, 6.93 2.27, 7.51 3.4 C8.08 4.53, 8.63 5.8, 8.66 6.56 C8.68 7.32, 8.68 7.58, 7.66 7.97 C6.65 8.36, 3.62 8.81, 2.56 8.88 C1.5 8.94, 1.83 9.13, 1.31 8.37 C0.78 7.61, -0.3 5.24, -0.58 4.31 C-0.86 3.38, -0.78 3.47, -0.37 2.77 C0.04 2.07, 1.34 0.44, 1.87 0.12 C2.39 -0.2, 2.72 0.54, 2.78 0.83" stroke="#000000" stroke-width="1" fill="none"></path></g><g stroke-linecap="round" transform="translate(176.45197141335325 146.69965416911086) rotate(0 4.324077849466221 4.804536374325892)"><path d="M2.82 -0.2 C2.82 -0.2, 2.82 -0.2, 2.82 -0.2 M2.82 -0.2 C2.82 -0.2, 2.82 -0.2, 2.82 -0.2 M2.5 7.11 C4.34 4.55, 5.65 3.22, 6.4 0.61 M2.27 7.28 C3.65 5.25, 4.83 4.1, 7.15 0.92 M4.66 9.93 C5.39 8.66, 7.31 7.54, 8.7 5.9 M4.36 10.2 C5.44 8.68, 6.96 7.31, 8.18 5.99 M2.5 9.32 C2.5 9.32, 2.5 9.32, 2.5 9.32 M2.5 9.32 C2.5 9.32, 2.5 9.32, 2.5 9.32 M8.06 9.03 C5.44 6.79, 4.09 6.56, 1.89 2.22 M7.6 7.92 C5.63 6.01, 2.95 4.13, 1.34 3.14 M9.63 3.81 C7.55 3.73, 5.09 1.22, 3.07 -0.12 M9.63 4.52 C7.74 3.35, 6.79 2.28, 3.39 -0.29" stroke="#868e96" stroke-width="0.5" fill="none"></path><path d="M2.63 0.03 C3.39 -0.38, 4.97 -0.81, 5.99 -0.57 C7.02 -0.32, 8.46 0.47, 8.78 1.48 C9.11 2.49, 8.29 4.32, 7.94 5.5 C7.59 6.68, 7.15 7.87, 6.69 8.54 C6.23 9.22, 5.85 9.39, 5.18 9.54 C4.51 9.69, 3.62 10.21, 2.68 9.47 C1.73 8.73, -0.2 6.29, -0.51 5.11 C-0.81 3.92, 0.21 3.04, 0.85 2.35 C1.49 1.66, 2.87 1.36, 3.33 0.97 C3.79 0.59, 3.63 0.2, 3.63 0.06 M3.81 -0.38 C4.63 -0.69, 5.62 -1.28, 6.25 -0.55 C6.87 0.18, 7.3 2.79, 7.56 4 C7.81 5.22, 7.8 6.18, 7.79 6.74 C7.78 7.29, 8.13 6.76, 7.51 7.35 C6.89 7.93, 4.9 10.15, 4.08 10.23 C3.26 10.31, 3.36 8.6, 2.6 7.83 C1.85 7.07, 0.09 6.68, -0.45 5.64 C-0.99 4.61, -0.94 2.35, -0.61 1.65 C-0.27 0.95, 0.98 1.68, 1.57 1.45 C2.16 1.22, 2.5 0.59, 2.93 0.28" stroke="#000000" stroke-width="1" fill="none"></path></g><g stroke-linecap="round" transform="translate(96.61836277814461 377.9498725102312) rotate(0 4.324077849466221 4.804536374325892)"><path d="M1.44 1.25 C1.44 1.25, 1.44 1.25, 1.44 1.25 M1.44 1.25 C1.44 1.25, 1.44 1.25, 1.44 1.25 M2.2 6.3 C4.12 4.45, 4.81 2.54, 6.39 1.83 M1.99 6.55 C3.09 5.64, 4.03 3.71, 6.36 1.84 M6.15 8.64 C6.07 7.31, 7.67 6.28, 10.38 4.13 M5.18 8.82 C6.99 7.53, 7.91 5.93, 10.11 3.51 M4.15 10.47 C4.15 10.47, 4.15 10.47, 4.15 10.47 M4.15 10.47 C4.15 10.47, 4.15 10.47, 4.15 10.47 M6.43 7.37 C5.45 6.25, 2.2 3.75, 1.55 2.28 M6.59 7.65 C5.26 5.85, 3.89 4.94, 1.45 2.89 M9.9 5.01 C8.34 3.56, 6.64 1.12, 5.01 0.03 M9.55 4.28 C8.21 3.26, 6.65 1.8, 5.02 0.54" stroke="#868e96" stroke-width="0.5" fill="none"></path><path d="M4.5 0.87 C5.39 0.73, 5.81 1.07, 6.55 1.43 C7.28 1.79, 8.7 2.13, 8.89 3.01 C9.08 3.89, 8.29 5.81, 7.7 6.72 C7.11 7.63, 6 7.89, 5.35 8.46 C4.69 9.03, 4.41 10.44, 3.78 10.15 C3.15 9.85, 2.07 7.63, 1.55 6.66 C1.03 5.7, 0.66 5.29, 0.66 4.37 C0.65 3.45, 0.77 1.83, 1.53 1.14 C2.3 0.45, 4.48 0.24, 5.23 0.22 C5.99 0.21, 6.22 1.02, 6.07 1.04 M4.72 0.33 C5.39 0.24, 6.04 1.23, 6.74 1.75 C7.44 2.28, 8.76 2.78, 8.93 3.5 C9.09 4.21, 8.27 4.97, 7.73 6.03 C7.19 7.09, 6.44 9.29, 5.69 9.86 C4.94 10.42, 3.84 9.74, 3.23 9.44 C2.61 9.13, 2.7 8.76, 1.98 8.04 C1.27 7.33, -1 6.27, -1.07 5.14 C-1.14 4.01, 0.65 2.19, 1.56 1.28 C2.47 0.37, 4.31 -0.34, 4.38 -0.32 C4.46 -0.3, 2.21 1.23, 2.01 1.42" stroke="#000000" stroke-width="1" fill="none"></path></g><g stroke-linecap="round" transform="translate(112.47332303856581 377.789723741467) rotate(0 4.324077849466221 4.804536374325892)"><path d="M0.89 2.1 C0.89 2.1, 0.89 2.1, 0.89 2.1 M0.89 2.1 C0.89 2.1, 0.89 2.1, 0.89 2.1 M1.26 7.72 C2.72 5, 4.08 3.67, 7.44 0.78 M1.55 6.98 C3.86 4.65, 5 3.06, 7.46 0.61 M3.53 10.67 C4.39 10.01, 5.55 8.92, 8.89 5.53 M3.71 11.39 C4.83 9.96, 5.66 8.72, 8.27 5.75 M0.47 8.61 C0.47 8.61, 0.47 8.61, 0.47 8.61 M0.47 8.61 C0.47 8.61, 0.47 8.61, 0.47 8.61 M6.79 9.51 C5.27 6.4, 2.41 5.37, 1.01 4.32 M7.07 8.92 C5.56 8.19, 4.95 6.89, 1.62 4.43 M9.51 5.82 C8.07 4.46, 5.23 3, 2.08 0.18 M8.54 5.54 C7.6 4.44, 6.18 3.32, 2.76 -0.3" stroke="#868e96" stroke-width="0.5" fill="none"></path><path d="M3.97 -0.35 C4.73 -0.67, 5.83 0.27, 6.38 0.71 C6.93 1.15, 6.98 1.5, 7.26 2.3 C7.54 3.09, 8.26 4.25, 8.06 5.47 C7.85 6.68, 6.56 8.74, 6.03 9.59 C5.5 10.44, 5.74 10.68, 4.86 10.56 C3.99 10.44, 1.52 9.75, 0.77 8.87 C0.03 8, 0.41 6.43, 0.4 5.34 C0.4 4.24, 0.14 3.13, 0.72 2.29 C1.31 1.45, 3.19 0.78, 3.91 0.3 C4.64 -0.18, 5.13 -0.55, 5.08 -0.58 M6.54 0.87 C7.51 1.15, 9.09 2.74, 9.48 3.52 C9.87 4.3, 9.41 4.8, 8.89 5.54 C8.37 6.28, 7.05 7.36, 6.36 7.96 C5.66 8.56, 5.61 8.96, 4.73 9.12 C3.84 9.29, 1.8 9.83, 1.03 8.97 C0.25 8.11, 0.06 5.04, 0.07 3.96 C0.08 2.89, 0.64 3, 1.11 2.51 C1.57 2.02, 2.05 1.61, 2.84 1.03 C3.64 0.45, 5.12 -0.81, 5.89 -0.95 C6.67 -1.08, 7.42 -0.19, 7.5 0.22" stroke="#000000" stroke-width="1" fill="none"></path></g><g stroke-linecap="round" transform="translate(129.1290637985104 377.3092774351753) rotate(0 4.324077849466221 4.804536374325892)"><path d="M0.85 2.06 C0.85 2.06, 0.85 2.06, 0.85 2.06 M0.85 2.06 C0.85 2.06, 0.85 2.06, 0.85 2.06 M2.54 6.35 C2.6 5.16, 3.9 4.84, 6.34 1.79 M1.89 7.2 C3.16 4.91, 5.07 3.47, 6.19 1.42 M4.59 9.37 C6.22 8.04, 7.54 7.22, 7.97 5.46 M5.11 9.64 C5.82 8.49, 6.66 7.63, 8.13 5.68 M5.35 10.61 C5.35 10.61, 5.35 10.61, 5.35 10.61 M5.35 10.61 C5.35 10.61, 5.35 10.61, 5.35 10.61 M7.96 7.46 C4.45 4.75, 3.27 2.76, 1.23 0.95 M7.28 6.71 C5.66 5.61, 3.33 3.64, 1.36 1.41 M10.32 4.43 C9.12 2.52, 7.93 1.74, 5.5 -0.62 M10.11 4.01 C8.26 2.29, 6.43 0.87, 5.13 0.27" stroke="#868e96" stroke-width="0.5" fill="none"></path><path d="M5.36 0.65 C6.21 0.65, 7.96 0.79, 8.43 1.56 C8.9 2.34, 8.5 4.26, 8.18 5.28 C7.87 6.3, 7.06 6.85, 6.55 7.7 C6.04 8.56, 5.83 10.4, 5.14 10.43 C4.45 10.45, 3.18 8.6, 2.43 7.85 C1.68 7.09, 0.94 6.83, 0.64 5.9 C0.34 4.98, 0.23 3.22, 0.63 2.3 C1.04 1.39, 2.12 0.59, 3.09 0.4 C4.06 0.2, 6.02 1.1, 6.47 1.13 C6.93 1.16, 5.94 0.44, 5.8 0.57 M4.92 1.17 C5.69 1.2, 7.37 1.29, 7.87 1.75 C8.37 2.22, 8.06 2.84, 7.93 3.95 C7.79 5.05, 7.52 7.51, 7.05 8.4 C6.58 9.29, 5.7 9.14, 5.11 9.29 C4.52 9.44, 4.47 9.63, 3.51 9.28 C2.56 8.93, -0.15 8.2, -0.61 7.18 C-1.08 6.16, 0.18 4.27, 0.73 3.16 C1.27 2.06, 2.26 0.86, 2.66 0.53 C3.05 0.21, 2.85 1.27, 3.1 1.24 C3.35 1.2, 3.84 0.65, 4.17 0.32" stroke="#000000" stroke-width="1" fill="none"></path></g><g stroke-linecap="round" transform="translate(143.86297045901608 376.98896767907945) rotate(0 4.324077849466221 4.804536374325892)"><path d="M2.36 0.72 C2.36 0.72, 2.36 0.72, 2.36 0.72 M2.36 0.72 C2.36 0.72, 2.36 0.72, 2.36 0.72 M0.75 7.54 C2.61 5.67, 5.44 3.4, 6.82 2.28 M1.72 7.48 C3.07 5.71, 5.39 3.36, 6.41 2.14 M3.48 11.43 C5.66 9.24, 8.67 6.2, 8.51 4.89 M3.91 11.28 C4.71 9.98, 5.99 8.62, 8.86 5.52 M2.03 9.86 C2.03 9.86, 2.03 9.86, 2.03 9.86 M2.03 9.86 C2.03 9.86, 2.03 9.86, 2.03 9.86 M8.27 8.59 C5.5 8.12, 3.53 6.61, 0.06 3.75 M7.42 9.86 C6.33 7.96, 4.32 6.74, 0.58 3.21 M10.32 6.27 C6.03 3.78, 3.57 1.57, 1.85 0.7 M9.68 6.09 C7.08 3.99, 4.87 1.42, 3.19 -0.38" stroke="#868e96" stroke-width="0.5" fill="none"></path><path d="M5.07 0.33 C5.65 0.39, 5.96 0.46, 6.48 1.07 C6.99 1.67, 8.08 2.72, 8.17 3.97 C8.25 5.21, 7.31 7.45, 6.98 8.52 C6.66 9.6, 7.06 10.22, 6.21 10.42 C5.36 10.63, 2.8 10.34, 1.89 9.73 C0.98 9.12, 1.05 7.8, 0.76 6.79 C0.47 5.78, -0.05 4.61, 0.16 3.66 C0.37 2.71, 1.04 1.79, 2.03 1.1 C3.02 0.4, 5.46 -0.35, 6.1 -0.51 C6.75 -0.67, 5.88 -0.08, 5.91 0.13 M7.24 0.98 C8.1 1.15, 8.48 1.31, 8.65 1.99 C8.81 2.67, 8.35 4.03, 8.22 5.07 C8.08 6.11, 8.54 7.33, 7.82 8.24 C7.11 9.14, 4.99 10.68, 3.91 10.5 C2.84 10.33, 2 7.96, 1.39 7.2 C0.78 6.44, 0.45 6.62, 0.25 5.93 C0.05 5.24, -0.2 4.24, 0.21 3.04 C0.62 1.84, 1.53 -0.79, 2.71 -1.29 C3.89 -1.8, 6.71 -0.38, 7.3 0.01 C7.89 0.4, 6.7 0.78, 6.26 1.04" stroke="#000000" stroke-width="1" fill="none"></path></g><g stroke-linecap="round" transform="translate(162.5205769377941 376.4284408791216) rotate(0 4.324077849466221 4.804536374325892)"><path d="M0.96 2.16 C0.96 2.16, 0.96 2.16, 0.96 2.16 M0.96 2.16 C0.96 2.16, 0.96 2.16, 0.96 2.16 M1.63 6.23 C3.18 5.93, 4.3 4.34, 8.42 0.67 M1.56 6.78 C3.13 5.93, 4.02 3.95, 8.25 0.67 M5.14 9.54 C6.19 9.09, 6.69 7.22, 8.11 5.43 M5.05 9.57 C6.05 8.49, 7.03 7.14, 8.51 6.13 M1.84 8.56 C1.84 8.56, 1.84 8.56, 1.84 8.56 M1.84 8.56 C1.84 8.56, 1.84 8.56, 1.84 8.56 M7.37 8.35 C6.29 6.42, 4.3 4.62, 1.63 2.45 M8.63 9.19 C5.75 6.71, 3.57 4.25, 1.09 3.29 M8.91 3.27 C6.9 1.84, 5.14 0.14, 4.61 0.2 M8.79 3.76 C7.57 2.91, 6.11 2.17, 3.89 0.04" stroke="#868e96" stroke-width="0.5" fill="none"></path><path d="M6.45 -0.5 C7.3 -0.27, 7.59 1.34, 7.86 2.29 C8.12 3.23, 8.05 3.97, 8.03 5.18 C8.01 6.39, 8.25 8.91, 7.74 9.55 C7.22 10.19, 5.91 9.19, 4.93 9.03 C3.95 8.87, 2.69 9.22, 1.87 8.59 C1.06 7.96, 0.18 6.3, 0.02 5.24 C-0.14 4.18, 0.35 2.95, 0.92 2.21 C1.49 1.47, 2.56 1.06, 3.45 0.82 C4.33 0.58, 5.62 0.46, 6.23 0.77 C6.84 1.07, 7.01 2.4, 7.1 2.64 M5.24 0.46 C5.95 0.23, 6.25 0.27, 6.66 1.07 C7.08 1.88, 7.61 4.24, 7.74 5.3 C7.87 6.35, 7.67 6.71, 7.44 7.41 C7.21 8.11, 7.38 9.17, 6.38 9.5 C5.39 9.83, 2.35 9.92, 1.46 9.4 C0.57 8.87, 1.1 7.38, 1.03 6.34 C0.96 5.31, 1.17 3.89, 1.05 3.19 C0.93 2.48, -0.2 2.61, 0.33 2.12 C0.87 1.63, 3.45 0.77, 4.26 0.23 C5.07 -0.31, 5.02 -0.95, 5.2 -1.12" stroke="#000000" stroke-width="1" fill="none"></path></g><g stroke-linecap="round" transform="translate(178.6157786792129 376.98896767907945) rotate(0 4.324077849466221 4.804536374325892)"><path d="M2.48 -0.5 C2.48 -0.5, 2.48 -0.5, 2.48 -0.5 M2.48 -0.5 C2.48 -0.5, 2.48 -0.5, 2.48 -0.5 M0.83 6.63 C3.93 4.14, 5.87 2.39, 7.18 -0.16 M1.32 6.58 C3.35 4.57, 4.36 3.42, 7.18 0.55 M3.74 10.32 C5.68 8.47, 5.63 7.25, 7.86 4.88 M3.78 10.04 C5.67 7.95, 7.21 6.32, 8.83 4.64 M0.93 8.07 C0.93 8.07, 0.93 8.07, 0.93 8.07 M0.93 8.07 C0.93 8.07, 0.93 8.07, 0.93 8.07 M6.96 8.39 C4.66 6.52, 2.52 4.83, 1.69 4.14 M7.62 8.29 C5.72 7.08, 3.78 5.21, 2.34 4.08 M7.13 3.49 C5.48 2.06, 3.63 0.93, 3.47 -0.89 M7.62 3.49 C5.97 1.67, 4.46 0.15, 3.31 -0.56" stroke="#868e96" stroke-width="0.5" fill="none"></path><path d="M2.23 -0.2 C2.93 -0.66, 4.79 -0.69, 5.64 -0.05 C6.5 0.6, 6.76 2.48, 7.37 3.65 C7.99 4.82, 9.51 6.02, 9.33 6.97 C9.15 7.91, 7.1 8.87, 6.28 9.31 C5.45 9.75, 5.2 9.75, 4.37 9.6 C3.54 9.44, 2 9.06, 1.3 8.38 C0.6 7.71, 0.15 6.69, 0.17 5.53 C0.18 4.37, 0.76 2.4, 1.41 1.41 C2.05 0.43, 3.24 -0.22, 4.05 -0.4 C4.85 -0.57, 6.06 0.16, 6.23 0.34 M5.25 -0.66 C5.89 -0.86, 6.43 -0.18, 7.15 0.61 C7.88 1.4, 9.5 2.74, 9.59 4.06 C9.68 5.39, 8.38 7.84, 7.68 8.57 C6.98 9.29, 6.24 8.21, 5.4 8.41 C4.56 8.6, 3.55 9.85, 2.62 9.72 C1.69 9.59, 0.31 8.93, -0.17 7.63 C-0.64 6.34, -0.79 3.17, -0.24 1.96 C0.32 0.75, 2.29 0.63, 3.17 0.4 C4.04 0.16, 4.96 0.5, 5.03 0.57 C5.1 0.64, 3.82 0.81, 3.57 0.84" stroke="#000000" stroke-width="1" fill="none"></path></g></svg>