<svg version="1.1" xmlns="http://www.w3.org/2000/svg" viewBox="0 0 143.82330002138815 155.20001220703125" width="143.82330002138815" height="155.20001220703125">
  <!-- svg-source:excalidraw -->
  
  <defs>
    <style>
      @font-face {
        font-family: "Virgil";
        src: url("https://excalidraw.com/Virgil.woff2");
      }
      @font-face {
        font-family: "Cascadia";
        src: url("https://excalidraw.com/Cascadia.woff2");
      }
    </style>
  </defs>
  <rect x="0" y="0" width="143.82330002138815" height="155.20001220703125" fill="#ffffff"></rect><g stroke-linecap="round" transform="translate(10 10) rotate(0 60.40000915527344 67.60000610351562)"><path d="M0.21 67.76 C0.21 67.76, 0.21 67.76, 0.21 67.76 M0.21 67.76 C0.21 67.76, 0.21 67.76, 0.21 67.76 M2.62 69.63 C17.17 50.24, 34.92 33.78, 64.88 1.96 M2.02 71.63 C14.49 58.14, 26.37 43.2, 62.56 1.06 M5.81 75.38 C23.31 52.49, 39.8 33.28, 63.71 5.76 M4.87 73.58 C19.56 58.21, 32.39 42.49, 64.82 5.18 M6.53 78.75 C30.25 54.75, 48.84 31.49, 68.24 6.63 M7.42 77.25 C26.63 56.62, 43.72 35.7, 67.89 6.92 M12.7 80.72 C31.26 53.79, 53.79 28.77, 70.43 11.24 M10.31 80.3 C26.97 62.65, 42.96 43.91, 70.56 11.75 M15.28 83.23 C31.38 60.74, 51.78 39.58, 75.46 15.26 M13.2 82.22 C34.57 59.84, 55 37.08, 73.98 13.35 M17 86.63 C27.14 72.97, 42.33 58.06, 77.97 18.87 M16.84 85.94 C32.74 67.55, 47.95 49.14, 76.14 16.39 M20.48 89.39 C30.66 74.61, 45.42 59.36, 78.68 20.39 M19.6 88.63 C42.52 62.52, 66.01 35, 79.93 20.21 M20.98 93.52 C41.88 70.94, 59.54 48.45, 80.64 23.77 M21.5 91.4 C41.33 68.09, 62.14 45.31, 81.68 23.56 M22.56 96.23 C44.01 73.59, 62.41 50.91, 85.88 24.22 M24.72 96.01 C40.85 75.72, 58.7 54.99, 85.18 26.3 M26.75 99.45 C40.13 81.55, 53.55 68.99, 87.61 27.72 M27.67 98.56 C47.27 74.88, 67.49 51.75, 86.18 28.14 M28.79 101.41 C48.5 77.27, 71.25 54.99, 90.9 32.6 M29.47 100.28 C44.79 80.89, 62.02 61.66, 90.48 32.32 M34.27 102.16 C48.58 86.47, 64.23 66.96, 92.87 33.13 M32.03 103.18 C54.74 77.24, 78.57 52.94, 92.43 34.4 M35.97 106.46 C56.81 81.16, 76.95 56.51, 95.39 37.04 M35.23 106.06 C47.58 92.7, 60.7 78.37, 94.94 37.91 M39.32 109.03 C52.93 94.02, 70.59 73.64, 97.26 41.11 M37.63 109.96 C50.96 93.67, 64.09 77.03, 98.05 41.09 M41.74 113.87 C58.74 92.62, 73.1 74.12, 98.22 45.46 M40.26 112.63 C57.37 92.71, 74.71 73.9, 100.3 45.37 M43.55 115.1 C56.94 96.76, 71.62 80.17, 102.47 45.39 M42.81 115.51 C62.81 93.08, 83.29 71.57, 102.51 46.33 M46.58 116.49 C63.66 95.95, 85.57 75.78, 104.07 49.17 M46.62 118.44 C66.72 94.56, 86.55 72.22, 104.64 49.68 M48.44 121.06 C63.33 102.68, 81.22 85.26, 109.03 54.37 M48.26 121.38 C64.66 101.46, 82.16 81.14, 108.1 52.69 M53.14 122.6 C74.68 98.35, 96.82 72.82, 109.47 57.4 M52.53 125.12 C74.54 98.18, 96.78 72.6, 111.36 55.98 M53.32 127.27 C69.03 113.08, 81.5 96.01, 114.32 61.1 M53.99 127.02 C68.13 111.34, 82.81 93.57, 112.92 58.16 M56.91 129.12 C71.73 114.44, 83.34 99.34, 115.48 64.29 M58.03 129.7 C69.6 116.22, 82.12 100.16, 116.87 61.6 M61.36 135.73 C73.71 116.58, 89.25 97.26, 118.55 65.3 M60.34 132.81 C76.12 113.76, 93.68 92.25, 119.91 65.13" stroke="#fab005" stroke-width="0.5" fill="none"></path><path d="M62.2 1.67 C82.53 24.78, 104.13 51.82, 121.68 69.82 M60.11 0.65 C83.08 26.71, 106.73 53.64, 120.22 67.63 M120.19 68.24 C100.49 88.69, 84.77 107.72, 61.22 136.14 M121.47 68.06 C99.28 91.79, 76.49 118.04, 60.22 135.68 M60.61 134.44 C47.68 123.21, 37.14 109.13, -0.82 68.99 M60.88 135.2 C47.14 119.77, 31.85 104.41, -0.13 67.48 M1.62 67.04 C23.91 42.67, 45.47 14.37, 62.53 0.67 M0.38 68.56 C22.45 41.48, 46.05 16.93, 61.66 0.12" stroke="#000000" stroke-width="1" fill="none"></path></g><g stroke-linecap="round" transform="translate(11.199905395507756 9.999984741210966) rotate(58.736300896994926 60.400009155273466 67.60000610351561)"><path d="M0.21 67.76 C0.21 67.76, 0.21 67.76, 0.21 67.76 M0.21 67.76 C0.21 67.76, 0.21 67.76, 0.21 67.76 M2.31 69.6 C25.2 42.07, 49.91 16.93, 63.47 3.67 M3.4 71.61 C22.98 49.31, 41.96 26.95, 63.79 2.27 M7.15 72.71 C29.56 47.08, 53.13 20.39, 63.7 6.95 M5.15 73.93 C25.34 53.22, 42.07 32.31, 65.33 5.39 M7.16 78.73 C26.41 56.15, 42.45 38.53, 70.02 6.57 M8.19 76.57 C30.5 51.14, 54.79 23.84, 68.3 7.73 M12.55 78.13 C25.81 60.88, 40.66 43.05, 69.71 12.49 M11.55 80.42 C29.25 57.96, 50.24 35.27, 71.39 10.61 M13.83 83.4 C37.51 59.15, 57.72 32.98, 73.64 13.6 M13.94 83.94 C35.2 58.7, 58.32 31.33, 74.66 13.89 M14.61 84.42 C38.19 63.84, 56.96 37.81, 76.59 15.14 M16.66 84.85 C30.76 69.49, 44.79 52.46, 77.01 16.78 M19.92 89.97 C39.68 63.05, 59.02 38.72, 78.1 18.15 M19.12 88.98 C41.18 63.24, 62.49 39.21, 79.13 19.6 M21 91.1 C41.37 67.23, 61 44.03, 82.72 24.95 M21.77 92 C41.69 69.33, 60.81 46.76, 81.01 22.56 M23.66 94.64 C42.37 73.61, 60.57 53.74, 84.86 26.49 M23.61 94.26 C41.09 76.13, 56.23 58.57, 84.87 25.53 M29.04 98.56 C43.55 79.05, 60.74 59.36, 85.1 27.86 M27.12 98.49 C48.26 74.82, 69.34 49.94, 86.64 28.89 M29.95 101.47 C40.77 86.86, 54.83 70.76, 91.01 31.7 M29.74 100.68 C49.26 77.79, 68.73 53.89, 88.96 31.2 M31.69 102.01 C48.61 84.17, 65.34 64.37, 93.44 35.63 M32.85 103.76 C48.4 85.14, 62.6 68.5, 92.58 36.07 M37 107.58 C50.8 89.92, 65.44 73.42, 95.33 39.71 M35.89 105.72 C49.75 90.35, 62.99 74.43, 95.41 37.92 M39.61 109.51 C56.63 86.06, 75.7 63.23, 96.05 39.87 M38.03 109.08 C55.34 89.51, 71.45 71.09, 97.92 40.74 M39.72 112.22 C56.38 97.16, 68.76 78.67, 99.56 44.07 M40.9 111.44 C62.43 87.73, 84.74 63.72, 99.5 44.62 M43.07 115.97 C62.18 91.94, 80.77 71.69, 101.95 46.03 M43.66 116.54 C56.93 100.57, 71.01 85.92, 103.18 46.82 M47.63 118.22 C63.55 99.17, 77.85 83.31, 105.08 48.89 M47.01 118.98 C70.17 93.99, 91.36 67.61, 105.39 49.78 M50.02 121.14 C66.69 101.16, 79.87 84.88, 106.76 51.4 M49.64 122.07 C72.26 95.33, 94.94 69.93, 109.28 52.61 M52.24 124.99 C67.39 104.65, 83.09 87.03, 110.98 55.39 M52.22 124.56 C66.89 108.05, 81.28 91.88, 111.19 56.96 M52.06 127.61 C67.17 111.86, 81.42 98.79, 114.8 59.14 M53.82 128.43 C67.2 111.25, 81.37 94.09, 114.59 59.71 M57.75 129.8 C78.86 103.19, 105.24 78.14, 114.63 60.89 M57.94 129.71 C78.87 106.19, 99.52 79.63, 116.6 62.81 M58.46 134.82 C79.6 107.9, 100.3 86.39, 121.04 64.21 M58.95 134.2 C80.01 109.35, 100 86.12, 119.9 66.04" stroke="#fab005" stroke-width="0.5" fill="none"></path><path d="M60.66 1.25 C81.71 20.39, 100.41 45.83, 120.74 68.69 M61.5 0.91 C83.46 24.53, 104.97 49.37, 121.17 67.97 M120.01 66.64 C96.02 95.1, 72.38 121.9, 59.51 134.32 M120.92 67.48 C104.75 86.42, 89.17 102.44, 60.85 134.7 M62.12 136.01 C45.85 119.58, 35.15 105.99, -0.41 68.97 M60.02 134.21 C44.79 119.18, 30.88 101.36, 0.14 67.85 M-0.84 68.37 C17.38 48.11, 37.98 27.55, 61.3 -1.38 M0.33 67.02 C17.13 50.5, 31.14 31.99, 60.29 -0.21" stroke="#000000" stroke-width="1" fill="none"></path></g><g stroke-linecap="round" transform="translate(12.799911499023438 12.20002746582037) rotate(116.26000804660549 60.40000915527344 67.60000610351562)"><path d="M0.21 67.76 C0.21 67.76, 0.21 67.76, 0.21 67.76 M0.21 67.76 C0.21 67.76, 0.21 67.76, 0.21 67.76 M1.07 72.41 C20.13 54.37, 32.16 37.43, 63 2.17 M2.19 70.71 C21.48 48.78, 41.14 25.38, 62.71 1.45 M6.46 74.16 C22.77 54.89, 38.55 36.13, 64.32 3.3 M6.52 74.17 C27.86 48.39, 50.24 22.34, 66.25 5.48 M8.1 75.42 C23.17 59.09, 40.96 38.59, 68.32 9.14 M7.63 76.97 C27.88 52.06, 49.23 28.99, 68.55 7.86 M10.17 80.94 C24.9 64.29, 40.81 46.43, 71.19 10.14 M10.03 78.89 C29.44 58.33, 47.86 37.28, 70.27 10.2 M11.88 84.38 C29.42 64.75, 42.72 48.53, 74.39 13.68 M13.25 83.53 C33.98 61.19, 51.35 40.4, 74.44 14.3 M16.2 85.88 C38.26 61.1, 54.59 38.99, 76.79 15.72 M15.93 85.96 C34.09 66.6, 51.81 46.29, 76.92 16.95 M18.02 87.62 C33.55 70.99, 49.74 54.88, 79.38 18.3 M18.3 89.49 C41.53 62.33, 64.91 37.81, 78.49 19.62 M20.82 91.38 C43.9 66.52, 66.36 37.45, 81.43 21.16 M22.25 91.33 C37.85 73.65, 54.5 54.64, 81.34 23.19 M24.93 94.13 C41.46 73.29, 58.52 52.75, 85.25 27.22 M23.85 95.36 C41.98 73.9, 60.87 53, 85.13 25.62 M28.14 97.53 C49.79 71.86, 73.39 42.01, 88.27 30.24 M27.37 97.83 C49.48 70.28, 74.01 43.24, 87.51 28.77 M29.91 99.57 C52.22 75.79, 77.71 46.66, 91.83 32.29 M29.83 102.09 C52.87 73.2, 76.56 45.53, 90.13 32.01 M32.1 104.05 C47.33 85.32, 62.4 68.8, 93.31 35.39 M33 104.26 C53.12 79.36, 73.02 56.45, 91.22 35.01 M35.74 107.48 C55.13 82.63, 74.84 62.92, 94.81 39.01 M34.62 107.27 C49.65 92.16, 62.77 74.84, 95.57 37.42 M38.51 108.32 C50.74 94.3, 66.8 77.85, 99.38 39.69 M37.14 110.29 C57.41 87.83, 77.53 64.55, 97.11 41.61 M42.07 114.33 C56.74 94.97, 74.26 77.27, 99.03 45.3 M41.48 113.19 C59.65 91.87, 76.79 72.4, 100.22 45.15 M43 115.38 C61.88 96.39, 77.69 76.2, 102.18 46.88 M43.17 115.55 C61.68 94.96, 79.35 73.76, 103.63 47.73 M47.38 118.99 C69.66 91.15, 91.08 66.62, 107.17 52.47 M45.46 119.32 C67.72 93.32, 89.38 68.45, 105.14 51.18 M49.06 119.93 C69.44 99.08, 88.99 72.94, 108.24 51.37 M48.77 122.58 C60.66 108.13, 72.76 93.46, 108.07 52.92 M52.31 123.74 C66.01 110.45, 79.02 94.79, 109.77 55.76 M51.78 124.26 C69.82 106.01, 86.24 86.65, 110.74 55.66 M54.01 128.32 C67.07 112.73, 81.53 95.06, 112.93 60.21 M54.95 127.83 C69.5 112.2, 83.36 94.95, 113.54 58.16 M58.36 131.5 C76.35 110.58, 90.57 91.37, 117.88 63.3 M57.5 130.06 C69.46 115.47, 80.55 102.6, 116.43 62.91 M59.04 132.56 C77.66 109.55, 101.25 86.42, 118.47 67.11 M59.04 134.7 C70.86 119.22, 83.46 105.21, 119.99 64.86 M61.2 135.37 C61.2 135.37, 61.2 135.37, 61.2 135.37 M61.2 135.37 C61.2 135.37, 61.2 135.37, 61.2 135.37 M62.17 132.87 C56.06 124.88, 44.11 115.66, 37.6 109.37 M64.75 133.03 C58.15 127.87, 51.11 121.12, 38.85 110.79 M66.71 129.96 C48.19 113.5, 29.1 98.83, 14.32 86.16 M67.11 128.48 C47.93 113.25, 28.73 96.42, 15.6 83.83 M68.09 125.41 C41 104.93, 16.71 81.04, 2.47 65.37 M68.88 125.91 C55.85 114.64, 42.45 102.8, 0.99 66.54 M71.44 124.86 C51.86 105.31, 29.31 85.89, 4.95 63.33 M72.47 122.34 C47.63 102.63, 21.36 79.36, 3.51 65.05 M72.64 119.77 C49.84 99.94, 29.24 80.7, 6.18 61.25 M74.92 120.08 C54.21 101.76, 33.07 84.61, 7.16 61.25 M75.74 117.05 C61.85 103.12, 46.01 91.18, 8.31 56.28 M77.7 117.47 C55.4 99.53, 34.39 79.98, 9 57.97 M80.39 114.56 C54.94 96.08, 32.16 74.4, 12.04 56.59 M79.51 114.6 C57.64 95.42, 35.29 77.14, 12.35 55.26 M83.32 110.74 C58.14 92.25, 36.92 72.08, 16.07 52.98 M82.01 112.03 C68.32 97.7, 53.8 85.69, 13.52 52.09 M85.72 108.1 C70.1 96.61, 51.79 82.47, 18.51 48.4 M84.65 108.48 C62.39 89.71, 40.8 70.7, 17.64 49.09 M86.74 106.81 C71.53 90.73, 54.86 78.27, 20.34 45.52 M88.41 105.59 C62.95 85.03, 38.16 63.53, 19.42 46.25 M90.86 100.31 C78.69 91.73, 62.99 80.6, 22.85 44.32 M90.63 101.62 C65.46 80.24, 40.05 58.1, 22.94 43.68 M93.4 100.78 C67.52 75.67, 43.79 56.33, 23.07 41.61 M92.75 98.16 C66.05 75.04, 38.43 53.49, 24.42 39.24 M95.9 94.8 C72.27 77.36, 49.78 56.14, 27.19 36.65 M95.1 95.86 C79.62 82.21, 63.71 68.36, 28 37.38 M99.57 92.83 C77.61 74.25, 57.58 57.11, 30.05 34.65 M98.71 93.15 C71.86 71.73, 48.5 48.49, 30.54 34.75 M100.74 88.83 C79.44 73.04, 58.59 55.68, 32.51 32.36 M100.03 89.95 C84 73.46, 66.03 58.73, 33.38 30.98 M104.32 85.79 C89.59 75.16, 72.39 62.64, 36.93 29.66 M102.78 86.41 C82.91 69.43, 64 53.63, 35.14 28.39 M107.92 83.97 C91.66 70.42, 74.72 56.24, 36.61 23.07 M107.45 85.24 C87.66 69.13, 69.01 52.02, 37.48 24.68 M108.36 79.82 C91.65 69.24, 78.37 52.03, 39.95 22.01 M110.06 81.86 C95.1 69.07, 82.54 56.68, 40.65 23.35 M113.54 77.48 C94.36 63.66, 76.26 46, 44.9 19.7 M111.48 78.02 C90.51 60.65, 66.79 39.28, 44.26 19.77 M112.95 75.74 C90.03 58.12, 68.04 36.07, 46.92 16.72 M114.2 75.88 C93.61 58.19, 72.86 40.05, 46.58 16.8 M117.79 72.24 C102.31 61.75, 88.22 48.76, 49.38 11.88 M117.83 72.45 C92.58 53.5, 69.16 33.28, 49.28 12.96 M118.47 69.03 C95.2 45.59, 67.74 26.66, 51.77 10.47 M118.93 70.23 C103.24 55.68, 86.74 41.02, 51.02 10.76 M123.98 68.14 C101.41 48.37, 82.39 32.04, 55.14 5.84 M121.77 66.99 C105.36 52.7, 90.28 40.12, 55.17 7.4 M100.75 45.46 C88.05 31.48, 72.2 19.09, 57.52 2.92 M101.45 44.77 C86.25 29.79, 69.02 14.25, 56.64 4.54 M83.97 21.35 C75.73 14.66, 66.66 5.91, 59.37 -0.17 M82.63 20.64 C77.08 16.95, 73.66 12.56, 59.63 0.97" stroke="#fab005" stroke-width="0.5" fill="none"></path><path d="M61.81 1.71 C82.75 27.86, 108.11 52.93, 121.27 66.86 M61.34 -0.02 C77.3 17.05, 93.3 35.74, 121.59 67.18 M120.12 67.04 C105.43 86.72, 88.44 104.98, 62.16 136.52 M120.94 68.71 C107.36 84.19, 93.76 98.34, 61.25 135.33 M62.33 135.14 C38.21 112, 17.39 84.39, 1.21 69.6 M60.29 136.17 C43.43 116.96, 25.38 97.94, -0.87 67.32 M-1.14 68.54 C19.15 42.73, 40.82 20.53, 61.61 -1.83 M-0.69 68.95 C15.81 50.72, 32.76 31.9, 61.6 0.41" stroke="#343a40" stroke-width="1" fill="none"></path></g></svg>