<svg width="150" height="150" viewBox="0 0 150 150" fill="none" xmlns="http://www.w3.org/2000/svg">
<g clip-path="url(#clip0_5_2)">
<path d="M150 0H0V150H150V0Z" fill="white"/>
<path d="M13.162 76.962C28.3369 58.2216 46.8492 42.3131 78.0958 11.5593M12.5362 78.895C25.5418 65.8569 37.932 51.4175 75.6762 10.6894M16.489 82.5193C34.7406 60.3963 51.9387 41.8299 76.8756 15.2319M15.5086 80.7796C30.8295 65.9246 44.2105 50.7313 78.0333 14.6714M17.2399 85.7764C41.9786 62.5805 61.367 40.0999 81.6001 16.0728M18.1681 84.3267C38.2031 64.3879 56.0271 44.1688 81.2351 16.3531M23.6749 87.6804C43.032 61.6527 66.5296 37.471 83.8842 20.5283M21.1823 87.2745C38.5577 70.2158 55.2345 52.1037 84.0198 21.0213M26.3657 90.1063C43.1571 68.3698 64.4332 47.9188 89.1302 24.4136M24.1964 89.1301C46.4841 67.5 67.7915 45.5026 87.5867 22.5676M28.1596 93.3924C38.735 80.1901 54.5774 65.7796 91.748 27.9027M27.9927 92.7255C44.5755 74.9517 60.4388 57.1585 89.8394 25.5058M31.789 96.0599C42.4062 81.7751 57.8001 67.0361 92.4885 29.3718M30.8712 95.3254C54.7756 70.0902 79.2744 43.4923 93.7922 29.1978M32.3105 100.052C54.1081 78.2281 72.5265 56.4916 94.5327 32.6385M32.8528 98.0026C53.5344 75.4736 75.2382 53.4568 95.6173 32.4356M33.9583 102.671C56.3295 80.7893 75.5198 58.8692 99.9977 33.0734M36.2111 102.458C53.0338 82.8479 71.6504 62.8125 99.2677 35.0838M38.3283 105.783C52.2829 88.4826 66.2793 76.3434 101.802 36.4562M39.2878 104.923C59.7296 82.0361 80.8179 59.681 100.311 36.8621M40.4559 107.677C61.0124 84.346 84.7394 62.8125 105.233 41.1727M41.1651 106.585C57.143 87.8447 75.113 69.259 104.795 40.9021M46.1712 108.402C61.0958 93.2377 77.4179 74.3814 107.288 41.6849M43.835 109.388C67.5204 84.317 92.3738 60.8312 106.829 42.9124M47.9443 112.558C69.6793 88.1057 90.6842 64.2816 109.916 45.4639M47.1725 112.171C60.0529 99.259 73.7363 85.4091 109.447 46.3048M51.4381 115.042C65.6326 100.535 84.0511 80.8376 111.866 49.3975M49.6755 115.941C63.578 100.197 77.2719 84.114 112.69 49.3782M53.9621 119.72C71.6921 99.1817 86.6689 81.3015 112.868 53.6018M52.4185 118.521C70.2633 99.2687 88.348 81.0889 115.037 53.5148M55.8498 120.908C69.8148 103.183 85.1253 87.1488 117.3 53.5341M55.078 121.305C75.9369 99.6263 97.2965 78.837 117.342 54.4426M59.0099 122.252C76.8234 102.4 99.6744 82.9059 118.969 57.1875M59.0516 124.137C80.0149 101.057 100.696 79.4652 119.563 57.6804M60.9498 126.669C76.4793 108.905 95.1376 92.0683 124.142 62.2133M60.7621 126.978C77.8664 107.726 96.118 88.0863 123.172 60.5895M65.8516 128.157C88.3167 104.72 111.408 80.0451 124.601 65.1417M65.2154 130.593C88.1707 104.555 111.366 79.8325 126.572 63.7693M66.0394 132.671C82.4241 118.956 95.4296 102.458 129.659 68.7178M66.7382 132.429C81.4854 117.274 96.7959 100.1 128.199 65.8763M69.7836 134.459C85.24 120.271 97.3486 105.677 130.869 71.8009M70.9517 135.019C83.0185 121.991 96.0762 106.469 132.319 69.201M74.4247 140.847C87.3051 122.339 103.512 103.666 134.071 72.7771M73.3609 138.025C89.8186 119.613 108.133 98.8241 135.489 72.6127" stroke="#FAB005" stroke-width="0.5" stroke-linecap="round"/>
<path d="M75.3007 11.279C96.5038 33.6147 119.031 59.7487 137.335 77.1456M73.121 10.2932C97.0775 35.48 121.743 61.5077 135.812 75.029M135.781 75.6185C115.235 95.3833 98.84 113.776 74.2786 141.244M137.116 75.4446C113.973 98.3795 90.2044 123.75 73.2357 140.799M73.6425 139.6C60.1572 128.747 49.1645 115.139 9.57425 76.3434M73.924 140.335C59.594 125.422 43.6473 110.577 10.2939 74.884M12.119 74.4587C35.3663 50.9053 57.8522 23.5535 75.6449 10.3125M10.8258 75.9278C33.8436 49.7551 58.4571 26.0277 74.7375 9.78091" stroke="black" stroke-linecap="round"/>
<path d="M40.7294 27.3073C77.64 32.9648 113.454 41.321 132.636 46.1698M39.5631 29.2077C70.0366 34.6606 100.231 39.5812 134.045 45.7504M40.6706 32.8898C75.6427 39.0783 112.19 45.7181 129.875 47.9734M38.4892 31.8133C67.9005 38.5581 95.5724 42.3058 132.151 48.5729M35.3758 35.8547C65.9131 40.8936 90.3064 45.6789 133.708 53.0819M37.8478 35.6569C72.5884 41.8598 110.072 48.8033 131.735 52.2105M38.8879 40.076C61.4164 42.7139 85.3358 46.3991 128.324 55.7296M36.3181 40.3628C65.8917 44.162 97.4892 50.6046 130.91 56.2138M34.9565 43.7366C69.4167 51.6669 103.646 55.747 129.523 59.5674M34.542 44.094C68.5341 49.5105 105.431 55.4393 129.832 60.5644M34.4903 44.8911C65.6638 54.54 98.973 57.4823 129.8 62.7954M35.2466 46.8198C56.576 51.0897 79.3371 54.4808 128.589 63.9527M32.5434 52.0657C67.1842 55.4004 99.3122 59.6552 127.986 65.5388M32.9721 50.9092C67.8473 56.7505 100.802 62.8031 127.279 67.1139M32.1464 53.5255C64.4395 58.8692 95.7331 63.922 124.556 72.7492M31.7802 54.6127C62.7677 60.1687 93.2243 65.1035 125.714 70.1427M30.5021 57.4927C59.3758 62.8404 86.9459 68.3305 124.385 75.2985M30.809 57.2642C56.4485 63.0056 80.2907 67.0664 125.236 74.8354M30.0291 63.9255C55.2394 66.5007 82.0919 71.233 123.312 76.1724M29.0278 62.2825C61.5712 68.3695 95.1467 73.812 123.257 77.9685M27.9708 66.1171C46.8241 68.0072 68.7829 71.8801 123.203 83.0099M28.5501 65.5531C59.5098 70.666 91.3312 75.2409 122.508 81.0468M28.4586 67.8401C53.5327 73.2547 80.2273 77.5475 121.088 86.9759M27.5599 69.6715C52.5624 73.5552 75.0742 77.2802 120.224 86.4715M26.494 75.0246C49.6825 77.9135 72.3146 82.076 118.542 90.5632M27.5172 73.1811C48.7226 77.245 70.069 80.5193 120.162 89.7511M26.2397 78.1592C56.3085 80.9024 86.9663 85.6676 118.799 91.245M25.7436 76.6242C52.5568 81.5159 77.6932 85.967 119.069 93.2391M23.9145 79.5823C46.3971 86.1444 69.5302 87.436 117.045 96.2485M25.2545 80.1878C58.049 86.582 91.5394 93.4823 116.527 96.4684M22.4674 84.2307C54.2039 88.4402 82.3244 94.0703 116.642 99.2136M22.2921 85.005C43.6992 88.2799 64.3925 92.8817 116.627 100.632M23.0108 89.1563C48.5967 93.1388 70.4771 97.3307 115.857 103.241M21.9984 89.0101C56.8222 96.1413 91.7793 100.939 115.245 103.937M21.7629 92.5928C48.5828 96.7469 70.213 99.7942 114.577 105.881M20.7338 92.7311C56.7994 98.5504 91.7185 105.078 114.907 108.586M19.6022 96.3436C45.8976 99.0474 70.1026 103.548 113.4 111.376M19.9697 96.1156C42.6273 100.298 64.8304 104.413 112.134 112.323M17.1958 97.4795C39.4277 102.404 58.824 107.924 112.213 116.418M17.4481 99.3568C39.9814 102.13 62.9345 105.574 111.595 116.522M18.4175 103.322C53.5328 107.94 90.192 117.74 110.578 117.135M18.6019 103.437C50.897 109.422 85.7136 113.679 109.978 119.729M14.3907 106.383C49.7955 110.874 80.1935 117.653 111.204 124.136M15.2079 106.489C48.7459 111.929 80.2652 117.269 108.961 124.08" stroke="#FAB005" stroke-width="0.5" stroke-linecap="round"/>
<path d="M133.247 42.6294C128.048 69.6679 116.001 97.8315 107.127 126.094M134.011 43.1663C125.371 73.1676 115.408 103.391 108 126.1M108.528 124.475C70.1873 118.352 33.5016 111.708 15.4403 107.024M108.293 125.65C82.6634 121.404 59.9319 116.218 15.8476 108.333M15.3972 110.041C20.8564 88.3386 26.8987 72.6983 39.808 24.7201M15.8195 107.397C20.6218 87.254 28.6115 66.8464 41.0987 24.6309M40.0983 24.0651C68.0247 29.3808 97.533 36.5433 135.917 41.8739M41.9347 24.3824C65.7819 30.3452 89.8366 32.9928 134.328 41.6023" stroke="black" stroke-linecap="round"/>
<path d="M100.2 22.8492C107.753 47.1203 117.639 64.7433 135.455 106.533M101.234 24.5409C112.263 50.6283 124.471 77.6513 136.257 106.576M96.0203 26.8707C106.016 49.2299 115.794 70.9107 133.785 107.227M95.9825 26.9194C109.584 56.4094 122.939 86.9275 130.856 108.023M94.0778 27.7925C101.954 47.84 112.379 72.0129 126.497 108.328M92.8728 26.7356C106.191 54.9046 117.29 83.2793 127.567 109.061M88.0036 27.3259C96.3368 47.2066 105.223 68.6286 124.208 110.441M89.96 28.053C99.6687 53.6777 110.301 78.6338 124.591 109.606M84.0181 27.4051C93.7601 50.997 102.378 69.4398 119.421 111.791M84.1492 28.9643C94.8701 56.4901 105.762 80.4135 118.825 111.578M80.578 30.5878C92.9148 60.2972 105.519 83.8521 116.397 113.058M80.6329 30.3168C89.8307 54.3428 100.114 78.3753 115.201 112.663M78.1073 31.469C86.0411 52.0461 93.1812 72.9888 112.785 114.269M76.2502 30.9399C90.2236 62.6671 101.692 93.4313 111.993 112.938M73.3078 32.3755C85.2325 63.0164 101.333 94.8577 109.173 114.889M72.6729 33.6557C81.5412 54.73 91.1355 77.2808 107.344 113.967M68.8155 34.8547C80.1538 58.059 90.9633 81.6056 101.767 115.739M68.196 33.3933C79.3439 58.264 89.6137 83.5717 103.299 116.297M64.1525 36.2717C77.505 65.9891 93.7819 99.158 97.5452 117.147M64.2427 35.469C79.1091 66.3715 92.3528 99.1939 99.2622 117.087M61.4291 36.9844C72.7249 66.4992 87.4381 101.034 93.96 119.432M59.1442 35.8686C74.8029 68.1461 89.0274 100.49 95.0278 118.051M56.2564 37.0549C66.2688 58.2389 74.3203 78.3651 90.3976 119.449M55.6342 37.7605C69.0054 65.8109 80.6471 92.8421 91.7432 117.766M51.361 38.8381C65.0338 66.2248 73.8161 91.7612 86.3462 119.269M52.088 37.9388C58.8587 57.4449 68.5763 76.1855 87.45 120.598M49.2675 40.9294C56.3669 57.5172 63.8824 78.4864 83.543 123.012M48.104 38.9056C59.1546 66.0759 71.0325 93.4544 82.8542 120.216M42.0319 41.5719C52.8919 62.524 60.8643 85.2977 78.5383 120.377M43.3638 41.5252C54.3636 66.373 64.1486 89.5462 78.1098 121.487M40.6211 41.9555C49.135 66.4622 60.2171 88.7626 75.5816 122.496M40.3835 42.0347C50.5484 66.8792 61.6758 91.2369 74.1075 123.42M35.2074 44.3158C50.2602 75.4883 62.6712 104.53 68.0522 124.572M35.8176 42.4878C49.1837 72.8794 61.7939 102.274 70.2081 123.319M33.5408 45.4056C43.0549 72.005 57.8407 100.068 68.5566 125.971M31.2361 44.0509C38.8939 60.5176 46.6544 77.2605 67.2088 125.178M28.4809 46.6877C34.2074 64.2674 42.4471 82.2225 63.7812 125.497M28.254 46.0051C36.4858 69.465 46.5122 91.9584 63.4114 126.393M23.4494 46.2851C31.6008 64.2552 41.0029 84.3213 58.1742 126.434M23.4534 47.3163C30.9321 66.6154 40.2327 85.9787 59.7734 127.822M18.4464 48.7974C29.1632 73.3207 40.0991 93.8142 52.9684 129.512M20.1833 48.6372C27.9368 65.2237 34.5191 80.3303 54.0184 128.397M17.1454 48.9566C29.4888 74.9018 39.5759 105.274 49.1753 128.452M15.1727 48.0689C23.8133 64.9012 30.7273 81.8107 50.5255 130.724M15.369 51.5849C25.6442 49.5177 39.8344 42.817 48.733 39.6924M13.9928 53.7909C21.8926 50.1182 31.4676 46.7176 46.8287 40.2043M15.8893 56.7907C39.8824 47.3066 62.497 36.5779 81.2153 28.8158M17.0631 57.757C40.2367 47.1813 64.8948 37.2518 82.7535 30.9097M19.4264 59.8937C51.2066 44.5288 84.7967 33.0447 106.023 27.0027M18.5892 60.3821C35.1836 53.5805 52.4795 46.6895 105.65 25.2138M18.338 63.0724C45.6843 53.9365 74.3253 42.1307 106.723 30.0332M20.1704 65.025C50.1693 51.3225 84.1309 37.8373 105.823 28.0514M22.4585 66.2408C51.5965 54.3849 79.1429 44.222 108.054 31.9794M21.0869 68.1204C47.8376 57.479 73.7145 45.9734 107.588 32.8426M23.4895 70.0996C42.9455 63.644 61.4956 54.6454 111.621 35.9172M22.1689 71.6517C49.3265 59.4521 77.3539 49.0567 109.735 35.8239M23.5703 75.2281C52.7259 60.4781 83.5597 49.4073 109.559 39.0739M23.9526 74.4364C52.0484 63.13 79.5433 51.0275 110.638 39.8987M25.6963 79.3934C54.7325 64.8854 83.4314 54.5622 110.968 44.121M25.131 77.7045C44.8604 71.591 62.8465 63.784 113.003 42.2442M26.9869 82.6024C45.0175 73.6109 66.772 63.3494 114.028 48.17M27.1462 81.5024C55.0499 69.6824 82.8557 58.5521 113.806 47.1175M27.6903 84.036C49.7568 77.3096 69.1816 67.7957 115.811 50.9765M28.0196 86.013C59.0973 72.117 90.7224 59.2011 115.576 49.8633M31.72 90.3611C45.425 83.2012 63.1619 73.9899 115.722 53.685M30.6219 89.6151C62.3174 76.3147 94.8278 63.1182 116.269 54.0298M30.0771 92.4034C65.5491 80.0249 94.6782 67.1466 118.115 55.003M32.8018 92.9177C66.8299 78.9915 99.8488 63.6037 119.657 57.1752M34.3989 97.086C61.729 83.5076 92.0007 72.5013 120.725 60.6893M33.8028 95.9416C53.7578 87.9694 74.102 79.7015 119.667 61.0999M34.4671 101.136C62.0527 89.5011 87.3918 78.969 121.207 64.038M34.5817 100.245C67.1141 85.4819 99.6622 74.5473 120.881 64.4281M37.5972 103.825C62.2966 91.6148 88.229 80.4518 122.146 67.1547M36.9029 102.735C59.7378 95.457 81.8742 85.7396 123.004 68.4934M38.6946 108.24C55.5085 99.6753 75.241 89.7195 122.53 72.1678M38.8564 106.626C63.9718 96.1686 87.5423 86.0672 124.553 71.118M38.6578 112.165C58.8921 103.465 80.031 94.4265 128.757 74.6196M37.7109 111.225C61.9862 100.477 86.6404 91.1478 126.859 74.718M42.2738 114.275C59.9846 103.946 82.1736 99.3878 128.144 78.0011M39.5837 114.926C58.4983 107.055 75.9012 101.132 126.575 78.0618M41.9639 119.808C63.8377 108.647 88.737 100.031 127.916 83.3192M42.4472 117.769C68.4459 106.505 99.4416 94.4773 128.156 82.7265M43.8489 120.01C71.0067 107.131 101.805 96.9099 129.701 86.3346M43.1245 121.053C69.2373 110.256 95.8411 99.5043 129.789 86.0019M44.7702 125.725C61.8123 116.442 80.4969 109.42 132.991 90.5091M44.5576 125.673C74.0511 111.294 103.844 99.0537 132.043 89.973M47.4054 127.655C80.0949 116.883 110.623 100.549 133.152 93.199M46.0801 127.563C66.9648 119.779 88.3367 111.327 133.242 92.4181M45.6017 132.878C74.5748 121.199 98.6862 111.221 135.815 98.0879M47.7143 131.408C68.7022 122.882 87.4804 114.818 134.363 97.4672M77.5716 121.825C96.5069 116.438 115.477 107.618 137.374 101.395M77.8743 122.728C98.922 115.554 121.453 106.824 136.299 99.9483M107.788 117.047C117.879 112.564 130.265 108.205 139.341 104.307M109.081 116.161C115.125 112.804 120.801 111.612 138.166 104.063" stroke="#FAB005" stroke-width="0.5" stroke-linecap="round"/>
<path d="M136.428 105.715C102.34 113.313 67.1434 125.254 48.0299 131.068M138.247 106.019C114.904 112.997 90.0488 119.338 47.5824 131.217M48.4118 129.98C37.2634 108.871 28.5199 86.3258 11.9569 50.0847M46.4813 130.01C38.6768 111.622 32.1082 93.7681 13.4877 49.7768M13.1484 50.8071C45.9752 39.1583 81.3516 32.2717 102.697 24.1535M13.1705 48.5824C38.9151 41.6992 65.0513 33.6887 105.79 23.267M104.794 22.5229C118.927 51.1088 129.074 79.4127 139.787 107.008M104.201 22.7492C113.15 44.8508 122.429 67.5936 137.727 106.069" stroke="#343A40" stroke-linecap="round"/>
</g>
<defs>
<clipPath id="clip0_5_2">
<rect width="150" height="150" fill="white"/>
</clipPath>
</defs>
</svg>
